<svg id="Layer_1" data-name="Layer 1" xmlns="http://www.w3.org/2000/svg" viewBox="0 0 193.75 99.35"><defs><style>.cls-1{fill:#333e48;}.cls-2{fill:#99a4ae;}.cls-3{fill:#007297;}</style></defs><title>Partners FORUM 2017 LOGO (Discovery Cafe) 161117_1152</title><path class="cls-1" d="M944.13,169.36a2.76,2.76,0,0,1-5.51,0,2.71,2.71,0,0,1,2.78-2.78A2.64,2.64,0,0,1,944.13,169.36Zm-5,31.37V176.24h4.45v24.48Z" transform="translate(-902.45 -166.33)"/><path class="cls-1" d="M948.61,196.17a11.66,11.66,0,0,0,5.87,1.77c3.24,0,4.76-1.62,4.76-3.64s-1.26-3.29-4.55-4.5c-4.4-1.57-6.48-4-6.48-6.93,0-3.95,3.19-7.18,8.45-7.18a12.21,12.21,0,0,1,6,1.52l-1.11,3.24a9.53,9.53,0,0,0-5-1.42c-2.63,0-4.1,1.52-4.1,3.34,0,2,1.47,2.93,4.65,4.15,4.25,1.62,6.42,3.74,6.42,7.39,0,4.3-3.34,7.33-9.16,7.33a14,14,0,0,1-6.88-1.67Z" transform="translate(-902.45 -166.33)"/><path class="cls-1" d="M985.1,199.82a16.4,16.4,0,0,1-7,1.42c-7.39,0-12.19-5-12.19-12.49s5.16-13,13.15-13A14.87,14.87,0,0,1,985.2,177l-1,3.44a10.32,10.32,0,0,0-5.16-1.16c-5.61,0-8.65,4.15-8.65,9.26,0,5.67,3.64,9.16,8.5,9.16a12.65,12.65,0,0,0,5.46-1.21Z" transform="translate(-902.45 -166.33)"/><path class="cls-1" d="M1010.53,188.28c0,9.06-6.27,13-12.19,13-6.63,0-11.74-4.86-11.74-12.6,0-8.19,5.36-13,12.14-13C1005.77,175.69,1010.53,180.8,1010.53,188.28Zm-19.43.25c0,5.36,3.08,9.41,7.44,9.41s7.44-4,7.44-9.51c0-4.15-2.07-9.41-7.33-9.41S991.1,183.88,991.1,188.54Z" transform="translate(-902.45 -166.33)"/><path class="cls-1" d="M1015.29,176.24l4.81,13.76a62.55,62.55,0,0,1,2,6.27h.15c.56-2,1.26-4,2.07-6.27l4.76-13.76h4.65l-9.61,24.48h-4.25l-9.31-24.48Z" transform="translate(-902.45 -166.33)"/><path class="cls-1" d="M1037.95,189.29c.1,6,3.95,8.5,8.4,8.5a16.1,16.1,0,0,0,6.78-1.26l.76,3.19a19.83,19.83,0,0,1-8.14,1.52c-7.54,0-12-5-12-12.34s4.35-13.2,11.48-13.2c8,0,10.12,7,10.12,11.53a16.74,16.74,0,0,1-.15,2.07Zm13.05-3.19c.05-2.83-1.16-7.23-6.17-7.23-4.5,0-6.48,4.15-6.83,7.23Z" transform="translate(-902.45 -166.33)"/><path class="cls-1" d="M1059.37,183.88c0-2.88-.05-5.36-.2-7.64h3.89l.15,4.81h.2c1.11-3.29,3.79-5.36,6.78-5.36a4.84,4.84,0,0,1,1.26.15V180a6.72,6.72,0,0,0-1.52-.15c-3.14,0-5.36,2.38-6,5.72a12.62,12.62,0,0,0-.2,2.07v13.05h-4.4Z" transform="translate(-902.45 -166.33)"/><path class="cls-1" d="M1078,176.24l5.36,14.47c.56,1.62,1.16,3.54,1.57,5h.1c.46-1.47,1-3.34,1.57-5.11l4.86-14.37h4.7l-6.68,17.45c-3.19,8.4-5.36,12.7-8.4,15.33a12.07,12.07,0,0,1-5.46,2.88l-1.11-3.74a11.75,11.75,0,0,0,3.89-2.18,13.49,13.49,0,0,0,3.74-5,3.18,3.18,0,0,0,.35-1.06,3.87,3.87,0,0,0-.3-1.16l-9.06-22.56Z" transform="translate(-902.45 -166.33)"/><path class="cls-1" d="M910,265.55l-.08-.67h0a2,2,0,0,1-1.62.79,1.51,1.51,0,0,1-1.62-1.52c0-1.28,1.14-2,3.19-2v-.11a1.09,1.09,0,0,0-1.21-1.23,2.65,2.65,0,0,0-1.38.39l-.22-.64a3.29,3.29,0,0,1,1.74-.47c1.62,0,2,1.11,2,2.17v2a7.47,7.47,0,0,0,.09,1.27Zm-.14-2.71c-1.05,0-2.25.16-2.25,1.19a.85.85,0,0,0,.91.92,1.32,1.32,0,0,0,1.28-.89,1,1,0,0,0,.05-.31Z" transform="translate(-902.45 -166.33)"/><path class="cls-1" d="M915.51,265.55l-1.87-7.39h1l.88,3.74c.22.92.42,1.84.55,2.55h0c.12-.73.35-1.61.6-2.56l1-3.73h1l.9,3.75c.21.88.41,1.75.51,2.53h0c.15-.81.36-1.63.59-2.55l1-3.73h1l-2.09,7.39h-1l-.93-3.85a22.23,22.23,0,0,1-.48-2.41h0a23.3,23.3,0,0,1-.57,2.41l-1.05,3.85Z" transform="translate(-902.45 -166.33)"/><path class="cls-1" d="M928,262.86a2.59,2.59,0,0,1-2.64,2.82,2.52,2.52,0,0,1-2.54-2.73,2.59,2.59,0,0,1,2.63-2.82A2.51,2.51,0,0,1,928,262.86Zm-4.21.05c0,1.16.67,2,1.61,2s1.61-.87,1.61-2.06c0-.9-.45-2-1.59-2S923.78,261.9,923.78,262.91Z" transform="translate(-902.45 -166.33)"/><path class="cls-1" d="M929.21,261.9c0-.62,0-1.16,0-1.66H930l0,1h0a1.59,1.59,0,0,1,1.47-1.16,1.07,1.07,0,0,1,.28,0v.91a1.39,1.39,0,0,0-.33,0,1.35,1.35,0,0,0-1.29,1.24,2.6,2.6,0,0,0,0,.45v2.83h-1Z" transform="translate(-902.45 -166.33)"/><path class="cls-1" d="M932.83,257.77h1v7.78h-1Z" transform="translate(-902.45 -166.33)"/><path class="cls-1" d="M940,257.77v6.41c0,.47,0,1,0,1.37h-.87l0-.92h0a2,2,0,0,1-1.81,1A2.42,2.42,0,0,1,935,263c0-1.77,1.09-2.85,2.38-2.85a1.77,1.77,0,0,1,1.6.81h0v-3.17Zm-1,4.64a1.71,1.71,0,0,0,0-.41,1.42,1.42,0,0,0-1.39-1.12c-1,0-1.59.88-1.59,2.05s.53,2,1.57,2a1.45,1.45,0,0,0,1.41-1.15,1.68,1.68,0,0,0,0-.42Z" transform="translate(-902.45 -166.33)"/><path class="cls-1" d="M950.18,262.31c-.06-1-.12-2.27-.11-3.19h0c-.25.87-.56,1.79-.93,2.81l-1.3,3.58h-.72l-1.2-3.52c-.35-1-.65-2-.85-2.87h0c0,.92-.08,2.16-.14,3.27l-.2,3.17h-.91l.52-7.39h1.22l1.26,3.57c.31.91.56,1.72.75,2.49h0c.19-.75.45-1.56.78-2.49l1.32-3.57h1.22l.46,7.39h-.93Z" transform="translate(-902.45 -166.33)"/><path class="cls-1" d="M953.34,263.08a1.7,1.7,0,0,0,1.82,1.84,3.5,3.5,0,0,0,1.47-.27l.16.69a4.31,4.31,0,0,1-1.77.33,2.46,2.46,0,0,1-2.61-2.68,2.58,2.58,0,0,1,2.49-2.86,2.25,2.25,0,0,1,2.19,2.5,3.53,3.53,0,0,1,0,.45Zm2.83-.69a1.37,1.37,0,0,0-1.34-1.57,1.6,1.6,0,0,0-1.48,1.57Z" transform="translate(-902.45 -166.33)"/><path class="cls-1" d="M962.88,257.77v6.41c0,.47,0,1,0,1.37h-.87l0-.92h0a2,2,0,0,1-1.81,1,2.42,2.42,0,0,1-2.27-2.7c0-1.77,1.09-2.85,2.38-2.85a1.77,1.77,0,0,1,1.6.81h0v-3.17Zm-1,4.64a1.71,1.71,0,0,0,0-.41,1.42,1.42,0,0,0-1.39-1.12c-1,0-1.59.88-1.59,2.05s.53,2,1.57,2a1.45,1.45,0,0,0,1.41-1.15,1.68,1.68,0,0,0,0-.42Z" transform="translate(-902.45 -166.33)"/><path class="cls-1" d="M965.55,258.76a.6.6,0,0,1-1.19,0,.59.59,0,0,1,.6-.6A.57.57,0,0,1,965.55,258.76Zm-1.07,6.8v-5.31h1v5.31Z" transform="translate(-902.45 -166.33)"/><path class="cls-1" d="M970.82,265.35a3.54,3.54,0,0,1-1.52.31,2.52,2.52,0,0,1-2.64-2.71,2.7,2.7,0,0,1,2.85-2.82,3.22,3.22,0,0,1,1.34.27l-.22.75a2.24,2.24,0,0,0-1.12-.25,2,2,0,0,0,0,4,2.74,2.74,0,0,0,1.18-.26Z" transform="translate(-902.45 -166.33)"/><path class="cls-1" d="M974.89,265.55l-.08-.67h0a2,2,0,0,1-1.62.79,1.51,1.51,0,0,1-1.62-1.52c0-1.28,1.14-2,3.19-2v-.11a1.09,1.09,0,0,0-1.21-1.23,2.65,2.65,0,0,0-1.38.39l-.22-.64a3.29,3.29,0,0,1,1.74-.47c1.62,0,2,1.11,2,2.17v2a7.47,7.47,0,0,0,.09,1.27Zm-.14-2.71c-1.05,0-2.25.16-2.25,1.19a.85.85,0,0,0,.91.92,1.32,1.32,0,0,0,1.28-.89,1,1,0,0,0,.05-.31Z" transform="translate(-902.45 -166.33)"/><path class="cls-1" d="M977.24,257.77h1v7.78h-1Z" transform="translate(-902.45 -166.33)"/><path class="cls-1" d="M983.13,258.16v7.39h-1v-7.39Z" transform="translate(-902.45 -166.33)"/><path class="cls-1" d="M984.88,261.68c0-.55,0-1,0-1.44h.85l.06.88h0a2,2,0,0,1,1.75-1c.73,0,1.87.44,1.87,2.26v3.17h-1v-3.06c0-.85-.32-1.57-1.23-1.57a1.41,1.41,0,0,0-1.36,1.44v3.19h-1Z" transform="translate(-902.45 -166.33)"/><path class="cls-1" d="M991,261.68c0-.55,0-1,0-1.44h.85l.06.88h0a2,2,0,0,1,1.75-1c.73,0,1.87.44,1.87,2.26v3.17h-1v-3.06c0-.85-.32-1.57-1.23-1.57a1.41,1.41,0,0,0-1.36,1.44v3.19h-1Z" transform="translate(-902.45 -166.33)"/><path class="cls-1" d="M1001.84,262.86a2.59,2.59,0,0,1-2.64,2.82,2.52,2.52,0,0,1-2.54-2.73,2.59,2.59,0,0,1,2.63-2.82A2.51,2.51,0,0,1,1001.84,262.86Zm-4.21.05c0,1.16.67,2,1.61,2s1.61-.87,1.61-2.06c0-.9-.45-2-1.59-2S997.63,261.9,997.63,262.91Z" transform="translate(-902.45 -166.33)"/><path class="cls-1" d="M1003.36,260.25l1,3a13.64,13.64,0,0,1,.43,1.36h0c.12-.44.28-.88.45-1.36l1-3h1l-2.08,5.31h-.92l-2-5.31Z" transform="translate(-902.45 -166.33)"/><path class="cls-1" d="M1011.15,265.55l-.08-.67h0a2,2,0,0,1-1.62.79,1.51,1.51,0,0,1-1.62-1.52c0-1.28,1.14-2,3.19-2v-.11a1.09,1.09,0,0,0-1.21-1.23,2.65,2.65,0,0,0-1.38.39l-.22-.64a3.29,3.29,0,0,1,1.74-.47c1.62,0,2,1.11,2,2.17v2a7.47,7.47,0,0,0,.09,1.27Zm-.14-2.71c-1.05,0-2.25.16-2.25,1.19a.85.85,0,0,0,.91.92,1.32,1.32,0,0,0,1.28-.89,1,1,0,0,0,.05-.31Z" transform="translate(-902.45 -166.33)"/><path class="cls-1" d="M1014.61,258.72v1.52H1016V261h-1.38v2.86c0,.66.19,1,.72,1a2.13,2.13,0,0,0,.56-.07l0,.72a2.38,2.38,0,0,1-.85.13,1.34,1.34,0,0,1-1-.41,2,2,0,0,1-.37-1.38V261h-.82v-.73h.82V259Z" transform="translate(-902.45 -166.33)"/><path class="cls-1" d="M1018.15,258.76a.6.6,0,0,1-1.19,0,.59.59,0,0,1,.6-.6A.57.57,0,0,1,1018.15,258.76Zm-1.07,6.8v-5.31h1v5.31Z" transform="translate(-902.45 -166.33)"/><path class="cls-1" d="M1024.44,262.86a2.59,2.59,0,0,1-2.64,2.82,2.52,2.52,0,0,1-2.54-2.73,2.59,2.59,0,0,1,2.63-2.82A2.51,2.51,0,0,1,1024.44,262.86Zm-4.21.05c0,1.16.67,2,1.61,2s1.61-.87,1.61-2.06c0-.9-.45-2-1.59-2S1020.23,261.9,1020.23,262.91Z" transform="translate(-902.45 -166.33)"/><path class="cls-1" d="M1025.66,261.68c0-.55,0-1,0-1.44h.85l.06.88h0a2,2,0,0,1,1.75-1c.73,0,1.87.44,1.87,2.26v3.17h-1v-3.06c0-.85-.32-1.57-1.23-1.57a1.41,1.41,0,0,0-1.36,1.44v3.19h-1Z" transform="translate(-902.45 -166.33)"/><path class="cls-1" d="M1034.1,258.16h4v.8h-3v2.46h2.79v.79h-2.79v3.34h-1Z" transform="translate(-902.45 -166.33)"/><path class="cls-1" d="M1043.87,262.86a2.59,2.59,0,0,1-2.64,2.82,2.52,2.52,0,0,1-2.54-2.73,2.59,2.59,0,0,1,2.63-2.82A2.51,2.51,0,0,1,1043.87,262.86Zm-4.21.05c0,1.16.67,2,1.61,2s1.61-.87,1.61-2.06c0-.9-.45-2-1.59-2S1039.66,261.9,1039.66,262.91Z" transform="translate(-902.45 -166.33)"/><path class="cls-1" d="M1045.08,261.9c0-.62,0-1.16,0-1.66h.84l0,1h0a1.59,1.59,0,0,1,1.47-1.16,1.07,1.07,0,0,1,.28,0v.91a1.39,1.39,0,0,0-.33,0,1.35,1.35,0,0,0-1.29,1.24,2.6,2.6,0,0,0,0,.45v2.83h-1Z" transform="translate(-902.45 -166.33)"/><path class="cls-1" d="M1053.11,264.1c0,.55,0,1,0,1.45h-.85l-.05-.87h0a2,2,0,0,1-1.75,1c-.83,0-1.83-.46-1.83-2.32v-3.1h1v2.94c0,1,.31,1.69,1.18,1.69a1.4,1.4,0,0,0,1.27-.88,1.43,1.43,0,0,0,.09-.49v-3.26h1Z" transform="translate(-902.45 -166.33)"/><path class="cls-1" d="M1054.7,261.68c0-.55,0-1,0-1.44h.84l0,.86h0a1.83,1.83,0,0,1,1.67-1,1.57,1.57,0,0,1,1.5,1.06h0a2.2,2.2,0,0,1,.59-.69,1.81,1.81,0,0,1,1.17-.37c.7,0,1.74.46,1.74,2.3v3.12h-.94v-3c0-1-.37-1.63-1.15-1.63a1.25,1.25,0,0,0-1.14.88,1.57,1.57,0,0,0-.08.48v3.28H1058v-3.18c0-.84-.37-1.46-1.11-1.46a1.32,1.32,0,0,0-1.19,1,1.35,1.35,0,0,0-.08.47v3.2h-.94Z" transform="translate(-902.45 -166.33)"/><path class="cls-1" d="M1070,262.09h-2.87v2.66h3.2v.8h-4.15v-7.39h4v.8h-3v2.33H1070Z" transform="translate(-902.45 -166.33)"/><path class="cls-1" d="M1071.86,260.25l1,3a13.64,13.64,0,0,1,.43,1.36h0c.12-.44.28-.88.45-1.36l1-3h1l-2.08,5.31h-.92l-2-5.31Z" transform="translate(-902.45 -166.33)"/><path class="cls-1" d="M1077.19,263.08a1.7,1.7,0,0,0,1.82,1.84,3.5,3.5,0,0,0,1.47-.27l.16.69a4.31,4.31,0,0,1-1.77.33,2.46,2.46,0,0,1-2.61-2.68,2.58,2.58,0,0,1,2.49-2.86,2.25,2.25,0,0,1,2.19,2.5,3.53,3.53,0,0,1,0,.45Zm2.83-.69a1.37,1.37,0,0,0-1.34-1.57,1.6,1.6,0,0,0-1.48,1.57Z" transform="translate(-902.45 -166.33)"/><path class="cls-1" d="M1082.14,261.68c0-.55,0-1,0-1.44h.85l.06.88h0a2,2,0,0,1,1.75-1c.73,0,1.87.44,1.87,2.26v3.17h-1v-3.06c0-.85-.32-1.57-1.23-1.57a1.41,1.41,0,0,0-1.36,1.44v3.19h-1Z" transform="translate(-902.45 -166.33)"/><path class="cls-1" d="M1089.34,258.72v1.52h1.38V261h-1.38v2.86c0,.66.19,1,.72,1a2.13,2.13,0,0,0,.56-.07l0,.72a2.38,2.38,0,0,1-.85.13,1.34,1.34,0,0,1-1-.41,2,2,0,0,1-.37-1.38V261h-.82v-.73h.82V259Z" transform="translate(-902.45 -166.33)"/><path class="cls-2" d="M1092.77,241.87a4.19,4.19,0,0,0-7.86.69H910.71a4.25,4.25,0,0,0-4.05-3.12,4.12,4.12,0,0,0-.46,0,4.2,4.2,0,1,0,4.41,5.61c0-.11.06-.23.1-.34h174.21a4.21,4.21,0,0,0,3.59,3.07,4.12,4.12,0,0,0,.46,0,4.19,4.19,0,0,0,3.8-6ZM908.3,245a2.12,2.12,0,1,1,.49-1.35A2.12,2.12,0,0,1,908.3,245Zm180.66.79a2.12,2.12,0,1,1,2.13-2.13A2.12,2.12,0,0,1,1089,245.79Z" transform="translate(-902.45 -166.33)"/><path class="cls-1" d="M906.65,167a63,63,0,0,1,9.36-.71c6.32,0,10.83,1.47,13.81,4.25s4.81,6.73,4.81,12.24-1.72,10.12-4.91,13.26S921.27,201,914.64,201a71.3,71.3,0,0,1-8-.4Zm4.4,30.15a27.77,27.77,0,0,0,4.45.25c9.41,0,14.52-5.26,14.52-14.47.05-8-4.5-13.15-13.81-13.15a25,25,0,0,0-5.16.45Z" transform="translate(-902.45 -166.33)"/><path class="cls-3" d="M941.58,225.46a7.47,7.47,0,0,1-3,.5c-4,0-6.07-2.49-6.07-5.79,0-4,2.82-6.15,6.33-6.15a6.84,6.84,0,0,1,2.85.52l-.53,2.08a5.67,5.67,0,0,0-2.2-.43,3.81,3.81,0,0,0,0,7.61,6.55,6.55,0,0,0,2.18-.38Z" transform="translate(-902.45 -166.33)"/><path class="cls-3" d="M966.82,222.81l-.83,3h-2.72l3.54-11.59h3.44l3.59,11.59H971l-.89-3Zm2.94-2L969,218.4c-.21-.69-.41-1.55-.58-2.23h0c-.17.69-.34,1.56-.53,2.23l-.69,2.46Z" transform="translate(-902.45 -166.33)"/><path class="cls-3" d="M996,214.2h7.08v2.15h-4.45V219h4.16v2.13h-4.16v4.66H996Z" transform="translate(-902.45 -166.33)"/><path class="cls-3" d="M1032.64,220.89h-4.26v2.75h4.76v2.15h-7.39V214.2h7.15v2.15h-4.52v2.41h4.26Zm-.31-9.42-2.11,2.11h-2.08l1.44-2.11Z" transform="translate(-902.45 -166.33)"/><path class="cls-3" d="M1055.66,223.09a6.69,6.69,0,0,0,2.9.72c1.2,0,1.84-.5,1.84-1.25s-.55-1.13-1.94-1.63c-1.93-.67-3.18-1.74-3.18-3.42,0-2,1.65-3.49,4.38-3.49a7.09,7.09,0,0,1,3,.58l-.58,2.11a5.49,5.49,0,0,0-2.42-.55c-1.13,0-1.68.52-1.68,1.12s.65,1.07,2.15,1.63c2,.76,3,1.82,3,3.46,0,1.94-1.5,3.59-4.68,3.59a7.55,7.55,0,0,1-3.28-.7Z" transform="translate(-902.45 -166.33)"/></svg>