<?xml version="1.0" encoding="UTF-8"?>
<svg width="325px" height="86px" viewBox="0 0 325 86" version="1.1" xmlns="http://www.w3.org/2000/svg" xmlns:xlink="http://www.w3.org/1999/xlink">
    <!-- Generator: Sketch 42 (36781) - http://www.bohemiancoding.com/sketch -->
    <title>Cantina-lockup-color copy</title>
    <desc>Created with Sketch.</desc>
    <defs>
        <polygon id="path-1" points="0.06 50.783 0.06 0.471 29.733 0.471 29.733 50.783 0.06 50.783"></polygon>
    </defs>
    <g id="Page-1" stroke="none" stroke-width="1" fill="none" fill-rule="evenodd">
        <g id="Cantina-lockup-color-copy">
            <g id="Group-3" transform="translate(0.000000, 18.000000)">
                <mask id="mask-2" fill="white">
                    <use xlink:href="#path-1"></use>
                </mask>
                <g id="Clip-2"></g>
                <path d="M15.847,41.184 C13.832,41.184 12.252,40.338 11.275,38.733 C10.334,37.236 9.871,35.114 9.856,32.248 L9.793,19.123 C9.78,16.259 10.225,14.13 11.153,12.612 C12.105,11.014 13.708,10.134 15.67,10.134 L29.153,10.062 L23.616,0.471 L14.236,0.547 C9.419,0.578 5.931,2.159 3.572,5.381 C1.173,8.653 -0.028,13.702 0,20.385 L0.051,30.927 L0.116,31.179 L0.053,31.246 L0.054,31.412 C0.13,37.925 1.378,42.849 3.765,46.045 C6.145,49.233 9.63,50.783 14.42,50.783 L14.481,50.783 L24.199,50.747 L29.733,41.161 L15.847,41.184" id="Fill-1" fill="#25A4C5" mask="url(#mask-2)"></path>
            </g>
            <path d="M66.145,10.28 L56.861,4.987 C51.797,2.091 47.344,0.623 43.623,0.623 C38.813,0.666 35.306,2.892 32.586,7.629 L27.811,16.049 L33.348,25.64 L40.218,13.599 C41.187,11.865 42.845,10.871 44.766,10.871 C46.563,10.871 48.525,11.512 50.939,12.888 L62.349,19.401 C66.087,21.541 67.922,23.782 67.957,26.247 C67.961,27.171 67.701,28.098 67.186,29.003 L60.425,40.821 L71.493,40.821 L76.211,32.529 C77.629,30.052 78.344,27.637 78.337,25.347 C78.319,19.963 74.218,14.894 66.145,10.28" id="Fill-4" fill="#55BED2"></path>
            <path d="M76.38,53.768 L71.573,45.527 L60.494,45.582 L67.389,57.377 C67.916,58.302 68.187,59.227 68.194,60.117 C68.17,62.613 66.353,64.875 62.64,67.033 L51.312,73.655 C48.924,75.051 46.921,75.734 45.193,75.742 C43.174,75.742 41.572,74.807 40.561,73.035 L33.81,61.415 L28.276,71.001 L33.003,79.109 C35.762,83.81 39.259,85.999 44.01,86 L44.011,86 C47.743,85.986 52.212,84.474 57.296,81.508 L66.531,76.118 C74.552,71.421 78.601,66.319 78.567,60.953 L78.569,60.816 C78.54,58.581 77.803,56.209 76.38,53.768" id="Fill-5" fill="#8DD0D9"></path>
            <path d="M117.888,50.996 C118.221,50.996 118.517,51.125 118.775,51.382 L121.185,53.998 C119.851,55.65 118.21,56.915 116.263,57.795 C114.314,58.674 111.976,59.113 109.248,59.113 C106.808,59.113 104.613,58.696 102.666,57.863 C100.717,57.029 99.054,55.869 97.675,54.384 C96.295,52.899 95.238,51.125 94.503,49.063 C93.768,47.002 93.4,44.751 93.4,42.31 C93.4,39.84 93.794,37.577 94.583,35.523 C95.371,33.469 96.481,31.7 97.914,30.214 C99.346,28.729 101.055,27.573 103.041,26.747 C105.027,25.921 107.224,25.508 109.634,25.508 C112.03,25.508 114.156,25.902 116.012,26.69 C117.869,27.478 119.449,28.509 120.753,29.782 L118.706,32.624 C118.585,32.806 118.43,32.965 118.24,33.102 C118.051,33.238 117.79,33.307 117.456,33.307 C117.229,33.307 116.994,33.242 116.752,33.113 C116.509,32.984 116.243,32.826 115.956,32.636 C115.668,32.446 115.333,32.238 114.955,32.011 C114.576,31.783 114.137,31.575 113.636,31.385 C113.136,31.196 112.557,31.037 111.897,30.908 C111.238,30.779 110.476,30.715 109.611,30.715 C108.142,30.715 106.796,30.976 105.576,31.499 C104.355,32.022 103.306,32.78 102.427,33.773 C101.548,34.765 100.866,35.978 100.381,37.41 C99.895,38.843 99.653,40.476 99.653,42.31 C99.653,44.16 99.914,45.805 100.437,47.244 C100.96,48.685 101.669,49.898 102.563,50.882 C103.458,51.868 104.511,52.622 105.724,53.145 C106.936,53.668 108.24,53.93 109.634,53.93 C110.468,53.93 111.223,53.883 111.897,53.793 C112.571,53.703 113.193,53.558 113.761,53.361 C114.33,53.165 114.868,52.911 115.375,52.599 C115.883,52.288 116.387,51.906 116.887,51.45 C117.039,51.314 117.198,51.204 117.365,51.122 C117.532,51.038 117.706,50.996 117.888,50.996" id="Fill-6" fill="#515251"></path>
            <path d="M137.738,46.335 L148.219,46.335 L144.218,35.399 C144.02,34.913 143.816,34.341 143.604,33.681 C143.392,33.023 143.179,32.306 142.967,31.533 C142.755,32.306 142.547,33.027 142.342,33.693 C142.137,34.36 141.936,34.944 141.74,35.444 L137.738,46.335 Z M159.02,58.75 L154.29,58.75 C153.76,58.75 153.328,58.617 152.994,58.352 C152.66,58.087 152.41,57.756 152.244,57.363 L149.788,50.655 L136.169,50.655 L133.714,57.363 C133.591,57.712 133.357,58.029 133.008,58.318 C132.66,58.606 132.227,58.75 131.712,58.75 L126.938,58.75 L139.875,25.871 L146.105,25.871 L159.02,58.75 L159.02,58.75 Z" id="Fill-7" fill="#515251"></path>
            <path d="M170.854,25.905 C171.043,25.928 171.21,25.974 171.354,26.042 C171.498,26.11 171.638,26.208 171.775,26.338 C171.911,26.467 172.062,26.637 172.229,26.849 L189.464,48.858 C189.418,48.328 189.38,47.806 189.35,47.29 C189.32,46.774 189.304,46.297 189.304,45.857 L189.304,25.871 L194.693,25.871 L194.693,58.75 L191.556,58.75 C191.071,58.75 190.664,58.671 190.339,58.51 C190.013,58.352 189.699,58.083 189.396,57.704 L172.229,35.807 C172.275,36.293 172.31,36.774 172.332,37.251 C172.354,37.729 172.365,38.164 172.365,38.559 L172.365,58.75 L166.977,58.75 L166.977,25.871 L170.183,25.871 C170.44,25.871 170.664,25.883 170.854,25.905" id="Fill-8" fill="#515251"></path>
            <polyline id="Fill-9" fill="#515251" points="229.063 25.871 229.063 30.896 219.149 30.896 219.149 58.75 213.032 58.75 213.032 30.896 203.12 30.896 203.12 25.871 229.063 25.871"></polyline>
            <polygon id="Fill-10" fill="#515251" points="238.839 58.75 244.978 58.75 244.978 25.871 238.839 25.871"></polygon>
            <path d="M260.748,25.905 C260.937,25.928 261.103,25.974 261.248,26.042 C261.392,26.11 261.532,26.208 261.668,26.338 C261.805,26.467 261.956,26.637 262.122,26.849 L279.358,48.858 C279.312,48.328 279.274,47.806 279.244,47.29 C279.214,46.774 279.198,46.297 279.198,45.857 L279.198,25.871 L284.586,25.871 L284.586,58.75 L281.45,58.75 C280.964,58.75 280.558,58.671 280.232,58.51 C279.907,58.352 279.593,58.083 279.29,57.704 L262.122,35.807 C262.168,36.293 262.203,36.774 262.225,37.251 C262.248,37.729 262.259,38.164 262.259,38.559 L262.259,58.75 L256.87,58.75 L256.87,25.871 L260.076,25.871 C260.333,25.871 260.557,25.883 260.748,25.905" id="Fill-11" fill="#515251"></path>
            <path d="M303.344,46.335 L313.826,46.335 L309.823,35.399 C309.626,34.913 309.422,34.341 309.211,33.681 C308.998,33.023 308.785,32.306 308.574,31.533 C308.361,32.306 308.154,33.027 307.949,33.693 C307.744,34.36 307.542,34.944 307.346,35.444 L303.344,46.335 Z M324.626,58.75 L319.896,58.75 C319.366,58.75 318.934,58.617 318.601,58.352 C318.267,58.087 318.017,57.756 317.85,57.363 L315.395,50.655 L301.775,50.655 L299.319,57.363 C299.198,57.712 298.964,58.029 298.614,58.318 C298.265,58.606 297.833,58.75 297.319,58.75 L292.543,58.75 L305.481,25.871 L311.71,25.871 L324.626,58.75 L324.626,58.75 Z" id="Fill-12" fill="#515251"></path>
        </g>
    </g>
</svg>