<svg id="BWH" xmlns="http://www.w3.org/2000/svg" viewBox="0 0 465.43 104.95"><defs><style>.cls-1{fill:#231f20;}.cls-2{fill:#c5202f;}.cls-3{fill:none;stroke-width:1.5px;}.cls-3,.cls-4,.cls-6{stroke:#010101;}.cls-4,.cls-6,.cls-7{fill:#010101;}.cls-4{stroke-width:0.31px;}.cls-5{fill:#fff;}.cls-6{stroke-width:0.31px;}</style></defs><title>HMS</title><path id="Harvard" class="cls-1" d="M413.53,13.43c-4.11,0-9.55.41-11.47.41-1.14,0-5.46-.15-6.77-.15v1.07c2.28.43,3.51,1.25,3.51,3.33V48.29c0,2.14-1.27,3.07-3.61,3.48v1.09c1.3,0,5.3-.18,6.49-.18,1.9,0,6.94.33,11.08.33,14.34,0,23.13-8.51,23.13-20,0-11.83-8.42-19.59-22.36-19.59Zm-169.82.1c-2.13,0-7.56.31-9.48.31-1.17,0-5.29-.15-6.6-.15v1.07c2.47.41,3.45,1.59,3.45,3.43v30c0,2.1-1.27,3.17-3.45,3.58v1.09c1.3,0,5.5-.18,6.54-.18,1.2,0,5.46.18,6.77.18V51.77c-2.34-.5-3.61-1.57-3.61-3.58V34.75c.67.07,1.22.16,1.82.25a8.8,8.8,0,0,1,6,3.58c2.15,2.71,6,8.21,8.13,10.8,2.47,3,5,4.12,8.2,4.12a24.21,24.21,0,0,0,4.62-.48v-.84c-2.5-.11-4.91-2.66-6.73-4.91s-6.54-8.76-8.2-10.7a11.91,11.91,0,0,0-2.7-2.36c6-1.46,9.86-5,9.86-10.19,0-6.61-5.24-10.49-14.59-10.49Zm123.37,0c-2.15,0-7.56.31-9.48.31-1.17,0-5.27-.15-6.59-.15v1.07c2.47.41,3.46,1.59,3.46,3.43v30c0,2.1-1.28,3.17-3.46,3.58v1.09c1.3,0,5.46-.18,6.51-.18,1.22,0,5.5.18,6.81.18V51.77c-2.36-.5-3.64-1.57-3.64-3.58V34.75c.67.07,1.24.16,1.82.25a8.8,8.8,0,0,1,6,3.58c2.15,2.71,5.85,8.21,8,10.8,2.46,3,5,4.12,8.18,4.12a24.28,24.28,0,0,0,4.65-.48v-.84c-2.52-.11-4.88-2.66-6.73-4.91s-6.41-8.76-8.07-10.7a11.91,11.91,0,0,0-2.7-2.36c6-1.46,9.86-5,9.86-10.19,0-6.61-5.24-10.49-14.59-10.49Zm-167.89,0A37.82,37.82,0,0,1,198,17.34L185.53,47.45a6.65,6.65,0,0,1-4.75,4.32v1l5.67-.08c.81,0,4.21.08,5.52.08v-1c-2.2-.59-2.78-1.45-2.78-2.52a8.51,8.51,0,0,1,.64-2.52l2.59-6.43h14.64l2.8,6.4a7.49,7.49,0,0,1,.73,2.67c0,.94-.6,1.92-2.52,2.39l0,1c1.46,0,5.69-.08,6.72-.08s5.45.08,6.88.08v-1C219,51.12,218,49.61,217,47.53L203.83,17.37a35.54,35.54,0,0,1-1.14-3.81Zm124,0A36.25,36.25,0,0,1,322,17.34L309.49,47.45a6.58,6.58,0,0,1-4.7,4.32l0,1,5.79-.08c.8,0,4.1.08,5.38.08v-1c-2.18-.59-2.75-1.45-2.75-2.52a7.76,7.76,0,0,1,.62-2.52l2.57-6.43h14.67l2.8,6.4a7.12,7.12,0,0,1,.72,2.67c0,.94-.59,1.92-2.5,2.39l0,1c1.43,0,5.69-.08,6.7-.08s5.46.08,6.9.08v-1c-2.63-.66-3.64-2.16-4.57-4.24L327.84,17.37a38.66,38.66,0,0,1-1.17-3.81h-3.5ZM133,13.68v1.07c1.92.5,3.12,1.34,3.12,3.33V48.44c0,2.08-1.29,2.92-3.12,3.33v1c.94,0,5.1-.08,6.1-.08,1.17,0,5.57.08,6.53.08v-1c-1.92-.5-3.2-1.25-3.2-3.33V34.09h22.65V48.44c0,2.08-1.27,2.92-3.11,3.33v1c1,0,5.26-.08,6.43-.08,1,0,5.24.08,6.2.08v-1c-1.93-.5-3.23-1.33-3.23-3.33V18.08c0-2.07,1.38-2.9,3.23-3.33V13.68c-1,0-5.21.15-6.2.15-1.17,0-5.47-.15-6.43-.15v1.07c1.92.43,3.11,1.26,3.11,3.33V30.76H142.41V18.08c0-2.07,1.37-2.9,3.2-3.33V13.68c-1,0-5.36.15-6.53.15C138.08,13.83,133.93,13.68,133,13.68Zm132,.08v1.09a6.14,6.14,0,0,1,4.41,3.79L284.77,53h3l14-33.14c1.32-3.1,2.78-4.41,5.16-5.06V13.76c-1.37,0-5,.18-5.92.18s-4-.18-5.3-.18v1.09c1.56.31,2.7,1.15,2.7,2.36a13.2,13.2,0,0,1-1.28,4.4l-9.53,23-10.1-22.95c-1.07-2.39-1.66-3.64-1.66-4.57,0-1.29,1.46-2,2.72-2.21V13.76c-1.41,0-5.58.18-6.55.18s-5.66-.18-7-.18ZM241.87,16c6.42,0,10,3.24,10,8.54,0,3.72-2.31,7.93-9.64,7.93a43.49,43.49,0,0,1-4.88-.23V16.43a29.38,29.38,0,0,1,4.55-.41Zm123.41,0c6.42,0,9.94,3.24,9.94,8.54,0,3.72-2.31,7.93-9.64,7.93a43.49,43.49,0,0,1-4.88-.23V16.43a29.61,29.61,0,0,1,4.59-.41Zm46.4,0C422.62,16,429,23.17,429,33.35c0,9.81-6.1,16.85-17.79,16.85a43.48,43.48,0,0,1-6.08-.41V16.43a47,47,0,0,1,6.52-.41ZM199.48,22.65l6.21,14.51h-12Zm124,0,6.2,14.51h-12Z"/><path id="Crimson-Fill" class="cls-2" d="M71.7,1.7H29.63l-.09,33.65c0,41.26,41.38,67.54,41.79,67.8l.13.08a1.12,1.12,0,0,0,.37-.19c7-4.59,42.1-29.47,42.1-67.48V1.77c-.09-.08-42.24-.07-42.24-.07"/><path id="Border" class="cls-3" d="M30.05,35.35V1.8h84s0,5,0,33.76C114,78.07,71.67,103,71.67,103S30.06,76.83,30.06,35.35h0Z"/><path id="Medical-School" class="cls-2" d="M305.85,70.63c-4.13,0-6.8,2.14-6.8,5.59,0,3.89,3.89,5.31,5.79,6.25,2.57,1.27,4.75,2.27,4.75,4.42s-1.69,3.38-4.34,3.38a6.75,6.75,0,0,1-3.63-1,4.84,4.84,0,0,1-1.85-2.77h-.55l0,4.22c1.5.19,3.19,1,6,1,4.73,0,7.33-2.37,7.33-5.69,0-3.51-3.06-4.95-5.85-6.18-2.31-1-4.78-2.29-4.78-4.6,0-1.63,1.14-3.18,3.84-3.18,2.39,0,4.6.85,5.33,3.28h.55l0-4.12C309.91,71.3,308.58,70.63,305.85,70.63Zm-71.59,0c-6.34,0-10.7,4.44-10.7,10.62,0,5.83,3.42,10.42,10.85,10.42,3.56,0,5.68-1.19,7.17-1l.23-4.5h-.57c-1,2.89-3.33,4-6.51,4-5.63,0-7.64-5-7.64-9,0-4.91,2.52-9,7.19-9a7,7,0,0,1,6.59,4h.59l-.18-4.5C239.3,71.77,237.38,70.65,234.26,70.65Zm94.33,0c-6.34,0-10.7,4.44-10.7,10.62,0,5.83,3.45,10.42,10.86,10.42,3.55,0,5.69-1.19,7.17-1l.21-4.5h-.57c-1,2.89-3.32,4-6.51,4-5.61,0-7.64-5-7.64-9,0-4.91,2.52-9,7.19-9a7,7,0,0,1,6.59,4h.59l-.21-4.5C333.61,71.77,331.71,70.65,328.58,70.65Zm50.12,0c-6.36,0-10.41,4.77-10.41,10.6s4,10.44,10.41,10.44a10,10,0,0,0,10.41-10.44C389.12,75.4,385.05,70.65,378.71,70.65Zm25.42,0c-6.36,0-10.39,4.77-10.39,10.6s4,10.44,10.39,10.44,10.39-4.64,10.39-10.44S410.47,70.65,404.13,70.65Zm-225.3.2a4.74,4.74,0,0,1-1.48.18H164.62v.59c1.27.21,1.8.82,1.8,1.78V88.85c0,1.08-.67,1.64-1.8,1.85v.56c.64,0,2.85-.11,3.46-.11h6.42a52.08,52.08,0,0,1,5.29.18l.56-4.19-.56-.13c-.64,1.53-1.38,2.59-4,2.59h-6.13V81.43h4.4a8.4,8.4,0,0,1,1.68.15,2.13,2.13,0,0,1,1.55,1.65h.56c0-.67-.06-2.15-.06-2.56s0-1.79.06-2.41h-.56a1.83,1.83,0,0,1-1.55,1.55,8.77,8.77,0,0,1-1.68.13h-4.4V72.64h5.39c2.5,0,3.19,1,3.66,2.31h.56l.07-4.09Zm16.26,0c-2.13,0-4.78.23-5.77.23-.59,0-2.83-.1-3.5-.1v.56c1.16.22,1.83.64,1.83,1.73V88.87c0,1.12-.66,1.59-1.88,1.81v.56c.67,0,2.73-.08,3.35-.08,1,0,3.44.18,5.57.18,7.38,0,11.89-4.41,11.89-10.34C206.57,74.88,202.25,70.88,195.09,70.88Zm58.84.05a16.21,16.21,0,0,1-.59,2l-6.44,15.55a3.45,3.45,0,0,1-2.44,2.24l0,.54,3-.06c.42,0,2.11.06,2.78.06l0-.54c-1.14-.3-1.43-.75-1.43-1.3a4,4,0,0,1,.34-1.29l1.32-3.33H258l1.46,3.3a3.63,3.63,0,0,1,.36,1.37c0,.5-.33,1-1.3,1.24l0,.54c.75,0,2.93-.06,3.45-.06s2.83.06,3.56.06l0-.54a3.28,3.28,0,0,1-2.36-2.19l-6.83-15.6a17.44,17.44,0,0,1-.6-2h-1.82Zm87.89.08v.56c1,.26,1.63.7,1.63,1.73V88.95c0,1.07-.68,1.51-1.63,1.73v.54l3.22-.06c.6,0,2.88.06,3.35.06v-.54c-1-.26-1.64-.66-1.64-1.73V81.56h11.58v7.39c0,1.07-.65,1.51-1.59,1.73v.54c.5,0,2.72-.06,3.33-.06l3.25.06v-.54c-1-.26-1.69-.69-1.69-1.73V73.3c0-1.07.72-1.51,1.69-1.73V71c-.49,0-2.75.1-3.25.1s-2.83-.1-3.33-.1v.56c1,.22,1.59.66,1.59,1.73v6.56H346.75V73.3c0-1.07.7-1.51,1.64-1.73V71c-.47,0-2.75.1-3.35.1S342.31,71,341.82,71ZM211.36,71v.56c1.2.26,1.82.81,1.82,1.86v15.4c0,1.08-.59,1.63-1.82,1.85v.56c.67,0,3-.11,3.53-.11s2.78.11,3.46.11V90.7c-1.24-.25-1.84-.82-1.84-1.85V73.45c0-1.09.63-1.6,1.84-1.86V71c-.68,0-2.93.08-3.46.08S212,71,211.36,71Zm58,0v.56c1.2.27,1.82.81,1.82,1.86v15.4c0,1.08-.6,1.63-1.82,1.85v.56c.67,0,3-.11,3.51-.11h6.49a52.08,52.08,0,0,1,5.29.18l.55-4.19-.55-.13c-.65,1.53-1.41,2.59-4,2.59h-6.13V73.45c0-1.09.63-1.58,1.84-1.86V71c-.67,0-2.91.08-3.46.08S270,71,269.35,71Zm149.87,0v.56c1.22.27,1.84.81,1.84,1.86v15.4c0,1.08-.59,1.63-1.84,1.85v.56c.7,0,3-.11,3.56-.11h6.47a51.76,51.76,0,0,1,5.27.18l.55-4.19-.55-.13c-.65,1.53-1.4,2.59-4,2.59h-6.12V73.45c0-1.09.62-1.58,1.82-1.86V71c-.68,0-2.91.08-3.45.08S419.89,71,419.22,71Zm-284.64,0v.56c1.19.2,1.76.81,1.68,1.78l-1.15,15a2.45,2.45,0,0,1-2,2.33v.51l2.88,0c.41,0,2.15,0,2.81,0v-.51c-1.35-.37-1.72-1.15-1.68-2.06L138,75.36l6.89,15.93H146l7-16,.87,13.39c0,.91-.31,1.68-1.66,2.06v.51l3.49,0,3.48,0v-.51a2.37,2.37,0,0,1-2-2.33l-1.07-15c-.08-1,.39-1.52,1.59-1.78v-.56c-.81,0-2.15.05-2.64.05s-1.44-.05-2.11-.05l-6.68,15.53-6.64-15.53c-.63,0-1.72.05-2.18.05S135.37,71.06,134.58,71.06Zm244.11,1.07c4.75,0,6.83,4.43,6.83,9.12s-2.08,9-6.83,9-6.86-4.29-6.86-9S374,72.13,378.69,72.13Zm25.42,0c4.73,0,6.83,4.43,6.83,9.12s-2.1,9-6.83,9-6.85-4.29-6.85-9S399.38,72.13,404.11,72.13Zm-210,.1c5.66,0,9,3.68,9,8.92s-3.16,8.72-9.17,8.72a22.32,22.32,0,0,1-3-.2V72.43A22.81,22.81,0,0,1,194.1,72.23Zm60,3.38,3.22,7.5H251.1Z"/><path id="Lion-Rampant-Black" class="cls-4" d="M88.66,84.3l0,0h.06c-.27-.23-.61-.67-.8-.83-.33-1.48,2-2.47.83-4.06-.27-.94-.06-2.14-1-2.87a24.35,24.35,0,0,0-2.31-1.14c0-.39.5-.27.77-.39,1.21-.33,2.31,1.16,3.19.06.11-.83-.66-1.54-1.2-2.08-1.81-1.27-4.57-.77-5.94-2.7l.17-.16a5.8,5.8,0,0,0,5-1.1,5.64,5.64,0,0,1,2.74-2.31c1.22-.93,1.37-2.47,1.37-4a2.57,2.57,0,0,1,.77-1.58c.66-.61,2.36-.39,2-1.66a5.32,5.32,0,0,0-3-.81c-.5-.27.11-.66.27-.88,1.76-1.16,4.51-1.87,4.4-4.44-.17-.28-.11-.72-.56-.77-.77.1-1.2.83-1.92,1.15-1.66.93-3.74.76-5.33,1.76-.34,0-.23-.44-.11-.56.6-.83,1.81-.87,2.26-1.91.33-.83.49-1.93,1.42-2.26.55-.44,1.44-.44,1.77-1.1-.06-.39-.5-.6-.83-.71-1.6-.5-3.13.44-4.23,1.53a9.54,9.54,0,0,0-3.36,1.88.36.36,0,0,1-.44-.34c-.22-2.18,1.77-3.78,3.18-5.1,1.06-.29,1.93-1.54,3.14-1a3.31,3.31,0,0,0,2.68.56c1.21-.44,1.49-1.81,2.59-2.47.83-.27,2,.93,2.47-.23.27-1.2-.71-1.92-1.26-2.8A4.44,4.44,0,0,0,96.24,36,3,3,0,0,0,94,35.6c-.6.77.56,1.27.61,2,.27,3.14-3.14,3.85-5.17,5.17-3.84,1.93-8.51,4.89-8.78,9.82a10.37,10.37,0,0,0,3.07,7.1c1,1.7,2.58,3.28,2,5.44-.37.87-1.41,1-2.24,1-3.3-.23-5.11-3.9-6.48-6.42a10,10,0,0,1-1.1-3.09c.17-.16.33-.1.5,0,.6.56.54,1.87,1.59,1.72.83-1.16.23-2.53-.22-3.69-.6-1-1.87-1.6-2.37-2.7-.06-.81,1.16-.33,1.22-1.14a10.05,10.05,0,0,1-.33-4.24c.21-.6,1.1-.54,1.1-1.32A13.4,13.4,0,0,1,77,41c.16-.88.87-1.81.38-2.74-1-.29-.17-1.48-1.1-1.77-1.87,0-3.24-1-4.84-1.59-.81-.21-1.43.27-2.08.44-1,.22-2.14.22-2.86,1-.5.6-.39,1.26-.39,2.08-.16.5-.6.06-.82,0a1.77,1.77,0,0,1-.83-2.08,1,1,0,0,0-.39-1,2.09,2.09,0,0,0-1.81-.27c-.77.27-1,1.14-1.31,1.82a2.8,2.8,0,0,0,.33,1.64c1.1,1.16,2.63,1.58,3.84,2.59A2.13,2.13,0,0,1,64.49,43c-.06.6.83.6.71,1.14a2.66,2.66,0,0,1-2.41-.49c-.44-.39-.56-1.21-1.27-1.33s-.77.89-1,1.33-.06,1.32-.49,1.7l-.5-.06a22.71,22.71,0,0,1-6.27-3.46,17.37,17.37,0,0,1-2.86-3.36c-.43-1.37-.66-3.3-2.42-3.73-.38,0-.87.1-.93.54l-.11.56c-.87,0-1.75-.61-2.68-.28a3.73,3.73,0,0,0-1.16,1c-.06,1,1.16.61,1.32,1.39a3.46,3.46,0,0,0,.89,1.8c-.23.38-.66.61-.89,1l-.54,1.37c.22.44.49,1,1,1,.77-.33,1.43.21,2.26.11.49,0,1.31-.38,1.37.43a3.57,3.57,0,0,1-.06,1.87,6.84,6.84,0,0,1-2.7,2.31.91.91,0,0,0-.22,1c.39.54,1.26.33,1.87.27,1.16-.06,2-.71,3.13-.83a3.31,3.31,0,0,0,1.26,1.48c.88.23,1.1-1,2-.66.71.56.5,1.6,1.16,2.26,0,.38-.33.38-.56.54-.93.33-2.24,0-3,.77a.94.94,0,0,0,.6,1,9.12,9.12,0,0,0,2.86.71,22.13,22.13,0,0,1,2.63,0l-.27.44-2.69,1.81a37.84,37.84,0,0,0-3.63,1.37c-1.7.44-2.41-1.7-4-1.59a2.17,2.17,0,0,0-1.54.6,1.61,1.61,0,0,0-.33,1.48c.23.49.94.27.94.81C46,61,44.65,62.08,44.55,63.68a.93.93,0,0,0,.49,1,.85.85,0,0,0,.94-.17c.33-.33.33-.83.87-.93A2.91,2.91,0,0,0,49.44,63a.63.63,0,0,1,.66.55c0,.39,0,.83.39,1,1.37.06,2-1.37,2.64-2.36.6-.11,1.26-.56,1.86-.17.23.94-.54,1.6-.7,2.47a.78.78,0,0,0,.6.5c1.64-.21,2.58-1.76,3.57-3,.15-.33.33-.77.83-.77,1.26.39,1.59-1.14,2.36-1.7H62c.12.38-.16.65,0,1,.54.6,1.16-.06,1.7-.16l1.16-.71c1.37.43,2.8.76,4.23,1.1,1.15.43,0,1.65.71,2.36-.16.38-.65.5-1.15.5-2.41.33-5.21-.33-7.14,1.48L60.3,66.3c-1.8.06-2.74,1.6-4.38,1.87-1.1.77-2.8-.33-3.51.93.54,1.15,1.92,1.54,3.13,1.87.5.23,1.31-.06,1.58.5.06.54.17,1.2.83,1.43.5.16.77-.56,1.21-.17.6.83,1.48,1.21,2,2-.39.71-1.32.27-2,.27l-.11-.06c-1,.11-2.26.6-3-.33-1.06-.77-1.87-2-3.36-2-.83.21-1.7.54-1.87,1.47-.1.56.44.77.66,1.1-1,.67-2,1.7-1.7,3,.12.27.22.6.6.6s.88-.44,1.37-.17c.11.83-.1,2.1.89,2.49.77-.11,1.33-.94,2.14-.33.83.39,1.48-.38,2.2-.61,1.16,0,1.59,1.1,2,1.93.72.54,1.71,1.43,2.7.89.66-.95-.6-2.15.66-2.76.77-.22,1.43.06,2.2-.12,1.2.12,2.69.23,3.36-1.08l1.09-1.87L69.16,76c.71-.21,1.76.93,2.09-.16a7,7,0,0,1-.33-3.41,4.56,4.56,0,0,1,1.15-2.14l.27.11a19.87,19.87,0,0,0,1,4c-.11,1.26-.77,2.35-.93,3.61a4.61,4.61,0,0,1-2.47,3,.83.83,0,0,0-.33,1c.33.61,1.14.27,1.76.39a7.33,7.33,0,0,0,4.44-2.3c1.21.33,1.82-1.16,2.91-.5,1.16.88,3.24-.66,3.69,1.21-.17.87.66,2.47-.77,2.85-1.43-.23-3.07-2.1-4.5-.44a1,1,0,0,0-.34,1.21c.23.39.5.87.11,1.2-.38.66-.93,1.49-.6,2.32a1.13,1.13,0,0,0,1.32.39c.83-.33,1.6.37,2.41.42a3.61,3.61,0,0,0,2.37,1.15c.39-.21.33-.71.6-1,.6-.5,1.87-.38,1.87-1.48a3.27,3.27,0,0,1,1.59-2,3.33,3.33,0,0,0,2.2-1.12Z"/><path id="Lion-Rampant-White" class="cls-5" d="M63,35.79c-.54.1-.71.7-.82,1.19A1.7,1.7,0,0,0,63,38.62a39.39,39.39,0,0,1,4,2.65h.46c-.73-1.49-2.51-1.85-3.66-3.11a2.31,2.31,0,0,1-.27-2A.42.42,0,0,0,63,35.79Zm7.86,0c-1,.71-2.45.29-3.38,1-.55.49.35,1.11-.36,1.55a1,1,0,0,0,.27.91c.93.83,2.12,1.8,1.74,3.11-.66,1.64-1.63-.31-2.56-.37a.69.69,0,0,0-.55.73c.1.22.34.18.55.18s.51.31.46.64a1.75,1.75,0,0,1-1.37,1.55,3.4,3.4,0,0,1-2.83-.27c-.49-.16-.67-.88-1.28-.82-.77.76-.08,1.75.09,2.56-1.87,1.87-3.37,4.39-5.67,5.76a7.07,7.07,0,0,0-1.83.91,1.54,1.54,0,0,0,.91.27,11.76,11.76,0,0,0,5.67-1.37c.66-.33,1.07-1,1.83-1.19.88.39.07,1.32.46,1.92.5.16.68-.33,1-.55s.65-.3.82.09a8.82,8.82,0,0,1-.55,6c.43.11.49-.35.82-.46,1.37-2,3-3.86,3.38-6.22,1.15-.54,1.11,1.22,1.83,1.65.6-.43.62-1.45.73-2.1.16-.22.38-.16.55,0A6.89,6.89,0,0,0,73.94,54c.67.21,1.3.7,2,.64-.06-.93-1.05-1.11-1.55-1.83a5.25,5.25,0,0,1-.64-2.1c.17-.5.77-.48,1.1-.64a13,13,0,0,1,0-2.1c.1-.88-.55-2.67.82-3.11l.09-2.19c-.06-.33-.55-.49-.55-.82,0-.61.56-.74.73-1.19A9.49,9.49,0,0,0,76.32,39a.43.43,0,0,0-.36-.37c-.67-.06-.52-.77-.73-1.1C73.68,37.14,72.53,35.83,70.83,35.79Zm-22.58.37c-.1.06-.17.26-.18.55a1,1,0,0,0,.37,1c.16.12.42.3.64.09a1.08,1.08,0,0,0,0-.73C49.08,36.74,48.56,36,48.26,36.16Zm-2.83.46c-.33.33.11,1.05,0,1.55.11.83,1.11.5,1.55,1.1.66,1.1-.9,1.15-1.28,1.83s.64.48.91,1.1c.66.33,1.08-.42,1.74-.37a2.49,2.49,0,0,1,1.28,1.74c.66,1.6-.65,2.91-1.37,4.11,1.1.17,1.9-.89,2.83-1.28.83.21.08,1.2.64,1.64s1-.33,1.55-.27c1.7.06,1.58,2,2.56,2.92a.84.84,0,0,0,.64.09c1-.89,1.71-2,2.65-3,.33-.33.66-.75.55-1.19A20.69,20.69,0,0,1,52,42.1a12.31,12.31,0,0,0-3.66-3.47C47.58,37.81,46.75,36.51,45.42,36.61Zm25,.27a.89.89,0,0,1,.46.18,6.57,6.57,0,0,1,1.55,1.37.59.59,0,0,1-.55.73,2.2,2.2,0,0,1-1.83-.55c-.5-.37-.19-1-.09-1.46A.78.78,0,0,1,70.47,36.89Zm25.32.55a1.19,1.19,0,0,0-.09.73c-.17,2.7-2.85,4.11-4.94,5.21-3.78,1.81-8.52,4.38-9,9-.48,4.94,5.84,7.43,5.12,12.43-.17,1-1.11,1.69-1.83,2.29-2.63.77-5.2-.87-6.86-3a20.61,20.61,0,0,1-4-8.68c-.56-.66-1.46-.87-2-1.65-1.2-.6-1.14,1.28-2.29,1.28-.61.06-.41-.76-1-.64l-1.46,2.1c-.37.77-1.36,1.32-1.46,2.19.43.83,1.73.46,2.56.73,1.25.23,2.06,1.32,3.11,1.92A7.09,7.09,0,0,1,73.76,68c-.56,2.16.26,4.16.91,6,.34.81-.2,1.58-.64,2.19a13.9,13.9,0,0,1-1.1,3.38c-.16.44-.58.89-.37,1.28,1.6-.28,2.54-1.79,3.2-3.11.33-.38.74,0,1,.27s.46-.22.73-.27.63.06.91.27c.72.72,1.85.37,2.83.64a2.71,2.71,0,0,1,2.38,1.83c-.16.81.28,1.61.18,2.56-.65,2-3,2.25-4.84,2.46-.34.23-.87.41-.82.92s.53.51.91.72c.83.45,1.15-.7,1.92-.54.6.23.11.81.46,1.19.49.11.81-.13,1.37-.09a1.39,1.39,0,0,0,1.1-1.37c.28-.81,1.35-1,1.74-1.83.33-.21.86.09,1.19-.18a2.81,2.81,0,0,1,.64-3.2,2.74,2.74,0,0,0-.37-2.1V77.75c-.39-1-1.55-.89-2.38-1.28-.83-.66-2.13-1.07-2.29-2.29.06-.16.19-.42.37-.36a6.84,6.84,0,0,0,3.47.09c.33.06.82.2.82-.18a1,1,0,0,0-.55-.46c-1.76-.56-3.64-.59-5-1.92C81,70.42,80.09,69.78,80,68.7c.94-1,1.82.48,2.92.37a4.27,4.27,0,0,0,4-1.37c.54-.49.45-1.41,1.28-1.65,2.84-.5,1.14-3.81,2.83-5.3.23-.5,1.22-.5,1-1.1a10,10,0,0,0-2.56.46.74.74,0,0,1-.46-.55,6.62,6.62,0,0,1,4.11-3.93c.21-.06.56-.38.46-.55-2.14.11-4.35.35-5.76,2.1-.34.22-.8.69-1.19.37A1.91,1.91,0,0,1,86.37,56,4.1,4.1,0,0,1,88,53.52c1-.33,1.5-1.45,1.83-2.38-.06-.23-.25-.09-.37-.09a11.71,11.71,0,0,1-2.29,1c-1.32.28-1.74,1.58-2.29,2.56a.81.81,0,0,1-.73,0,3.81,3.81,0,0,1-.64-3.56c.73-3.18,3.61-5,6.31-6.31,1-.44,1.77.47,2.65.64,2.09.06,2.4-2.68,4.48-2.74.06-.49-.59-.65-.82-1.1-.21-.82.63-1.32.46-2.19C96.56,38.64,96.56,37.71,95.79,37.44ZM74.86,39.08a.5.5,0,0,1,.73.27,1.94,1.94,0,0,1-.46,1.19.4.4,0,0,1-.64-.18A1.45,1.45,0,0,1,74.86,39.08ZM71.57,43a.55.55,0,0,1,.55.27L72,44.2c-.94,1-.95,2.69-2.38,3.29a.6.6,0,0,1-.73-.55,5,5,0,0,1,0-2c.61-.33.78.92,1.28.37A8.64,8.64,0,0,1,71.57,43Zm-10,10.06a2.62,2.62,0,0,0-.91.18c-2.14,2.08-4.37,4.17-7.13,5.21-1.76.33-3.09,1.44-4.84,1.83-.87.5-2.26.65-2.38,1.92a3.27,3.27,0,0,0,1.46.37c.72,0,.84-.74,1.28-1.19.27-.27.6-.08.82.09.21.66.87.78,1.37,1,.49-.06.62-.53.73-.91.44-.83,1.47-.88,2.29-.82a2.57,2.57,0,0,1,1.28-.37c1,.22.45,1.5.55,2.19.17.17.47,0,.64-.09a9.47,9.47,0,0,0,1.65-2.83c.21-.22.49-.71.91-.55,1,1.33,1.18-.7,2-.91.6-.27,1.47.19,2-.36a9,9,0,0,0,.73-3.47c-.27-.83-1-.07-1.65-.18S61.81,53.49,61.6,53.07ZM47.16,57.82a.65.65,0,0,0-.18.27c.06.5-.14,1,.18,1.37a2.16,2.16,0,0,0,1.92-.27c0-.66-.81-.8-1.19-1.19C47.69,57.87,47.38,57.7,47.16,57.82Zm24.13,6.4L68.55,65c-2.74.11-6,0-7.59,2.56l-1.55.18a13.83,13.83,0,0,1-3.2,1.46c-.33.22-.89.12-1,.55.71.56,1.73.18,2.56.18.43.16.53.71.64,1.1.44.21.75-.34,1.19-.18a1.12,1.12,0,0,1,.55.64c.22,1.43,2,1.73,2.56,2.93a1.43,1.43,0,0,1-.18,1.46c-.44.6-1.3.42-2,.37-1.32,0-2.44-.35-3.66.09-1.87.33-3.7-.86-5.3.18a.47.47,0,0,0-.09.55l1.92.82c.27.33-.15.77-.09,1.1l1,.27c.71.6,1.4-.13,2-.46.71-.5,1.32.15,1.92.37.38.23.92-.08,1.19.37s.16,1.49.91,1.37a4,4,0,0,1,1-1.46c1.31-1.15,3-.41,4.66-.64,1.1-.1.81-1.39,1.65-1.83.54-.93-.43-1.48-.91-2.19-.38-.87.22-1.89.82-2.56,1.15-.21,1,1.26,1.46,1.92.17.16.46.5.73.27.05-.87.09-1.72.09-2.65A7.36,7.36,0,0,1,72,68.42a4,4,0,0,0,.55-2.1C72.41,65.55,72.22,64.44,71.29,64.22ZM53.56,74a1.12,1.12,0,0,0-.64.09,1.49,1.49,0,0,0,.46,1.19c.55.06,1.16.24,1.64-.09A2.29,2.29,0,0,0,53.56,74ZM79,83.87a.43.43,0,0,0-.18.28c.1.11.13.24.37.18s.5.11.46-.18S79.17,83.75,79,83.87Z"/><path id="Black-Stripe" class="cls-4" d="M30.1,26.2H114V32H30.1V26.2h0Z"/><path id="White-Rectangles" class="cls-5" d="M92.46,27.23H102v3.71H92.46Zm-20.71,0h9.51v3.71H71.75Zm-20.87,0h9.53v3.71H50.88Zm-19.78,0h8.65v3.71H31.1V27.23Z"/><path id="Book-1-Black" class="cls-6" d="M43.84,5.92c2.79-1.2,5.92-.34,9-.52.79.17,2-.4,2.5.46,0,.9,0,1.76.06,2.67.28.63,1.2.11,1.7.46.29.17.63.33.69.67a1.42,1.42,0,0,1-.17,1.26c-.57.63-1.3.4-2,.57l-.23.34c.11,1.64-.34,3.13,0,4.71-.06.34-.17.8.23,1a3.05,3.05,0,0,1,2.15.52,1.85,1.85,0,0,1,.12,1.36c-.34,1.71-3-.23-2.67,1.77A7,7,0,0,1,55,23.65c-3.07,0-6.2-.23-9.1-.06a3.28,3.28,0,0,1-1.93.8,4.19,4.19,0,0,1-1.6-.8c-2.79-.12-5.51-.12-8.19-.17-.86-.74-.23-1.93-.51-3-.46-.52-1.14-.12-1.64-.4-.4-.06-.52-.46-.74-.74a1.79,1.79,0,0,1,.46-1.53,3.16,3.16,0,0,1,1.64-.34l.29-.29c-.17-1.87.29-3.64-.11-5.63-.29-.4-.8-.06-1.14-.34-.51-.11-1-.29-1.18-.86S31,9.37,31.5,9c.63-.69,1.7.11,2.27-.57L34,5.69c.46-.8,1.53-.4,2.33-.4a20.18,20.18,0,0,1,4.56,0A8.5,8.5,0,0,1,43.84,5.92Z"/><path id="Book-1-White" class="cls-5" d="M45.08,22.09a1.12,1.12,0,0,1-.34,1.26.84.84,0,0,1-1,.17c-.34-.06-.4-.46-.46-.74-.11-.63.52-.84.86-1.31a1.57,1.57,0,0,1,1,.63M35.87,6.29c-.52.39-1.18,1.13-1,1.82.22,4.77,0,9,.22,13.52l.4.46a38.61,38.61,0,0,1,6.83.17c.11.06.11.23.06.34a5.11,5.11,0,0,1-1.87.12l-5.8-.12c-.4-.34-.23-1.14-.23-1.58s.17-1.26-.46-1.6c-.8-.17-1.6.06-2.11-.57.4-1.13,2.23-.22,2.57-1.47.17-2.11-.17-4.22-.06-6.2-.23-1.14-1.48-.8-2.29-1a.59.59,0,0,1-.23-.52c.68-.67,2.05.11,2.57-.84a21.85,21.85,0,0,0,.17-2.61,1.24,1.24,0,0,1,1.18-.17v.23Zm18.65,0c.17.9-.23,2.1.34,3,.57.34,1.43.17,2,.29a.69.69,0,0,1,.06.8c-.63.63-1.95-.17-2.29.86,0,2.22-.12,4.37.06,6.66l.34.28c.74.12,1.66-.17,2.16.39.06.34,0,.68-.33.8-.74.17-1.83-.23-2.23.57a21.8,21.8,0,0,1-.17,2.73l-.4.17-8-.11c-.17-.12,0-.23.06-.34l.8-.28,6.49.06c.67-.17.67-1,.73-1.53-.06-3.18,0-6-.06-9A23.29,23.29,0,0,0,54,7.07c-.06-.34-.56-.57-.61-1a1,1,0,0,1,1.18.17m-1.75,15c-.17.34-.69.17-1,.29H49.92a17.63,17.63,0,0,0-4.27.1.53.53,0,0,1-.46-.5c.17-.52.8-.34,1.26-.52,1.76.06,3.87-.06,5.57,0a1.6,1.6,0,0,1,.74.63M53.39,7.3c-.06,4.61.06,9.16-.12,13.31-.11.23-.34-.06-.51-.17a5.81,5.81,0,0,1-.06-2.22c-.17-3.7,0-7.46,0-11.21.23-.29.57.05.69.29m-10-.69.23.52c.11,3.81.11,7.69.11,11.67l-.11,1.47c-1,.05-1.95-.46-3-.34a19.6,19.6,0,0,1-3.24-.17c-.57-1.3-.17-2.61-.29-4,.06-2.86.12-6.33.12-9.4,0-.23.28-.33.46-.38,2,.16,4.14-.34,5.74.67m8.47-.29c0,4.61,0,9-.06,13.49-2.27.23-4.83-.17-7.11.46-.5-.46-.12-1.2-.22-1.81-.11-1.49,0-3.13-.07-4.67.07-2.21-.1-4.71.07-6.88A2,2,0,0,1,46.4,6l5.34.06.17.27h0ZM43.21,21c.05.28-.23.56-.52.67-1.81-.5-3.81-.16-5.74-.38l-.06-.06a.86.86,0,0,1,.8-.63,24.56,24.56,0,0,1,5.51.4M36.44,6.79c.23,4.61-.06,9,.06,13.43a.68.68,0,0,1-.57.52,13.19,13.19,0,0,1-.17-4.22c-.11-2.9-.05-6.14-.05-9a1.45,1.45,0,0,1,.74-.69"/><path id="Book-2-Black" class="cls-6" d="M82.24,5.29c.34-.06.69.23,1,.4.28,1.07-.06,2,.23,3,.75.29,1.82.06,2.22,1a1.58,1.58,0,0,1-.11,1.43c-.57.74-1.87.05-2.27.91a33.58,33.58,0,0,0,0,5.4c.57.57,1.6.12,2.1.86a1.27,1.27,0,0,1,.28,1.19c-.46.74-1.41.74-2.22.91-.34.28,0,.8-.17,1.2-.29.73.4,1.64-.46,2.1-2.33.34-4.55-.11-6.94.06l-2.27.06c-.63.4-1.36,1-2.16.57L70,23.71c-1.7.06-3.3-.06-5,0-1.14-.06-2.73.46-3.47-.63a11,11,0,0,0-.05-2.73c-.86-.28-2.28.11-2.73-1a1.93,1.93,0,0,1,.12-1.13c.63-.91,2-.12,2.67-.86l-.05-2.5a21.58,21.58,0,0,0-.06-3.3c-.86-.34-2.33.12-2.5-1.2A1.13,1.13,0,0,1,59.85,9c.56-.17,1.36.11,1.65-.4L61.66,6C62.35,4.83,64,5.51,65,5.34l5.17.06c.8.11,1.54.9,2.34.4C75.6,4.55,79.06,5.63,82.24,5.29Z"/><path id="Book-2-White" class="cls-5" d="M82.59,6.33a12.7,12.7,0,0,0,.17,3c.68.63,2.61-.27,2.21,1.26-.61.4-1.47.11-2.15.23l-.17.23c-.28,2.27.17,4.61,0,6.66.06.23.17.63.51.67.63.07,1.6-.38,1.81.42-.1,1.36-1.87.11-2.33,1.18-.17,1,.28,1.93-.12,2.9l-.28.17c-2.9-.06-5.74-.06-8.47-.11-.11-.06-.06-.23.06-.29l.51-.29c2.27-.23,4.77,0,7.17-.23a.61.61,0,0,0,.56-.67c0-4.33.06-8.83.06-13.65-.11-.69-.79-1.09-.9-1.7.4,0,1.13-.23,1.36.27M63.71,6.12c-.11.5-.56.67-.79,1.07C62.57,8.1,63,9,62.81,10c.06,3.93,0,7.63.06,11.49a.71.71,0,0,0,.5.68l6.1.12a1.86,1.86,0,0,1,1,.4c-.11.34-.57.23-.86.28a69,69,0,0,1-6.93-.17l-.23-.17a7.63,7.63,0,0,0-.4-3c-.68-.28-1.53,0-2.27-.23-.34-.17-.23-.63,0-.85.74-.4,2.16.22,2.56-.8-.06-2.23.12-4.33,0-6.6-.63-.91-1.93-.06-2.5-.91C60,8.9,61.83,10,62.35,9l.17-2.67c.34-.34.8-.23,1.18-.17m9,16.48c0,.46-.06,1-.56,1s-1,0-1-.58a1.77,1.77,0,0,1,.86-1c.4-.11.61.29.73.51M64.56,6.9c.17,3.93-.23,7.46,0,11.39-.34.9.4,2.21-.91,2.44-.23-3.93-.06-8.14-.17-12.4a1.67,1.67,0,0,1,.86-1.66l.23.23h0Zm16.9.69c-.06,4.33.12,9-.17,13.2-.23.06-.52-.23-.57-.46-.06-1.77-.23-3.53-.11-5.4.11-2.46-.17-5.34.11-7.86.28-.17.74.17.74.52M71,21c.23.05.51.28.34.55l-.46.4c-2-.73-4.5-.23-6.6-.56a2.82,2.82,0,0,1,.63-.8c2,.17,4.15-.11,6.08.4m9-.29c.29.17.63.46.63.74l-.29.1c-2.38.06-4.84-.27-7.05.29-.34.06-.73,0-.79-.38.21-.52.9-.69,1.47-.74,2-.17,4,0,6,0M79.92,6.44c-.06,4.44.05,9-.06,13.43l-.23.12c-2.44.23-4.83-.4-7,.4-.4-.23-.06-.91-.17-1.31V7.24A.91.91,0,0,1,73,6.39c.63-.44,1.48-.27,2.29-.39l4.48.12.12.33Zm-8.3,9c.23-2.29.06-4.84.11-7,0-.68.06-1.48-.46-1.94-1.66-.73-3.87-.33-5.74-.44-.11.06-.34-.07-.28.17,0,4.48-.06,8.7-.06,13.13l.11.51a24.84,24.84,0,0,0,4.16.12c.73.11,1.47.34,2.16.46a34.57,34.57,0,0,0,.06-4.22l-.06-.79Z"/><path id="Book-3-Black" class="cls-6" d="M110.15,5.49c.69.86.23,2.06.4,3.07.74.63,2.33-.05,2.5,1.37a1.5,1.5,0,0,1-.51,1.3c-.51.51-1.41,0-1.87.57-.17,1.71,0,3.59,0,5.53.51.33,1.2.27,1.76.56A1.84,1.84,0,0,1,113,19a1.17,1.17,0,0,1-.8,1c-.45.21-1.24,0-1.47.63-.23.9.06,1.93-.12,2.89a4.77,4.77,0,0,1-2.06.3l-6.7-.07c-.63.34-1.32,1-2.17.63-1.41-.9-3.36-.63-5-.69l-5-.06c-.91-.78-.23-2.15-.51-3.11-.34-.57-1.26-.36-1.83-.63a1.14,1.14,0,0,1-.57-1.26,1.21,1.21,0,0,1,1.08-1c.4-.23,1.14.17,1.32-.44,0-1.77-.11-3.47-.06-5.13-.11-1-1.48-.4-2.05-.8a1.4,1.4,0,0,1-.46-1.53c.46-1,1.6-.74,2.46-1l.11-.29.1-3,.3-.23,7.79.17a8.08,8.08,0,0,1,2.55.68c1.66-1.24,4.1-.63,6.08-1C107.37,5.43,108.78,5.2,110.15,5.49Z"/><path id="Book-3-White" class="cls-5" d="M99.06,21.19c.17.11.17.4,0,.44-.69.8-1.53-.17-2.44,0-1.48-.17-3.13,0-4.61-.17.4-1.24,2.16-.5,3.13-.73,1.31.17,2.78-.23,3.93.46m8.35-.29a1.33,1.33,0,0,1,.63.73c-2.33.28-4.6-.27-6.83.34a.48.48,0,0,1-.34-.67c.46-.52,1.2-.4,1.89-.52Zm-6.7,1.53c.06.51.06,1.25-.63,1.25a.85.85,0,0,1-1-.57,1.26,1.26,0,0,1,.62-1.31c.52-.06.75.34,1,.63M91.14,6.23c-.11.44-.67.79-.85,1.24.06,4.67,0,9.73.17,14.55l.4.23c2.5.06,5.17-.52,7.33.51.11.06.06.06,0,.12-2.73-.06-5.46.17-8.13-.06l-.23-.29c-.11-1,.12-2-.34-2.9-.63-.57-2.44.17-2-1.13.67-.51,1.75.17,2.16-.68,0-2.39.11-4.5-.06-6.71-.52-.69-1.48-.23-2.16-.4a.64.64,0,0,1-.17-.86c.74-.61,2.9.17,2.5-1.59.23-.74-.34-2.15.68-2.21.23,0,.52-.07.67.17m18.55.1c.23,1.09-.23,2.17.4,3.13.67.17,1.76-.23,2.1.46-.06,1.37-1.93.28-2.33,1.37.17,2.16-.17,3.93.06,6.26a.41.41,0,0,0-.12.62c.61.52,1.41-.34,2,.23.4.11.17.46.17.67-.52.74-1.76-.1-2.1.86l-.12,2.84-.4.17-7.57-.05c-.12-.12-.06-.17.06-.23l.91-.34h5.74c.28-.06.68-.29.68-.68-.06-4.49-.11-9.15-.11-14l-.69-1.36c.29-.29,1.09-.34,1.26.1M92,8.1V20.33c-.11.34-.51.52-.74.74L91,20.9c0-1.32.06-2.79,0-4v-1c-.07-2.67-.07-5.63,0-8.35.23-.23.46-.68.74-.8A5.8,5.8,0,0,1,92,8.1m16.61-.63c-.11,3.18-.06,6.2.06,9.21-.06,1.43-.06,2.67-.06,4-.06.11-.06.17-.17.23-1-.4-.62-1.49-.68-2.33a28.05,28.05,0,0,1,.11-3.75l-.17-.4L107.75,7c.23-.52.68.23.86.52m-1.48.17a3,3,0,0,0-.23-1.59l-2-.07c-1.47.24-3.13-.23-4.31.52-.57.69-.29,1.48-.4,2.29.13.47.27,1,.41,1.44l-.27.61-.87-.17-.23-.49c.1-.36.2-.7.27-1.07-.06-1,.28-2.44-1-2.84-1.87-.16-3.59-.22-5.57-.22a.4.4,0,0,0-.34.17c.06,4.37,0,8.13.06,12.44,0,.52-.17,1.2.4,1.43,1.64-.23,3.13.05,4.73-.06.61,0,1,.57,1.64.4a48,48,0,0,0,.11-5.8c-.06-.16,0-.54-.23-.61v-.36l1,.11.1.33a1.25,1.25,0,0,1-.11.13l-.11,5.86c.06.17.06.63.4.57,1.76-1,3.92-.34,6-.57l.46-.17a32.75,32.75,0,0,0,.1-4.43c.12-2.57.06-5.13.06-7.85"/><path id="Lone-White-Object" class="cls-5" d="M100.25,13.1c-.11.29-.63.29-.91.17l-.28-.12c.17-.63,0-1.36.52-1.81.51.34.46,1.13.68,1.76"/><path id="Veritas" class="cls-7" d="M71,15.27c-.69-.57-.86-1.43-1.43-2.12.23-.34.63-.4.91-.68a1.77,1.77,0,0,0,.69-1.76,1.74,1.74,0,0,0-.91-1.43,9.39,9.39,0,0,0-3.93-.16c-.23.11-.28.33-.11.5a1,1,0,0,1,.69.91c-.06,1.54-.06,3.07-.23,4.61l-.63.67c.63.57,1.49.13,2.4.28.23-.4-.4-.69-.52-1.13.11-.46,0-1.08.28-1.48.86.74,1.14,1.93,2.16,2.61l1.34.1,0-.73c-.17.11-.5-.16-.67-.21m-1.77-2.8c-.38,0-1,.29-1.13-.22.05-.74-.29-1.71,0-2.4a1.25,1.25,0,0,1,1.7.29,2.82,2.82,0,0,1,.23,1.37c-.23.4-.34.86-.8,1m31.27,1.6a1.65,1.65,0,0,1,.34,1.13l-.46.63.29.23a7.09,7.09,0,0,0,2.22-.11c-.17-.34-.57-.46-.8-.68-.8-2.09-1.36-4.3-2-6.46l-.69.33c-.4,1.93-1.2,3.69-1.66,5.69-.1.38-.5.44-.79.67s-.57-.34-.74-.56c-.06-1.71.17-3.13.06-5-.06-.29.28-.63.57-.34.46.23.4.8.57,1.2a.24.24,0,0,0,.44-.12L98.2,9C98,8.39,97.47,9,97,9c-.86-.06-2.05.17-2.86-.34-.67.23-.5,1.18-.61,1.81a.25.25,0,0,0,.06.29c.55-.34.84-1.25,1.64-1l.06,1.71-.17,3.7c-.23.29-.79.38-.74.78a19.24,19.24,0,0,0,3.14.12,4,4,0,0,0,1.64,0,.29.29,0,0,0-.06-.4c-.34-.17-.75-.46-.63-.9.17-.29.23-.86.74-.68.13,0,.17.07.21.16l.81.1v0c.11-.11.11-.17.29-.17m-1.2-.8-.28-.12c.17-.63,0-1.36.52-1.81.51.34.46,1.13.68,1.76-.11.29-.63.29-.91.17m6.39-3.87c0,.41.3,1.16-.06,1.45-.4-.35-.46-.7-1.1-.87-.34,0-.69.06-.76.46-.12,1.23,1.11,1.23,1.8,2a2.53,2.53,0,0,1,.64,2.5c-.27.66-.59,1-1.21,1s-1-.29-1.46-.06c-.11,0-.34.11-.47-.06l.07-2.26a.32.32,0,0,1,.29-.17c.34.74.11,1.62,1.15,1.67.34-.05.63-.1.69-.56.13-2-2.54-1.53-2.49-3.61a3,3,0,0,1,.36-1.27c.46-.76,1.5-.3,2.2-.76.29-.11.29.28.34.46M77.19,9.29c-.57.29-1.2.74-1,1.54a26.38,26.38,0,0,0-.05,4.27l.91.78L77,16a15.73,15.73,0,0,1-2.84,0c-.4-.44.51-.67.68-1A24,24,0,0,0,75,10c-.17-.51-1-.29-.8-.84a12,12,0,0,1,2.84,0ZM49.58,10.37c-.57.68-.69-.63-1.26-.69-.34,0-.86-.16-1.13.11a4.43,4.43,0,0,0,0,2.12,1.82,1.82,0,0,0,1,.11c.34-.23.52-.86,1-.8.28.29-.12.74.06,1-.11.44.28,1-.23,1.13-.34-.17-.52-.8-1-.8l-.79.06a6.26,6.26,0,0,0,0,2.91c.44.44,1,0,1.53,0,.74-.16.57-1.18,1.2-1.07A2.58,2.58,0,0,1,50,16l-.34.23-4-.06c-.17-.06-.57-.06-.4-.34,1.32-.79.57-2.33.74-3.57-.17-.91.52-2.29-.68-2.84-.06-.34.34-.24.46-.34,1,0,2.38.39,3.18-.46.63.34.57,1.13.63,1.76m-6.2-.91c-1.14.91-1.2,2.51-1.71,3.81-.46.74-.23,1.83-1,2.46-.29.1-.52-.17-.57-.4a39,39,0,0,0-1.54-5.18c-.06-.51-1.24-.63-.56-1,.84-.11,1.47.11,2.27,0,.17.51-.63.8-.4,1.43.52.74.34,1.87,1,2.61l.29-.29c0-1.3,1.53-2.5.27-3.64.28-.5,1.14-.16,1.71-.33.11.1.52.22.23.5"/></svg>