<svg id="BWH" xmlns="http://www.w3.org/2000/svg" viewBox="0 0 465.43 104.95"><defs><style>.cls-1{fill:#f1efef;}.cls-2{fill:#efefef;}</style></defs><title>MCL-WHITE</title><path class="cls-1" d="M39.85,102l-.32-.12c-.3-.12-30.32-12-35.07-44.54h0C2.7,45.26,3.33,6.43,3.36,4.78V4l72.8,0v.75c0,1.72.73,42.23-1.22,53.87-4.48,26.79-34.51,43-34.81,43.17ZM6,57.14C10.32,87,36.54,99,39.75,100.35,42.92,98.57,69.35,83,73.47,58.45c1.78-10.65,1.3-47.16,1.21-52.85l-69.81,0C4.79,11.13,4.35,46.07,6,57.15Z"/><path class="cls-1" d="M39.85,97.55l-.32-.12C39.25,97.32,12,86.52,7.67,57h0c-1.6-11-1-46.21-1-47.71V8.51l66.17,0V9.3c0,1.56.66,38.31-1.11,48.88C67.7,82.51,40.43,97.24,40.15,97.39ZM9.18,56.75c3.93,26.93,27.53,37.83,30.57,39.12,3-1.69,26.8-15.74,30.51-37.95,1.61-9.61,1.18-42.47,1.1-47.85L8.19,10c-.08,5.26-.46,36.72,1,46.71Z"/><rect class="cls-2" x="33.33" y="57.07" width="13.86" height="5.93"/><path class="cls-2" d="M71.61,21.75a16.3,16.3,0,0,0-4.38-.7A13,13,0,0,0,57.08,25.9L54.7,17.31h-11L40,33.55,36.29,17.4H25.49L12.47,63H28.71V57.07H21L31.06,22.38l9,31.74,9.42-32,9.91,34.94h-7.6V63H67.36L62.75,46.37a13,13,0,0,0,4.48.8,16.53,16.53,0,0,0,4-.37l.25-6.89c-.84,1-2.82,1.28-4.21,1.29a7.09,7.09,0,0,1,0-14.18,6.46,6.46,0,0,1,4.25,1.36Z"/><path class="cls-2" d="M24.8,80.1c1.44,0,1.9-.17,1.9-.61V72.43c0-.79-.35-1.14-2-1.11v-.61l4.17-.3v9.08c0,.45.46.58,1.92.61v.64h-6Z"/><path class="cls-2" d="M34.08,75.85a2.91,2.91,0,0,1-1.8-2.56c0-1.74,1.37-3,3.67-3s3.59,1.12,3.59,2.43c0,1.13-.76,1.82-2.12,2.38,1.56.64,2.43,1.5,2.43,2.86C39.85,79.67,38.18,81,36,81,33.29,81,32,79.91,32,78.37A2.84,2.84,0,0,1,34.08,75.85Zm.74.33a2.45,2.45,0,0,0-1.07,2,2.08,2.08,0,0,0,2.17,2.1,1.72,1.72,0,0,0,1.93-1.77c0-1-.66-1.55-2.66-2.23A2.31,2.31,0,0,1,34.82,76.18Zm1.94-1.35a2.41,2.41,0,0,0,1-2.07,1.79,1.79,0,0,0-2-1.82,1.52,1.52,0,0,0-1.64,1.6C34.2,73.62,35.2,74.27,36.76,74.83Z"/><path class="cls-2" d="M41.33,80.1c1.44,0,1.9-.17,1.9-.61V72.43c0-.79-.35-1.14-2-1.11v-.61l4.17-.3v9.08c0,.45.46.58,1.92.61v.64h-6Z"/><path class="cls-2" d="M48.53,80.1c1.44,0,1.9-.17,1.9-.61V72.43c0-.79-.35-1.14-2-1.11v-.61l4.17-.3v9.08c0,.45.46.58,1.92.61v.64h-6Z"/><path class="cls-1" d="M139.83,46.31A40.67,40.67,0,0,0,134,46h-.74a40.15,40.15,0,0,0-5.77.29.88.88,0,0,1-.86-1,.93.93,0,0,1,.86-1c.57,0,1.14.06,3.88.06V17.12L120.18,46.6c-.17.4-.34.57-1,.57a.89.89,0,0,1-1-.57L107.38,17V44.37c2.74,0,3.31-.06,3.88-.06a.93.93,0,0,1,.86,1,.88.88,0,0,1-.86,1,43.23,43.23,0,0,0-4.91-.29,43.76,43.76,0,0,0-5,.29.91.91,0,0,1-.86-1,1,1,0,0,1,.86-1c.57,0,1.14.06,3.88.06V11.24c-2.74,0-3.31.06-3.88.06a1,1,0,0,1-.86-1,1,1,0,0,1,.86-1,42.93,42.93,0,0,0,5,.29h2.46c1.26,0,1,.8,1.31,1.66l10.34,28.68,10.91-28.68c.29-.74.23-1.6,1.2-1.66H134a40.67,40.67,0,0,0,5.83-.29,1,1,0,0,1,.86,1,1,1,0,0,1-.86,1c-.57,0-1.14-.06-3.94-.06V44.37c2.8,0,3.37-.06,3.94-.06a1,1,0,0,1,.86,1A.91.91,0,0,1,139.83,46.31Z"/><path class="cls-1" d="M154.4,24.66c-4.23,0-6.45,2.74-6.45,10.28s2.63,10.17,6.51,10.17c3,0,4.91-1.66,6-4.74.11-.4.34-.91.91-.91a.84.84,0,0,1,.86.86A3.68,3.68,0,0,1,162,41.4c-1.88,4.4-4.91,5.71-8.28,5.71-6.17,0-10.34-4.91-10.34-12.17s4.17-12.11,10.34-12.11c4.4,0,8.23,2.74,8.23,6.34a2.71,2.71,0,0,1-2.63,3,2.54,2.54,0,0,1-2.51-2.51,2.48,2.48,0,0,1,2.06-2.51A4.77,4.77,0,0,0,154.4,24.66Z"/><path class="cls-1" d="M184.39,44c3.26,0,4.68-2.74,4.68-7.31a.88.88,0,0,1,1-.86.83.83,0,0,1,.91.86c0,.57-.28,4.57-.28,6.91V45.4a1,1,0,0,1-.86,1c-.57,0-2-.23-3.2-.23-5,0-13.08-.11-15.14-.11a40.67,40.67,0,0,0-5.83.29.91.91,0,0,1-.86-1,1,1,0,0,1,.86-1c.57,0,1.14.06,3.88.06V11.24c-2.74,0-3.31.06-3.88.06a1,1,0,0,1-.86-1,1,1,0,0,1,.86-1,40.67,40.67,0,0,0,5.83.29h.68A40.63,40.63,0,0,0,178,9.3a1,1,0,0,1,.86,1,1,1,0,0,1-.86,1c-.57,0-1.14-.06-3.88-.06V44Z"/><path class="cls-1" d="M212.78,39.46c-.51,0-.74.51-.91.91a6.71,6.71,0,0,1-6.85,4.8c-4.11,0-6.57-3.37-6.57-10.22,0-.74,0-1.49.06-2.11h15c.57-5.48-3-10-9.08-10-5.43,0-10.51,4.85-10.51,12.11,0,7.65,5.48,12.17,10.45,12.17,3.31,0,7.25-1.31,9.14-5.71a3.71,3.71,0,0,0,.23-1.08A.86.86,0,0,0,212.78,39.46Zm-7.88-14.8c2.4,0,4.34,1.37,4.34,4.23a6.88,6.88,0,0,1-.34,1.94H198.78C199.64,25.81,202.15,24.66,204.9,24.66Z"/><path class="cls-1" d="M239.06,44a.93.93,0,0,0-1.31-.11c-.63.51-.68,1.2-1.42,1.2s-1.09-.46-1.09-2.06V30.55c0-5.43-2.91-7.71-7.77-7.71-3.43,0-7.31,2.29-7.31,5a2.33,2.33,0,0,0,2.34,2.4,2.36,2.36,0,0,0,2.34-2.4,2.23,2.23,0,0,0-1-1.94c.46-.63,1.6-1.37,3.66-1.37,2.34,0,3.71,1.08,3.71,3.83V34c-6.57,0-12.91,2.23-12.91,7.65,0,3.43,2.51,5.26,5.54,5.26,2.23,0,4.74-.92,7.48-3.43a3.65,3.65,0,0,0,3.6,3.32,5.56,5.56,0,0,0,3.88-1.31C239.11,45.17,239.4,44.43,239.06,44Zm-7.88-2.4c-2.63,2.34-4.34,2.74-5.54,2.74a3.22,3.22,0,0,1-3.09-3.48c0-3.37,2.4-5.26,8.63-5.26Z"/><path class="cls-1" d="M258.88,22.84c5.08,0,7.08,3.6,7.08,8.45V44.37c2.74,0,3.08-.06,3.66-.06a1,1,0,0,1,.86,1,.91.91,0,0,1-.86,1A35,35,0,0,0,264,46h-.23a34.43,34.43,0,0,0-5.54.29.88.88,0,0,1-.86-1,.93.93,0,0,1,.86-1c.57,0,.91.06,3.66.06v-15c0-3.08-.92-4.34-3.43-4.34-3.88,0-7.88,5-7.88,10.8v8.57c2.74,0,3.08-.06,3.66-.06a1,1,0,0,1,.86,1,.91.91,0,0,1-.86,1,34.91,34.91,0,0,0-5.6-.29h-.23a33.61,33.61,0,0,0-5.54.29.88.88,0,0,1-.86-1,.93.93,0,0,1,.86-1c.57,0,.86.06,3.66.06V25.52a33.81,33.81,0,0,0-3.66.17.93.93,0,0,1-.86-1,.87.87,0,0,1,.86-1c.57,0,.86.06,3.66.06.91,0,2.63-.23,3.2-.23a1,1,0,0,1,.86,1v4.74C251.74,26.26,255.05,22.84,258.88,22.84Z"/><path class="cls-1" d="M288.93,34.95v9.43c1.83,0,2.12-.06,2.69-.06a.93.93,0,0,1,.86,1,.87.87,0,0,1-.86,1A31.65,31.65,0,0,0,287,46h-.29a34.53,34.53,0,0,0-5.54.29.87.87,0,0,1-.86-1,.93.93,0,0,1,.86-1c.57,0,.92.06,3.66.06V24.55c-2.74,0-3.08.06-3.66.06a.87.87,0,0,1-.86-1,.93.93,0,0,1,.86-1,34.6,34.6,0,0,0,5.54.29H287a26.36,26.36,0,0,0,4.57-.29.93.93,0,0,1,.86,1,.87.87,0,0,1-.86,1c-.57,0-1.14-.06-2.69-.06v8.4H299v-8.4c-1.77,0-2.12.06-2.68.06a.87.87,0,0,1-.86-1,.93.93,0,0,1,.86-1,26.69,26.69,0,0,0,4.63.29h.23a33.66,33.66,0,0,0,5.54-.29.93.93,0,0,1,.86,1,.87.87,0,0,1-.86,1c-.57,0-.86-.06-3.66-.06V44.37c2.8,0,3.08-.06,3.66-.06a.93.93,0,0,1,.86,1,.87.87,0,0,1-.86,1,33.59,33.59,0,0,0-5.54-.29H301a27.5,27.5,0,0,0-4.63.29.88.88,0,0,1-.86-1,.93.93,0,0,1,.86-1c.57,0,1,.06,2.68.06V34.95Z"/><path class="cls-1" d="M320.35,22.32c-5.94,0-11,4.91-11,12.17s5,12.11,11,12.11,11-4.85,11-12.11S326.34,22.32,320.35,22.32Zm0,22.45c-4.17,0-6.4-2.51-6.4-10.28s2.23-10.28,6.4-10.28,6.4,2.51,6.4,10.28S324.52,44.77,320.35,44.77Z"/><path class="cls-1" d="M343.71,46.6a10.73,10.73,0,0,1-5.94-2,1.54,1.54,0,0,0-.4,1c0,.74-.17,1-.86,1s-1-.4-1-1V39.11c0-.57.17-1,.91-1s.92.57.92,1c0,3.54,3.6,5.71,6.06,5.71,2.68,0,5.2-.92,5.2-4.06,0-2-1.49-3.14-4.57-4.06L341.77,36c-3-.91-6.51-2.8-6.51-6.91,0-4.57,3.88-6.8,7.83-6.8a8.29,8.29,0,0,1,4.86,1.54c.11,0,.34-.17.34-.52,0-.51.17-1,.86-1s.91.45.91,1v5.66c0,.45-.17,1-.86,1a.84.84,0,0,1-.91-1,4.9,4.9,0,0,0-5.2-4.86c-2.45,0-4.85,1.14-4.85,3.83,0,1.88,1.6,3.14,3.54,3.66l2.68.69c4.46,1.2,7.26,3.48,7.26,7.43C351.71,44.37,347.82,46.6,343.71,46.6Z"/><path class="cls-1" d="M365.54,36.83c6.28,0,9.65-3,9.65-7s-3.37-7-9.65-7c-2.06,0-3,.06-4.91.06a30,30,0,0,1-5-.29.93.93,0,0,0-.86,1,.87.87,0,0,0,.86,1c.57,0,.91-.06,3.65-.06V44.37c-2.74,0-3.08-.06-3.65-.06a.93.93,0,0,0-.86,1,.87.87,0,0,0,.86,1A34.41,34.41,0,0,1,361.2,46h.29a34.43,34.43,0,0,1,5.54.29.88.88,0,0,0,.86-1,.93.93,0,0,0-.86-1c-.57,0-.91.06-3.65.06V36.83Zm-2.17-12.34h2.17c4.11,0,5.6,1.49,5.6,5.31s-1.49,5.43-5.6,5.43h-2.17Z"/><path class="cls-1" d="M390.24,44.31a.93.93,0,0,1,.86,1,.88.88,0,0,1-.86,1A34.43,34.43,0,0,0,384.7,46h-.29a34.46,34.46,0,0,0-5.54.29.88.88,0,0,1-.86-1,.93.93,0,0,1,.86-1c.57,0,.91.06,3.66.06V24.55c-2.74,0-3.08.06-3.66.06a.87.87,0,0,1-.86-1,.93.93,0,0,1,.86-1,34.53,34.53,0,0,0,5.54.29h.29a34.49,34.49,0,0,0,5.54-.29.93.93,0,0,1,.86,1,.87.87,0,0,1-.86,1c-.57,0-.91-.06-3.66-.06V44.37C389.32,44.37,389.66,44.31,390.24,44.31Z"/><path class="cls-1" d="M414.39,30.49a.91.91,0,0,1-1-.86c0-4.11-.91-5.14-4.17-5.14h-2.4V44.37c2.74,0,3.08-.06,3.66-.06a.93.93,0,0,1,.86,1,.88.88,0,0,1-.86,1A34.5,34.5,0,0,0,405,46h-.23a34.91,34.91,0,0,0-5.6.29.91.91,0,0,1-.86-1,1,1,0,0,1,.86-1c.57,0,.91.06,3.66.06V24.49h-2.34c-3.31,0-4.23,1-4.23,5.14a.89.89,0,0,1-.91.86.85.85,0,0,1-.91-.86c0-.57.23-2.17.23-4.51V23.58a.93.93,0,0,1,.86-1c.51,0,2.28.29,3.2.29H411c.86,0,2.63-.29,3.14-.29a.93.93,0,0,1,.86,1v1.54c0,2.34.29,3.94.29,4.51A.85.85,0,0,1,414.39,30.49Z"/><path class="cls-1" d="M439.58,44.31c-.57,0-.74.06-2.57.06l-9-21.25c-.23-.57-.34-.8-.91-.8s-.74.29-.91.8L417,44.37c-1.54,0-2-.06-2.57-.06a.93.93,0,0,0-.86,1,.88.88,0,0,0,.86,1A19.41,19.41,0,0,1,418,46a20.85,20.85,0,0,1,3.71.29.91.91,0,0,0,.86-1,1,1,0,0,0-.86-1c-.57,0-1.26.06-2.68.06l2.11-4.91h9.54l2.06,4.91c-1.66,0-1.83-.06-2.4-.06a1,1,0,0,0-.85,1,.91.91,0,0,0,.85,1A27.18,27.18,0,0,1,434.9,46H435a25.11,25.11,0,0,1,4.63.29.91.91,0,0,0,.86-1A1,1,0,0,0,439.58,44.31ZM422,37.46l4-9.2,3.83,9.2Z"/><path class="cls-1" d="M456.21,44.48c3.26,0,4.17-1.08,4.17-5.14a.88.88,0,0,1,1-.86.81.81,0,0,1,.86.86c0,.57-.23,2.11-.23,4.45v1.6a.91.91,0,0,1-.86,1c-.52,0-2.29-.23-3.2-.23L448.21,46a34.45,34.45,0,0,0-5.54.29.88.88,0,0,1-.86-1,.93.93,0,0,1,.86-1c.57,0,.91.06,3.66.06V24.55c-2.74,0-3.08.06-3.66.06a.87.87,0,0,1-.86-1,.93.93,0,0,1,.86-1,34.51,34.51,0,0,0,5.54.29h.29a34.51,34.51,0,0,0,5.54-.29.93.93,0,0,1,.86,1,.87.87,0,0,1-.86,1c-.57,0-.91-.06-3.66-.06V44.48Z"/><path class="cls-1" d="M320.77,59.81h-1.68L315.51,70h1.6l.83-2.4h3.84l.82,2.4h1.75ZM318.46,66l1.4-4.09h0L321.27,66Z"/><polygon class="cls-1" points="326.65 69.95 328.36 69.95 328.36 65.65 331.73 65.65 331.73 64.14 328.36 64.14 328.36 61.43 333.01 61.43 333.01 59.85 326.65 59.85 326.65 69.95 326.65 69.95"/><polygon class="cls-1" points="335.36 69.95 337.07 69.95 337.07 65.65 340.44 65.65 340.44 64.14 337.07 64.14 337.07 61.43 341.72 61.43 341.72 59.85 335.36 59.85 335.36 69.95 335.36 69.95"/><polygon class="cls-1" points="344.17 69.95 345.89 69.95 345.89 59.85 344.17 59.85 344.17 69.95 344.17 69.95"/><polygon class="cls-1" points="349.12 69.95 355.47 69.95 355.47 68.4 350.82 68.4 350.82 59.85 349.12 59.85 349.12 69.95 349.12 69.95"/><polygon class="cls-1" points="357.93 69.95 359.65 69.95 359.65 59.85 357.93 59.85 357.93 69.95 357.93 69.95"/><path class="cls-1" d="M367.32,59.81h-1.68L362.07,70h1.59l.84-2.4h3.83l.82,2.4h1.74ZM365,66l1.4-4.09h0L367.83,66Z"/><polygon class="cls-1" points="374.31 69.95 376.01 69.95 376.01 61.43 379.13 61.43 379.13 59.85 371.19 59.85 371.19 61.43 374.31 61.43 374.31 69.95 374.31 69.95"/><polygon class="cls-1" points="381.46 69.95 388.26 69.95 388.26 68.4 383.17 68.4 383.17 65.46 386.7 65.46 386.7 63.94 383.17 63.94 383.17 61.43 387.99 61.43 387.99 59.85 381.46 59.85 381.46 69.95 381.46 69.95"/><polygon class="cls-1" points="101.93 69.93 103.64 69.93 103.64 65.44 108.22 65.44 108.22 69.93 109.93 69.93 109.93 59.83 108.22 59.83 108.22 63.86 103.64 63.86 103.64 59.83 101.93 59.83 101.93 69.93 101.93 69.93"/><path class="cls-1" d="M117.49,59.79h-1.68l-3.58,10.14h1.6l.83-2.4h3.83l.82,2.4h1.75ZM115.18,66l1.41-4.09h0L118,66Z"/><path class="cls-1" d="M128.54,65.73a2.68,2.68,0,0,0,2.24-2.86c0-2.06-1.39-3-3.79-3h-3.62v10.1h1.68v-4h1.77l2.26,4h1.83Zm-3.49-1.27V61.39h1.86c1.45,0,2.2.36,2.2,1.52s-.77,1.56-2.18,1.56Z"/><polygon class="cls-1" points="135.98 69.97 137.59 69.97 141.1 59.83 139.49 59.83 136.84 67.71 136.82 67.71 134.21 59.83 132.47 59.83 135.98 69.97 135.98 69.97"/><path class="cls-1" d="M147,59.79h-1.68l-3.58,10.14h1.6l.83-2.4H148l.82,2.4h1.75ZM144.73,66l1.41-4.09h0L147.54,66Z"/><path class="cls-1" d="M158.09,65.73a2.68,2.68,0,0,0,2.24-2.86c0-2.06-1.39-3-3.8-3h-3.62v10.1h1.68v-4h1.77l2.27,4h1.83Zm-3.49-1.27V61.39h1.85c1.45,0,2.2.36,2.2,1.52s-.76,1.56-2.18,1.56Z"/><path class="cls-1" d="M166,59.83h-2.88v10.1H166c3.13,0,5.24-1.49,5.24-5.09S169.22,59.83,166,59.83Zm.15,8.57h-1.32v-7h1.29c2.32,0,3.41,1,3.41,3.43S168.51,68.4,166.2,68.4Z"/><path class="cls-1" d="M178.17,69.93h1.54v-7.6h0a17.37,17.37,0,0,0,.61,2.13l2,5.47h1.51l2-5.47c.23-.71.45-1.37.6-2.06h0v7.53h1.65V59.83h-2.29l-2.62,8h0l-2.7-8h-2.25v10.1Z"/><polygon class="cls-1" points="191.18 69.93 197.97 69.93 197.97 68.38 192.88 68.38 192.88 65.44 196.42 65.44 196.42 63.92 192.88 63.92 192.88 61.41 197.7 61.41 197.7 59.83 191.18 59.83 191.18 69.93 191.18 69.93"/><path class="cls-1" d="M203.35,59.83h-2.88v10.1h2.88c3.13,0,5.24-1.49,5.24-5.09S206.52,59.83,203.35,59.83Zm.15,8.57h-1.32v-7h1.3c2.32,0,3.41,1,3.41,3.43S205.81,68.4,203.5,68.4Z"/><polygon class="cls-1" points="211.34 69.93 213.06 69.93 213.06 59.83 211.34 59.83 211.34 69.93 211.34 69.93"/><path class="cls-1" d="M220.22,70.12a3.92,3.92,0,0,0,4.07-3.36l-1.62-.37c-.38,1.52-1.12,2.17-2.43,2.17-1.7,0-2.73-1.32-2.73-3.72s1-3.62,2.7-3.62c1.34,0,1.92.68,2.3,2l1.62-.47a3.69,3.69,0,0,0-3.92-3.14c-2.54,0-4.43,1.83-4.43,5.21s1.84,5.27,4.43,5.27Z"/><path class="cls-1" d="M230.92,59.79h-1.68l-3.58,10.14h1.6l.84-2.4h3.83l.82,2.4h1.75ZM228.61,66,230,61.94h0L231.42,66Z"/><polygon class="cls-1" points="236.81 69.93 243.16 69.93 243.16 68.38 238.51 68.38 238.51 59.83 236.81 59.83 236.81 69.93 236.81 69.93"/><path class="cls-1" d="M252.74,70.12c2.4,0,3.81-1.3,3.81-2.95,0-1.9-1.53-2.53-3.44-3.09-1.65-.49-2.37-.8-2.37-1.75,0-.74.64-1.14,1.76-1.14a2.8,2.8,0,0,1,2.55,1.47l1.24-.86a4,4,0,0,0-3.78-2.17c-2,0-3.45,1.14-3.45,2.85,0,1.93,1.57,2.46,3.52,3,1.67.49,2.3.9,2.3,1.78s-.83,1.31-2.06,1.31A2.93,2.93,0,0,1,250,66.85l-1.35.71a4.2,4.2,0,0,0,4.07,2.57Z"/><path class="cls-1" d="M263,70.12a3.92,3.92,0,0,0,4.07-3.36l-1.63-.37c-.38,1.52-1.12,2.17-2.43,2.17-1.71,0-2.73-1.32-2.73-3.72s1-3.62,2.7-3.62c1.33,0,1.92.68,2.3,2l1.63-.47A3.69,3.69,0,0,0,263,59.64c-2.54,0-4.43,1.83-4.43,5.21s1.84,5.27,4.43,5.27Z"/><polygon class="cls-1" points="269.69 69.93 271.4 69.93 271.4 65.44 275.98 65.44 275.98 69.93 277.69 69.93 277.69 59.83 275.98 59.83 275.98 63.86 271.4 63.86 271.4 59.83 269.69 59.83 269.69 69.93 269.69 69.93"/><path class="cls-1" d="M284.88,59.64c-2.57,0-4.57,1.84-4.57,5.24s2,5.24,4.57,5.24,4.55-1.84,4.55-5.24S287.44,59.64,284.88,59.64Zm0,8.94c-1.72,0-2.85-1.32-2.85-3.7s1.13-3.67,2.85-3.67,2.83,1.3,2.83,3.67S286.58,68.58,284.88,68.58Z"/><path class="cls-1" d="M296.13,59.64c-2.57,0-4.58,1.84-4.58,5.24s2,5.24,4.58,5.24,4.54-1.84,4.54-5.24S298.68,59.64,296.13,59.64Zm0,8.94c-1.72,0-2.85-1.32-2.85-3.7s1.13-3.67,2.85-3.67,2.83,1.3,2.83,3.67S297.82,68.58,296.13,68.58Z"/><polygon class="cls-1" points="303.3 69.93 309.66 69.93 309.66 68.38 305 68.38 305 59.83 303.3 59.83 303.3 69.93 303.3 69.93"/></svg>