<svg id="BWH" xmlns="http://www.w3.org/2000/svg" viewBox="0 0 465.43 104.95"><defs><style>.cls-1{fill:#008bb0;}.cls-2{fill:#fff;}.cls-3{fill:#243842;}</style></defs><title>MCL</title><path class="cls-1" d="M75.57,4.47V3.89l-72.18,0v.58S3.23,12,3.23,21.61c0,12.46.22,28.22,1.22,35.16C9.25,89.48,39.22,101,39.28,101l.25.1.24-.13s30-15.87,34.59-42.88c1.12-6.72,1.35-23,1.35-35.93C75.7,12.32,75.57,4.47,75.57,4.47ZM73.18,57.9C71,71,62.52,81.53,54.56,88.77a86.28,86.28,0,0,1-15.11,11,59.44,59.44,0,0,1-15-9.55A54.1,54.1,0,0,1,5.62,56.6c-1-6.77-1.21-22.57-1.21-35C4.41,13.6,4.5,7,4.54,5l69.85,0c0,2,.13,8.83.13,17.1C74.52,35,74.27,51.4,73.18,57.9Z"/><path class="cls-1" d="M61.47,33.25a7.68,7.68,0,0,0,7.66,7.66,7.53,7.53,0,0,0,2.53-.46c.11-4.71.16-9.71.16-14.35a7.62,7.62,0,0,0-10.36,7.16Z"/><path class="cls-1" d="M64.07,46.42l4.85,17.51a39.7,39.7,0,0,0,1.68-6.59,96.41,96.41,0,0,0,.83-10.18,13.59,13.59,0,0,1-7.37-.74Z"/><path class="cls-1" d="M35.49,15.19l4,17.45,4-17.55H55.39L58,24.56a14.09,14.09,0,0,1,11.11-5.44,14.25,14.25,0,0,1,2.68.27c0-6.68-.12-11.47-.12-11.47l-64.52,0s-.62,37,1,48.25A51.76,51.76,0,0,0,9.9,63.91L23.82,15.19Z"/><path class="cls-1" d="M34.11,76.09c-1.26,0-1.84.68-1.84,2.49s.58,2.49,1.84,2.49,1.84-.71,1.84-2.49S35.34,76.09,34.11,76.09Z"/><path class="cls-1" d="M52.27,58.06h8.22L49.77,20.3,39.58,54.87l-9.74-34.3L18.95,58.06H27.3v6.41H10.08C17.57,88,39.46,96.53,39.46,96.53S61.36,84.72,68.72,64.47H52.27Z"/><rect class="cls-2" x="32.29" y="58.06" width="14.98" height="6.41"/><path class="cls-2" d="M24.48,80.75c1.42,0,1.87-.16,1.87-.6v-7c0-.78-.34-1.12-2-1.09v-.6l4.1-.29v8.94c0,.44.46.57,1.89.6v.64H24.48Z"/><path class="cls-2" d="M33.62,76.57A2.87,2.87,0,0,1,31.84,74c0-1.71,1.35-3,3.61-3S39,72.16,39,73.44c0,1.11-.75,1.79-2.08,2.34,1.53.64,2.39,1.48,2.39,2.82,0,1.72-1.64,3-3.78,3-2.69,0-4-1.09-4-2.61A2.8,2.8,0,0,1,33.62,76.57Zm.73.33a2.41,2.41,0,0,0-1.06,2A2,2,0,0,0,35.42,81a1.7,1.7,0,0,0,1.9-1.74c0-1-.65-1.53-2.62-2.2A2.82,2.82,0,0,1,34.35,76.9Zm1.9-1.34a2.37,2.37,0,0,0,1-2,1.76,1.76,0,0,0-1.92-1.79,1.5,1.5,0,0,0-1.61,1.58C33.73,74.37,34.72,75,36.25,75.56Z"/><path class="cls-2" d="M40.75,80.75c1.42,0,1.87-.16,1.87-.6v-7c0-.78-.34-1.12-2-1.09v-.6l4.1-.29v8.94c0,.44.46.57,1.89.6v.64H40.75Z"/><path class="cls-2" d="M47.83,80.75c1.42,0,1.87-.16,1.87-.6v-7c0-.78-.34-1.12-2-1.09v-.6l4.1-.29v8.94c0,.44.46.57,1.89.6v.64H47.83Z"/><path class="cls-3" d="M138.64,44.1a40.85,40.85,0,0,0-5.85-.29H132a40.33,40.33,0,0,0-5.79.29.88.88,0,0,1-.86-1,.93.93,0,0,1,.86-1c.57,0,1.15.06,3.9.06V14.81L118.92,44.39c-.17.4-.34.57-1,.57a.89.89,0,0,1-1-.57L106.07,14.63V42.15c2.75,0,3.33-.06,3.9-.06a.93.93,0,0,1,.86,1,.88.88,0,0,1-.86,1,43.47,43.47,0,0,0-4.93-.29,44,44,0,0,0-5,.29.91.91,0,0,1-.86-1,1,1,0,0,1,.86-1c.57,0,1.15.06,3.9.06V8.9c-2.75,0-3.33.06-3.9.06a1,1,0,0,1-.86-1,1,1,0,0,1,.86-1,43.05,43.05,0,0,0,5,.29h2.47c1.26,0,1,.8,1.32,1.66L119.2,37.68l11-28.78c.29-.74.23-1.6,1.2-1.66h1.43A40.83,40.83,0,0,0,138.64,7a1,1,0,0,1,.86,1,1,1,0,0,1-.86,1c-.57,0-1.15-.06-4-.06V42.15c2.81,0,3.38-.06,4-.06a1,1,0,0,1,.86,1A.91.91,0,0,1,138.64,44.1Z"/><path class="cls-3" d="M153.26,22.37c-4.24,0-6.48,2.75-6.48,10.32s2.64,10.21,6.54,10.21c3,0,4.93-1.67,6-4.76.11-.4.34-.92.92-.92a.84.84,0,0,1,.86.86,3.69,3.69,0,0,1-.23,1.09C159,43.59,156,44.9,152.57,44.9c-6.19,0-10.38-4.93-10.38-12.21s4.19-12.15,10.38-12.15c4.41,0,8.26,2.75,8.26,6.36a2.72,2.72,0,0,1-2.64,3,2.55,2.55,0,0,1-2.52-2.52,2.49,2.49,0,0,1,2.06-2.52A4.79,4.79,0,0,0,153.26,22.37Z"/><path class="cls-3" d="M183.37,41.81c3.27,0,4.7-2.75,4.7-7.34a.88.88,0,0,1,1-.86.83.83,0,0,1,.92.86c0,.57-.29,4.59-.29,6.94v1.78a1,1,0,0,1-.86,1c-.57,0-2-.23-3.21-.23-5,0-13.13-.11-15.19-.11a40.84,40.84,0,0,0-5.85.29.91.91,0,0,1-.86-1,1,1,0,0,1,.86-1c.57,0,1.15.06,3.9.06V8.9c-2.75,0-3.33.06-3.9.06a1,1,0,0,1-.86-1,1,1,0,0,1,.86-1,40.82,40.82,0,0,0,5.85.29h.69A40.79,40.79,0,0,0,176.94,7a1,1,0,0,1,.86,1,1,1,0,0,1-.86,1c-.57,0-1.15-.06-3.9-.06V41.81Z"/><path class="cls-3" d="M211.86,37.22c-.52,0-.74.51-.92.92A6.73,6.73,0,0,1,204.06,43c-4.13,0-6.59-3.38-6.59-10.26,0-.75,0-1.49.06-2.12h15c.57-5.5-3-10-9.12-10-5.45,0-10.55,4.87-10.55,12.15,0,7.68,5.5,12.21,10.49,12.21,3.32,0,7.28-1.32,9.17-5.73a3.71,3.71,0,0,0,.23-1.09A.86.86,0,0,0,211.86,37.22Zm-7.91-14.85c2.41,0,4.36,1.38,4.36,4.24a6.91,6.91,0,0,1-.35,1.95H197.81C198.67,23.52,201.2,22.37,203.95,22.37Z"/><path class="cls-3" d="M238.23,41.81a.93.93,0,0,0-1.32-.11c-.63.51-.69,1.21-1.43,1.21s-1.09-.46-1.09-2.07V28.28c0-5.45-2.92-7.74-7.79-7.74-3.44,0-7.34,2.29-7.34,5A2.34,2.34,0,0,0,221.61,28,2.37,2.37,0,0,0,224,25.58a2.24,2.24,0,0,0-1-1.95c.46-.63,1.6-1.38,3.67-1.38,2.35,0,3.72,1.09,3.72,3.84v5.62c-6.59,0-13,2.24-13,7.68,0,3.44,2.52,5.28,5.56,5.28,2.24,0,4.76-.92,7.51-3.44A3.66,3.66,0,0,0,234,44.56a5.58,5.58,0,0,0,3.9-1.32C238.29,43,238.58,42.21,238.23,41.81Zm-7.91-2.41c-2.64,2.35-4.36,2.75-5.56,2.75a3.23,3.23,0,0,1-3.1-3.5c0-3.38,2.41-5.28,8.66-5.28Z"/><path class="cls-3" d="M258.13,20.54c5.1,0,7.11,3.61,7.11,8.49V42.15c2.75,0,3.1-.06,3.67-.06a1,1,0,0,1,.86,1,.91.91,0,0,1-.86,1,35.1,35.1,0,0,0-5.62-.29h-.23a34.58,34.58,0,0,0-5.56.29.88.88,0,0,1-.86-1,.93.93,0,0,1,.86-1c.57,0,.92.06,3.67.06V27.08c0-3.1-.92-4.36-3.44-4.36-3.9,0-7.91,5-7.91,10.84v8.6c2.75,0,3.1-.06,3.67-.06a1,1,0,0,1,.86,1,.91.91,0,0,1-.86,1,35.05,35.05,0,0,0-5.62-.29h-.23a33.73,33.73,0,0,0-5.56.29.88.88,0,0,1-.86-1,.93.93,0,0,1,.86-1c.57,0,.86.06,3.67.06V23.23a33.92,33.92,0,0,0-3.67.17.93.93,0,0,1-.86-1,.88.88,0,0,1,.86-1c.57,0,.86.06,3.67.06.92,0,2.64-.23,3.21-.23a1,1,0,0,1,.86,1V27C251,24,254.29,20.54,258.13,20.54Z"/><path class="cls-3" d="M288.29,32.69v9.46c1.83,0,2.12-.06,2.69-.06a.93.93,0,0,1,.86,1,.88.88,0,0,1-.86,1,31.77,31.77,0,0,0-4.59-.29h-.29a34.65,34.65,0,0,0-5.56.29.88.88,0,0,1-.86-1,.93.93,0,0,1,.86-1c.57,0,.92.06,3.67.06V22.26c-2.75,0-3.1.06-3.67.06a.88.88,0,0,1-.86-1,.93.93,0,0,1,.86-1,34.63,34.63,0,0,0,5.56.29h.29a26.39,26.39,0,0,0,4.59-.29.93.93,0,0,1,.86,1,.88.88,0,0,1-.86,1c-.57,0-1.15-.06-2.69-.06v8.43h10.15V22.26c-1.78,0-2.12.06-2.69.06a.88.88,0,0,1-.86-1,.93.93,0,0,1,.86-1,26.8,26.8,0,0,0,4.64.29h.23a33.7,33.7,0,0,0,5.56-.29.93.93,0,0,1,.86,1,.88.88,0,0,1-.86,1c-.57,0-.86-.06-3.67-.06V42.15c2.81,0,3.1-.06,3.67-.06a.93.93,0,0,1,.86,1,.88.88,0,0,1-.86,1,33.71,33.71,0,0,0-5.56-.29h-.23a27.67,27.67,0,0,0-4.64.29.88.88,0,0,1-.86-1,.93.93,0,0,1,.86-1c.57,0,1,.06,2.69.06V32.69Z"/><path class="cls-3" d="M319.82,20c-6,0-11,4.93-11,12.21s5,12.15,11,12.15,11-4.87,11-12.15S325.84,20,319.82,20Zm0,22.53c-4.18,0-6.42-2.52-6.42-10.32s2.24-10.32,6.42-10.32,6.42,2.52,6.42,10.32S324,42.55,319.82,42.55Z"/><path class="cls-3" d="M343.27,44.39a10.77,10.77,0,0,1-6-2,1.54,1.54,0,0,0-.4,1c0,.75-.17,1-.86,1s-1-.4-1-1V36.88c0-.57.17-1,.92-1s.92.57.92,1c0,3.56,3.61,5.74,6.08,5.74,2.69,0,5.22-.92,5.22-4.07,0-2-1.49-3.15-4.59-4.07l-2.29-.69c-3-.92-6.54-2.81-6.54-6.94,0-4.59,3.9-6.82,7.85-6.82a8.31,8.31,0,0,1,4.87,1.55c.11,0,.34-.17.34-.52,0-.51.17-1,.86-1s.92.46.92,1v5.68c0,.46-.17,1-.86,1a.85.85,0,0,1-.92-1,4.92,4.92,0,0,0-5.22-4.87c-2.46,0-4.87,1.15-4.87,3.84,0,1.89,1.6,3.15,3.56,3.67L344,30c4.47,1.2,7.28,3.5,7.28,7.45C351.3,42.15,347.4,44.39,343.27,44.39Z"/><path class="cls-3" d="M365.19,34.58c6.31,0,9.69-3,9.69-7.05s-3.38-7-9.69-7c-2.07,0-3,.06-4.93.06a30.16,30.16,0,0,1-5-.29.93.93,0,0,0-.86,1,.88.88,0,0,0,.86,1c.57,0,.92-.06,3.67-.06V42.15c-2.75,0-3.1-.06-3.67-.06a.93.93,0,0,0-.86,1,.88.88,0,0,0,.86,1,34.6,34.6,0,0,1,5.56-.29h.29a34.58,34.58,0,0,1,5.56.29.88.88,0,0,0,.86-1,.93.93,0,0,0-.86-1c-.57,0-.92.06-3.67.06V34.58ZM363,22.2h2.18c4.13,0,5.62,1.49,5.62,5.33S369.32,33,365.19,33H363Z"/><path class="cls-3" d="M390,42.1a.93.93,0,0,1,.86,1,.88.88,0,0,1-.86,1,34.58,34.58,0,0,0-5.56-.29h-.29a34.59,34.59,0,0,0-5.56.29.88.88,0,0,1-.86-1,.93.93,0,0,1,.86-1c.57,0,.92.06,3.67.06V22.26c-2.75,0-3.1.06-3.67.06a.88.88,0,0,1-.86-1,.93.93,0,0,1,.86-1,34.58,34.58,0,0,0,5.56.29h.29a34.56,34.56,0,0,0,5.56-.29.93.93,0,0,1,.86,1,.88.88,0,0,1-.86,1c-.57,0-.92-.06-3.67-.06V42.15C389.06,42.15,389.4,42.1,390,42.1Z"/><path class="cls-3" d="M414.22,28.22a.91.91,0,0,1-1-.86c0-4.13-.92-5.16-4.18-5.16h-2.41v20c2.75,0,3.1-.06,3.67-.06a.93.93,0,0,1,.86,1,.88.88,0,0,1-.86,1,34.65,34.65,0,0,0-5.56-.29h-.23a35.05,35.05,0,0,0-5.62.29.91.91,0,0,1-.86-1,1,1,0,0,1,.86-1c.57,0,.92.06,3.67.06v-20h-2.35c-3.32,0-4.24,1-4.24,5.16a.89.89,0,0,1-.92.86.86.86,0,0,1-.92-.86c0-.57.23-2.18.23-4.53V21.29a.93.93,0,0,1,.86-1c.51,0,2.29.29,3.21.29h12.38c.86,0,2.64-.29,3.15-.29a.93.93,0,0,1,.86,1v1.55c0,2.35.29,4,.29,4.53A.86.86,0,0,1,414.22,28.22Z"/><path class="cls-3" d="M439.5,42.1c-.57,0-.75.06-2.58.06l-9-21.33c-.23-.57-.35-.8-.92-.8s-.75.29-.92.8L416.8,42.15c-1.55,0-2-.06-2.58-.06a.93.93,0,0,0-.86,1,.88.88,0,0,0,.86,1,19.5,19.5,0,0,1,3.61-.29,21,21,0,0,1,3.73.29.91.91,0,0,0,.86-1,1,1,0,0,0-.86-1c-.57,0-1.26.06-2.69.06L421,37.22h9.57l2.06,4.93c-1.66,0-1.83-.06-2.41-.06a1,1,0,0,0-.86,1,.91.91,0,0,0,.86,1,27.28,27.28,0,0,1,4.59-.29h.06a25.22,25.22,0,0,1,4.64.29.91.91,0,0,0,.86-1A1,1,0,0,0,439.5,42.1Zm-17.66-6.88,4-9.23,3.84,9.23Z"/><path class="cls-3" d="M456.18,42.27c3.27,0,4.18-1.09,4.18-5.16a.88.88,0,0,1,1-.86.81.81,0,0,1,.86.86c0,.57-.23,2.12-.23,4.47v1.61a.91.91,0,0,1-.86,1c-.52,0-2.29-.23-3.21-.23l-9.75-.11a34.6,34.6,0,0,0-5.56.29.88.88,0,0,1-.86-1,.93.93,0,0,1,.86-1c.57,0,.92.06,3.67.06V22.26c-2.75,0-3.1.06-3.67.06a.88.88,0,0,1-.86-1,.93.93,0,0,1,.86-1,34.58,34.58,0,0,0,5.56.29h.29a34.56,34.56,0,0,0,5.56-.29.93.93,0,0,1,.86,1,.88.88,0,0,1-.86,1c-.57,0-.92-.06-3.67-.06v20Z"/><path class="cls-3" d="M320.25,57.65h-1.69L315,67.83h1.6l.84-2.41h3.85l.82,2.41h1.75Zm-2.32,6.26,1.41-4.11h0l1.38,4.11Z"/><polygon class="cls-3" points="326.15 67.83 327.87 67.83 327.87 63.51 331.25 63.51 331.25 61.99 327.87 61.99 327.87 59.28 332.54 59.28 332.54 57.69 326.15 57.69 326.15 67.83 326.15 67.83"/><polygon class="cls-3" points="334.89 67.83 336.61 67.83 336.61 63.51 339.99 63.51 339.99 61.99 336.61 61.99 336.61 59.28 341.28 59.28 341.28 57.69 334.89 57.69 334.89 67.83 334.89 67.83"/><polygon class="cls-3" points="343.74 67.83 345.46 67.83 345.46 57.69 343.74 57.69 343.74 67.83 343.74 67.83"/><polygon class="cls-3" points="348.7 67.83 355.08 67.83 355.08 66.27 350.41 66.27 350.41 57.69 348.7 57.69 348.7 67.83 348.7 67.83"/><polygon class="cls-3" points="357.55 67.83 359.28 67.83 359.28 57.69 357.55 57.69 357.55 67.83 357.55 67.83"/><path class="cls-3" d="M367,57.65h-1.68L361.7,67.83h1.6l.84-2.41H368l.82,2.41h1.75Zm-2.32,6.26,1.41-4.11h0l1.38,4.11Z"/><polygon class="cls-3" points="373.98 67.83 375.69 67.83 375.69 59.28 378.82 59.28 378.82 57.69 370.86 57.69 370.86 59.28 373.98 59.28 373.98 67.83 373.98 67.83"/><polygon class="cls-3" points="381.17 67.83 387.99 67.83 387.99 66.27 382.88 66.27 382.88 63.32 386.43 63.32 386.43 61.8 382.88 61.8 382.88 59.28 387.71 59.28 387.71 57.69 381.17 57.69 381.17 67.83 381.17 67.83"/><polygon class="cls-3" points="100.6 67.81 102.31 67.81 102.31 63.3 106.92 63.3 106.92 67.81 108.63 67.81 108.63 57.67 106.92 57.67 106.92 61.71 102.31 61.71 102.31 57.67 100.6 57.67 100.6 67.81 100.6 67.81"/><path class="cls-3" d="M116.22,57.63h-1.68l-3.59,10.18h1.6l.84-2.41h3.85l.82,2.41h1.75Zm-2.31,6.26,1.41-4.11h0l1.38,4.11Z"/><path class="cls-3" d="M127.32,63.59a2.69,2.69,0,0,0,2.24-2.87c0-2.07-1.4-3-3.81-3h-3.63V67.81h1.69v-4h1.78l2.27,4h1.84Zm-3.51-1.27V59.23h1.86c1.45,0,2.21.36,2.21,1.52s-.77,1.56-2.19,1.56Z"/><polygon class="cls-3" points="134.78 67.85 136.4 67.85 139.92 57.67 138.3 57.67 135.65 65.58 135.62 65.58 133 57.67 131.26 57.67 134.78 67.85 134.78 67.85"/><path class="cls-3" d="M145.88,57.63h-1.69L140.6,67.81h1.6L143,65.4h3.85l.82,2.41h1.75Zm-2.32,6.26L145,59.78h0l1.38,4.11Z"/><path class="cls-3" d="M157,63.59a2.69,2.69,0,0,0,2.25-2.87c0-2.07-1.4-3-3.81-3h-3.63V67.81h1.69v-4h1.78l2.28,4h1.83Zm-3.51-1.27V59.23h1.86c1.45,0,2.21.36,2.21,1.52s-.77,1.56-2.19,1.56Z"/><path class="cls-3" d="M165,57.67h-2.89V67.81H165c3.14,0,5.26-1.49,5.26-5.11S168.14,57.67,165,57.67Zm.15,8.6h-1.33v-7h1.3c2.33,0,3.43,1,3.43,3.44S167.43,66.27,165.11,66.27Z"/><path class="cls-3" d="M177.12,67.81h1.55V60.18h0a17.42,17.42,0,0,0,.62,2.14l2,5.49h1.52l2-5.49c.23-.71.45-1.37.6-2.07h0v7.56h1.66V57.67h-2.3l-2.63,8h0l-2.71-8h-2.26V67.81Z"/><polygon class="cls-3" points="190.18 67.81 197 67.81 197 66.25 191.89 66.25 191.89 63.3 195.44 63.3 195.44 61.78 191.89 61.78 191.89 59.26 196.73 59.26 196.73 57.67 190.18 57.67 190.18 67.81 190.18 67.81"/><path class="cls-3" d="M202.4,57.67h-2.89V67.81h2.89c3.14,0,5.26-1.49,5.26-5.11S205.58,57.67,202.4,57.67Zm.15,8.6h-1.33v-7h1.3c2.33,0,3.42,1,3.42,3.44S204.86,66.27,202.55,66.27Z"/><polygon class="cls-3" points="210.41 67.81 212.14 67.81 212.14 57.67 210.41 57.67 210.41 67.81 210.41 67.81"/><path class="cls-3" d="M219.33,68a3.93,3.93,0,0,0,4.08-3.37l-1.63-.37c-.38,1.52-1.13,2.18-2.44,2.18-1.71,0-2.74-1.33-2.74-3.74s1-3.63,2.71-3.63c1.34,0,1.93.69,2.31,2l1.63-.47a3.7,3.7,0,0,0-3.93-3.15c-2.55,0-4.45,1.84-4.45,5.23S216.73,68,219.33,68Z"/><path class="cls-3" d="M230.07,57.63h-1.68l-3.59,10.18h1.6l.84-2.41h3.84l.82,2.41h1.75Zm-2.32,6.26,1.42-4.11h0l1.38,4.11Z"/><polygon class="cls-3" points="235.97 67.81 242.35 67.81 242.35 66.25 237.69 66.25 237.69 57.67 235.97 57.67 235.97 67.81 235.97 67.81"/><path class="cls-3" d="M252,68c2.41,0,3.82-1.3,3.82-3,0-1.9-1.54-2.54-3.45-3.1-1.66-.49-2.38-.81-2.38-1.75,0-.74.64-1.15,1.77-1.15a2.8,2.8,0,0,1,2.56,1.48l1.25-.86a4,4,0,0,0-3.8-2.18c-2.06,0-3.47,1.14-3.47,2.86,0,1.93,1.58,2.47,3.53,3,1.67.49,2.3.9,2.3,1.78s-.83,1.31-2.07,1.31a2.94,2.94,0,0,1-2.79-1.77l-1.36.71A4.21,4.21,0,0,0,252,68Z"/><path class="cls-3" d="M262.3,68a3.93,3.93,0,0,0,4.08-3.37l-1.63-.37c-.38,1.52-1.12,2.18-2.44,2.18-1.71,0-2.74-1.33-2.74-3.74s1-3.63,2.71-3.63c1.34,0,1.93.69,2.31,2l1.63-.47a3.71,3.71,0,0,0-3.93-3.15c-2.55,0-4.45,1.84-4.45,5.23S259.7,68,262.3,68Z"/><polygon class="cls-3" points="268.98 67.81 270.7 67.81 270.7 63.3 275.3 63.3 275.3 67.81 277.01 67.81 277.01 57.67 275.3 57.67 275.3 61.71 270.7 61.71 270.7 57.67 268.98 57.67 268.98 67.81 268.98 67.81"/><path class="cls-3" d="M284.23,57.48c-2.58,0-4.59,1.85-4.59,5.26s2,5.26,4.59,5.26,4.56-1.85,4.56-5.26S286.79,57.48,284.23,57.48Zm0,9c-1.73,0-2.86-1.33-2.86-3.71s1.13-3.68,2.86-3.68,2.84,1.3,2.84,3.68S285.93,66.45,284.23,66.45Z"/><path class="cls-3" d="M295.52,57.48c-2.58,0-4.59,1.85-4.59,5.26s2,5.26,4.59,5.26,4.56-1.85,4.56-5.26S298.08,57.48,295.52,57.48Zm0,9c-1.73,0-2.86-1.33-2.86-3.71s1.14-3.68,2.86-3.68,2.84,1.3,2.84,3.68S297.22,66.45,295.52,66.45Z"/><polygon class="cls-3" points="302.71 67.81 309.1 67.81 309.1 66.25 304.42 66.25 304.42 57.67 302.71 57.67 302.71 67.81 302.71 67.81"/></svg>