<svg id="BWH" xmlns="http://www.w3.org/2000/svg" viewBox="0 0 465.43 104.95"><defs><style>.cls-1{fill:#efefef;}.cls-2,.cls-3,.cls-4,.cls-5,.cls-6,.cls-7{fill:#243842;}.cls-3{stroke:#243842;stroke-width:0.39px;}.cls-3,.cls-4,.cls-5,.cls-6,.cls-7{stroke-miterlimit:3.86;}.cls-4,.cls-5{stroke:#efefef;}.cls-4{stroke-width:0.7px;}.cls-5{stroke-width:0.71px;}.cls-6,.cls-7{stroke:#f1efef;}.cls-6{stroke-width:1.54px;}.cls-7{stroke-width:0.67px;}</style></defs><title>MGH-WHITE</title><path class="cls-1" d="M41.16,99.44,41,99.36C.91,78.27.91,49.47.91,5.89V5.56H81.4v.32c0,43.64,0,72.48-40.09,93.49ZM1.56,6.21c0,43.11.1,71.64,39.6,92.5,39.5-20.77,39.6-49.34,39.6-92.51Z"/><path class="cls-1" d="M41.19,95.55C2.6,75.7,4.07,42.63,4.07,9H78.14C78.14,43,79.38,75.7,41.19,95.55Z"/><path class="cls-2" d="M28,62.3c.24-.11.22.24.22.55v6.56c0,.5-.37.67-.84.69l-1.07,0v.55l3,0c.65,0,1.27,0,2.62,0v-.55l-.92,0c-.47,0-.84-.19-.84-.69V64.64c0-1.78.1-3.05.15-3.76l-.18-.15a41.91,41.91,0,0,1-4.43,1.49,2.39,2.39,0,0,0,.21,1Z"/><path class="cls-2" d="M37.29,66.58c.84.37,1.54.83,1.54,1.87a1.62,1.62,0,0,1-1.58,1.69,1.89,1.89,0,0,1-1.88-2,2.36,2.36,0,0,1,1-2Zm0-2c-.7-.3-1.42-.7-1.42-1.59a1.29,1.29,0,0,1,1.42-1.32,1.48,1.48,0,0,1,1.53,1.61,2,2,0,0,1-.87,1.57Zm.19-3.67c-2,0-3.14,1.13-3.14,2.75a2.47,2.47,0,0,0,1.48,2.28A2.74,2.74,0,0,0,34,68.31c0,1.27.9,2.59,3,2.59a3.28,3.28,0,0,0,3.44-3.27,2.63,2.63,0,0,0-1.84-2.55,2.5,2.5,0,0,0,1.39-2C40,61.54,38.8,60.88,37.43,60.88Z"/><path class="cls-2" d="M44.7,62.3c.24-.11.22.24.22.55v6.56c0,.5-.37.67-.84.69l-1.07,0v.55l3,0c.65,0,1.27,0,2.62,0v-.55l-.92,0c-.47,0-.84-.19-.84-.69V64.64c0-1.78.1-3.05.15-3.76l-.18-.15a41.75,41.75,0,0,1-4.43,1.49,2.39,2.39,0,0,0,.21,1Z"/><path class="cls-2" d="M52.51,62.3c.24-.11.22.24.22.55v6.56c0,.5-.37.67-.84.69l-1.07,0v.55l3,0c.65,0,1.27,0,2.62,0v-.55l-.92,0c-.47,0-.84-.19-.84-.69V64.64c0-1.78.1-3.05.15-3.76l-.18-.15a41.77,41.77,0,0,1-4.43,1.49,2.39,2.39,0,0,0,.21,1Z"/><path class="cls-3" d="M50.07,47.8c0-.57.39-.66,1.16-.82v-.77c-1.11,0-2.43.07-3.54.07s-2.22,0-3.33-.07v.93l1.2,0c.73,0,1.29.14,1.29.84v3a7.94,7.94,0,0,1-2.88.57c-4.08,0-6.1-3.42-6.1-7.35,0-3.58,2-6.26,5.76-6.26,1.86,0,3.88.52,4.76,1.56l.11,1.95h.88A30.33,30.33,0,0,1,49.91,38l-.14-.25a15.73,15.73,0,0,0-6.23-1.07c-4.83,0-9.07,2.61-9.07,7.82,0,5.42,3.81,8.32,9,8.32a18.11,18.11,0,0,0,6.62-1.36Z"/><ellipse class="cls-4" cx="41.59" cy="24.48" rx="9.47" ry="7.05"/><rect class="cls-5" x="30.37" y="22.11" width="22.51" height="6.15"/><polygon class="cls-6" points="19.41 31.64 41.52 24.74 63.72 31.64 19.41 31.64"/><path class="cls-7" d="M38.75,17.74h5.61c0-1.93-1.52-3.4-2.84-4.58C40.21,14.36,38.75,15.76,38.75,17.74Z"/><path class="cls-3" d="M31.4,40.16a5.46,5.46,0,0,1,.16-1.84c.11-.23.34-.34.93-.39l.84-.07V37c-1.13,0-2,.07-2.63.07s-1.5,0-2.61-.07c-.34.79-.7,1.72-1.11,2.56l-4.15,8.57-3.58-7.48c-.48-1-1.29-2.72-1.7-3.65-.91,0-1.81.07-2.72.07S13,37.05,12.1,37v.84l.84.07c.59,0,.82.16.93.39A5.46,5.46,0,0,1,14,40.16v9.25a5.46,5.46,0,0,1-.16,1.84c-.11.23-.34.34-.93.39l-.84.07v.84c.86,0,1.75-.07,2.61-.07s1.72,0,2.58.07V51.7l-.84-.07c-.59,0-.82-.16-.93-.39a5.44,5.44,0,0,1-.16-1.84V40h0l5.17,10.77c.29.64.59,1.25.82,1.88h.77c.36-.91.88-2,1.36-3l4.62-9.63h0v9.34A5.47,5.47,0,0,1,28,51.24c-.09.18-.34.27-.93.32l-.84.07v.91c.93,0,2.18-.07,3.54-.07s2.58,0,3.51.07v-.91l-.84-.07c-.59,0-.84-.14-.93-.32a5.46,5.46,0,0,1-.16-1.84Z"/><path class="cls-3" d="M57.94,40.16a5.4,5.4,0,0,1,.16-1.84c.09-.18.34-.27.94-.32l.85-.07V37c-.94,0-2.2.07-3.55.07s-2.63,0-3.57-.07v.91l.85.07c.6,0,.85.14.94.32a5.37,5.37,0,0,1,.16,1.84v9.25a5.37,5.37,0,0,1-.16,1.84c-.09.18-.34.27-.94.32l-.85.07v.91c.94,0,2.2-.07,3.57-.07s2.61,0,3.55.07v-.91L59,51.57c-.59,0-.85-.14-.94-.32a5.4,5.4,0,0,1-.16-1.84V45.1c.34,0,.78,0,1.85,0h3.34c1.08,0,1.51,0,1.85,0v4.31a5.41,5.41,0,0,1-.16,1.84c-.09.18-.34.27-.94.32l-.85.07v.91c.94,0,2.2-.07,3.57-.07s2.61,0,3.55.07v-.91l-.85-.07c-.59,0-.85-.14-.94-.32a5.37,5.37,0,0,1-.16-1.84V40.16a5.37,5.37,0,0,1,.16-1.84c.09-.18.34-.27.94-.32l.85-.07V37c-.94,0-2.2.07-3.55.07S64,37.05,63,37v.91l.85.07c.59,0,.85.14.94.32A5.4,5.4,0,0,1,65,40.16v3.58c-.34,0-.78,0-1.85,0H59.79c-1.08,0-1.51,0-1.85,0Z"/><path class="cls-1" d="M120.12,67.27a3.39,3.39,0,0,1-.18,1.45c-.21.64-2.23,1.24-5,1.24-7.29,0-11.39-5.06-11.39-12.1,0-6.3,3.5-10.72,10.22-10.72a15.23,15.23,0,0,1,5,.64c1.66.6,2.94,1.17,2.94,2.83v1.88h1.1a22.14,22.14,0,0,1,.71-5.38,27.92,27.92,0,0,0-8.78-1.45c-8.53,0-14.93,5-14.93,12.81,0,8.88,6.37,13,14.26,13a39.7,39.7,0,0,0,9.3-1.8V63.7c0-1,0-1.17.39-1.31l1-.35-.14-.88c-1.45,0-2.9.07-4.35.07s-2.87,0-4.32-.07v1.06l2.94.25c.92.07,1.2.43,1.2,1.24Z"/><path class="cls-1" d="M130.87,66.49a6.26,6.26,0,0,1-.32,2.65c-.21.35-.64.46-1.49.53l-1.27.1v1.06c1.27,0,2.44-.1,3.79-.1,2.19,0,5,.07,7.71.1s5.41-.07,7-.1a30.38,30.38,0,0,1,.57-5.8h-1.24c-.25,2.12-.71,3.68-1.24,4s-4.25.46-7.15.46a12.21,12.21,0,0,1-3-.28V59.17c1.1-.11,2.41-.11,4.1-.11,2.16,0,3.36.14,3.75.42.18.11.25.43.28.88l.18,2.09h1.06c0-1.27-.11-2.62-.11-3.92s.07-2.65.11-4.1h-1.06l-.18,1.84c0,.46-.11.78-.28.92-.39.25-1.59.39-3.75.39-1.7,0-3,0-4.1-.11V48a12.21,12.21,0,0,1,3-.28c2.26,0,5.06,0,6.93.74.28.11.32.5.32,1v2.3h1.24a23.68,23.68,0,0,1,.57-5.38c-1.38-.07-3-.11-4.56-.11-2,0-5.27.11-8.35.11-2,0-4-.07-6-.11v1.06l1.7.11c.85,0,1.27.18,1.49.53a6.26,6.26,0,0,1,.32,2.65Z"/><path class="cls-1" d="M153.38,66.49a6.26,6.26,0,0,1-.32,2.65c-.21.35-.64.46-1.49.53l-1.56.1v1.06c1.42,0,2.83-.1,4.1-.1s2.69.07,4.25.1V69.78l-1.56-.1c-.85-.07-1.27-.18-1.49-.53a6.26,6.26,0,0,1-.32-2.65V50.18h.07l16.66,20.7,3.18.57c0-.42-.11-.88-.11-1.31V50.61a6.26,6.26,0,0,1,.32-2.65c.21-.35.64-.46,1.49-.53l1.56-.11V46.25c-1.56,0-2.83.11-4.25.11s-2.69-.07-4.1-.11v1.06l1.56.11c.85.07,1.27.18,1.49.53a6.26,6.26,0,0,1,.32,2.65V67.13h-.11L156.18,46.25c-.64,0-1.27.11-1.91.11-1.27,0-2.69-.07-4.25-.11v1.06l1.56.11c.85.07,1.27.18,1.49.53a6.26,6.26,0,0,1,.32,2.65Z"/><path class="cls-1" d="M184.39,66.49a6.26,6.26,0,0,1-.32,2.65c-.21.35-.64.46-1.49.53l-1.27.1v1.06c1.27,0,2.44-.1,3.79-.1,2.19,0,5,.07,7.71.1s5.41-.07,7-.1a30.46,30.46,0,0,1,.57-5.8h-1.24c-.25,2.12-.71,3.68-1.24,4s-4.25.46-7.15.46a12.23,12.23,0,0,1-3-.28V59.17c1.1-.11,2.41-.11,4.1-.11,2.16,0,3.36.14,3.75.42.18.11.25.43.28.88l.18,2.09h1.06c0-1.27-.11-2.62-.11-3.92s.07-2.65.11-4.1h-1.06l-.18,1.84c0,.46-.11.78-.28.92-.39.25-1.59.39-3.75.39-1.7,0-3,0-4.1-.11V48a12.23,12.23,0,0,1,3-.28c2.26,0,5.06,0,6.93.74.28.11.32.5.32,1v2.3h1.24a23.62,23.62,0,0,1,.57-5.38c-1.38-.07-3-.11-4.56-.11-2,0-5.27.11-8.35.11-2,0-4-.07-6-.11v1.06l1.7.11c.85,0,1.27.18,1.49.53a6.26,6.26,0,0,1,.32,2.65Z"/><path class="cls-1" d="M210.79,48a13.75,13.75,0,0,1,3.61-.43c2.76,0,5.59,1.06,5.59,4.88a5.22,5.22,0,0,1-4.6,5,13.45,13.45,0,0,1-3.11.14l-.21.42c.6.74,1.27,1.42,1.84,2.19l6.51,8.74c.46.64,1,1.24,1.45,1.91.81,0,1.59-.1,2.41-.1s1.63.07,2.55.1V69.78a2.71,2.71,0,0,1-2.16-.92l-8-10.47c3.43-.67,6.9-3,6.9-6.83,0-2.55-1.49-5.41-7.15-5.31-2.05,0-4.1.11-6.19.11s-4.14-.07-6-.11v1.06l1.45.11c.85.07,1.27.18,1.49.53a6.26,6.26,0,0,1,.32,2.65V66.49a6.27,6.27,0,0,1-.32,2.65c-.21.35-.64.5-1.49.53l-1.7.1v1.06c1.84-.07,3.5-.1,5.24-.1s3.29,0,5.13.1V69.78l-1.7-.1c-.85,0-1.27-.18-1.49-.53a6.26,6.26,0,0,1-.32-2.65Z"/><path class="cls-1" d="M240.43,46H239.3c-1,2.55-2.16,5.17-3.26,7.64l-6.3,14.33a2.53,2.53,0,0,1-1.91,1.74l-1.31.1v1.06c1.34,0,2.69-.1,4.07-.1,1,0,2.37.07,4.07.1V69.78l-1.31-.1c-1.1-.11-1.7-.25-1.7-1A20.45,20.45,0,0,1,232.89,65l1-2.37h10.19l1.63,4.07a8.25,8.25,0,0,1,.74,2.26c0,.42-.71.67-1.45.71l-1.66.1v1.06c1.91,0,3.47-.1,4.7-.1,1.59,0,3.15.07,4.71.1V69.78l-1.2-.1c-.64-.07-1-.53-1.42-1.2s-.81-1.7-1.13-2.41Zm-5.94,15.25L239,50.68l4.46,10.54Z"/><path class="cls-1" d="M261.55,50.61a6.27,6.27,0,0,1,.32-2.65c.21-.35.64-.5,1.49-.53l1.7-.11V46.25c-1.84.07-3.5.11-5.13.11s-3.4,0-5.24-.11v1.06l1.7.11c.85,0,1.27.18,1.48.53a6.23,6.23,0,0,1,.32,2.65V67.38a2.26,2.26,0,0,1-.88,2.09l-1.1.57v.81c.92,0,1.8-.1,3-.1,2.19,0,4.53.07,7.71.1,2.62,0,5.41-.07,7-.1.28-1.77.53-4.14.74-6.08h-1.13l-.43,1.77a6.25,6.25,0,0,1-.74,2.26c-.6.57-4.92.67-7.82.67a12.22,12.22,0,0,1-3-.28Z"/><path class="cls-1" d="M309.31,50.61a6.28,6.28,0,0,1,.32-2.65c.21-.35.64-.5,1.49-.53l1.7-.11V46.25c-1.84.07-3.5.11-5.13.11s-3.4,0-5.24-.11v1.06l1.7.11c.85,0,1.27.18,1.49.53a6.27,6.27,0,0,1,.32,2.65v6.3c-.43,0-1.38.07-2.94.07h-8.28c-1.56,0-2.51,0-2.94-.07v-6.3a6.28,6.28,0,0,1,.32-2.65c.21-.35.64-.5,1.49-.53l1.7-.11V46.25c-1.84.07-3.5.11-5.13.11s-3.4,0-5.24-.11v1.06l1.7.11c.85,0,1.27.18,1.49.53a6.27,6.27,0,0,1,.32,2.65V66.49a6.28,6.28,0,0,1-.32,2.65c-.21.35-.64.5-1.49.53l-1.7.1v1.06c1.84-.07,3.5-.1,5.24-.1s3.29,0,5.13.1V69.78l-1.7-.1c-.85,0-1.27-.18-1.49-.53a6.29,6.29,0,0,1-.32-2.65V58.6c.42,0,1.38-.07,2.94-.07H303c1.56,0,2.51,0,2.94.07v7.89a6.28,6.28,0,0,1-.32,2.65c-.21.35-.64.5-1.49.53l-1.7.1v1.06c1.84-.07,3.5-.1,5.24-.1s3.29,0,5.13.1V69.78l-1.7-.1c-.85,0-1.27-.18-1.49-.53a6.29,6.29,0,0,1-.32-2.65Z"/><path class="cls-1" d="M326.94,71.44a13.55,13.55,0,0,0,13.69-13.69c0-7.85-5.38-12.1-12.95-12.1-8.21,0-13.3,5.63-13.3,12.91C314.38,66.49,319.76,71.44,326.94,71.44Zm.18-24.31c6.58,0,9.73,4.71,9.73,11.71,0,6.51-2.87,11.11-8.78,11.11-7,0-9.91-6.51-9.91-12.7C318.16,51.45,321,47.14,327.12,47.14Z"/><path class="cls-1" d="M358.9,52.13a24.71,24.71,0,0,1,.5-5,16.53,16.53,0,0,0-6.4-1.49c-4.25,0-9.06,2.51-9.06,8,0,3.68,2.19,5.41,7.75,6.05,3.61.43,6.23,1.38,6.23,4.74s-3.15,5.45-6.33,5.45c-2.8,0-5.59-1.35-5.77-2.83l-.28-2.37H344.4a31.34,31.34,0,0,1-.25,5.41,15.2,15.2,0,0,0,6.05,1.34c5.27,0,10.68-2.9,10.68-9,0-4-3.15-5.27-8.14-5.8-4.42-.49-5.84-2-5.84-4.39a5,5,0,0,1,5.24-5.17A7.85,7.85,0,0,1,356,48c1.31.81,1.45,1.17,1.56,2.12l.21,2Z"/><path class="cls-1" d="M371,48a13.74,13.74,0,0,1,3.61-.43c3.5,0,5.73,1.59,5.73,5.27a5.09,5.09,0,0,1-5.09,5.27,7.68,7.68,0,0,1-2.34-.35l.35,1.27a10.82,10.82,0,0,0,2.13.21c4.67,0,8.49-3.18,8.49-7.61,0-4-3.89-5.48-7.32-5.41-1.91,0-4,.11-6,.11s-4-.07-6.37-.11v1.06l1.59.11c.88.07,1.27.25,1.52.6a5.89,5.89,0,0,1,.36,2.58V66.49a6.28,6.28,0,0,1-.32,2.65c-.21.35-.64.5-1.49.53l-1.7.1v1.06c1.84-.07,3.5-.1,5.24-.1s3.29,0,5.13.1V69.78l-1.7-.1c-.85,0-1.27-.18-1.49-.53a6.29,6.29,0,0,1-.32-2.65Z"/><path class="cls-1" d="M392.92,50.61a6.24,6.24,0,0,1,.32-2.65c.21-.35.64-.5,1.49-.53l1.7-.11V46.25c-1.84.07-3.5.11-5.13.11s-3.4,0-5.24-.11v1.06l1.7.11c.85,0,1.27.18,1.48.53a6.2,6.2,0,0,1,.32,2.65V66.49a6.21,6.21,0,0,1-.32,2.65c-.21.35-.63.5-1.48.53l-1.7.1v1.06c1.84-.07,3.5-.1,5.24-.1s3.29,0,5.13.1V69.78l-1.7-.1c-.85,0-1.27-.18-1.49-.53a6.24,6.24,0,0,1-.32-2.65Z"/><path class="cls-1" d="M407.14,66.49a6.24,6.24,0,0,1-.32,2.65c-.21.35-.64.5-1.49.53l-1.7.1v1.06c1.84-.07,3.5-.1,5.24-.1s3.29,0,5.13.1V69.78l-1.7-.1c-.85,0-1.27-.18-1.48-.53a6.24,6.24,0,0,1-.32-2.65v-15a35.28,35.28,0,0,1,.14-3.54h5.48c1.06,0,1.35.32,1.42,1.17l.14,2.79h1.1c0-1.91.07-3.86.25-5.7-2.55,0-5.09.11-7.64.11h-5.13c-2.55,0-5.09-.11-7.64-.11.18,1.84.25,3.79.25,5.7H400l.14-2.79c.07-.85.35-1.17,1.42-1.17H407a35.22,35.22,0,0,1,.14,3.54Z"/><path class="cls-1" d="M430.89,46h-1.13c-1,2.55-2.16,5.17-3.25,7.64l-6.3,14.33a2.53,2.53,0,0,1-1.91,1.74l-1.31.1v1.06c1.35,0,2.69-.1,4.07-.1,1,0,2.37.07,4.07.1V69.78l-1.31-.1c-1.1-.11-1.7-.25-1.7-1A20.51,20.51,0,0,1,423.36,65l1-2.37h10.19l1.63,4.07a8.23,8.23,0,0,1,.74,2.26c0,.42-.71.67-1.45.71l-1.66.1v1.06c1.91,0,3.47-.1,4.71-.1,1.59,0,3.15.07,4.7.1V69.78l-1.2-.1c-.64-.07-1-.53-1.42-1.2s-.81-1.7-1.13-2.41Zm-5.94,15.25,4.49-10.54,4.46,10.54Z"/><path class="cls-1" d="M451.11,50.61a6.28,6.28,0,0,1,.32-2.65c.21-.35.64-.5,1.49-.53l1.7-.11V46.25c-1.84.07-3.5.11-5.13.11s-3.4,0-5.24-.11v1.06l1.7.11c.85,0,1.27.18,1.49.53a6.24,6.24,0,0,1,.32,2.65V67.38a2.26,2.26,0,0,1-.88,2.09l-1.1.57v.81c.92,0,1.8-.1,3-.1,2.19,0,4.53.07,7.71.1,2.62,0,5.41-.07,7-.1.28-1.77.53-4.14.75-6.08h-1.13l-.42,1.77a6.3,6.3,0,0,1-.74,2.26c-.6.57-4.92.67-7.82.67a12.21,12.21,0,0,1-3-.28Z"/><path class="cls-1" d="M128.3,13.36a6.26,6.26,0,0,1,.32-2.65c.21-.35.64-.46,1.49-.53l1.49-.11V9c-1,0-2.16.11-3.29.11S126.07,9,124.94,9l-9.27,19.67L106.33,9c-1.1,0-2.23.11-3.36.11S100.7,9,99.6,9v1.06l1.56.11c.85.07,1.27.18,1.49.53a6.26,6.26,0,0,1,.32,2.65V29.25a6.26,6.26,0,0,1-.32,2.65c-.21.35-.64.46-1.49.53l-1.56.11V33.6c1.42,0,2.83-.11,4.1-.11s2.69.07,4.25.11V32.54l-1.56-.11c-.85-.07-1.27-.18-1.49-.53a6.24,6.24,0,0,1-.32-2.65V13.18h.07L114.46,34h.71c.64-1.49,1.24-3,1.91-4.49l6.3-13.37c.46-1,1-1.95,1.49-2.9h.07V29.25a6.26,6.26,0,0,1-.32,2.65c-.21.35-.64.46-1.49.53l-1.2.11V33.6c1.34-.07,3-.11,4.74-.11s3.29,0,5.13.11V32.54l-1.7-.11c-.85,0-1.27-.18-1.49-.53a6.26,6.26,0,0,1-.32-2.65Z"/><path class="cls-1" d="M145.71,8.73h-1.13c-1,2.55-2.16,5.17-3.26,7.64L135,30.7a2.53,2.53,0,0,1-1.91,1.73l-1.31.11V33.6c1.34,0,2.69-.11,4.07-.11,1,0,2.37.07,4.07.11V32.54l-1.31-.11c-1.1-.11-1.7-.25-1.7-1a20.46,20.46,0,0,1,1.24-3.68l1-2.37h10.19L151,29.46a8.24,8.24,0,0,1,.74,2.26c0,.42-.71.67-1.45.71l-1.66.11V33.6c1.91,0,3.47-.11,4.71-.11,1.59,0,3.15.07,4.71.11V32.54l-1.2-.11c-.64-.07-1-.53-1.42-1.2s-.81-1.7-1.13-2.41ZM139.77,24l4.49-10.54L148.72,24Z"/><path class="cls-1" d="M174.14,14.88a24.85,24.85,0,0,1,.5-5,16.55,16.55,0,0,0-6.4-1.49c-4.25,0-9.06,2.51-9.06,8,0,3.68,2.19,5.41,7.75,6.05,3.61.43,6.23,1.38,6.23,4.74s-3.15,5.45-6.33,5.45c-2.79,0-5.59-1.34-5.77-2.83l-.28-2.37h-1.13a31.64,31.64,0,0,1-.25,5.41,15.16,15.16,0,0,0,6.05,1.34c5.27,0,10.69-2.9,10.69-9,0-4-3.15-5.27-8.14-5.8-4.42-.5-5.84-2-5.84-4.39a5,5,0,0,1,5.24-5.17,7.86,7.86,0,0,1,3.86.85c1.31.81,1.45,1.17,1.56,2.12l.21,2Z"/><path class="cls-1" d="M194.27,14.88a24.85,24.85,0,0,1,.49-5,16.55,16.55,0,0,0-6.4-1.49c-4.25,0-9.06,2.51-9.06,8,0,3.68,2.19,5.41,7.75,6.05,3.61.43,6.23,1.38,6.23,4.74s-3.15,5.45-6.33,5.45c-2.79,0-5.59-1.34-5.77-2.83l-.28-2.37h-1.13a31.64,31.64,0,0,1-.25,5.41,15.16,15.16,0,0,0,6.05,1.34c5.27,0,10.69-2.9,10.69-9,0-4-3.15-5.27-8.14-5.8-4.42-.5-5.84-2-5.84-4.39a5,5,0,0,1,5.24-5.17,7.86,7.86,0,0,1,3.86.85c1.31.81,1.45,1.17,1.56,2.12l.21,2Z"/><path class="cls-1" d="M210.31,8.73h-1.13c-1,2.55-2.16,5.17-3.26,7.64l-6.3,14.33a2.53,2.53,0,0,1-1.91,1.73l-1.31.11V33.6c1.34,0,2.69-.11,4.07-.11,1,0,2.37.07,4.07.11V32.54l-1.31-.11c-1.1-.11-1.7-.25-1.7-1a20.46,20.46,0,0,1,1.24-3.68l1-2.37H214l1.63,4.07a8.24,8.24,0,0,1,.74,2.26c0,.42-.71.67-1.45.71l-1.66.11V33.6c1.91,0,3.47-.11,4.71-.11,1.59,0,3.15.07,4.71.11V32.54l-1.2-.11c-.64-.07-1-.53-1.42-1.2s-.81-1.7-1.13-2.41ZM204.36,24l4.49-10.54L213.31,24Z"/><path class="cls-1" d="M245.51,30.52l-.32-.35A13.44,13.44,0,0,1,238,32.29c-7,0-11.64-4.53-11.64-11.53,0-6,3.5-10.86,10.16-10.86a13.08,13.08,0,0,1,4,.6c1.63.6,3,1.2,3,2.19v2.55h1.1a26.34,26.34,0,0,1,.67-5.38,26.11,26.11,0,0,0-8.17-1.45,16,16,0,0,0-10.23,3.4,11.83,11.83,0,0,0-4.32,9.52c0,8,5.73,12.88,14.22,12.88a17.37,17.37,0,0,0,7.71-1.91Z"/><path class="cls-1" d="M272.58,13.36a6.24,6.24,0,0,1,.32-2.65c.21-.35.64-.49,1.48-.53l1.7-.11V9c-1.84.07-3.5.11-5.13.11s-3.4,0-5.24-.11v1.06l1.7.11c.85,0,1.27.18,1.48.53a6.24,6.24,0,0,1,.32,2.65v6.3c-.42,0-1.38.07-2.94.07H258c-1.56,0-2.51,0-2.94-.07v-6.3a6.23,6.23,0,0,1,.32-2.65c.21-.35.64-.49,1.48-.53l1.7-.11V9c-1.84.07-3.5.11-5.13.11s-3.4,0-5.24-.11v1.06l1.7.11c.85,0,1.27.18,1.48.53a6.24,6.24,0,0,1,.32,2.65V29.25a6.24,6.24,0,0,1-.32,2.65c-.21.35-.64.5-1.48.53l-1.7.11V33.6c1.84-.07,3.5-.11,5.24-.11s3.29,0,5.13.11V32.54l-1.7-.11c-.85,0-1.27-.18-1.48-.53a6.23,6.23,0,0,1-.32-2.65V21.36c.42,0,1.38-.07,2.94-.07h8.28c1.56,0,2.51,0,2.94.07v7.89a6.24,6.24,0,0,1-.32,2.65c-.21.35-.64.5-1.48.53l-1.7.11V33.6c1.84-.07,3.5-.11,5.24-.11s3.29,0,5.13.11V32.54l-1.7-.11c-.85,0-1.27-.18-1.48-.53a6.24,6.24,0,0,1-.32-2.65Z"/><path class="cls-1" d="M282.08,25.92c0,6.48,3.54,8.28,9.56,8.28,7.15,0,10-3,10-10.61V13.36a6.27,6.27,0,0,1,.32-2.65c.21-.35.64-.46,1.49-.53l1.56-.11V9c-1.56,0-2.83.11-4.24.11S298.07,9,296.66,9v1.06l1.56.11c.85.07,1.27.18,1.48.53a6.24,6.24,0,0,1,.32,2.65V24.68c0,5.87-3.47,7.32-7.29,7.32-4.67,0-7.29-1.45-7.29-6.47V13.36a6.27,6.27,0,0,1,.32-2.65c.21-.35.64-.49,1.49-.53l1.7-.11V9c-1.84.07-3.5.11-5.13.11s-3.4,0-5.24-.11v1.06l1.7.11c.85,0,1.27.18,1.49.53a6.28,6.28,0,0,1,.32,2.65Z"/><path class="cls-1" d="M322.3,14.88a24.85,24.85,0,0,1,.49-5,16.54,16.54,0,0,0-6.4-1.49c-4.25,0-9.06,2.51-9.06,8,0,3.68,2.19,5.41,7.75,6.05,3.61.43,6.23,1.38,6.23,4.74s-3.15,5.45-6.33,5.45c-2.8,0-5.59-1.34-5.77-2.83l-.28-2.37h-1.13a31.75,31.75,0,0,1-.25,5.41,15.16,15.16,0,0,0,6.05,1.34c5.27,0,10.68-2.9,10.68-9,0-4-3.15-5.27-8.14-5.8-4.42-.5-5.84-2-5.84-4.39a5,5,0,0,1,5.24-5.17,7.87,7.87,0,0,1,3.86.85c1.31.81,1.45,1.17,1.56,2.12l.21,2Z"/><path class="cls-1" d="M330.43,29.25a6.24,6.24,0,0,1-.32,2.65c-.21.35-.64.46-1.49.53l-1.27.11V33.6c1.27,0,2.44-.11,3.79-.11,2.19,0,5,.07,7.71.11s5.41-.07,7-.11a30.47,30.47,0,0,1,.56-5.8h-1.24c-.25,2.12-.71,3.68-1.24,4s-4.25.46-7.15.46a12.29,12.29,0,0,1-3-.28V21.92c1.1-.11,2.41-.11,4.1-.11,2.16,0,3.36.14,3.75.42.18.11.25.42.28.88l.18,2.09h1.06c0-1.27-.11-2.62-.11-3.93s.07-2.65.11-4.1h-1.06L341.93,19c0,.46-.11.78-.28.92-.39.25-1.59.39-3.75.39-1.7,0-3,0-4.1-.11V10.78a12.29,12.29,0,0,1,3-.28c2.26,0,5.06,0,6.93.74.28.11.32.5.32,1v2.3h1.24a23.62,23.62,0,0,1,.57-5.38c-1.38-.07-3-.11-4.57-.11-2,0-5.27.11-8.35.11-2,0-4-.07-6-.11v1.06l1.7.11c.85,0,1.27.18,1.49.53a6.24,6.24,0,0,1,.32,2.65Z"/><path class="cls-1" d="M357.44,29.25a6.24,6.24,0,0,1-.32,2.65c-.21.35-.64.5-1.49.53l-1.7.11V33.6c1.84-.07,3.5-.11,5.24-.11s3.29,0,5.13.11V32.54l-1.7-.11c-.85,0-1.27-.18-1.49-.53a6.28,6.28,0,0,1-.32-2.65v-15a35.28,35.28,0,0,1,.14-3.54h5.48c1.06,0,1.35.32,1.42,1.17l.14,2.8h1.09c0-1.91.07-3.86.25-5.7-2.55,0-5.09.11-7.64.11h-5.13c-2.55,0-5.09-.11-7.64-.11.18,1.84.25,3.79.25,5.7h1.1l.14-2.8c.07-.85.35-1.17,1.41-1.17h5.48a35.22,35.22,0,0,1,.14,3.54Z"/><path class="cls-1" d="M380,29.25a6.28,6.28,0,0,1-.32,2.65c-.21.35-.64.5-1.49.53l-1.7.11V33.6c1.84-.07,3.5-.11,5.24-.11s3.29,0,5.13.11V32.54l-1.7-.11c-.85,0-1.27-.18-1.49-.53a6.24,6.24,0,0,1-.32-2.65v-15a35.21,35.21,0,0,1,.14-3.54H389c1.06,0,1.34.32,1.41,1.17l.14,2.8h1.1c0-1.91.07-3.86.25-5.7-2.55,0-5.1.11-7.64.11H379.1c-2.55,0-5.1-.11-7.64-.11.18,1.84.25,3.79.25,5.7h1.1l.14-2.8c.07-.85.35-1.17,1.42-1.17h5.48c.1,1.06.14,2.19.14,3.54Z"/><path class="cls-1" d="M409.18,14.88a24.84,24.84,0,0,1,.49-5,16.53,16.53,0,0,0-6.4-1.49c-4.24,0-9.06,2.51-9.06,8,0,3.68,2.19,5.41,7.75,6.05,3.61.43,6.23,1.38,6.23,4.74s-3.15,5.45-6.33,5.45c-2.8,0-5.59-1.34-5.77-2.83l-.28-2.37h-1.13a31.51,31.51,0,0,1-.25,5.41,15.15,15.15,0,0,0,6.05,1.34c5.27,0,10.69-2.9,10.69-9,0-4-3.15-5.27-8.14-5.8-4.42-.5-5.84-2-5.84-4.39a5,5,0,0,1,5.24-5.17,7.86,7.86,0,0,1,3.86.85c1.31.81,1.45,1.17,1.56,2.12l.21,2Z"/></svg>