<svg id="BWH" xmlns="http://www.w3.org/2000/svg" viewBox="0 0 465.43 104.95"><defs><style>.cls-1{fill:#243842;}.cls-2{fill:#008bb0;}</style></defs><title>MGH</title><path class="cls-1" d="M120.35,68.3a3.39,3.39,0,0,1-.18,1.45c-.21.64-2.23,1.24-5,1.24-7.28,0-11.38-5.06-11.38-12.09,0-6.29,3.5-10.71,10.22-10.71a15.22,15.22,0,0,1,5,.64c1.66.6,2.93,1.17,2.93,2.83v1.88H123a22.12,22.12,0,0,1,.71-5.38A27.9,27.9,0,0,0,115,46.69c-8.52,0-14.92,5-14.92,12.8,0,8.88,6.36,13,14.25,13a39.68,39.68,0,0,0,9.3-1.8V64.73c0-1,0-1.17.39-1.31l1-.35-.14-.88c-1.45,0-2.9.07-4.35.07s-2.86,0-4.31-.07v1.06l2.94.25c.92.07,1.2.43,1.2,1.24Z"/><path class="cls-1" d="M131.09,67.52a6.26,6.26,0,0,1-.32,2.65c-.21.35-.64.46-1.49.53l-1.27.1v1.06c1.27,0,2.44-.1,3.78-.1,2.19,0,5,.07,7.71.1s5.41-.07,7-.1A30.36,30.36,0,0,1,147,66h-1.24c-.25,2.12-.71,3.68-1.24,4s-4.24.46-7.14.46a12.21,12.21,0,0,1-3-.28V60.2c1.1-.11,2.4-.11,4.1-.11,2.16,0,3.36.14,3.75.42.18.11.25.43.28.88l.18,2.09h1.06c0-1.27-.11-2.61-.11-3.92s.07-2.65.11-4.1h-1.06l-.18,1.84c0,.46-.11.78-.28.92-.39.25-1.59.39-3.75.39-1.7,0-3,0-4.1-.11V49.06a12.21,12.21,0,0,1,3-.28c2.26,0,5.06,0,6.93.74.28.11.32.5.32,1v2.3h1.24a23.66,23.66,0,0,1,.57-5.37c-1.38-.07-3-.11-4.56-.11-2,0-5.27.11-8.34.11-2,0-4-.07-6-.11v1.06l1.7.11c.85,0,1.27.18,1.49.53a6.25,6.25,0,0,1,.32,2.65Z"/><path class="cls-1" d="M153.58,67.52a6.26,6.26,0,0,1-.32,2.65c-.21.35-.64.46-1.48.53l-1.56.1v1.06c1.41,0,2.83-.1,4.1-.1s2.69.07,4.24.1V70.81L157,70.7c-.85-.07-1.27-.18-1.48-.53a6.26,6.26,0,0,1-.32-2.65V51.22h.07L171.93,71.9l3.18.57c0-.42-.11-.88-.11-1.31V51.64a6.25,6.25,0,0,1,.32-2.65c.21-.35.64-.46,1.48-.53l1.56-.11V47.29c-1.56,0-2.83.11-4.24.11s-2.69-.07-4.1-.11v1.06l1.56.11c.85.07,1.27.18,1.48.53a6.25,6.25,0,0,1,.32,2.65V68.15h-.11l-16.9-20.86c-.64,0-1.27.11-1.91.11-1.27,0-2.69-.07-4.24-.11v1.06l1.56.11c.85.07,1.27.18,1.48.53a6.25,6.25,0,0,1,.32,2.65Z"/><path class="cls-1" d="M184.57,67.52a6.26,6.26,0,0,1-.32,2.65c-.21.35-.64.46-1.48.53l-1.27.1v1.06c1.27,0,2.44-.1,3.78-.1,2.19,0,5,.07,7.71.1s5.41-.07,7-.1a30.44,30.44,0,0,1,.57-5.8h-1.24c-.25,2.12-.71,3.68-1.24,4s-4.24.46-7.14.46a12.22,12.22,0,0,1-3-.28V60.2c1.1-.11,2.4-.11,4.1-.11,2.16,0,3.36.14,3.75.42.18.11.25.43.28.88l.18,2.09h1.06c0-1.27-.11-2.61-.11-3.92s.07-2.65.11-4.1h-1.06l-.18,1.84c0,.46-.11.78-.28.92-.39.25-1.59.39-3.75.39-1.7,0-3,0-4.1-.11V49.06a12.22,12.22,0,0,1,3-.28c2.26,0,5.06,0,6.93.74.28.11.32.5.32,1v2.3h1.24a23.61,23.61,0,0,1,.57-5.37c-1.38-.07-3-.11-4.56-.11-2,0-5.27.11-8.35.11-2,0-4-.07-6-.11v1.06l1.7.11c.85,0,1.27.18,1.48.53a6.26,6.26,0,0,1,.32,2.65Z"/><path class="cls-1" d="M210.95,49.06a13.74,13.74,0,0,1,3.61-.43c2.76,0,5.59,1.06,5.59,4.88a5.22,5.22,0,0,1-4.6,4.95,13.44,13.44,0,0,1-3.11.14l-.21.42c.6.74,1.27,1.41,1.84,2.19L220.56,70c.46.64,1,1.24,1.45,1.91.81,0,1.59-.1,2.41-.1s1.63.07,2.55.1V70.81a2.71,2.71,0,0,1-2.16-.92l-8-10.47c3.43-.67,6.89-3,6.89-6.82,0-2.55-1.48-5.41-7.14-5.3-2.05,0-4.1.11-6.19.11s-4.14-.07-6-.11v1.06l1.45.11c.85.07,1.27.18,1.48.53a6.26,6.26,0,0,1,.32,2.65V67.52a6.26,6.26,0,0,1-.32,2.65c-.21.35-.64.49-1.48.53l-1.7.1v1.06c1.84-.07,3.5-.1,5.23-.1s3.29,0,5.13.1V70.81l-1.7-.1c-.85,0-1.27-.18-1.48-.53a6.26,6.26,0,0,1-.32-2.65Z"/><path class="cls-1" d="M240.57,47h-1.13c-1,2.55-2.16,5.16-3.25,7.64L229.89,69A2.53,2.53,0,0,1,228,70.7l-1.31.1v1.06c1.34,0,2.69-.1,4.07-.1,1,0,2.37.07,4.07.1V70.81l-1.31-.1c-1.1-.11-1.7-.25-1.7-1A20.43,20.43,0,0,1,233,66l1-2.37h10.18l1.63,4.07a8.24,8.24,0,0,1,.74,2.26c0,.42-.71.67-1.45.71l-1.66.1v1.06c1.91,0,3.46-.1,4.7-.1,1.59,0,3.15.07,4.7.1V70.81l-1.2-.1c-.64-.07-1-.53-1.41-1.2s-.81-1.7-1.13-2.4Zm-5.94,15.24,4.49-10.54,4.46,10.54Z"/><path class="cls-1" d="M261.68,51.64A6.27,6.27,0,0,1,262,49c.21-.35.64-.5,1.49-.53l1.7-.11V47.29c-1.84.07-3.5.11-5.13.11s-3.39,0-5.23-.11v1.06l1.7.11c.85,0,1.27.18,1.48.53a6.23,6.23,0,0,1,.32,2.65V68.4a2.26,2.26,0,0,1-.88,2.09l-1.1.57v.81c.92,0,1.8-.1,3-.1,2.19,0,4.53.07,7.71.1,2.62,0,5.41-.07,7-.1.28-1.77.53-4.14.74-6.08h-1.13l-.43,1.77a6.25,6.25,0,0,1-.74,2.26c-.6.57-4.91.67-7.81.67a12.21,12.21,0,0,1-3-.28Z"/><path class="cls-1" d="M309.4,51.64a6.28,6.28,0,0,1,.32-2.65c.21-.35.64-.5,1.49-.53l1.7-.11V47.29c-1.84.07-3.5.11-5.13.11s-3.4,0-5.23-.11v1.06l1.7.11c.85,0,1.27.18,1.49.53a6.27,6.27,0,0,1,.32,2.65v6.29c-.43,0-1.38.07-2.94.07h-8.27c-1.56,0-2.51,0-2.93-.07V51.64a6.28,6.28,0,0,1,.32-2.65c.21-.35.64-.5,1.49-.53l1.7-.11V47.29c-1.84.07-3.5.11-5.13.11s-3.4,0-5.23-.11v1.06l1.7.11c.85,0,1.27.18,1.49.53a6.27,6.27,0,0,1,.32,2.65V67.52a6.27,6.27,0,0,1-.32,2.65c-.21.35-.64.49-1.49.53l-1.7.1v1.06c1.84-.07,3.5-.1,5.23-.1s3.29,0,5.13.1V70.81l-1.7-.1c-.85,0-1.27-.18-1.49-.53a6.28,6.28,0,0,1-.32-2.65V59.64c.42,0,1.38-.07,2.93-.07h8.27c1.55,0,2.51,0,2.94.07v7.88a6.27,6.27,0,0,1-.32,2.65c-.21.35-.64.49-1.49.53l-1.7.1v1.06c1.84-.07,3.5-.1,5.23-.1s3.29,0,5.13.1V70.81l-1.7-.1c-.85,0-1.27-.18-1.49-.53a6.28,6.28,0,0,1-.32-2.65Z"/><path class="cls-1" d="M327,72.47A13.54,13.54,0,0,0,340.7,58.79c0-7.85-5.37-12.09-12.94-12.09-8.2,0-13.29,5.62-13.29,12.91C314.46,67.52,319.84,72.47,327,72.47Zm.18-24.29c6.58,0,9.72,4.7,9.72,11.7,0,6.51-2.87,11.1-8.77,11.1-7,0-9.9-6.51-9.9-12.69C318.25,52.49,321,48.18,327.19,48.18Z"/><path class="cls-1" d="M359,53.16a24.69,24.69,0,0,1,.5-5,16.52,16.52,0,0,0-6.4-1.48c-4.24,0-9.05,2.51-9.05,8,0,3.68,2.19,5.41,7.74,6,3.61.43,6.22,1.38,6.22,4.74s-3.15,5.45-6.33,5.45c-2.79,0-5.59-1.34-5.76-2.83l-.28-2.37h-1.13a31.32,31.32,0,0,1-.25,5.41,15.19,15.19,0,0,0,6,1.34c5.27,0,10.68-2.9,10.68-8.94,0-4-3.15-5.27-8.13-5.8-4.42-.49-5.83-2-5.83-4.38a5,5,0,0,1,5.23-5.16,7.84,7.84,0,0,1,3.85.85c1.31.81,1.45,1.17,1.56,2.12l.21,2Z"/><path class="cls-1" d="M371.09,49.06a13.73,13.73,0,0,1,3.61-.43c3.5,0,5.73,1.59,5.73,5.27a5.09,5.09,0,0,1-5.09,5.27,7.67,7.67,0,0,1-2.33-.35l.35,1.27a10.82,10.82,0,0,0,2.12.21c4.67,0,8.48-3.18,8.48-7.6,0-4-3.89-5.48-7.32-5.41-1.91,0-4,.11-6,.11s-4-.07-6.36-.11v1.06l1.59.11c.88.07,1.27.25,1.52.6a5.89,5.89,0,0,1,.36,2.58V67.52a6.27,6.27,0,0,1-.32,2.65c-.21.35-.64.49-1.49.53l-1.7.1v1.06c1.84-.07,3.5-.1,5.23-.1s3.29,0,5.13.1V70.81l-1.7-.1c-.85,0-1.27-.18-1.49-.53a6.28,6.28,0,0,1-.32-2.65Z"/><path class="cls-1" d="M392.95,51.64a6.23,6.23,0,0,1,.32-2.65c.21-.35.64-.5,1.49-.53l1.7-.11V47.29c-1.84.07-3.5.11-5.13.11s-3.4,0-5.23-.11v1.06l1.7.11c.85,0,1.27.18,1.48.53a6.2,6.2,0,0,1,.32,2.65V67.52a6.2,6.2,0,0,1-.32,2.65c-.21.35-.63.49-1.48.53l-1.7.1v1.06c1.84-.07,3.5-.1,5.23-.1s3.29,0,5.13.1V70.81l-1.7-.1c-.85,0-1.27-.18-1.49-.53a6.24,6.24,0,0,1-.32-2.65Z"/><path class="cls-1" d="M407.16,67.52a6.24,6.24,0,0,1-.32,2.65c-.21.35-.64.49-1.49.53l-1.7.1v1.06c1.84-.07,3.5-.1,5.23-.1s3.29,0,5.13.1V70.81l-1.7-.1c-.85,0-1.27-.18-1.48-.53a6.23,6.23,0,0,1-.32-2.65v-15a35.26,35.26,0,0,1,.14-3.54h5.48c1.06,0,1.34.32,1.42,1.17L417.7,53h1.1c0-1.91.07-3.85.25-5.69-2.55,0-5.09.11-7.64.11h-5.13c-2.55,0-5.09-.11-7.64-.11.18,1.84.25,3.78.25,5.69H400l.14-2.79c.07-.85.35-1.17,1.41-1.17H407a35.2,35.2,0,0,1,.14,3.54Z"/><path class="cls-1" d="M430.9,47h-1.13c-1,2.55-2.16,5.16-3.25,7.64L420.22,69a2.53,2.53,0,0,1-1.91,1.73l-1.31.1v1.06c1.34,0,2.69-.1,4.07-.1,1,0,2.37.07,4.07.1V70.81l-1.31-.1c-1.1-.11-1.7-.25-1.7-1A20.5,20.5,0,0,1,423.37,66l1-2.37h10.18l1.63,4.07a8.23,8.23,0,0,1,.74,2.26c0,.42-.71.67-1.45.71l-1.66.1v1.06c1.91,0,3.47-.1,4.7-.1,1.59,0,3.15.07,4.7.1V70.81l-1.2-.1c-.64-.07-1-.53-1.42-1.2s-.81-1.7-1.13-2.4ZM425,62.25l4.49-10.54,4.46,10.54Z"/><path class="cls-1" d="M451.1,51.64a6.28,6.28,0,0,1,.32-2.65c.21-.35.64-.5,1.49-.53l1.7-.11V47.29c-1.84.07-3.5.11-5.13.11s-3.39,0-5.23-.11v1.06l1.7.11c.85,0,1.27.18,1.49.53a6.23,6.23,0,0,1,.32,2.65V68.4a2.26,2.26,0,0,1-.88,2.09l-1.1.57v.81c.92,0,1.8-.1,3-.1,2.19,0,4.53.07,7.71.1,2.62,0,5.41-.07,7-.1.28-1.77.53-4.14.74-6.08H463l-.42,1.77a6.29,6.29,0,0,1-.74,2.26c-.6.57-4.92.67-7.81.67a12.2,12.2,0,0,1-3-.28Z"/><path class="cls-1" d="M128.51,14.43a6.26,6.26,0,0,1,.32-2.65c.21-.35.64-.46,1.48-.53l1.49-.11V10.08c-1,0-2.16.11-3.29.11s-2.23-.07-3.36-.11l-9.26,19.66-9.33-19.66c-1.1,0-2.23.11-3.36.11s-2.26-.07-3.36-.11v1.06l1.56.11c.85.07,1.27.18,1.49.53a6.26,6.26,0,0,1,.32,2.65V30.3a6.26,6.26,0,0,1-.32,2.65c-.21.35-.64.46-1.49.53l-1.56.11v1.06c1.41,0,2.83-.11,4.1-.11s2.69.07,4.24.11V33.59l-1.56-.11c-.85-.07-1.27-.18-1.48-.53a6.23,6.23,0,0,1-.32-2.65V14.25h.07L114.69,35h.71c.64-1.48,1.24-3,1.91-4.49l6.29-13.36c.46-1,1-1.94,1.49-2.9h.07V30.3a6.25,6.25,0,0,1-.32,2.65c-.21.35-.64.46-1.49.53l-1.2.11v1.06c1.34-.07,3-.11,4.74-.11s3.29,0,5.13.11V33.59l-1.7-.11c-.85,0-1.27-.18-1.48-.53a6.25,6.25,0,0,1-.32-2.65Z"/><path class="cls-1" d="M145.91,9.79h-1.13c-1,2.55-2.16,5.16-3.25,7.64l-6.29,14.32a2.53,2.53,0,0,1-1.91,1.73l-1.31.11v1.06c1.34,0,2.69-.11,4.07-.11,1,0,2.37.07,4.07.11V33.59l-1.31-.11c-1.1-.11-1.7-.25-1.7-1a20.45,20.45,0,0,1,1.24-3.68l1-2.37h10.18l1.63,4.07a8.24,8.24,0,0,1,.74,2.26c0,.42-.71.67-1.45.71l-1.66.11v1.06c1.91,0,3.47-.11,4.7-.11,1.59,0,3.15.07,4.7.11V33.59l-1.2-.11c-.64-.07-1-.53-1.41-1.2s-.81-1.7-1.13-2.4ZM140,25l4.49-10.54L148.92,25Z"/><path class="cls-1" d="M174.33,15.95a24.84,24.84,0,0,1,.5-5,16.54,16.54,0,0,0-6.4-1.48c-4.24,0-9.05,2.51-9.05,8,0,3.68,2.19,5.41,7.74,6,3.61.42,6.22,1.38,6.22,4.74S170.19,33.7,167,33.7c-2.79,0-5.59-1.34-5.76-2.83L161,28.5h-1.13a31.62,31.62,0,0,1-.25,5.41,15.15,15.15,0,0,0,6,1.34c5.27,0,10.68-2.9,10.68-8.94,0-4-3.15-5.27-8.13-5.8-4.42-.5-5.83-2-5.83-4.38A5,5,0,0,1,167.57,11a7.86,7.86,0,0,1,3.85.85c1.31.81,1.45,1.17,1.56,2.12l.21,2Z"/><path class="cls-1" d="M194.44,15.95a24.83,24.83,0,0,1,.49-5,16.53,16.53,0,0,0-6.4-1.48c-4.24,0-9.05,2.51-9.05,8,0,3.68,2.19,5.41,7.74,6,3.61.42,6.22,1.38,6.22,4.74s-3.15,5.45-6.33,5.45c-2.79,0-5.59-1.34-5.76-2.83l-.28-2.37h-1.13a31.62,31.62,0,0,1-.25,5.41,15.15,15.15,0,0,0,6,1.34c5.27,0,10.68-2.9,10.68-8.94,0-4-3.15-5.27-8.13-5.8-4.42-.5-5.83-2-5.83-4.38A5,5,0,0,1,187.68,11a7.86,7.86,0,0,1,3.85.85c1.31.81,1.45,1.17,1.56,2.12l.21,2Z"/><path class="cls-1" d="M210.47,9.79h-1.13c-1,2.55-2.16,5.16-3.25,7.64l-6.29,14.32a2.53,2.53,0,0,1-1.91,1.73l-1.31.11v1.06c1.34,0,2.69-.11,4.07-.11,1,0,2.37.07,4.07.11V33.59l-1.31-.11c-1.1-.11-1.7-.25-1.7-1a20.45,20.45,0,0,1,1.24-3.68l1-2.37h10.18l1.63,4.07a8.24,8.24,0,0,1,.74,2.26c0,.42-.71.67-1.45.71l-1.66.11v1.06c1.91,0,3.47-.11,4.7-.11,1.59,0,3.15.07,4.7.11V33.59l-1.2-.11c-.64-.07-1-.53-1.41-1.2s-.81-1.7-1.13-2.4ZM204.53,25,209,14.5,213.47,25Z"/><path class="cls-1" d="M245.65,31.57l-.32-.35a13.43,13.43,0,0,1-7.18,2.12c-7,0-11.63-4.53-11.63-11.53,0-6,3.5-10.86,10.15-10.86a13.08,13.08,0,0,1,4,.6c1.63.6,3,1.2,3,2.19V16.3h1.1a26.32,26.32,0,0,1,.67-5.37,26.1,26.1,0,0,0-8.17-1.45A16,16,0,0,0,227,12.87a11.82,11.82,0,0,0-4.31,9.51c0,8,5.73,12.87,14.21,12.87a17.36,17.36,0,0,0,7.71-1.91Z"/><path class="cls-1" d="M272.7,14.43a6.24,6.24,0,0,1,.32-2.65c.21-.35.64-.49,1.48-.53l1.7-.11V10.08c-1.84.07-3.5.11-5.13.11s-3.39,0-5.23-.11v1.06l1.7.11c.85,0,1.27.18,1.48.53a6.23,6.23,0,0,1,.32,2.65v6.29c-.42,0-1.38.07-2.94.07h-8.27c-1.55,0-2.51,0-2.93-.07V14.43a6.23,6.23,0,0,1,.32-2.65c.21-.35.64-.49,1.48-.53l1.7-.11V10.08c-1.84.07-3.5.11-5.13.11s-3.39,0-5.23-.11v1.06l1.7.11c.85,0,1.27.18,1.48.53a6.23,6.23,0,0,1,.32,2.65V30.3a6.23,6.23,0,0,1-.32,2.65c-.21.35-.64.5-1.48.53l-1.7.11v1.06c1.84-.07,3.5-.11,5.23-.11s3.29,0,5.13.11V33.59l-1.7-.11c-.85,0-1.27-.18-1.48-.53a6.23,6.23,0,0,1-.32-2.65V22.42c.42,0,1.38-.07,2.93-.07h8.27c1.56,0,2.51,0,2.94.07V30.3A6.23,6.23,0,0,1,269,33c-.21.35-.64.5-1.48.53l-1.7.11v1.06c1.84-.07,3.5-.11,5.23-.11s3.29,0,5.13.11V33.59l-1.7-.11c-.85,0-1.27-.18-1.48-.53a6.23,6.23,0,0,1-.32-2.65Z"/><path class="cls-1" d="M282.18,27c0,6.47,3.54,8.27,9.55,8.27,7.14,0,10-3,10-10.61V14.43a6.27,6.27,0,0,1,.32-2.65c.21-.35.64-.46,1.49-.53l1.55-.11V10.08c-1.55,0-2.83.11-4.24.11s-2.69-.07-4.1-.11v1.06l1.56.11c.85.07,1.27.18,1.48.53a6.23,6.23,0,0,1,.32,2.65V25.74c0,5.87-3.47,7.32-7.29,7.32-4.67,0-7.28-1.45-7.28-6.47V14.43a6.27,6.27,0,0,1,.32-2.65c.21-.35.64-.49,1.49-.53l1.7-.11V10.08c-1.84.07-3.5.11-5.13.11s-3.39,0-5.23-.11v1.06l1.7.11c.85,0,1.27.18,1.49.53a6.28,6.28,0,0,1,.32,2.65Z"/><path class="cls-1" d="M322.38,15.95a24.83,24.83,0,0,1,.49-5,16.53,16.53,0,0,0-6.4-1.48c-4.24,0-9.05,2.51-9.05,8,0,3.68,2.19,5.41,7.74,6,3.61.42,6.22,1.38,6.22,4.74s-3.14,5.45-6.33,5.45c-2.79,0-5.59-1.34-5.76-2.83L309,28.5h-1.13a31.73,31.73,0,0,1-.25,5.41,15.15,15.15,0,0,0,6,1.34c5.27,0,10.68-2.9,10.68-8.94,0-4-3.15-5.27-8.13-5.8-4.42-.5-5.84-2-5.84-4.38A5,5,0,0,1,315.63,11a7.86,7.86,0,0,1,3.86.85c1.31.81,1.45,1.17,1.55,2.12l.21,2Z"/><path class="cls-1" d="M330.51,30.3a6.23,6.23,0,0,1-.32,2.65c-.21.35-.64.46-1.49.53l-1.27.11v1.06c1.27,0,2.44-.11,3.78-.11,2.19,0,5,.07,7.71.11s5.41-.07,7-.11a30.45,30.45,0,0,1,.56-5.8h-1.24c-.25,2.12-.71,3.68-1.24,4s-4.24.46-7.14.46a12.28,12.28,0,0,1-3-.28V23c1.1-.11,2.4-.11,4.1-.11,2.16,0,3.36.14,3.75.42.18.11.25.42.28.88l.18,2.09h1.06c0-1.27-.11-2.62-.11-3.93s.07-2.65.11-4.1h-1.06L342,20.08c0,.46-.11.78-.28.92-.39.25-1.59.39-3.75.39-1.7,0-3,0-4.1-.11V11.84a12.28,12.28,0,0,1,3-.28c2.26,0,5.05,0,6.93.74.28.11.32.5.32,1v2.3h1.24a23.6,23.6,0,0,1,.57-5.37c-1.38-.07-3-.11-4.56-.11-2,0-5.27.11-8.35.11-2,0-4-.07-6-.11v1.06l1.7.11c.85,0,1.27.18,1.49.53a6.24,6.24,0,0,1,.32,2.65Z"/><path class="cls-1" d="M357.49,30.3a6.23,6.23,0,0,1-.32,2.65c-.21.35-.64.5-1.49.53l-1.7.11v1.06c1.84-.07,3.5-.11,5.23-.11s3.29,0,5.13.11V33.59l-1.7-.11c-.85,0-1.27-.18-1.49-.53a6.28,6.28,0,0,1-.32-2.65v-15a35.26,35.26,0,0,1,.14-3.54h5.48c1.06,0,1.35.32,1.42,1.17l.14,2.79h1.09c0-1.91.07-3.85.25-5.69-2.55,0-5.09.11-7.64.11h-5.13c-2.55,0-5.09-.11-7.64-.11.18,1.84.25,3.78.25,5.69h1.1l.14-2.79c.07-.85.35-1.17,1.41-1.17h5.48a35.19,35.19,0,0,1,.14,3.54Z"/><path class="cls-1" d="M380,30.3A6.28,6.28,0,0,1,379.7,33c-.21.35-.64.5-1.49.53l-1.7.11v1.06c1.84-.07,3.5-.11,5.23-.11s3.29,0,5.13.11V33.59l-1.7-.11c-.85,0-1.27-.18-1.49-.53a6.23,6.23,0,0,1-.32-2.65v-15a35.19,35.19,0,0,1,.14-3.54H389c1.06,0,1.34.32,1.41,1.17l.14,2.79h1.1c0-1.91.07-3.85.25-5.69-2.55,0-5.09.11-7.64.11h-5.13c-2.55,0-5.09-.11-7.64-.11.18,1.84.25,3.78.25,5.69h1.1L373,13c.07-.85.35-1.17,1.42-1.17h5.48c.1,1.06.14,2.19.14,3.54Z"/><path class="cls-1" d="M409.2,15.95a24.83,24.83,0,0,1,.49-5,16.52,16.52,0,0,0-6.4-1.48c-4.24,0-9,2.51-9,8,0,3.68,2.19,5.41,7.74,6,3.61.42,6.22,1.38,6.22,4.74s-3.15,5.45-6.33,5.45c-2.79,0-5.59-1.34-5.76-2.83l-.28-2.37H394.7a31.48,31.48,0,0,1-.25,5.41,15.14,15.14,0,0,0,6,1.34c5.27,0,10.68-2.9,10.68-8.94,0-4-3.15-5.27-8.13-5.8-4.42-.5-5.83-2-5.83-4.38A5,5,0,0,1,402.44,11a7.85,7.85,0,0,1,3.85.85c1.31.81,1.45,1.17,1.56,2.12l.21,2Z"/><path class="cls-2" d="M41.44,100.44l-.15-.08C1.21,79.29,1.21,50.51,1.21,7V6.63H81.65v.32c0,43.61,0,72.43-40.07,93.42ZM1.86,7.28c0,43.08.1,71.59,39.58,92.43C80.9,79,81,50.41,81,7.27Z"/><path class="cls-2" d="M78.63,13.21V9.87H4.14v3.81c0,16.52-.05,32.13,4.59,46.45,5.19,16,15.87,28,32.63,36.62l.11.06.11-.06C78.71,77.47,78.67,46.26,78.63,13.21Zm-36.84,1c1.15,1,2.48,2.27,2.78,3.85a13.16,13.16,0,0,0-5.48,0C39.39,16.48,40.65,15.27,41.79,14.22Zm.07,4.26c3.74,0,6.94,1.63,8.48,4h-17C34.92,20.12,38.13,18.49,41.87,18.49ZM30.66,23.17H53.15v4.55L41.8,24.19,30.66,27.66ZM41.8,25.8,64,32.69H19.7ZM32.2,71.72c-1.35,0-2,0-2.62,0l-3,0v-.55l1.07,0c.47,0,.84-.19.84-.69V63.88c0-.31,0-.65-.22-.55l-2.07,1a2.39,2.39,0,0,1-.21-1,41.89,41.89,0,0,0,4.43-1.49l.18.15c0,.71-.15,2-.15,3.76v4.77c0,.5.37.67.84.69l.92,0ZM33.8,39.1l-1,.08c-.6,0-.71.16-.77.28a6,6,0,0,0-.14,1.75v9.24A6,6,0,0,0,32,52.19c.05.11.3.17.77.21l1,.08v1.29l-.77,0c-.83,0-1.86-.05-2.94-.05s-2.13,0-3,.05l-.77,0V52.48l1-.08c.47,0,.71-.1.77-.21a6,6,0,0,0,.14-1.75V41.89L24,50.82c-.6,1.22-1.05,2.23-1.35,3l-.05.13h-1l0-.13c-.19-.53-.43-1-.68-1.59l-.13-.27L15.86,41.86v8.58A5.94,5.94,0,0,0,16,52.19c.06.12.16.23.77.28l1,.08v1.22h-.2l-.81,0c-1.18,0-2.37,0-3.57,0l-.8,0h-.2V52.55l1-.08c.6,0,.71-.16.77-.28a6,6,0,0,0,.14-1.75V41.2A6,6,0,0,0,14,39.46c-.06-.11-.16-.23-.77-.28l-1-.08V37.88h.2l.92,0q1.79.06,3.59,0l.92,0H18L18,38c.29.66.78,1.69,1.21,2.61l.49,1,3.4,7.1,4-8.19c.29-.59.55-1.23.81-1.84l.3-.71.05-.12h.13l1.34,0,1.26,0,1.26,0,1.36,0h.2Zm3.5,32.83c-2.07,0-3-1.32-3-2.59a2.74,2.74,0,0,1,1.73-2.4,2.47,2.47,0,0,1-1.48-2.28c0-1.63,1.13-2.75,3.14-2.75,1.36,0,2.58.66,2.58,2.17a2.5,2.5,0,0,1-1.39,2,2.63,2.63,0,0,1,1.84,2.55A3.27,3.27,0,0,1,37.3,71.93Zm11.61-.21c-1.35,0-2,0-2.62,0l-3,0v-.55l1.07,0c.47,0,.84-.19.84-.69V63.88c0-.31,0-.65-.22-.55l-2.07,1a2.39,2.39,0,0,1-.21-1,41.74,41.74,0,0,0,4.43-1.49l.18.15c0,.71-.15,2-.15,3.76v4.77c0,.5.37.67.84.69l.92,0ZM43.73,54.09c-5.65,0-9.17-3.26-9.17-8.51,0-5.54,4.65-8,9.26-8a16.06,16.06,0,0,1,6.3,1.08l.07,0,.21.38,0,.08a27.45,27.45,0,0,0-.49,3.19l0,.42H48.59l-.12-2.07c-.9-1-2.93-1.45-4.56-1.45-3.43,0-5.56,2.32-5.56,6.05,0,3.29,1.54,7.14,5.9,7.14a7.59,7.59,0,0,0,2.68-.51V49.06c0-.46-.27-.61-1.1-.64l-1.39-.05V47h.2l1.09,0c.74,0,1.49,0,2.23,0s1.68,0,2.53,0l1.21,0v1.13l-.16,0c-.83.17-1,.24-1,.62v3.83l-.13,0A18.23,18.23,0,0,1,43.73,54.09Zm13,17.63c-1.35,0-2,0-2.62,0l-3,0v-.55l1.07,0c.47,0,.84-.19.84-.69V63.88c0-.31,0-.65-.22-.55l-2.07,1a2.38,2.38,0,0,1-.21-1,41.76,41.76,0,0,0,4.43-1.49l.18.15c0,.71-.15,2-.15,3.76v4.77c0,.5.37.67.84.69l.92,0Zm13.9-32.55-1,.08c-.48,0-.72.1-.78.21a5.87,5.87,0,0,0-.14,1.75v9.25a5.89,5.89,0,0,0,.14,1.75c.05.11.3.17.78.21l1,.08v1.29l-.93,0c-.84,0-1.79,0-2.82,0s-2,0-2.85,0l-.92,0V52.49l1-.08c.48,0,.72-.1.78-.21a6,6,0,0,0,.14-1.75V46.33c-.33,0-.78,0-1.66,0H60.06c-.88,0-1.33,0-1.66,0v4.12a6,6,0,0,0,.14,1.75c.05.11.3.17.78.21l1,.08v1.29l-.93,0c-.84,0-1.79,0-2.82,0s-2,0-2.85,0l-.92,0V52.49l1-.08c.48,0,.72-.1.78-.21a5.87,5.87,0,0,0,.14-1.75V41.2a5.89,5.89,0,0,0-.14-1.75c-.05-.11-.3-.17-.78-.21l-1-.08V37.88l.9,0c.81,0,1.81,0,2.87,0s2,0,2.84,0l.91,0v1.29l-1,.08c-.48,0-.72.1-.78.21a6,6,0,0,0-.14,1.75v3.4c.33,0,.78,0,1.66,0H63.4c.88,0,1.33,0,1.66,0V41.2a6,6,0,0,0-.14-1.75c-.05-.11-.3-.17-.78-.21l-1-.08V37.88l.9,0c.81,0,1.81,0,2.87,0s2,0,2.84,0l.91,0Z"/><path class="cls-2" d="M37.52,65.58l.65.28A2,2,0,0,0,39,64.29a1.48,1.48,0,0,0-1.52-1.61A1.29,1.29,0,0,0,36.1,64C36.1,64.88,36.82,65.28,37.52,65.58Z"/><path class="cls-2" d="M37.57,67.61l-.9-.4a2.36,2.36,0,0,0-1,2,1.89,1.89,0,0,0,1.88,2,1.62,1.62,0,0,0,1.58-1.69C39.1,68.43,38.41,68,37.57,67.61Z"/></svg>