<svg id="BWH" xmlns="http://www.w3.org/2000/svg" viewBox="0 0 465.43 104.95"><defs><style>.cls-1{fill:#efefef;}</style></defs><title>PHC-WHITE</title><path class="cls-1" d="M124.39,57.84l.21,0a.75.75,0,0,0,.66-.23.85.85,0,0,0,.15-.5.66.66,0,0,0-.17-.49.63.63,0,0,0-.47-.18h-.18l-.13,0a.16.16,0,0,0,0,.06.24.24,0,0,0,0,.11Zm-1,1.7v-.17h.06a.54.54,0,0,0,.21,0,.14.14,0,0,0,.08-.07.67.67,0,0,0,0-.19V56.78a.69.69,0,0,0,0-.23.15.15,0,0,0-.07-.09l-.19,0h-.08v-.18h1.46a1.71,1.71,0,0,1,.68.11.66.66,0,0,1,.34.32.93.93,0,0,1,.1.4.74.74,0,0,1-.08.34.78.78,0,0,1-.25.31,1.4,1.4,0,0,1-.51.21.7.7,0,0,1,.21.09.82.82,0,0,1,.16.16.86.86,0,0,1,.14.19,2.27,2.27,0,0,1,.16.31l.22.43a.78.78,0,0,0,.15.2.32.32,0,0,0,.17,0v.17h-.49a.52.52,0,0,1-.31-.07,3.12,3.12,0,0,1-.36-.68c-.1-.24-.18-.4-.23-.49a.65.65,0,0,0-.16-.19.55.55,0,0,0-.26-.05h-.19v1a.6.6,0,0,0,0,.23.12.12,0,0,0,.08.07l.25,0v.17Zm1.38-4a2.5,2.5,0,0,0-1.24.33,2.43,2.43,0,0,0-.93.92,2.46,2.46,0,0,0-.35,1.27,2.5,2.5,0,0,0,.34,1.26,2.52,2.52,0,0,0,4.7-1.26,2.5,2.5,0,0,0-.35-1.27,2.37,2.37,0,0,0-.94-.92,2.51,2.51,0,0,0-1.23-.32m0-.47a3,3,0,0,1,1.46.38,2.79,2.79,0,0,1,1.12,1.09,3,3,0,0,1,.41,1.51,3,3,0,0,1-4.48,2.58,2.94,2.94,0,0,1-1.1-1.09,3,3,0,0,1-.4-1.49,3,3,0,0,1,.41-1.51,2.88,2.88,0,0,1,1.11-1.09,3,3,0,0,1,1.47-.39"/><path class="cls-1" d="M156.21,69.38l-1.56-3.72-1.56,3.72Zm2,1.72a3,3,0,0,0,.64,1.11,1.16,1.16,0,0,0,.69.21v.38c-.55,0-1.1-.06-1.66-.06s-1.11,0-1.66.06v-.38a2.13,2.13,0,0,0,.93-.18c.17-.08.19-.29.09-.51l-.76-1.82H152.9a14.34,14.34,0,0,0-.84,2.09c0,.41.61.35,1.06.41v.38c-.48,0-.95-.06-1.44-.06s-1,0-1.43.06v-.38c.7-.14.78,0,1.08-.67l.61-1.28,1.68-3.77c.4-.89.81-1.8,1.14-2.69h.4Z"/><path class="cls-1" d="M168.07,71.5V65.3c0-.72-.22-.84-1-.84h-.2v-.37c.5,0,1,.06,1.5.06s1,0,1.49-.06v.37h-.2c-.79,0-1,.11-1,.84v7.22l0,.46-1-.17-6-7.33v6.08c0,.73.24.84,1,.84h.2v.38c-.49,0-1-.06-1.49-.06s-1,0-1.5.06v-.38h.2c.76,0,1-.11,1-.84V65.3c0-.72-.2-.84-.89-.85H160v-.37a9.29,9.29,0,0,0,2.16,0Z"/><path class="cls-1" d="M172.72,71.1a7.65,7.65,0,0,0,0,1.06,10.58,10.58,0,0,0,1.18.08c3.18.09,4.26-1.68,4.26-4,0-2.63-1.62-3.64-3.77-3.64-.56,0-1.1.05-1.67.08a8.36,8.36,0,0,0,0,1.06Zm-1.17-5.37c0-1.17-.11-1.25-1.1-1.26v-.39c.8,0,1.6.06,2.42.06s1.62,0,2.42-.06c2.32,0,4.22,1.41,4.22,3.83a4.77,4.77,0,0,1-5.3,4.89c-.55,0-1.1-.06-1.66-.06s-1.11,0-1.66.06v-.37c.45-.09.66-.21.66-.75Z"/><path class="cls-1" d="M188.61,72.89h-.25l-3.48-7.32v6c0,.73.24.84,1,.84h.2v.38c-.49,0-1-.06-1.49-.06s-1,0-1.5.06v-.38h.2c.76,0,1-.11,1-.84V65.3c0-.72-.22-.83-1-.83h-.2v-.38c.39,0,.79.06,1.19.06s.8,0,1.18-.06l3.3,6.95,2.57-5.29a10.79,10.79,0,0,0,.68-1.66c.38,0,.78.06,1.18.06s.8,0,1.19-.06v.38h-.19c-.75,0-1,.13-1,.85v6c0,1,0,1.06,1.19,1.12v.38c-.6,0-1.19-.06-1.8-.06s-1.2,0-1.76.06v-.38c1.2-.06,1.18-.15,1.18-1.12V65.57Z"/><path class="cls-1" d="M200.88,69.38l-1.56-3.72-1.56,3.72Zm2,1.72a3,3,0,0,0,.63,1.11,1.16,1.16,0,0,0,.69.21v.38c-.55,0-1.1-.06-1.66-.06s-1.11,0-1.66.06v-.38a2.12,2.12,0,0,0,.93-.18c.18-.08.19-.29.09-.51l-.76-1.82h-3.55a14.74,14.74,0,0,0-.83,2.09c0,.41.61.35,1.06.41v.38c-.47,0-.95-.06-1.44-.06s-1,0-1.43.06v-.38c.7-.14.79,0,1.09-.67l.61-1.28,1.68-3.77c.39-.89.81-1.8,1.13-2.69h.4Z"/><path class="cls-1" d="M209.58,66.17a2.11,2.11,0,0,0-.13-1,2.3,2.3,0,0,0-1.81-.72,1.8,1.8,0,0,0-1.9,1.78c0,2.7,5,.46,5,3.59,0,2.13-1.91,3.16-3.77,3.16a5.48,5.48,0,0,1-2.13-.48c.05-.48.07-1.07.09-1.56V70.6h.43v.59a.85.85,0,0,0,.18.65,3,3,0,0,0,1.93.58,2,2,0,0,0,2.22-1.9c0-3-4.94-.2-4.94-3.83a2.88,2.88,0,0,1,3.06-2.8,6.77,6.77,0,0,1,2.42.58,4.24,4.24,0,0,0-.1.6c0,.37-.08.74-.09,1.11Z"/><path class="cls-1" d="M216.14,66.17a2.09,2.09,0,0,0-.13-1,2.31,2.31,0,0,0-1.81-.72,1.8,1.8,0,0,0-1.9,1.78c0,2.7,5,.46,5,3.59,0,2.13-1.91,3.16-3.77,3.16a5.45,5.45,0,0,1-2.13-.48c0-.48.07-1.07.08-1.56V70.6h.43v.59a.88.88,0,0,0,.17.65,3.05,3.05,0,0,0,1.94.58,2,2,0,0,0,2.22-1.9c0-3-4.94-.2-4.94-3.83a2.88,2.88,0,0,1,3.06-2.8,6.74,6.74,0,0,1,2.42.58,5.22,5.22,0,0,0-.1.6c0,.37-.08.74-.08,1.11Z"/><path class="cls-1" d="M223.7,69.38l-1.56-3.72-1.56,3.72Zm2,1.72a3.12,3.12,0,0,0,.64,1.11,1.16,1.16,0,0,0,.69.21v.38c-.55,0-1.1-.06-1.66-.06s-1.11,0-1.66.06v-.38a2.13,2.13,0,0,0,.93-.18c.18-.08.19-.29.09-.51l-.76-1.82h-3.55a14.47,14.47,0,0,0-.84,2.09c0,.41.61.35,1.06.41v.38c-.48,0-.95-.06-1.44-.06s-1,0-1.43.06v-.38c.7-.14.78,0,1.09-.67l.61-1.28,1.69-3.77c.4-.89.81-1.8,1.14-2.69h.4Z"/><path class="cls-1" d="M235.41,72.24a6.68,6.68,0,0,1-2.83.74c-2.76,0-5.05-1.63-5.05-4.58a4.53,4.53,0,0,1,4.81-4.52,12,12,0,0,1,3.25.56c-.12.62-.2,1.24-.28,1.87h-.36c0-.8.16-1.08-.57-1.44a4.31,4.31,0,0,0-2-.47,3.41,3.41,0,0,0-3.48,3.72A3.94,3.94,0,0,0,233,72.34a4.58,4.58,0,0,0,2.53-.78l.11.12Z"/><path class="cls-1" d="M245,71.29c0,1,0,1.06,1.18,1.12v.38c-.59,0-1.18-.06-1.8-.06s-1.2,0-1.76.06v-.38c1.2-.06,1.19-.15,1.19-1.12V68.4h-5v2.89c0,1,0,1.06,1.19,1.12v.38c-.6,0-1.19-.06-1.79-.06s-1.2,0-1.76.06v-.38c1.19-.06,1.19-.15,1.19-1.12V65.57c0-1,0-1.06-1.19-1.12v-.38c.57,0,1.15.06,1.76.06s1.19,0,1.79-.06v.38c-1.2.06-1.19.15-1.19,1.12v2.31h5V65.57c0-1,0-1.06-1.19-1.12v-.38c.56,0,1.15.06,1.76.06s1.2,0,1.8-.06v.38c-1.19.06-1.18.15-1.18,1.12Z"/><path class="cls-1" d="M249.06,69.92c-.08,1.77.92,2.29,2.56,2.29a2.52,2.52,0,0,0,2.12-.86,3.66,3.66,0,0,0,.5-2.09v-4c0-.72-.22-.83-1-.83l-.2,0v-.37c.5,0,1,.06,1.49.06s1,0,1.49-.06v.37l-.2,0c-.78,0-1,.11-1,.83v4.6a3.21,3.21,0,0,1-.55,1.82,2.81,2.81,0,0,1-1.29,1,6,6,0,0,1-1.68.27c-1.14,0-2.5-.17-3.1-1.29a3,3,0,0,1-.31-1.63V65.57c0-1,0-1.06-1.18-1.12v-.37c.56,0,1.15.06,1.76.06s1.2,0,1.8-.06v.37c-1.2.06-1.19.15-1.19,1.12Z"/><path class="cls-1" d="M261.34,66.17a2.15,2.15,0,0,0-.12-1,2.31,2.31,0,0,0-1.81-.72,1.8,1.8,0,0,0-1.9,1.78c0,2.7,5,.46,5,3.59,0,2.13-1.91,3.16-3.76,3.16a5.45,5.45,0,0,1-2.14-.48c.05-.48.07-1.07.09-1.56V70.6h.42v.59a.86.86,0,0,0,.17.65,3.06,3.06,0,0,0,1.94.58,2,2,0,0,0,2.22-1.9c0-3-4.94-.2-4.94-3.83a2.88,2.88,0,0,1,3.06-2.8,6.73,6.73,0,0,1,2.42.58,4.66,4.66,0,0,0-.09.6c0,.37-.08.74-.09,1.11Z"/><path class="cls-1" d="M265.45,71.08a6.92,6.92,0,0,0,.06,1.08,15.81,15.81,0,0,0,1.7.06,7.31,7.31,0,0,0,2-.21,3.16,3.16,0,0,0,.15-.64l.11-.68h.41a5.41,5.41,0,0,0-.12,1v1c-.46.06-1.3,0-2.07.06s-1.49-.06-2.24-.06-1.5,0-2.26.06v-.37a1,1,0,0,0,1.07-1.13V65.57c0-1,0-1.06-1.18-1.12v-.38c.76,0,1.51.06,2.28.06s1.54,0,2.28-.06,1.65,0,2.07.06a4.19,4.19,0,0,0-.19,1.21c0,.26,0,.47,0,.74h-.38a6.57,6.57,0,0,0-.18-1.22,6.27,6.27,0,0,0-1.86-.21,11.18,11.18,0,0,0-1.55.07,6.3,6.3,0,0,0-.06,1v2.34c2.72,0,2.89.18,2.91-1.05h.41v2.88h-.41c0-1.41-.09-1.34-2.91-1.24Z"/><path class="cls-1" d="M273.6,66c0-.47,0-.87-.05-1.24l-1.93.06c-.26,0-.41.05-.43.37a7.17,7.17,0,0,0-.14,1h-.37c0-.24,0-.46,0-.7,0-.44,0-.87-.06-1.33,1.19,0,2.37.06,3.59.06s2.4,0,3.61-.06c0,.46,0,.9-.06,1.33,0,.24,0,.46,0,.7h-.37a7.92,7.92,0,0,0-.14-1c0-.32-.17-.36-.44-.37l-1.95-.06c0,.37,0,.77,0,1.24v5.34c0,1,0,1.06,1.18,1.12v.38c-.6,0-1.18-.06-1.8-.06s-1.2,0-1.76.06v-.38c1.19-.06,1.19-.15,1.19-1.12Z"/><path class="cls-1" d="M281.25,66c0-.47,0-.87-.05-1.24l-1.92.06c-.26,0-.41.05-.44.37a7.18,7.18,0,0,0-.14,1h-.37c0-.24,0-.46,0-.7,0-.44,0-.87-.06-1.33,1.18,0,2.37.06,3.59.06s2.4,0,3.61-.06c0,.46,0,.9-.07,1.33,0,.24,0,.46,0,.7H285a7.41,7.41,0,0,0-.14-1c0-.32-.17-.36-.44-.37l-1.95-.06c0,.37,0,.77,0,1.24v5.34c0,1,0,1.06,1.19,1.12v.38c-.6,0-1.19-.06-1.8-.06s-1.2,0-1.76.06v-.38c1.2-.06,1.19-.15,1.19-1.12Z"/><path class="cls-1" d="M290.81,66.17a2.2,2.2,0,0,0-.12-1,2.3,2.3,0,0,0-1.81-.72,1.8,1.8,0,0,0-1.9,1.78c0,2.7,5,.46,5,3.59C292,72,290,73,288.19,73a5.47,5.47,0,0,1-2.13-.48c0-.48.07-1.07.08-1.56V70.6h.43v.59a.87.87,0,0,0,.17.65,3,3,0,0,0,1.94.58,2,2,0,0,0,2.22-1.9c0-3-4.95-.2-4.95-3.83a2.88,2.88,0,0,1,3.06-2.8,6.8,6.8,0,0,1,2.42.58,3.44,3.44,0,0,0-.1.6c0,.37-.08.74-.09,1.11Z"/><path class="cls-1" d="M304.37,69.35v.31c-.61.09-.5.71-.46,1.51l0,1.17-.58.16a10.63,10.63,0,0,1-2.72.48c-2.78,0-5-1.45-5-4.53,0-2.83,2.12-4.57,5.12-4.57a11.93,11.93,0,0,1,3.25.56c-.13.62-.2,1.24-.28,1.87h-.36c0-.8.16-1.08-.58-1.44a4.27,4.27,0,0,0-2-.47,3.53,3.53,0,0,0-3.8,3.75c0,2.51,1.44,4.28,4,4.28,1,0,1.66-.19,1.76-.5a9.15,9.15,0,0,0,0-1.93c0-.26-.53-.25-1.42-.29v-.37Z"/><path class="cls-1" d="M307.57,71.08a6.5,6.5,0,0,0,.07,1.08,15.65,15.65,0,0,0,1.69.06,7.33,7.33,0,0,0,2-.21,2.84,2.84,0,0,0,.15-.64l.11-.68H312a5.29,5.29,0,0,0-.12,1v1c-.46.06-1.3,0-2.07.06s-1.48-.06-2.24-.06-1.5,0-2.26.06v-.37a1,1,0,0,0,1.07-1.13V65.57c0-1,0-1.06-1.19-1.12v-.38c.76,0,1.51.06,2.28.06s1.54,0,2.28-.06,1.65,0,2.07.06a4.3,4.3,0,0,0-.2,1.21c0,.26,0,.47,0,.74h-.38a6,6,0,0,0-.18-1.22,6.27,6.27,0,0,0-1.86-.21,11.07,11.07,0,0,0-1.54.07,5.91,5.91,0,0,0-.07,1v2.34c2.72,0,2.89.18,2.9-1.05h.42v2.88h-.42c0-1.41-.08-1.34-2.9-1.24Z"/><path class="cls-1" d="M320.8,71.5V65.3c0-.72-.22-.84-1-.84h-.2v-.37c.5,0,1,.06,1.5.06s1,0,1.48-.06v.37h-.21c-.78,0-1,.11-1,.84v7.22l0,.46-1-.17-6-7.33v6.08c0,.73.24.84,1,.84h.2v.38c-.49,0-1-.06-1.49-.06s-1,0-1.49.06v-.38h.19c.76,0,1-.11,1-.84V65.3c0-.72-.2-.84-.89-.85h-.18v-.37a9.31,9.31,0,0,0,2.16,0Z"/><path class="cls-1" d="M325.56,71.08a6.2,6.2,0,0,0,.07,1.08,15.77,15.77,0,0,0,1.7.06,7.32,7.32,0,0,0,2-.21,3,3,0,0,0,.15-.64l.11-.68H330a5,5,0,0,0-.12,1v1c-.46.06-1.3,0-2.07.06s-1.49-.06-2.25-.06-1.5,0-2.26.06v-.37a1,1,0,0,0,1.07-1.13V65.57c0-1,0-1.06-1.18-1.12v-.38c.76,0,1.51.06,2.28.06s1.54,0,2.28-.06,1.65,0,2.07.06a4,4,0,0,0-.2,1.21c0,.26,0,.47,0,.74h-.39a5.87,5.87,0,0,0-.18-1.22,6.26,6.26,0,0,0-1.86-.21,11.06,11.06,0,0,0-1.55.07,5.64,5.64,0,0,0-.07,1v2.34c2.72,0,2.9.18,2.91-1.05h.41v2.88h-.41c0-1.41-.09-1.34-2.91-1.24Z"/><path class="cls-1" d="M332,65.57c0-1,0-1.06-1.18-1.12v-.37c.7,0,1.42.06,2.15.06s1.47,0,2.19-.06c1.72-.09,2.52.85,2.52,1.9a2.67,2.67,0,0,1-2.43,2.41l2.83,3.69a1.06,1.06,0,0,0,.71.35v.38a5.93,5.93,0,0,0-.85-.06,6.09,6.09,0,0,0-.85.06c-.2-.26-.34-.49-.51-.7l-3-3.82.05-.18a5.16,5.16,0,0,0,1.15-.05,1.84,1.84,0,0,0,1.62-1.74,1.69,1.69,0,0,0-1.93-1.75,4.69,4.69,0,0,0-1.25.17,2.66,2.66,0,0,0-.08.86v5.72c0,1,0,1.06,1.19,1.12v.38c-.6,0-1.19-.06-1.8-.06s-1.19,0-1.76.06v-.38c1.2-.06,1.18-.15,1.18-1.12Z"/><path class="cls-1" d="M345,69.38l-1.56-3.72-1.56,3.72Zm2,1.72a3,3,0,0,0,.63,1.11,1.17,1.17,0,0,0,.69.21v.38c-.55,0-1.09-.06-1.66-.06s-1.11,0-1.66.06v-.38a2.14,2.14,0,0,0,.94-.18c.17-.08.18-.29.09-.51l-.76-1.82h-3.55a15,15,0,0,0-.84,2.09c0,.41.61.35,1.06.41v.38c-.48,0-.95-.06-1.44-.06s-1,0-1.44.06v-.38c.7-.14.79,0,1.09-.67l.62-1.28,1.68-3.77c.4-.89.81-1.8,1.14-2.69h.4Z"/><path class="cls-1" d="M351.24,71.7l0,.47c.52.06,1.16.06,1.76.06a7.31,7.31,0,0,0,2-.21,3.06,3.06,0,0,0,.13-.4l.28-1,.41,0c0,.17-.08.5-.13.84l-.13,1.31c-.4.06-1.2,0-1.94.06s-1.41-.06-2.14-.06-1.42,0-2.15.06v-.38c.59-.1.68-.46.68-1.46V65.57c0-1,0-1.06-1.18-1.12v-.38c.55,0,1.14.06,1.75.06s1.2,0,1.8-.06v.38c-1.2.06-1.19.15-1.19,1.12Z"/><path class="cls-1" d="M368.16,71.29c0,1,0,1.06,1.19,1.12v.38c-.6,0-1.19-.06-1.8-.06s-1.19,0-1.76.06v-.38c1.2-.06,1.19-.15,1.19-1.12V68.4h-5v2.89c0,1,0,1.06,1.18,1.12v.38c-.6,0-1.18-.06-1.8-.06s-1.2,0-1.76.06v-.38c1.2-.06,1.19-.15,1.19-1.12V65.57c0-1,0-1.06-1.19-1.12v-.38c.56,0,1.15.06,1.76.06s1.2,0,1.8-.06v.38c-1.19.06-1.18.15-1.18,1.12v2.31h5V65.57c0-1,0-1.06-1.19-1.12v-.38c.56,0,1.15.06,1.76.06s1.2,0,1.8-.06v.38c-1.2.06-1.19.15-1.19,1.12Z"/><path class="cls-1" d="M377.87,68.54c0-2.47-1.11-4.12-3.43-4.12-2.17,0-3.15,1.51-3.15,3.56s1,4.46,3.49,4.46c2.08-.14,3.09-1.61,3.09-3.9m1.34-.39A4.79,4.79,0,0,1,374.38,73a4.28,4.28,0,0,1-4.43-4.59,4.37,4.37,0,0,1,4.69-4.5c2.67,0,4.57,1.5,4.57,4.26"/><path class="cls-1" d="M384.63,66.17a2,2,0,0,0-.13-1,2.3,2.3,0,0,0-1.81-.72,1.81,1.81,0,0,0-1.9,1.78c0,2.7,5,.46,5,3.59C385.76,72,383.85,73,382,73a5.47,5.47,0,0,1-2.13-.48c0-.48.07-1.07.09-1.56V70.6h.42v.59a.86.86,0,0,0,.18.65,3.05,3.05,0,0,0,1.94.58,2,2,0,0,0,2.22-1.9c0-3-4.95-.2-4.95-3.83a2.88,2.88,0,0,1,3.06-2.8,6.73,6.73,0,0,1,2.42.58,4.66,4.66,0,0,0-.09.6c0,.37-.08.74-.09,1.11Z"/><path class="cls-1" d="M387.55,65.57c0-1,0-1.06-1.18-1.12v-.37c.72,0,1.44.06,2.19.06s1.46,0,2.19-.06c1.21,0,2.58.53,2.58,1.93a3.05,3.05,0,0,1-3.72,2.57l-.14-.46a4.19,4.19,0,0,0,.8.11,1.73,1.73,0,0,0,1.81-1.8c0-1.29-.79-1.9-2-1.9a6.77,6.77,0,0,0-1.24.18,2.91,2.91,0,0,0-.07.86v5.72c0,1,0,1.06,1.18,1.12v.38c-.6,0-1.18-.06-1.8-.06s-1.2,0-1.75.06v-.38c1.19-.06,1.18-.15,1.18-1.12Z"/><path class="cls-1" d="M396.27,71.29c0,1,0,1.06,1.19,1.12v.38c-.59,0-1.19-.06-1.79-.06s-1.2,0-1.76.06v-.38c1.2-.06,1.19-.15,1.19-1.12V65.57c0-1,0-1.06-1.19-1.12v-.38c.56,0,1.15.06,1.76.06s1.2,0,1.79-.06v.38c-1.2.06-1.19.15-1.19,1.12Z"/><path class="cls-1" d="M401,66c0-.47,0-.87,0-1.24l-1.92.06c-.26,0-.41.05-.43.37a7.66,7.66,0,0,0-.14,1h-.37c0-.24,0-.46,0-.7,0-.44,0-.87-.06-1.33,1.19,0,2.37.06,3.6.06s2.4,0,3.61-.06c0,.46-.05.9-.06,1.33,0,.24,0,.46,0,.7h-.37a7.18,7.18,0,0,0-.14-1c0-.32-.18-.36-.44-.37l-1.95-.06c0,.37,0,.77-.05,1.24v5.34c0,1,0,1.06,1.18,1.12v.38c-.6,0-1.18-.06-1.8-.06s-1.2,0-1.76.06v-.38c1.2-.06,1.18-.15,1.18-1.12Z"/><path class="cls-1" d="M411.58,69.38,410,65.66l-1.56,3.72Zm2,1.72a3,3,0,0,0,.63,1.11,1.15,1.15,0,0,0,.68.21v.38c-.55,0-1.1-.06-1.66-.06s-1.12,0-1.66.06v-.38a2.15,2.15,0,0,0,.94-.18c.18-.08.19-.29.08-.51l-.76-1.82h-3.55a14.31,14.31,0,0,0-.84,2.09c0,.41.61.35,1.06.41v.38c-.47,0-.95-.06-1.44-.06s-1,0-1.44.06v-.38c.7-.14.79,0,1.09-.67l.61-1.28L409,66.69c.4-.89.81-1.8,1.13-2.69h.4Z"/><path class="cls-1" d="M417.84,71.7l0,.47a17.52,17.52,0,0,0,1.76.06,7.38,7.38,0,0,0,2-.21,2.46,2.46,0,0,0,.12-.4l.29-1,.4,0c0,.17-.07.5-.13.84l-.14,1.31c-.4.06-1.2,0-1.93.06s-1.41-.06-2.13-.06-1.43,0-2.15.06v-.38c.58-.1.67-.46.67-1.46V65.57c0-1,0-1.06-1.18-1.12v-.38c.56,0,1.15.06,1.76.06s1.2,0,1.8-.06v.38c-1.2.06-1.19.15-1.19,1.12Z"/><path class="cls-1" d="M151.95,49.26c0-1,0-1.06-1.18-1.12v-.37c.76,0,1.51.06,2.28.06s1.54,0,2.28-.06,1.65,0,2.07.06a4.26,4.26,0,0,0-.2,1.21c0,.26,0,.47,0,.73h-.38a6.15,6.15,0,0,0-.17-1.22,6.42,6.42,0,0,0-1.86-.21,11.84,11.84,0,0,0-1.55.06,4.21,4.21,0,0,0-.07.81v2.55c2.72,0,2.9.18,2.91-1h.41V53.6H156c0-1.41-.09-1.34-2.91-1.24V55c0,1,0,1.06,1.19,1.12v.37c-.6,0-1.19-.06-1.8-.06s-1.2,0-1.76.06V56.1C152,56,151.95,56,151.95,55Z"/><path class="cls-1" d="M165.58,52.23c0-2.47-1.11-4.11-3.43-4.11S159,49.62,159,51.66s1,4.47,3.5,4.47c2.08-.14,3.09-1.61,3.09-3.91m1.33-.38a4.78,4.78,0,0,1-4.83,4.83,4.28,4.28,0,0,1-4.43-4.59,4.37,4.37,0,0,1,4.69-4.5c2.67,0,4.57,1.5,4.57,4.27"/><path class="cls-1" d="M169.76,53.61c-.08,1.77.92,2.28,2.56,2.28a2.54,2.54,0,0,0,2.12-.86,3.73,3.73,0,0,0,.5-2.08V49c0-.73-.22-.84-1-.84h-.2v-.37c.5,0,1,.06,1.5.06s1,0,1.49-.06v.37h-.2c-.79,0-1,.11-1,.84v4.6a3.17,3.17,0,0,1-.55,1.82,2.81,2.81,0,0,1-1.29,1,5.92,5.92,0,0,1-1.68.26c-1.13,0-2.5-.18-3.09-1.29a2.93,2.93,0,0,1-.31-1.63V49.26c0-1,0-1.06-1.18-1.12v-.37c.56,0,1.15.06,1.76.06s1.2,0,1.8-.06v.37c-1.2.06-1.18.15-1.18,1.12Z"/><path class="cls-1" d="M185.2,55.18V49c0-.73-.23-.84-1-.84H184v-.37c.5,0,1,.06,1.5.06s1,0,1.48-.06v.37h-.2c-.78,0-1,.11-1,.84v7.22l0,.46-1-.18-6-7.32v6.09c0,.72.24.83,1,.83h.2v.38c-.49,0-1-.06-1.48-.06s-1,0-1.5.06V56.1h.2c.76,0,1-.11,1-.83V49c0-.73-.2-.84-.9-.85h-.17v-.37c.36,0,.71.06,1.08.06s.71,0,1.07-.06Z"/><path class="cls-1" d="M189.85,54.78a7,7,0,0,0,.05,1.06,10.63,10.63,0,0,0,1.17.09c3.18.09,4.25-1.68,4.25-4,0-2.63-1.62-3.64-3.77-3.64-.55,0-1.1.05-1.66.08a7.78,7.78,0,0,0-.05,1.06Zm-1.17-5.37c0-1.18-.11-1.25-1.1-1.26v-.38c.8,0,1.6.06,2.42.06s1.62,0,2.42-.06c2.32,0,4.22,1.41,4.22,3.83a4.78,4.78,0,0,1-5.3,4.89c-.55,0-1.1-.06-1.66-.06s-1.11,0-1.66.06V56.1c.45-.08.66-.21.66-.75Z"/><path class="cls-1" d="M199.62,54.77a6.48,6.48,0,0,0,.06,1.07,14.45,14.45,0,0,0,1.7.06,7.34,7.34,0,0,0,2-.21,3.17,3.17,0,0,0,.15-.63l.11-.69h.41a4.83,4.83,0,0,0-.13,1v1c-.46.06-1.3,0-2.07.06s-1.49-.06-2.25-.06-1.5,0-2.26.06V56.1A1,1,0,0,0,198.44,55V49.26c0-1,0-1.06-1.19-1.12v-.37c.76,0,1.51.06,2.28.06s1.54,0,2.29-.06,1.64,0,2.07.06a4.08,4.08,0,0,0-.2,1.21c0,.26,0,.47,0,.73h-.39a5.52,5.52,0,0,0-.17-1.22,6.39,6.39,0,0,0-1.86-.21,11.91,11.91,0,0,0-1.55.06,6,6,0,0,0-.06,1v2.33c2.72,0,2.9.18,2.91-1h.41V53.6h-.41c0-1.41-.09-1.34-2.91-1.24Z"/><path class="cls-1" d="M207.14,54.78a7.22,7.22,0,0,0,.05,1.06,10.71,10.71,0,0,0,1.17.09c3.19.09,4.26-1.68,4.26-4,0-2.63-1.63-3.64-3.77-3.64-.55,0-1.1.05-1.66.08a7.82,7.82,0,0,0-.05,1.06ZM206,49.41c0-1.18-.11-1.25-1.1-1.26v-.38c.8,0,1.6.06,2.42.06s1.63,0,2.42-.06c2.32,0,4.22,1.41,4.22,3.83a4.78,4.78,0,0,1-5.3,4.89c-.55,0-1.1-.06-1.66-.06s-1.11,0-1.66.06V56.1c.45-.08.66-.21.66-.75Z"/><path class="cls-1" d="M219.95,55.84a6.34,6.34,0,0,0,1.12.11,2,2,0,0,0,2.18-2.16c0-1.38-.87-1.91-2.47-1.91h-.83Zm0-4.46a7.28,7.28,0,0,0,.88,0c1.09,0,2-.44,2-1.67s-.84-1.5-1.89-1.5a3.16,3.16,0,0,0-1,.14,5.48,5.48,0,0,0-.06.92Zm-1.19-2.12c0-1-.23-1.1-1.1-1.12v-.37c.7,0,1.41.06,2.12.06s1.43,0,2.12-.06c1.16,0,2.21.42,2.21,1.75a2.29,2.29,0,0,1-2.09,2c1.27.05,2.51.58,2.51,2a3.22,3.22,0,0,1-3.67,2.89c-.45,0-.9-.06-1.34-.06s-.91,0-1.36.06V56.1c.53-.14.6-.41.6-.87Z"/><path class="cls-1" d="M229.49,52.17l1.29-2c.47-.8.94-1.57,1.35-2.37h1v.18A25.12,25.12,0,0,0,230,52.38a2.13,2.13,0,0,0-.17.93V55c0,1,0,1.06,1.19,1.12v.37c-.6,0-1.19-.06-1.8-.06s-1.2,0-1.76.06V56.1c1.2-.06,1.19-.15,1.19-1.12V53.15a.94.94,0,0,0-.06-.39l-1.5-2.61c-.41-.71-1.17-1.93-2.06-1.83v-.36l1.32-.26c.36-.06.55.15.76.41s.37.53.55.81Z"/><path class="cls-1" d="M239,55.84a6.46,6.46,0,0,0,1.12.11,2,2,0,0,0,2.18-2.16c0-1.38-.87-1.91-2.47-1.91H239Zm0-4.46a7.41,7.41,0,0,0,.89,0c1.08,0,2-.44,2-1.67s-.84-1.5-1.88-1.5a3.16,3.16,0,0,0-1,.14,5.2,5.2,0,0,0-.06.92Zm-1.18-2.12c0-1-.23-1.1-1.1-1.12v-.37c.7,0,1.41.06,2.12.06s1.42,0,2.12-.06c1.16,0,2.22.42,2.22,1.75a2.29,2.29,0,0,1-2.09,2c1.28.05,2.51.58,2.51,2a3.22,3.22,0,0,1-3.67,2.89c-.45,0-.9-.06-1.35-.06s-.92,0-1.36.06V56.1c.52-.14.6-.41.6-.87Z"/><path class="cls-1" d="M245.54,49.26c0-1,0-1.06-1.19-1.12v-.37c.69,0,1.42.06,2.16.06s1.46,0,2.18-.06c1.73-.09,2.52.85,2.52,1.89a2.67,2.67,0,0,1-2.43,2.41l2.84,3.69a1.05,1.05,0,0,0,.7.35v.37a6,6,0,0,0-.85-.06,6.14,6.14,0,0,0-.85.06c-.19-.26-.33-.49-.51-.7l-3-3.82.05-.19a4.7,4.7,0,0,0,1.15-.05A1.84,1.84,0,0,0,250,50a1.69,1.69,0,0,0-1.92-1.74,4.75,4.75,0,0,0-1.25.16,2.81,2.81,0,0,0-.07.86V55c0,1,0,1.06,1.18,1.12v.37c-.6,0-1.18-.06-1.8-.06s-1.2,0-1.76.06V56.1c1.19-.06,1.19-.15,1.19-1.12Z"/><path class="cls-1" d="M255.06,55c0,1,0,1.06,1.19,1.12v.37c-.6,0-1.19-.06-1.8-.06s-1.2,0-1.76.06V56.1c1.21-.06,1.19-.15,1.19-1.12V49.26c0-1,0-1.06-1.19-1.12v-.37c.56,0,1.15.06,1.76.06s1.2,0,1.8-.06v.37c-1.2.06-1.19.15-1.19,1.12Z"/><path class="cls-1" d="M265.59,53v.31c-.61.1-.5.71-.46,1.51l0,1.17-.58.16a10.65,10.65,0,0,1-2.71.47c-2.79,0-5-1.45-5-4.53,0-2.83,2.12-4.57,5.12-4.57a12.06,12.06,0,0,1,3.25.57c-.12.62-.2,1.25-.27,1.87h-.36c0-.79.16-1.08-.57-1.44a4.31,4.31,0,0,0-2-.46,3.53,3.53,0,0,0-3.81,3.76c0,2.5,1.45,4.28,4,4.28,1,0,1.66-.19,1.76-.5a8.71,8.71,0,0,0,0-1.94c0-.26-.54-.25-1.42-.28V53Z"/><path class="cls-1" d="M275,55c0,1,0,1.06,1.19,1.12v.37c-.6,0-1.19-.06-1.8-.06s-1.19,0-1.75.06V56.1c1.19-.06,1.18-.15,1.18-1.12v-2.9h-5V55c0,1,0,1.06,1.18,1.12v.37c-.6,0-1.18-.06-1.8-.06s-1.2,0-1.76.06V56.1c1.2-.06,1.18-.15,1.18-1.12V49.26c0-1,0-1.06-1.18-1.12v-.37c.56,0,1.15.06,1.76.06s1.2,0,1.8-.06v.37c-1.2.06-1.18.15-1.18,1.12v2.31h5V49.26c0-1,0-1.06-1.18-1.12v-.37c.56,0,1.14.06,1.75.06s1.2,0,1.8-.06v.37c-1.2.06-1.19.15-1.19,1.12Z"/><path class="cls-1" d="M282.64,53.06l-1.56-3.72-1.57,3.72Zm2,1.72a3.16,3.16,0,0,0,.63,1.11,1.16,1.16,0,0,0,.69.21v.38c-.55,0-1.1-.06-1.66-.06s-1.11,0-1.66.06V56.1a2.11,2.11,0,0,0,.94-.17c.17-.09.19-.28.09-.51l-.76-1.82h-3.55a14.6,14.6,0,0,0-.83,2.09c0,.41.61.35,1.06.41v.38c-.48,0-1-.06-1.44-.06s-1,0-1.44.06V56.1c.7-.14.79,0,1.09-.67l.61-1.29,1.69-3.77c.4-.89.81-1.8,1.13-2.7h.4Z"/><path class="cls-1" d="M291.88,56.58h-.25l-3.48-7.32v6c0,.72.24.83,1,.83h.2v.37c-.49,0-1-.06-1.48-.06s-1,0-1.5.06v-.37h.2c.76,0,1-.11,1-.83V49c0-.73-.22-.84-1-.84h-.2v-.37c.38,0,.79.06,1.18.06s.8,0,1.19-.06l3.3,6.95,2.57-5.29a11.25,11.25,0,0,0,.67-1.66c.39,0,.79.06,1.19.06s.8,0,1.19-.06v.37h-.18c-.75,0-1,.12-1,.85v6c0,1,0,1.06,1.18,1.12v.37c-.6,0-1.18-.06-1.8-.06s-1.2,0-1.76.06v-.37c1.2-.06,1.19-.15,1.19-1.12V49.26Z"/><path class="cls-1" d="M307.27,53.06l-1.56-3.72-1.56,3.72Zm2,1.72a3.22,3.22,0,0,0,.64,1.11,1.13,1.13,0,0,0,.69.21v.38c-.55,0-1.1-.06-1.66-.06s-1.11,0-1.66.06V56.1a2.14,2.14,0,0,0,.94-.17c.17-.09.18-.28.09-.51l-.76-1.82h-3.55a14.91,14.91,0,0,0-.83,2.09c0,.41.61.35,1.06.41v.38c-.48,0-.95-.06-1.43-.06s-1,0-1.44.06V56.1c.7-.14.78,0,1.09-.67l.6-1.29,1.69-3.77c.4-.89.81-1.8,1.13-2.7h.4Z"/><path class="cls-1" d="M319.13,55.18V49c0-.73-.22-.84-1-.84h-.2v-.37c.5,0,1,.06,1.49.06s1,0,1.49-.06v.37h-.2c-.78,0-1,.11-1,.84v7.22l0,.46-1-.18-6-7.32v6.09c0,.72.24.83,1,.83h.2v.38c-.49,0-1-.06-1.49-.06s-1,0-1.49.06V56.1h.2c.76,0,1-.11,1-.83V49c0-.73-.2-.84-.9-.85h-.18v-.37c.37,0,.71.06,1.09.06s.71,0,1.07-.06Z"/><path class="cls-1" d="M323.78,54.78a7.42,7.42,0,0,0,0,1.06,10.84,10.84,0,0,0,1.18.09c3.18.09,4.25-1.68,4.25-4,0-2.63-1.62-3.64-3.77-3.64-.55,0-1.1.05-1.66.08a8.08,8.08,0,0,0,0,1.06Zm-1.17-5.37c0-1.18-.11-1.25-1.1-1.26v-.38c.8,0,1.6.06,2.42.06s1.62,0,2.42-.06c2.32,0,4.22,1.41,4.22,3.83a4.78,4.78,0,0,1-5.31,4.89c-.55,0-1.09-.06-1.66-.06s-1.11,0-1.66.06V56.1c.45-.08.66-.21.66-.75Z"/><path class="cls-1" d="M335.12,49.11l-.07-.29c-.15-.57-.26-.63-.85-.67h-.13v-.37c.53,0,1,.06,1.57.06s1,0,1.57-.06v.37c-1.21-.07-1,.41-.94.88l.27,1.24,1,4.33,1.55-3.89,1.13-3h.39l.38,1.16,2.09,5.82,1-3.51.58-2.22c.12-.5.29-.87-1-.8v-.37c.44,0,.86.06,1.31.06s.87,0,1.31-.06v.37c-.53,0-.61,0-.79.47l-1.83,6-.49,1.93h-.63L341.63,54l-1.56-4.23-2.17,5.51-.44,1.28h-.63c-.1-.43-.19-.85-.29-1.28Z"/><path class="cls-1" d="M354.66,52.23c0-2.47-1.11-4.11-3.43-4.11-2.17,0-3.16,1.51-3.16,3.55s1,4.47,3.5,4.47c2.08-.14,3.09-1.61,3.09-3.91m1.34-.38a4.78,4.78,0,0,1-4.83,4.83,4.28,4.28,0,0,1-4.43-4.59,4.37,4.37,0,0,1,4.69-4.5c2.67,0,4.57,1.5,4.57,4.27"/><path class="cls-1" d="M362,56.58h-.25l-3.48-7.32v6c0,.72.24.83,1,.83h.21v.37c-.49,0-1-.06-1.49-.06s-1,0-1.5.06v-.37h.2c.76,0,1-.11,1-.83V49c0-.73-.23-.84-1-.84h-.2v-.37c.38,0,.79.06,1.19.06s.8,0,1.18-.06l3.3,6.95,2.57-5.29a10.89,10.89,0,0,0,.68-1.66c.39,0,.79.06,1.19.06s.79,0,1.18-.06v.37h-.18c-.75,0-1,.12-1,.85v6c0,1,0,1.06,1.19,1.12v.37c-.6,0-1.19-.06-1.8-.06s-1.2,0-1.76.06v-.37c1.2-.06,1.18-.15,1.18-1.12V49.26Z"/><path class="cls-1" d="M370.77,54.77a6.6,6.6,0,0,0,.07,1.07,14.29,14.29,0,0,0,1.69.06,7.34,7.34,0,0,0,2-.21,3.59,3.59,0,0,0,.15-.63l.11-.69h.41a5.25,5.25,0,0,0-.12,1v1c-.47.06-1.3,0-2.07.06s-1.49-.06-2.25-.06-1.5,0-2.26.06V56.1A1,1,0,0,0,369.59,55V49.26c0-1,0-1.06-1.18-1.12v-.37c.76,0,1.5.06,2.28.06s1.54,0,2.28-.06,1.64,0,2.07.06a4.31,4.31,0,0,0-.2,1.21c0,.26,0,.47,0,.73h-.38a6.14,6.14,0,0,0-.18-1.22,6.39,6.39,0,0,0-1.86-.21,11.82,11.82,0,0,0-1.54.06,6.07,6.07,0,0,0-.07,1v2.33c2.72,0,2.9.18,2.91-1h.41V53.6h-.41c0-1.41-.09-1.34-2.91-1.24Z"/><path class="cls-1" d="M384,55.18V49c0-.73-.22-.84-1-.84h-.2v-.37c.5,0,1,.06,1.5.06s1,0,1.49-.06v.37h-.2c-.78,0-1,.11-1,.84v7.22l0,.46-1-.18-6-7.32v6.09c0,.72.24.83,1,.83h.2v.38c-.48,0-1-.06-1.49-.06s-1,0-1.49.06V56.1h.2c.76,0,1-.11,1-.83V49c0-.73-.19-.84-.9-.85H376v-.37c.36,0,.71.06,1.09.06s.71,0,1.07-.06Z"/><path class="cls-1" d="M386.54,51l-.18-.12a5.92,5.92,0,0,0,1-2.78,9.25,9.25,0,0,0,.9-.27l.31-.1.17.16a10.85,10.85,0,0,1-1.61,2.82Z"/><path class="cls-1" d="M394.68,49.86a2.15,2.15,0,0,0-.12-1,2.3,2.3,0,0,0-1.81-.72,1.8,1.8,0,0,0-1.9,1.78c0,2.7,5,.46,5,3.59,0,2.14-1.91,3.16-3.77,3.16a5.5,5.5,0,0,1-2.13-.47c0-.48.08-1.07.09-1.56v-.35h.42v.58a.87.87,0,0,0,.17.65,3.07,3.07,0,0,0,1.94.57,2,2,0,0,0,2.22-1.89c0-3-4.94-.2-4.94-3.83a2.87,2.87,0,0,1,3.05-2.8,6.81,6.81,0,0,1,2.42.58c0,.2-.09.4-.1.6,0,.37-.08.73-.09,1.11Z"/><path class="cls-1" d="M408.09,55c0,1,0,1.06,1.18,1.12v.37c-.6,0-1.18-.06-1.79-.06s-1.2,0-1.76.06V56.1c1.2-.06,1.18-.15,1.18-1.12v-2.9h-5V55c0,1,0,1.06,1.19,1.12v.37c-.6,0-1.19-.06-1.8-.06s-1.2,0-1.76.06V56.1c1.2-.06,1.19-.15,1.19-1.12V49.26c0-1,0-1.06-1.19-1.12v-.37c.56,0,1.15.06,1.76.06s1.2,0,1.8-.06v.37c-1.2.06-1.19.15-1.19,1.12v2.31h5V49.26c0-1,0-1.06-1.18-1.12v-.37c.56,0,1.15.06,1.76.06s1.2,0,1.79-.06v.37c-1.19.06-1.18.15-1.18,1.12Z"/><path class="cls-1" d="M417.8,52.23c0-2.47-1.11-4.11-3.43-4.11s-3.16,1.51-3.16,3.55,1,4.47,3.5,4.47c2.08-.14,3.09-1.61,3.09-3.91m1.34-.38a4.78,4.78,0,0,1-4.83,4.83,4.28,4.28,0,0,1-4.43-4.59,4.37,4.37,0,0,1,4.69-4.5c2.67,0,4.56,1.5,4.56,4.27"/><path class="cls-1" d="M424.55,49.86a2.11,2.11,0,0,0-.12-1,2.32,2.32,0,0,0-1.81-.72,1.8,1.8,0,0,0-1.9,1.78c0,2.7,5,.46,5,3.59,0,2.14-1.91,3.16-3.77,3.16a5.56,5.56,0,0,1-2.14-.47c.05-.48.08-1.07.09-1.56v-.35h.43v.58a.87.87,0,0,0,.17.65,3.05,3.05,0,0,0,1.94.57,2,2,0,0,0,2.22-1.89c0-3-4.94-.2-4.94-3.83a2.88,2.88,0,0,1,3.06-2.8,6.82,6.82,0,0,1,2.42.58,4.93,4.93,0,0,0-.1.6c0,.37-.07.73-.09,1.11Z"/><path class="cls-1" d="M427.48,49.26c0-1,0-1.06-1.18-1.12v-.37c.72,0,1.44.06,2.19.06s1.46,0,2.18-.06c1.21,0,2.59.52,2.59,1.93a2.79,2.79,0,0,1-2.91,2.64,2.67,2.67,0,0,1-.81-.07l-.14-.46a3.87,3.87,0,0,0,.8.11,1.72,1.72,0,0,0,1.81-1.8c0-1.3-.78-1.89-2-1.89a6.62,6.62,0,0,0-1.24.17,2.86,2.86,0,0,0-.07.86V55c0,1,0,1.06,1.18,1.12v.37c-.6,0-1.18-.06-1.8-.06s-1.2,0-1.75.06V56.1c1.19-.06,1.18-.15,1.18-1.12Z"/><path class="cls-1" d="M436.2,55c0,1,0,1.06,1.18,1.12v.37c-.6,0-1.18-.06-1.8-.06s-1.2,0-1.76.06V56.1C435,56,435,56,435,55V49.26c0-1,0-1.06-1.18-1.12v-.37c.56,0,1.15.06,1.76.06s1.2,0,1.8-.06v.37c-1.2.06-1.18.15-1.18,1.12Z"/><path class="cls-1" d="M440.93,49.64c0-.47,0-.87-.05-1.25l-1.92.06c-.27,0-.41.05-.44.37a8.21,8.21,0,0,0-.14,1H438c0-.24,0-.46,0-.7,0-.44,0-.87-.06-1.34,1.19,0,2.37.06,3.6.06s2.4,0,3.6-.06c0,.46,0,.9-.06,1.34,0,.23,0,.46,0,.7h-.37a6.23,6.23,0,0,0-.14-1c0-.32-.17-.36-.43-.37l-1.95-.06c0,.37,0,.77-.05,1.25V55c0,1,0,1.06,1.19,1.12v.37c-.6,0-1.19-.06-1.8-.06s-1.19,0-1.76.06V56.1c1.2-.06,1.19-.15,1.19-1.12Z"/><path class="cls-1" d="M451.51,53.06,450,49.34l-1.57,3.72Zm2,1.72a3.06,3.06,0,0,0,.63,1.11,1.13,1.13,0,0,0,.69.21v.38c-.55,0-1.09-.06-1.66-.06s-1.11,0-1.66.06V56.1a2.11,2.11,0,0,0,.94-.17c.18-.09.19-.28.09-.51l-.76-1.82h-3.55a14.74,14.74,0,0,0-.83,2.09c0,.41.62.35,1.06.41v.38c-.48,0-.95-.06-1.44-.06s-1,0-1.44.06V56.1c.7-.14.79,0,1.09-.67l.61-1.29,1.68-3.77c.41-.89.81-1.8,1.14-2.7h.4Z"/><path class="cls-1" d="M457.77,55.38l0,.46a15.92,15.92,0,0,0,1.75.06,7.41,7.41,0,0,0,2-.21,2.86,2.86,0,0,0,.12-.4l.29-1,.4,0c0,.18-.07.5-.12.83l-.14,1.31c-.4.06-1.2.05-1.93.06s-1.41-.06-2.14-.06-1.42,0-2.15.06V56.1c.59-.1.68-.46.68-1.46V49.26c0-1,0-1.06-1.18-1.12v-.37c.56,0,1.15.06,1.76.06s1.2,0,1.8-.06v.37c-1.2.06-1.18.15-1.18,1.12Z"/><path class="cls-1" d="M63.07,26.44A87.09,87.09,0,0,1,91.74,31.2c.53.17.56-.08.16-.28C79.68,26.45,73.18,25,63.07,25.1s-16.61,1.35-28.83,5.83c-.4.19-.38.44.16.28a87.09,87.09,0,0,1,28.68-4.76"/><path class="cls-1" d="M14.49,60.86q1.06,0,3.2.12v-.86A9.13,9.13,0,0,1,16,60a.74.74,0,0,1-.43-.23.43.43,0,0,1-.1-.29,3.78,3.78,0,0,1,.36-1.27L17.26,55h7.32l1.55,3.87a2,2,0,0,1,.18.72.43.43,0,0,1-.11.3.8.8,0,0,1-.41.18,14.78,14.78,0,0,1-1.72.09V61l4.07-.13c.52,0,1.44,0,2.75.13v-.86A3.7,3.7,0,0,1,29.61,60a1.32,1.32,0,0,1-.52-.58q-.43-.79-1.75-3.87L21.95,42.85h-.82c-1.13,2.7-1.87,4.45-2.22,5.23l-3.16,7.12q-1.41,3.08-1.64,3.55a4,4,0,0,1-.6,1,1,1,0,0,1-.45.26,6,6,0,0,1-1.25.09V61c1-.08,1.86-.12,2.68-.12m9.58-7H17.69l3.22-7.61Z"/><path class="cls-1" d="M28.7,43.84V43l1.51,0,2.42.06c.48,0,1.23,0,2.24,0L37.16,43a10.73,10.73,0,0,1,3.52.42,3.45,3.45,0,0,1,1.71,1.4,3.9,3.9,0,0,1,.61,2.1A4.4,4.4,0,0,1,42.43,49a4.72,4.72,0,0,1-1.65,1.74A8.55,8.55,0,0,1,38,51.86c.21.29.71.95,1.49,2L42.64,58q1.36,1.76,1.59,2a.77.77,0,0,0,.23.13,3.65,3.65,0,0,0,.83.06V61c-.64-.05-1.2-.08-1.68-.08s-1.11,0-1.83.08Q41,60,39,57.28c-.72-1-1.35-1.87-1.9-2.55-.88-1.13-1.72-2.15-2.53-3.07l.13-.38,1,0a5,5,0,0,0,3.49-1.09,3.68,3.68,0,0,0,1.19-2.86,3.14,3.14,0,0,0-1-2.47,4.51,4.51,0,0,0-3.1-.92,8.46,8.46,0,0,0-2.55.39c0,.46-.06.88-.07,1.27q0,.18-.09,3.68v5.61c0,1.15,0,2.26.05,3.35a3.89,3.89,0,0,0,.17,1.43.8.8,0,0,0,.47.33,8.24,8.24,0,0,0,1.82.13V61c-1.2-.07-2.3-.11-3.3-.11q-1.21,0-4.09.11v-.82A8.34,8.34,0,0,0,30.52,60a.8.8,0,0,0,.45-.29,3.09,3.09,0,0,0,.19-1.22c0-.18,0-1.37,0-3.58V49.08c0-1.14,0-2.26,0-3.35A4,4,0,0,0,31,44.3a.85.85,0,0,0-.47-.33,9.3,9.3,0,0,0-1.83-.13"/><path class="cls-1" d="M45.46,45.93l-.14,1.28h-.78c0-2-.05-3.4-.12-4.18q1.38.06,4.32.12l3.18.05q.86,0,4-.07c1.51,0,2.61-.07,3.3-.1-.1.94-.17,2.34-.2,4.18h-.81L58.08,46c-.07-.73-.11-1.15-.14-1.25a.4.4,0,0,0-.11-.21.46.46,0,0,0-.21-.1q-.18,0-1.26-.1c-.73,0-1.29-.07-1.72-.07H53.11c-.09.81-.12,1.9-.12,3.28v7.38c0,1.15,0,2.26,0,3.35a4.25,4.25,0,0,0,.18,1.43.84.84,0,0,0,.47.33,8.23,8.23,0,0,0,1.82.13V61c-1.51-.07-2.64-.11-3.4-.11-.33,0-1.64,0-3.94.11v-.82A8.39,8.39,0,0,0,50,60a.74.74,0,0,0,.44-.29,3,3,0,0,0,.2-1.22q0-.26.05-3.58V47.57c0-.35,0-.74,0-1.16l-.08-2.14H48.7a21,21,0,0,0-2.59.13.55.55,0,0,0-.39.17,4.36,4.36,0,0,0-.26,1.38"/><path class="cls-1" d="M58.7,61v-.8a4.14,4.14,0,0,0,1.59-.2.43.43,0,0,0,.23-.24,4.74,4.74,0,0,0,.16-1.33c.05-1.11.07-2.07.07-2.88V45.24a2.07,2.07,0,0,0,0-.54,1.78,1.78,0,0,0-.41-.54.89.89,0,0,0-.48-.26,8.39,8.39,0,0,0-1.2-.08V43c1.28,0,2.08.05,2.42.05.56,0,1.12,0,1.67-.05l1.44,2.07,2.38,3.22L70,52.92c1.11,1.46,2,2.62,2.68,3.46.43.56.79,1,1.08,1.32V48.46c0-.83,0-1.79-.08-2.91a5.55,5.55,0,0,0-.15-1.3.49.49,0,0,0-.24-.24,4.59,4.59,0,0,0-1.57-.2V43c.9,0,1.82.05,2.74.05s1.67,0,2.38-.05v.79a4.58,4.58,0,0,0-1.57.2.43.43,0,0,0-.23.24,4.79,4.79,0,0,0-.16,1.33c0,1.11-.07,2.07-.07,2.87v6.07q0,1.85.06,6.88L73.66,61,73.38,61l-.12-.08a5.19,5.19,0,0,1-.44-.51c-.64-.79-1.1-1.39-1.4-1.79l-1.49-2.06-8.15-10.7v9.68c0,.83,0,1.8.08,2.92A5,5,0,0,0,62,59.74a.48.48,0,0,0,.24.25,4.43,4.43,0,0,0,1.57.19V61c-.67-.06-1.42-.09-2.23-.09s-1.85,0-2.89.09"/><path class="cls-1" d="M77.1,61v-.8a5,5,0,0,0,1.74-.2.48.48,0,0,0,.25-.24,4.61,4.61,0,0,0,.17-1.33q.08-1.66.08-2.88V49.08c0-1.14,0-2.26,0-3.35a4,4,0,0,0-.18-1.42.86.86,0,0,0-.47-.33,9.29,9.29,0,0,0-1.83-.13V43l3.6.08L84.25,43l4,0a19.2,19.2,0,0,1,2.36.14,8.65,8.65,0,0,0-.28,1.25q0,.12-.23,2.63h-.79a13.86,13.86,0,0,0-.16-2.35,5.84,5.84,0,0,0-1.53-.39,23.73,23.73,0,0,0-2.83-.17c-.2,0-.65,0-1.35.05l-1.51.09c0,.93-.06,1.81-.08,2.63l-.05,4.27q1.48.07,2.72.07a20.64,20.64,0,0,0,2.57-.14.81.81,0,0,0,.52-.2,3.09,3.09,0,0,0,.2-1l.08-.89h.76v.24l-.06,2.63.06,2.94h-.89l0-.85a2.88,2.88,0,0,0-.17-1.16.82.82,0,0,0-.55-.32,16.31,16.31,0,0,0-2.79-.15q-.85,0-2.4.07c0,.84-.06,2.09-.06,3.75s0,2.74.06,3.55q1.82.13,4.08.13a17,17,0,0,0,2.29-.1,5.09,5.09,0,0,0,1.26-.34,7,7,0,0,0,.3-1.06c.18-.75.31-1.31.37-1.7h.84a34.16,34.16,0,0,0-.33,4.23A17.56,17.56,0,0,1,88,61l-7.54-.11L77.1,61"/><path class="cls-1" d="M92.06,43.84V43l1.5,0,2.43.06c.48,0,1.23,0,2.24,0l2.29-.08a10.73,10.73,0,0,1,3.52.42,3.44,3.44,0,0,1,1.71,1.4,3.88,3.88,0,0,1,.61,2.1,4.37,4.37,0,0,1-.57,2.11,4.77,4.77,0,0,1-1.65,1.74,8.52,8.52,0,0,1-2.81,1.08c.21.29.71.95,1.49,2L106,58q1.36,1.76,1.59,2a.82.82,0,0,0,.23.13,3.67,3.67,0,0,0,.83.06V61c-.64-.05-1.2-.08-1.68-.08s-1.11,0-1.83.08q-.82-1-2.76-3.7-1.07-1.53-1.9-2.55c-.88-1.13-1.73-2.15-2.53-3.07l.13-.38,1,0a5,5,0,0,0,3.49-1.09,3.68,3.68,0,0,0,1.19-2.86,3.14,3.14,0,0,0-1-2.47A4.51,4.51,0,0,0,99.64,44a8.42,8.42,0,0,0-2.55.39c0,.46-.06.88-.08,1.27q0,.18-.09,3.68v5.61c0,1.15,0,2.26.05,3.35a3.91,3.91,0,0,0,.17,1.43.81.81,0,0,0,.47.33,8.19,8.19,0,0,0,1.82.13V61c-1.19-.07-2.3-.11-3.3-.11-.81,0-2.17,0-4.08.11v-.82A8.26,8.26,0,0,0,93.88,60a.81.81,0,0,0,.46-.29,3.33,3.33,0,0,0,.19-1.22q0-.26,0-3.58V49.08q0-1.71,0-3.35a3.88,3.88,0,0,0-.18-1.42.86.86,0,0,0-.47-.33,9.3,9.3,0,0,0-1.83-.13"/><path class="cls-1" d="M63.07,33.24c12-.22,28.21,1.43,41.31,7.48.44.24.55-.09.15-.28-13.83-6.72-31.36-8.9-41.47-8.62C53,31.55,35.43,33.73,21.6,40.45c-.4.18-.29.51.15.28,13.1-6,29.35-7.7,41.31-7.48"/><path class="cls-1" d="M63.07,30c9,0,24.06.93,35.72,6.11.47.26.6-.07.16-.28-11.85-5.54-25.74-7.36-35.86-7.27-10.11-.09-24,1.73-35.9,7.27-.44.21-.31.54.16.28C39,30.89,54.06,29.94,63.07,30"/><path class="cls-1" d="M5.5,45.9c0-2,0-2.19-2.45-2.32v-.77c1.5.08,3,.13,4.55.13s3,0,4.52-.13c2.5,0,5.34,1.08,5.34,4,0,3.23-2.79,5.34-6,5.47a5.82,5.82,0,0,1-1.68-.15l-.28-1a8.66,8.66,0,0,0,1.65.24,3.57,3.57,0,0,0,3.74-3.72c0-2.68-1.63-3.92-4.21-3.92a13.91,13.91,0,0,0-2.56.37A5.74,5.74,0,0,0,8,45.9V57.75c0,2,0,2.19,2.45,2.32v.77c-1.24-.08-2.45-.13-3.72-.13s-2.48.05-3.64.13v-.77c2.48-.13,2.45-.31,2.45-2.32Z"/><path class="cls-1" d="M118.69,47.3a4.33,4.33,0,0,0-.26-2.06c-.7-1.08-2.53-1.5-3.75-1.5a3.73,3.73,0,0,0-3.93,3.69c0,5.6,10.28,1,10.28,7.43,0,4.41-4,6.53-7.8,6.53a11.37,11.37,0,0,1-4.42-1c.1-1,.16-2.22.18-3.23v-.72h.88v1.21a1.79,1.79,0,0,0,.36,1.34,6.33,6.33,0,0,0,4,1.19c2.32,0,4.59-1.37,4.59-3.92,0-6.24-10.22-.41-10.22-7.92,0-3.54,3-5.78,6.33-5.78a14.1,14.1,0,0,1,5,1.19,9.94,9.94,0,0,0-.2,1.24c-.05.77-.16,1.52-.18,2.29Z"/><path class="cls-1" d="M10.66,72c0,.68,0,.74.83.79V73c-.42,0-.83,0-1.26,0S9.4,73,9,73v-.26c.84,0,.83-.11.83-.79v-2H6.34v2c0,.68,0,.74.83.79V73c-.42,0-.83,0-1.26,0s-.84,0-1.23,0v-.26c.84,0,.83-.11.83-.79V68c0-.68,0-.74-.83-.79v-.26c.4,0,.8,0,1.23,0s.84,0,1.26,0v.26c-.84,0-.83.11-.83.79v1.61H9.83V68c0-.68,0-.74-.83-.79v-.26c.39,0,.8,0,1.23,0s.84,0,1.26,0v.26c-.84,0-.83.11-.83.79Z"/><path class="cls-1" d="M19.64,71.83a4.75,4.75,0,0,0,0,.75,9.93,9.93,0,0,0,1.18,0,5,5,0,0,0,1.41-.15,2,2,0,0,0,.1-.44l.08-.48h.29a3.58,3.58,0,0,0-.09.71V73c-.32,0-.91,0-1.45,0s-1,0-1.57,0-1,0-1.58,0v-.26A.69.69,0,0,0,18.8,72V68c0-.68,0-.74-.83-.79v-.26c.53,0,1.06,0,1.6,0s1.07,0,1.6,0,1.15,0,1.45,0a3,3,0,0,0-.14.85c0,.18,0,.33,0,.52h-.27a3.94,3.94,0,0,0-.12-.86,4.24,4.24,0,0,0-1.3-.15,7.48,7.48,0,0,0-1.08,0,4.38,4.38,0,0,0,0,.72v1.63c1.91,0,2,.13,2-.73H22v2h-.28c0-1-.06-.93-2-.86Z"/><path class="cls-1" d="M33.42,70.63,32.33,68l-1.09,2.6Zm1.37,1.21a2.17,2.17,0,0,0,.44.78.84.84,0,0,0,.48.15V73c-.38,0-.77,0-1.16,0s-.78,0-1.16,0v-.26a1.53,1.53,0,0,0,.66-.12c.12-.06.13-.2.06-.36L33.58,71H31.1a10.89,10.89,0,0,0-.59,1.47c0,.29.43.24.74.29V73c-.33,0-.66,0-1,0s-.67,0-1,0v-.26c.49-.1.55,0,.76-.47l.43-.9,1.18-2.64c.28-.62.57-1.25.79-1.88h.28Z"/><path class="cls-1" d="M43.83,72.26l0,.32a11.08,11.08,0,0,0,1.23,0,5,5,0,0,0,1.41-.15,1.84,1.84,0,0,0,.09-.28l.2-.73.28,0c0,.12-.05.35-.09.59l-.1.92c-.28,0-.84,0-1.36,0s-1,0-1.49,0-1,0-1.5,0v-.26c.41-.07.47-.32.47-1V68c0-.68,0-.74-.83-.79v-.26c.4,0,.81,0,1.23,0s.84,0,1.26,0v.26c-.84,0-.83.11-.83.79Z"/><path class="cls-1" d="M54.91,68.24c0-.33,0-.61,0-.87l-1.34,0c-.19,0-.29,0-.31.27a4.75,4.75,0,0,0-.09.67h-.26c0-.17,0-.32,0-.49s0-.62,0-.93c.83,0,1.66,0,2.51,0s1.67,0,2.52,0c0,.32,0,.62,0,.93s0,.32,0,.49h-.26a6,6,0,0,0-.09-.67c0-.23-.12-.25-.31-.27l-1.36,0c0,.26,0,.54,0,.87V72c0,.68,0,.74.83.79V73c-.42,0-.83,0-1.26,0s-.83,0-1.23,0v-.26c.84,0,.83-.11.83-.79Z"/><path class="cls-1" d="M70.26,72c0,.68,0,.74.83.79V73c-.42,0-.83,0-1.26,0s-.84,0-1.23,0v-.26c.84,0,.83-.11.83-.79v-2h-3.5v2c0,.68,0,.74.83.79V73c-.42,0-.83,0-1.26,0s-.84,0-1.23,0v-.26c.84,0,.83-.11.83-.79V68c0-.68,0-.74-.83-.79v-.26c.39,0,.81,0,1.23,0s.84,0,1.26,0v.26c-.84,0-.83.11-.83.79v1.61h3.5V68c0-.68,0-.74-.83-.79v-.26c.39,0,.8,0,1.23,0s.84,0,1.26,0v.26c-.84,0-.83.11-.83.79Z"/><path class="cls-1" d="M83,72.64a4.65,4.65,0,0,1-2,.51c-1.93,0-3.54-1.14-3.54-3.21a3.17,3.17,0,0,1,3.36-3.16,8.43,8.43,0,0,1,2.27.39c-.09.44-.14.87-.19,1.31h-.25c0-.56.11-.76-.4-1a3,3,0,0,0-1.41-.33,2.39,2.39,0,0,0-2.44,2.6,2.77,2.77,0,0,0,2.9,3,3.23,3.23,0,0,0,1.77-.55l.08.09Z"/><path class="cls-1" d="M93.87,70.63,92.78,68l-1.09,2.6Zm1.37,1.21a2.14,2.14,0,0,0,.45.78.82.82,0,0,0,.48.15V73c-.38,0-.77,0-1.16,0s-.78,0-1.16,0v-.26a1.54,1.54,0,0,0,.66-.12c.12-.06.13-.2.06-.36L94,71H91.54A10.21,10.21,0,0,0,91,72.48c0,.29.43.24.74.29V73c-.33,0-.66,0-1,0s-.67,0-1,0v-.26c.49-.1.55,0,.76-.47l.43-.9,1.18-2.64c.28-.62.57-1.25.8-1.88h.28Z"/><path class="cls-1" d="M103.44,68c0-.68,0-.74-.83-.79v-.26c.49,0,1,0,1.51,0s1,0,1.53,0c1.21-.06,1.77.59,1.77,1.33a1.87,1.87,0,0,1-1.7,1.68l2,2.59a.78.78,0,0,0,.5.24V73a4.22,4.22,0,0,0-.6,0,4.36,4.36,0,0,0-.59,0c-.14-.19-.24-.34-.36-.49l-2.08-2.67,0-.13a3.36,3.36,0,0,0,.81,0,1.29,1.29,0,0,0,1.14-1.22,1.18,1.18,0,0,0-1.34-1.23,3.16,3.16,0,0,0-.87.12,1.92,1.92,0,0,0-.05.6v4c0,.68,0,.74.83.79V73c-.42,0-.83,0-1.26,0s-.84,0-1.23,0v-.26c.84,0,.83-.11.83-.79Z"/><path class="cls-1" d="M116.14,71.83a4.31,4.31,0,0,0,0,.75,9.92,9.92,0,0,0,1.19,0,5,5,0,0,0,1.41-.15,2.56,2.56,0,0,0,.11-.44l.08-.48h.29a3.6,3.6,0,0,0-.09.71V73c-.33,0-.91,0-1.45,0s-1,0-1.57,0-1,0-1.58,0v-.26a.69.69,0,0,0,.76-.79V68c0-.68,0-.74-.83-.79v-.26c.53,0,1.06,0,1.6,0s1.08,0,1.6,0,1.15,0,1.45,0a3,3,0,0,0-.14.85c0,.18,0,.33,0,.52h-.27a4,4,0,0,0-.12-.86,4.25,4.25,0,0,0-1.3-.15,7.45,7.45,0,0,0-1.08,0,4,4,0,0,0,0,.72v1.63c1.9,0,2,.13,2-.73h.29v2h-.29c0-1-.06-.93-2-.86Z"/><rect class="cls-1" x="137.29" y="28.4" width="0.97" height="49.03"/></svg>