<svg id="BWH" xmlns="http://www.w3.org/2000/svg" viewBox="0 0 465.43 104.95"><defs><style>.cls-1{fill:#fff;}</style></defs><title>PHI-WHITE</title><path class="cls-1" d="M273.91,51h3.2V73.33h-3.2Z"/><path class="cls-1" d="M282.77,51h4.35L297,69H297V51h3.2V73.33h-4.1L286,55H286V73.33h-3.2Z"/><path class="cls-1" d="M305.86,51h4.35l9.85,18h.06V51h3.2V73.33h-4.09L309.12,55h-.06V73.33h-3.2Z"/><path class="cls-1" d="M338.57,50.63c6.78,0,10.74,4.93,10.74,11.55,0,6.78-3.93,11.54-10.74,11.54S327.82,69,327.82,62.18C327.82,55.56,331.79,50.63,338.57,50.63Zm0,20.27c5.15,0,7.35-4.29,7.35-8.73s-2.43-8.76-7.35-8.73-7.36,4.19-7.36,8.73S333.42,70.9,338.57,70.9Z"/><path class="cls-1" d="M363.61,73.33h-4L351.2,51h3.58l6.88,19.5h.06L368.79,51h3.36Z"/><path class="cls-1" d="M381.06,51h3.35l9.43,22.32h-3.49L388.1,67.7H377.16l-2.27,5.63h-3.35Zm1.57,3-4.44,11.06h8.89Z"/><path class="cls-1" d="M399.16,53.83h-6.94V51H409.3v2.81h-6.94V73.33h-3.2Z"/><path class="cls-1" d="M412.5,51h3.2V73.33h-3.2Z"/><path class="cls-1" d="M431,50.63c6.78,0,10.74,4.93,10.74,11.55,0,6.78-3.93,11.54-10.74,11.54S420.23,69,420.23,62.18C420.23,55.56,424.2,50.63,431,50.63Zm0,20.27c5.15,0,7.36-4.29,7.36-8.73s-2.43-8.76-7.36-8.73-7.36,4.19-7.36,8.73S425.83,70.9,431,70.9Z"/><path class="cls-1" d="M446.23,51h4.35l9.85,18h.07V51h3.2V73.33h-4.1L449.49,55h-.07V73.33h-3.2Z"/><polygon class="cls-1" points="40.88 67.74 63.05 67.74 62.67 67.47 41.57 67.17 40.88 67.74"/><path class="cls-1" d="M227.15,56.84a5.6,5.6,0,0,1,2.69.71,5.11,5.11,0,0,1,2.07,2,5.52,5.52,0,0,1,.76,2.78,5.5,5.5,0,0,1-8.26,4.77,5.5,5.5,0,0,1-2-7.54,5.28,5.28,0,0,1,2-2A5.57,5.57,0,0,1,227.15,56.84Zm0,.86a4.59,4.59,0,0,0-2.29.61,4.36,4.36,0,0,0-1.72,1.7,4.54,4.54,0,0,0-.64,2.34,4.6,4.6,0,0,0,.62,2.33,4.62,4.62,0,0,0,6.34,1.7A4.64,4.64,0,0,0,231.16,60a4.35,4.35,0,0,0-1.74-1.71A4.68,4.68,0,0,0,227.15,57.7Zm-2.54,7.38v-.31h.11a1,1,0,0,0,.38,0,.27.27,0,0,0,.16-.12,1.21,1.21,0,0,0,0-.35V60a1.32,1.32,0,0,0,0-.41.31.31,0,0,0-.13-.17,1.6,1.6,0,0,0-.36,0h-.15V59h2.69a3.08,3.08,0,0,1,1.26.21,1.22,1.22,0,0,1,.62.59,1.69,1.69,0,0,1,.18.73,1.31,1.31,0,0,1-.15.62,1.51,1.51,0,0,1-.46.57,2.41,2.41,0,0,1-.93.38,1.2,1.2,0,0,1,.67.46,2.18,2.18,0,0,1,.25.36,6.11,6.11,0,0,1,.29.57c.16.34.3.61.41.81a1.39,1.39,0,0,0,.28.37.62.62,0,0,0,.32.08v.31h-.9a.94.94,0,0,1-.56-.13,5.63,5.63,0,0,1-.66-1.26c-.2-.44-.33-.73-.42-.9a1.22,1.22,0,0,0-.28-.34.93.93,0,0,0-.48-.1l-.36,0v1.81a1.06,1.06,0,0,0,.05.42.22.22,0,0,0,.14.13,4.38,4.38,0,0,0,.47,0v.31ZM226.37,62l.4,0c.62,0,1-.14,1.21-.42a1.52,1.52,0,0,0,.28-.92,1.23,1.23,0,0,0-.32-.9,1.19,1.19,0,0,0-.87-.33l-.32,0-.25.06a.23.23,0,0,0-.07.12.4.4,0,0,0,0,.19Z"/><path class="cls-1" d="M113.23,4c16.76.18,31,1.72,52.9,8.79,1,.31,1-.15.29-.51C143.88,4,131.88,1.37,113.23,1.49,94.57,1.37,82.58,4,60,12.26c-.74.36-.7.82.29.51C82.21,5.69,96.47,4.15,113.23,4Z"/><path class="cls-1" d="M41.28,54.66H29.5l5.95-14ZM23.6,67.53c1.3,0,3.27.08,5.9.21V66.16a17.25,17.25,0,0,1-3-.22,1.38,1.38,0,0,1-.79-.42.78.78,0,0,1-.18-.54,7,7,0,0,1,.67-2.35l2.54-6h13.5l2.86,7.14a3.71,3.71,0,0,1,.33,1.33.78.78,0,0,1-.2.54,1.44,1.44,0,0,1-.76.34,26.28,26.28,0,0,1-3.17.17v1.58l7.5-.23q1.44,0,5.08.23V66.16a7,7,0,0,1-2.36-.28,2.39,2.39,0,0,1-1-1.07c-.53-1-1.61-3.35-3.23-7.14l-10-23.39H35.85q-3.14,7.48-4.09,9.66L25.93,57.09q-2.61,5.68-3,6.54a7.44,7.44,0,0,1-1.11,1.88A2,2,0,0,1,21,66a11.79,11.79,0,0,1-2.3.16v1.58C20.45,67.61,22.1,67.53,23.6,67.53Z"/><path class="cls-1" d="M49.82,36.1V34.61l2.78.07,4.47.12c.89,0,2.27,0,4.13-.09,2.43-.09,3.83-.14,4.22-.14a19.73,19.73,0,0,1,6.49.78,6.39,6.39,0,0,1,3.16,2.58,7.21,7.21,0,0,1,1.12,3.89,8.1,8.1,0,0,1-1,3.89,8.72,8.72,0,0,1-3,3.21,16,16,0,0,1-5.19,2q.59.81,2.76,3.63l5.87,7.75c1.68,2.16,2.65,3.36,2.93,3.61a1.59,1.59,0,0,0,.42.23,6.42,6.42,0,0,0,1.54.11v1.5c-1.18-.09-2.22-.13-3.1-.13s-2,0-3.37.13c-1-1.17-2.71-3.44-5.08-6.83-1.32-1.88-2.48-3.45-3.51-4.71-1.63-2.09-3.18-4-4.66-5.67l.24-.7c.81,0,1.42.08,1.84.08,2.83,0,5-.67,6.43-2a6.82,6.82,0,0,0,2.19-5.29,5.8,5.8,0,0,0-1.89-4.55q-1.89-1.7-5.71-1.7a15.72,15.72,0,0,0-4.71.72C59,37.92,59,38.7,59,39.43c0,.22-.07,2.48-.17,6.79V56.58q0,3.17.1,6.18a7.24,7.24,0,0,0,.32,2.64,1.52,1.52,0,0,0,.87.61,16.24,16.24,0,0,0,3.36.24v1.5c-2.21-.12-4.24-.18-6.08-.18q-2.23,0-7.54.18v-1.5A16.39,16.39,0,0,0,53.19,66a1.49,1.49,0,0,0,.83-.54,5.77,5.77,0,0,0,.36-2.26c0-.33,0-2.53.09-6.62V45.77q0-3.16-.07-6.19A7.31,7.31,0,0,0,54.06,37a1.56,1.56,0,0,0-.87-.61A16.8,16.8,0,0,0,49.82,36.1Z"/><path class="cls-1" d="M80.74,40l-.25,2.36H79c0-3.71-.09-6.28-.23-7.71q2.54.1,8,.23c2.94.07,4.89.09,5.87.09s3.51,0,7.34-.13c2.78-.07,4.81-.12,6.09-.18-.19,1.73-.31,4.31-.37,7.71h-1.49L104,40.08c-.12-1.35-.21-2.12-.26-2.31a.72.72,0,0,0-.2-.39.91.91,0,0,0-.39-.19c-.22,0-1-.11-2.33-.18s-2.39-.13-3.17-.13H94.85c-.16,1.5-.23,3.51-.23,6.05V56.58q0,3.17.06,6.18A7.83,7.83,0,0,0,95,65.4a1.56,1.56,0,0,0,.87.61,16.16,16.16,0,0,0,3.37.24v1.5c-2.78-.12-4.88-.18-6.27-.18q-.91,0-7.27.18v-1.5A16.49,16.49,0,0,0,89.09,66a1.4,1.4,0,0,0,.82-.54,5.56,5.56,0,0,0,.37-2.26q0-.49.09-6.62V43c0-.66,0-1.37,0-2.15l-.14-3.95H86.71a39.63,39.63,0,0,0-4.78.23,1.05,1.05,0,0,0-.72.31A8.15,8.15,0,0,0,80.74,40Z"/><path class="cls-1" d="M105.18,67.74V66.27a7.94,7.94,0,0,0,2.93-.37.86.86,0,0,0,.42-.44,9,9,0,0,0,.29-2.46c.1-2,.13-3.82.13-5.31v-19a3.77,3.77,0,0,0-.08-1,3.28,3.28,0,0,0-.76-1,1.67,1.67,0,0,0-.88-.47,15.08,15.08,0,0,0-2.22-.14V34.61c2.36.07,3.84.09,4.46.09,1,0,2.06,0,3.07-.09l2.66,3.82,4.39,5.95,6.4,8.49c2,2.7,3.69,4.84,4.94,6.38.79,1,1.46,1.84,2,2.43V44.63c0-1.52,0-3.31-.15-5.36a10.39,10.39,0,0,0-.27-2.4.9.9,0,0,0-.45-.43,8.37,8.37,0,0,0-2.91-.37V34.61c1.67.07,3.36.09,5.06.09s3.08,0,4.4-.09v1.46a8.34,8.34,0,0,0-2.91.37.8.8,0,0,0-.42.45,8.84,8.84,0,0,0-.3,2.46c-.08,2-.13,3.82-.13,5.29V55.85q0,3.4.11,12.7l-2.19-.69-.51-.12a.9.9,0,0,1-.23-.13,10.26,10.26,0,0,1-.81-.93c-1.18-1.47-2-2.57-2.59-3.31l-2.74-3.8-15-19.76V57.69c0,1.52,0,3.31.15,5.39a9.52,9.52,0,0,0,.28,2.38.92.92,0,0,0,.45.47,8.31,8.31,0,0,0,2.9.34v1.47c-1.24-.11-2.61-.16-4.12-.16S107.1,67.63,105.18,67.74Z"/><path class="cls-1" d="M139.12,67.74V66.27a9.49,9.49,0,0,0,3.22-.37.92.92,0,0,0,.47-.44,8.53,8.53,0,0,0,.32-2.46q.14-3.07.14-5.31V45.77c0-2.11,0-4.17-.07-6.19a7.37,7.37,0,0,0-.33-2.62,1.58,1.58,0,0,0-.86-.61,16.86,16.86,0,0,0-3.37-.24V34.61l6.65.14,7-.13c3.38,0,5.82-.07,7.35-.07a34.28,34.28,0,0,1,4.36.26,17,17,0,0,0-.51,2.3c0,.15-.17,1.76-.42,4.86h-1.46a25.66,25.66,0,0,0-.31-4.34,10.83,10.83,0,0,0-2.82-.72,44,44,0,0,0-5.22-.32c-.38,0-1.21,0-2.49.1s-2.22.12-2.78.16c-.07,1.72-.11,3.34-.14,4.86l-.1,7.88c1.82.09,3.49.13,5,.13a37.76,37.76,0,0,0,4.73-.25,1.47,1.47,0,0,0,1-.37,5.55,5.55,0,0,0,.37-1.91l.14-1.63h1.4V46l-.12,4.85.12,5.43h-1.64l-.07-1.58a5.25,5.25,0,0,0-.31-2.15,1.5,1.5,0,0,0-1-.59,30.76,30.76,0,0,0-5.16-.28q-1.56,0-4.43.12c-.07,1.56-.11,3.87-.11,6.93,0,2.88,0,5.06.11,6.56q3.36.25,7.54.25a31,31,0,0,0,4.22-.19,9.6,9.6,0,0,0,2.32-.62,13,13,0,0,0,.56-2c.34-1.39.57-2.42.67-3.13h1.55a62.76,62.76,0,0,0-.61,7.81,32.19,32.19,0,0,1-4.87.31l-13.92-.18Z"/><path class="cls-1" d="M166.72,36.1V34.61l2.78.07,4.48.12c.89,0,2.27,0,4.13-.09,2.42-.09,3.83-.14,4.22-.14a19.76,19.76,0,0,1,6.5.78A6.39,6.39,0,0,1,192,37.93a7.24,7.24,0,0,1,1.12,3.89A8.06,8.06,0,0,1,192,45.71a8.84,8.84,0,0,1-3,3.21,16,16,0,0,1-5.19,2q.59.81,2.75,3.63l5.88,7.75c1.67,2.16,2.66,3.36,2.93,3.61a1.7,1.7,0,0,0,.42.23,6.44,6.44,0,0,0,1.54.11v1.5c-1.19-.09-2.22-.13-3.11-.13s-2,0-3.37.13c-1-1.17-2.71-3.44-5.09-6.83-1.32-1.88-2.49-3.45-3.5-4.71-1.63-2.09-3.18-4-4.66-5.67l.23-.7c.81,0,1.42.08,1.84.08,2.83,0,5-.67,6.44-2a6.83,6.83,0,0,0,2.19-5.29,5.8,5.8,0,0,0-1.89-4.55c-1.26-1.13-3.16-1.7-5.71-1.7a15.6,15.6,0,0,0-4.71.72c-.07.84-.11,1.62-.14,2.36,0,.22-.07,2.48-.17,6.79V56.58q0,3.17.1,6.18a7.16,7.16,0,0,0,.32,2.64A1.52,1.52,0,0,0,177,66a16.15,16.15,0,0,0,3.35.24v1.5c-2.2-.12-4.23-.18-6.08-.18-1.49,0-4,.06-7.54.18v-1.5a16.29,16.29,0,0,0,3.36-.24,1.53,1.53,0,0,0,.85-.54,6.13,6.13,0,0,0,.35-2.26q0-.49.09-6.62V45.77q0-3.16-.07-6.19A7.18,7.18,0,0,0,171,37a1.59,1.59,0,0,0-.87-.61A16.88,16.88,0,0,0,166.72,36.1Z"/><path class="cls-1" d="M113.23,16.55c22.06-.42,52,2.65,76.23,13.8.82.44,1-.17.28-.51-25.52-12.41-57.86-16.43-76.5-15.92-18.65-.51-51,3.51-76.51,15.92-.74.33-.54.95.28.51C61.18,19.19,91.17,16.13,113.23,16.55Z"/><path class="cls-1" d="M113.23,10.48c16.61,0,44.4,1.71,65.9,11.27.87.47,1.1-.12.29-.51C157.55,11,131.92,7.65,113.26,7.82,94.6,7.65,68.9,11,47,21.25c-.82.38-.58,1,.29.51C68.82,12.19,96.62,10.44,113.23,10.48Z"/><path class="cls-1" d="M7,39.91c0-3.71.05-4-4.52-4.28V34.2c2.76.14,5.53.23,8.39.23s5.57-.09,8.33-.23c4.62,0,9.86,2,9.86,7.38,0,6-5.14,9.87-11.1,10.1a10.71,10.71,0,0,1-3.1-.28l-.52-1.76a15.71,15.71,0,0,0,3,.44,6.6,6.6,0,0,0,6.91-6.87c0-5-3-7.25-7.76-7.25a25.84,25.84,0,0,0-4.72.67,10.59,10.59,0,0,0-.28,3.28V61.78c0,3.72,0,4.05,4.53,4.29V67.5c-2.29-.14-4.53-.24-6.86-.24s-4.58.1-6.72.24V66.07C7.07,65.84,7,65.5,7,61.78Z"/><path class="cls-1" d="M215.86,42.49c0-1.8,0-3-.47-3.81-1.29-2-4.67-2.76-6.91-2.76-3.9,0-7.24,2.72-7.24,6.82,0,10.33,19,1.76,19,13.72,0,8.15-7.29,12.06-14.39,12.06a21,21,0,0,1-8.15-1.81c.19-1.82.29-4.11.34-6V59.42h1.61v2.24a3.29,3.29,0,0,0,.67,2.47c1.91,1.67,5,2.19,7.39,2.19,4.28,0,8.47-2.52,8.47-7.24,0-11.53-18.86-.76-18.86-14.63,0-6.53,5.52-10.68,11.68-10.68A25.87,25.87,0,0,1,218.2,36a18.63,18.63,0,0,0-.38,2.28c-.1,1.42-.29,2.81-.33,4.23Z"/><path class="cls-1" d="M16.54,88.05c0,1.27,0,1.37,1.53,1.46V90c-.77,0-1.53-.08-2.32-.08s-1.54,0-2.27.08v-.48C15,89.43,15,89.32,15,88.05V84.31H8.57v3.74c0,1.27,0,1.37,1.53,1.46V90c-.77,0-1.53-.08-2.32-.08s-1.55,0-2.27.08v-.48C7.05,89.43,7,89.32,7,88.05V80.66c0-1.26,0-1.37-1.53-1.45v-.47c.73,0,1.49.07,2.27.07s1.55,0,2.32-.07v.47c-1.54.08-1.53.19-1.53,1.45v3H15v-3c0-1.26,0-1.37-1.53-1.45v-.47c.73,0,1.48.07,2.27.07s1.55,0,2.32-.07v.47c-1.55.08-1.53.19-1.53,1.45Z"/><path class="cls-1" d="M33.1,87.79a9.17,9.17,0,0,0,.08,1.38,17.7,17.7,0,0,0,2.19.08A9.39,9.39,0,0,0,38,89a3.92,3.92,0,0,0,.19-.82l.15-.89h.54a6.62,6.62,0,0,0-.16,1.31v1.34C38.08,90,37,90,36,90s-1.92-.08-2.9-.08-1.94,0-2.92.08v-.48a1.27,1.27,0,0,0,1.38-1.46V80.66c0-1.26,0-1.37-1.53-1.45v-.47c1,0,2,.07,3,.07s2,0,2.95-.07,2.13,0,2.67.07a5.57,5.57,0,0,0-.26,1.56c0,.34,0,.62,0,1h-.5a7.57,7.57,0,0,0-.22-1.58,7.82,7.82,0,0,0-2.4-.27,14.88,14.88,0,0,0-2,.08,8.49,8.49,0,0,0-.08,1.33v3c3.51,0,3.74.23,3.76-1.35h.53v3.72h-.53c0-1.82-.12-1.72-3.76-1.6Z"/><path class="cls-1" d="M61.07,87.8a4.05,4.05,0,0,0,.82,1.43,1.53,1.53,0,0,0,.89.27V90q-1.06-.07-2.14-.08c-.73,0-1.43,0-2.14.08v-.48a2.77,2.77,0,0,0,1.21-.22c.23-.12.24-.38.11-.66l-1-2.36H54.24A19.77,19.77,0,0,0,53.16,89c0,.53.79.45,1.37.53V90c-.61,0-1.22-.08-1.85-.08s-1.24,0-1.85.08v-.48c.9-.18,1,0,1.4-.87L53,87l2.17-4.87c.52-1.14,1-2.31,1.47-3.47h.52Zm-2.53-2.23-2-4.81-2,4.81Z"/><path class="cls-1" d="M77.73,88.58l.05.59a19.7,19.7,0,0,0,2.27.08,9.33,9.33,0,0,0,2.6-.28,3.88,3.88,0,0,0,.17-.52l.36-1.36.51,0c0,.22-.1.65-.16,1.08l-.17,1.7c-.52.08-1.55,0-2.5.08s-1.82-.08-2.76-.08-1.83,0-2.77.08v-.48c.76-.13.87-.6.87-1.89v-7c0-1.26,0-1.37-1.53-1.45v-.47c.73,0,1.48.07,2.27.07s1.54,0,2.32-.07v.47c-1.55.08-1.54.19-1.54,1.45Z"/><path class="cls-1" d="M98.18,81.17c0-.62,0-1.13-.06-1.62l-2.48.08c-.34,0-.54.07-.57.48a9.21,9.21,0,0,0-.18,1.24h-.48c0-.31,0-.59,0-.9,0-.57,0-1.13-.08-1.71,1.53,0,3.06.07,4.64.07s3.09,0,4.66-.07c-.05.58-.06,1.15-.08,1.71,0,.31,0,.59,0,.9H103a11.7,11.7,0,0,0-.18-1.24c0-.42-.23-.47-.57-.48l-2.51-.08c0,.48,0,1-.07,1.62v6.89c0,1.27,0,1.37,1.54,1.46V90c-.77,0-1.54-.08-2.33-.08s-1.54,0-2.27.08v-.48c1.55-.08,1.53-.19,1.53-1.46Z"/><path class="cls-1" d="M126.49,88.05c0,1.27,0,1.37,1.53,1.46V90c-.77,0-1.53-.08-2.32-.08s-1.55,0-2.27.08v-.48c1.54-.08,1.53-.19,1.53-1.46V84.31h-6.45v3.74c0,1.27,0,1.37,1.53,1.46V90c-.77,0-1.53-.08-2.32-.08s-1.55,0-2.28.08v-.48c1.55-.08,1.53-.19,1.53-1.46V80.66c0-1.26,0-1.37-1.53-1.45v-.47c.72,0,1.49.07,2.28.07s1.54,0,2.32-.07v.47c-1.55.08-1.53.19-1.53,1.45v3H125v-3c0-1.26,0-1.37-1.53-1.45v-.47c.73,0,1.48.07,2.27.07s1.55,0,2.32-.07v.47c-1.54.08-1.53.19-1.53,1.45Z"/><path class="cls-1" d="M150.08,89.29a8.57,8.57,0,0,1-3.65.95c-3.55,0-6.52-2.1-6.52-5.92s3-5.84,6.2-5.84a15.63,15.63,0,0,1,4.19.73c-.16.81-.26,1.61-.35,2.42h-.47c0-1,.21-1.41-.74-1.87a5.54,5.54,0,0,0-2.6-.6c-2.66,0-4.5,1.88-4.5,4.8A5.1,5.1,0,0,0,147,89.41a6,6,0,0,0,3.27-1l.14.17Z"/><path class="cls-1" d="M172.59,87.8a4,4,0,0,0,.82,1.43,1.5,1.5,0,0,0,.89.27V90c-.71,0-1.42-.08-2.14-.08s-1.44,0-2.14.08v-.48a2.79,2.79,0,0,0,1.21-.22c.23-.12.24-.38.11-.66l-1-2.36h-4.58A18.66,18.66,0,0,0,164.69,89c0,.53.79.45,1.37.53V90c-.61,0-1.22-.08-1.85-.08s-1.24,0-1.85.08v-.48c.91-.18,1,0,1.4-.87l.79-1.66,2.17-4.87c.52-1.14,1-2.31,1.47-3.47h.51Zm-2.53-2.23-2-4.81-2,4.81Z"/><path class="cls-1" d="M187.72,80.66c0-1.26,0-1.37-1.53-1.45v-.47c.9,0,1.83.07,2.79.07s1.89,0,2.82-.07c2.23-.12,3.26,1.09,3.26,2.45,0,1.75-1.58,2.8-3.15,3.1l3.66,4.78a1.42,1.42,0,0,0,.92.45V90a7.89,7.89,0,0,0-1.1-.08,8.15,8.15,0,0,0-1.09.08c-.25-.34-.43-.63-.66-.9l-3.84-4.94.07-.24a6.82,6.82,0,0,0,1.48-.06,2.39,2.39,0,0,0,2.1-2.26A2.18,2.18,0,0,0,191,79.33a6,6,0,0,0-1.62.22,3.54,3.54,0,0,0-.1,1.11v7.39c0,1.27,0,1.37,1.53,1.46V90c-.78,0-1.53-.08-2.32-.08s-1.55,0-2.27.08v-.48c1.54-.08,1.53-.19,1.53-1.46Z"/><path class="cls-1" d="M211.14,87.79a8.3,8.3,0,0,0,.08,1.38,17.62,17.62,0,0,0,2.19.08A9.38,9.38,0,0,0,216,89a4.29,4.29,0,0,0,.19-.82l.15-.89h.53a6.45,6.45,0,0,0-.16,1.31v1.34c-.6.08-1.67,0-2.67.08s-1.92-.08-2.9-.08-1.94,0-2.92.08v-.48a1.28,1.28,0,0,0,1.39-1.46V80.66c0-1.26,0-1.37-1.54-1.45v-.47c1,0,2,.07,2.95.07s2,0,3-.07,2.12,0,2.67.07a5.41,5.41,0,0,0-.26,1.56c0,.34,0,.62,0,1h-.51a7.22,7.22,0,0,0-.23-1.58,7.79,7.79,0,0,0-2.4-.27,14.79,14.79,0,0,0-2,.08,7.7,7.7,0,0,0-.08,1.33v3c3.51,0,3.74.23,3.75-1.35h.53v3.72h-.53c0-1.82-.12-1.72-3.75-1.6Z"/><rect class="cls-1" x="252.33" y="13.72" width="1.79" height="90.53"/></svg>