<svg id="BWH" xmlns="http://www.w3.org/2000/svg" viewBox="0 0 465.43 104.95"><defs><style>.cls-1{fill:none;stroke:#008bb0;stroke-width:0.67px;}.cls-2{fill:#008bb0;}.cls-3{fill:#fff;}</style></defs><title>SRN</title><path class="cls-1" d="M37.86,96.52C1,77.11.68,50.79.68,9.76H75c0,41.06-.12,67.35-37.16,86.76"/><path class="cls-2" d="M37.88,93.24C2,74.76,3.33,44,3.33,12.7h69c0,31.61,1.15,62.06-34.4,80.54"/><path class="cls-3" d="M40.94,18.51c0,5.16,3.9,6.77,3.9,8.48V37.66c-2.47,0-2.41-2.81-2.74-6.54A1.23,1.23,0,0,0,40.8,29.9h0a1.34,1.34,0,0,0-1.44,1.22V42.48a1.34,1.34,0,0,1-1.44,1.22h0a1.34,1.34,0,0,1-1.44-1.22V33.71a.42.42,0,0,0-.39-.46h0a.42.42,0,0,0-.39.46V43a1.34,1.34,0,0,1-1.44,1.22h0A1.34,1.34,0,0,1,32.85,43V33.71a.43.43,0,0,0-.39-.46h0a.42.42,0,0,0-.38.46v8.78a1.34,1.34,0,0,1-1.43,1.22h0a1.34,1.34,0,0,1-1.44-1.22v-.69c.88-.62,1.12-1.54,1.12-3H29.18l0-5.11a.43.43,0,0,0-.39-.46h0a.43.43,0,0,0-.39.46v5.1H25.56v-14a14.76,14.76,0,0,0,2.36-6.19Z"/><path class="cls-3" d="M10.55,43.39c5.16,0,6.65-3.9,8.37-3.9H29.59c0,2.46-2.81,2.41-6.53,2.74a1.23,1.23,0,0,0-1.22,1.29h0A1.34,1.34,0,0,0,23.05,45H34.41a1.34,1.34,0,0,1,1.22,1.44h0a1.34,1.34,0,0,1-1.22,1.43H25.63a.43.43,0,0,0-.46.39h0a.43.43,0,0,0,.46.38h9.24A1.34,1.34,0,0,1,36.1,50h0a1.34,1.34,0,0,1-1.23,1.43H25.63a.43.43,0,0,0-.46.39h0a.42.42,0,0,0,.46.38h8.78a1.34,1.34,0,0,1,1.22,1.43h0a1.34,1.34,0,0,1-1.22,1.44h-.75C33,54.22,32.17,54,30.74,54V55.1h-5.1a.43.43,0,0,0-.46.39h0a.44.44,0,0,0,.46.4h5.11v2.88h-14a14.82,14.82,0,0,0-6.19-2.36Z"/><path class="cls-3" d="M35.32,73.82c0-5.16-3.9-6.71-3.9-8.43V54.73c2.47,0,2.41,2.81,2.74,6.54a1.23,1.23,0,0,0,1.29,1.22h0a1.35,1.35,0,0,0,1.44-1.22V49.92a1.34,1.34,0,0,1,1.43-1.22h0a1.34,1.34,0,0,1,1.44,1.22v8.76a.42.42,0,0,0,.39.46h0a.42.42,0,0,0,.38-.46V49.45A1.34,1.34,0,0,1,42,48.23h0a1.34,1.34,0,0,1,1.44,1.22v9.23a.43.43,0,0,0,.39.46h0a.42.42,0,0,0,.39-.46V49.92a1.34,1.34,0,0,1,1.43-1.22h0A1.34,1.34,0,0,1,47,49.92v.75c-.86.62-1.12,1.49-1.12,2.9H47l0,5.11a.43.43,0,0,0,.39.46h0a.43.43,0,0,0,.39-.46v-5.1H50.7v14a14.78,14.78,0,0,0-2.37,6.19Z"/><path class="cls-3" d="M65.82,49c-5.16,0-6.76,3.88-8.49,3.88H46.67c0-2.45,2.81-2.39,6.54-2.72a1.23,1.23,0,0,0,1.22-1.29h0a1.34,1.34,0,0,0-1.22-1.44H41.85A1.34,1.34,0,0,1,40.62,46h0a1.34,1.34,0,0,1,1.22-1.44h8.78a.43.43,0,0,0,.46-.39h0a.43.43,0,0,0-.46-.39H41.38a1.34,1.34,0,0,1-1.22-1.44h0a1.34,1.34,0,0,1,1.22-1.43h9.25a.43.43,0,0,0,.46-.39h0a.43.43,0,0,0-.46-.39H41.85a1.34,1.34,0,0,1-1.22-1.43h0a1.34,1.34,0,0,1,1.22-1.44h.69c.62.88,1.54,1.12,3,1.12V37.32l5.11,0a.43.43,0,0,0,.46-.39h0a.43.43,0,0,0-.46-.39h-5.1V33.63h14A14.79,14.79,0,0,0,65.76,36Z"/><path class="cls-2" d="M450.19,46.65h-.3c0-.76,0-1.29,0-1.58l1.64,0,1.21,0,1.51,0,1.26,0c0,.36-.07.89-.08,1.58h-.31l0-.46c0-.28,0-.44-.06-.48a.16.16,0,0,0,0-.08.17.17,0,0,0-.08,0l-.48,0-.66,0h-.58c0,.3,0,.72,0,1.24v2.81c0,.44,0,.86,0,1.28a1.5,1.5,0,0,0,.07.54.32.32,0,0,0,.17.13,4,4,0,0,0,.7,0v.31l-1.29,0-1.5,0v-.31a3.92,3.92,0,0,0,.69,0,.31.31,0,0,0,.17-.11,1.2,1.2,0,0,0,.07-.47c0-.06,0-.52,0-1.36v-2.8c0-.14,0-.28,0-.44l0-.81h-.71a8.43,8.43,0,0,0-1,0,.22.22,0,0,0-.14.06,1.68,1.68,0,0,0-.1.52Z"/><path class="cls-2" d="M455.85,45.37v-.31l1,0,.89,0c.28.63.54,1.2.77,1.68l1.82,3.75,1.64-3.44q.67-1.4.9-2l.86,0,1,0v.31a3.4,3.4,0,0,0-.69,0,.31.31,0,0,0-.17.12,1,1,0,0,0-.08.46c0,.06,0,.52,0,1.36v2.22c0,.44,0,.86,0,1.28a1.51,1.51,0,0,0,.07.54.34.34,0,0,0,.17.13,4,4,0,0,0,.69,0v.31l-1.37,0-1.42,0v-.31a4,4,0,0,0,.7,0,.31.31,0,0,0,.17-.11,1.16,1.16,0,0,0,.07-.47c0-.06,0-.52,0-1.36V46.06l-1.66,3.47c-.26.54-.46,1-.61,1.31L460.17,52H460c0-.12-.08-.22-.11-.29l-.33-.7-2.3-4.76v3.36c0,.44,0,.86,0,1.28a1.57,1.57,0,0,0,.07.54.33.33,0,0,0,.18.13,3.91,3.91,0,0,0,.69,0v.31l-1.16,0-1.19,0v-.31a3.87,3.87,0,0,0,.69,0,.31.31,0,0,0,.18-.11,1.27,1.27,0,0,0,.07-.47c0-.06,0-.52,0-1.36V47.36c0-.44,0-.86,0-1.28a1.66,1.66,0,0,0-.07-.54.36.36,0,0,0-.18-.12A3.45,3.45,0,0,0,455.85,45.37Z"/><path class="cls-2" d="M98.46,50.49a66.86,66.86,0,0,0,.55-9h1.94a21.59,21.59,0,0,0,.47,5A4.35,4.35,0,0,0,103,48.12a13.07,13.07,0,0,0,3.41,1.55,13.78,13.78,0,0,0,4.14.67A11,11,0,0,0,116,49a8.46,8.46,0,0,0,3.59-3.53,10,10,0,0,0,1.13-4.67,8.69,8.69,0,0,0-.57-3.3,5.1,5.1,0,0,0-1.72-2.24,7.19,7.19,0,0,0-2.86-1.2q-1.07-.17-4.27-.58c-2.14-.28-4-.58-5.46-.91a12.26,12.26,0,0,1-4.42-2.16,9,9,0,0,1-2.29-3.26,10.69,10.69,0,0,1-.88-4.35A12.48,12.48,0,0,1,100,16.37a11.88,11.88,0,0,1,5.26-4.68A17.23,17.23,0,0,1,112.8,10a24.55,24.55,0,0,1,5.36.66,23.67,23.67,0,0,1,5.42,1.89A31.36,31.36,0,0,0,123,16q-.17,1.58-.26,4.64H120.8a31.81,31.81,0,0,0-.26-4.85,7.24,7.24,0,0,0-2-1.88,12.53,12.53,0,0,0-6.22-1.67,8.68,8.68,0,0,0-9.21,9.16,6.82,6.82,0,0,0,.9,3.8,6.12,6.12,0,0,0,3.21,2.15,29.27,29.27,0,0,0,5.2,1q3.61.49,6.5,1a11.08,11.08,0,0,1,4,1.92,8.5,8.5,0,0,1,2.14,2.92,10.12,10.12,0,0,1,.83,4.24,13.09,13.09,0,0,1-4.77,10q-4.77,4.28-12.34,4.28A23.41,23.41,0,0,1,98.46,50.49Z"/><path class="cls-2" d="M130.29,12.72V10.88q5.81.2,9.19.2c1.5,0,3.1,0,4.8-.06l4.53-.16,1.39,0a20.77,20.77,0,0,1,7.23,1,8.43,8.43,0,0,1,4.1,3.22,8.87,8.87,0,0,1,1.47,5,11.44,11.44,0,0,1-1.23,5.06,11.71,11.71,0,0,1-3.57,4.26,15.51,15.51,0,0,1-4.89,2.5,13.64,13.64,0,0,1-3.93.52,21.63,21.63,0,0,1-4-.4l-.6-2.14a19,19,0,0,0,4,.6A8.51,8.51,0,0,0,153,29.44a7.22,7.22,0,0,0,3-3.18,10.24,10.24,0,0,0,1.08-4.7,9.54,9.54,0,0,0-1.05-4.5A6.91,6.91,0,0,0,152.82,14a11.9,11.9,0,0,0-5.22-1,19.9,19.9,0,0,0-5.89,1q-.26,3.06-.26,9.58V38.08c0,2.61,0,5.17.09,7.65A9.2,9.2,0,0,0,142,49a1.94,1.94,0,0,0,1.07.76,21,21,0,0,0,4.18.3v1.85q-5.34-.21-7.86-.21-1,0-9,.21V50.06a20.83,20.83,0,0,0,4.14-.3,1.91,1.91,0,0,0,1-.67,7.31,7.31,0,0,0,.44-2.8q0-.61.14-8.2V24.71q0-3.93-.09-7.69a9.14,9.14,0,0,0-.42-3.24,2,2,0,0,0-1.07-.75A20.77,20.77,0,0,0,130.29,12.72Z"/><path class="cls-2" d="M161.28,51.91v-2a15.65,15.65,0,0,0,2.85-.19,2.5,2.5,0,0,0,1-.61,9.2,9.2,0,0,0,1.37-2.33q.52-1.06,3.76-8.12l7.23-16.29q1.19-2.69,5.07-12h1.85l12.35,29q3,7.05,4,8.84a3,3,0,0,0,1.2,1.33,8.52,8.52,0,0,0,2.94.35v2q-4.52-.29-6.31-.29l-9.31.29v-2a31.62,31.62,0,0,0,3.93-.21,1.71,1.71,0,0,0,.94-.42,1,1,0,0,0,.25-.68A4.77,4.77,0,0,0,194,47l-3.55-8.84H173.74l-3.14,7.42a8.71,8.71,0,0,0-.84,2.92,1,1,0,0,0,.23.66,1.67,1.67,0,0,0,1,.52,21.29,21.29,0,0,0,3.75.27v2q-4.89-.27-7.32-.26C165.54,51.65,163.5,51.73,161.28,51.91ZM174.74,35.7H189.3l-7.19-17.39Z"/><path class="cls-2" d="M207.19,12.72V10.88c3.14.13,6.06.2,8.76.2s5.45-.06,8.15-.2v1.84A20.61,20.61,0,0,0,220,13a1.72,1.72,0,0,0-1,.68,6.85,6.85,0,0,0-.46,2.8q0,.57-.14,8.2V35.39q0,6.21.79,8.19a7.62,7.62,0,0,0,2.53,3.28,10.7,10.7,0,0,0,3.59,1.57,19.75,19.75,0,0,0,5,.59,19,19,0,0,0,5.75-.8,10.19,10.19,0,0,0,3.78-1.93,7.54,7.54,0,0,0,1.87-2.55,13.48,13.48,0,0,0,.9-3.88,58.76,58.76,0,0,0,.28-6.25V24.71q0-3.93-.14-7.69a8.81,8.81,0,0,0-.39-3.24,1.94,1.94,0,0,0-1.08-.75,20.59,20.59,0,0,0-4.14-.31V10.88q4.76.2,6.95.2,2,0,7.18-.2v1.84a20.5,20.5,0,0,0-4.15.31,1.9,1.9,0,0,0-1,.68,7.31,7.31,0,0,0-.43,2.8q0,.57-.12,8.2v9.67q0,7.13-1,10a11.27,11.27,0,0,1-3.66,5,14.21,14.21,0,0,1-5.13,2.51,28,28,0,0,1-14.66-.16,12.11,12.11,0,0,1-5-2.77,9.75,9.75,0,0,1-2.34-3.51,27.46,27.46,0,0,1-.8-7.94V24.71q0-3.93-.09-7.69a9.14,9.14,0,0,0-.41-3.24,2,2,0,0,0-1.07-.75A20.87,20.87,0,0,0,207.19,12.72Z"/><path class="cls-2" d="M256,51.91V50.41a9.49,9.49,0,0,0,2.26-1.32,1.43,1.43,0,0,0,.4-.67A15.59,15.59,0,0,0,259,45q.15-4,.15-4.71V24.71q0-3.93-.09-7.69a9,9,0,0,0-.42-3.24A1.94,1.94,0,0,0,257.6,13a20.8,20.8,0,0,0-4.18-.31V10.88q7.05.2,8.72.2,1.85,0,8.29-.2v1.84a20.82,20.82,0,0,0-4.17.31,1.91,1.91,0,0,0-1,.68,7.42,7.42,0,0,0-.43,2.8q0,.57-.15,8.2v19.4q0,3,.15,4.93,3.3.2,6.53.21,8.15,0,11.41-1a14,14,0,0,0,.67-2l1.16-4.79h1.93q-.63,4.31-1.24,10.11a18.54,18.54,0,0,1-1.88.29q-1.5.09-4.63.09l-17.1-.21Q258.88,51.71,256,51.91Z"/><path class="cls-2" d="M291.13,51.91V50.53c1.1-.64,2-1.22,2.78-1.73.11-1.31.21-3.13.29-5.46q.2-5.93.2-8.25V23.31q0-2.83-.14-6.63a9.94,9.94,0,0,0-.41-3,1.21,1.21,0,0,0-.61-.55,12.68,12.68,0,0,0-4-.44V10.88q4.22.14,7.46.14c1.66,0,3.92,0,6.77-.1s5.08-.1,6.66-.1a29.94,29.94,0,0,1,11.38,1.8,16.92,16.92,0,0,1,7.31,6,17.48,17.48,0,0,1,3,10.36,23.64,23.64,0,0,1-1.42,8.23A22.2,22.2,0,0,1,326.58,44a21.11,21.11,0,0,1-5.2,4.55,23.51,23.51,0,0,1-5.82,2.53,32.37,32.37,0,0,1-8.36.85q-1.76,0-4.76-.11-3.93-.1-5.14-.1Q295.55,51.71,291.13,51.91Zm8.93-3.15a39.53,39.53,0,0,0,6.7.55,29.31,29.31,0,0,0,6.43-.63A17.06,17.06,0,0,0,318,46.89a14.56,14.56,0,0,0,3.83-3.41,15.68,15.68,0,0,0,2.85-5.76,26.39,26.39,0,0,0,1-7.26,20.54,20.54,0,0,0-1.92-9.22,13.22,13.22,0,0,0-5.8-5.9q-3.87-2-10.63-2a49.18,49.18,0,0,0-7.23.55q-.08,1.41-.14,5L299.8,23V34.56l.09,8.95C299.91,44.87,300,46.62,300.06,48.76Z"/><path class="cls-2" d="M352.64,50.06v1.85q-6.14-.21-8.08-.21l-8.91.21V50.06a20.8,20.8,0,0,0,4.14-.3,1.9,1.9,0,0,0,1-.67,7.35,7.35,0,0,0,.44-2.8q0-.61.14-8.2V24.71q0-3.93-.09-7.69a9.08,9.08,0,0,0-.42-3.24,2,2,0,0,0-1.07-.75,20.75,20.75,0,0,0-4.17-.31V10.88q5.51.2,8.51.2t8.48-.2v1.84a20.68,20.68,0,0,0-4.16.31,1.91,1.91,0,0,0-1,.68,7.5,7.5,0,0,0-.43,2.8q0,.57-.14,8.2V38.08c0,2.61,0,5.17.08,7.65A9.21,9.21,0,0,0,347.4,49a2,2,0,0,0,1.07.76A21,21,0,0,0,352.64,50.06Z"/><path class="cls-2" d="M355.88,51.91V50.06a12,12,0,0,0,4-.46,1.11,1.11,0,0,0,.58-.55,10.29,10.29,0,0,0,.41-3c.09-2.54.14-4.73.14-6.57V16a4,4,0,0,0-.12-1.24,4.08,4.08,0,0,0-1-1.24,2.51,2.51,0,0,0-1.2-.59,23.51,23.51,0,0,0-3-.16V10.88q5,.12,6.28.11,2.18,0,4.34-.11,2.43,3.2,3.57,4.73L375.74,23l8.61,10.49q4.13,5,6.64,7.9,1.6,1.9,2.69,3v-21c0-1.88-.07-4.09-.21-6.62a11.19,11.19,0,0,0-.37-3,1.22,1.22,0,0,0-.61-.54,12.54,12.54,0,0,0-4-.44V10.88q3.41.12,6.91.11,3.29,0,6-.11v1.84a12.7,12.7,0,0,0-4,.44,1.07,1.07,0,0,0-.58.58,9.93,9.93,0,0,0-.41,3c-.1,2.54-.14,4.72-.14,6.55V37.19q0,4.22.14,15.73l-3-.87-.69-.14a1.1,1.1,0,0,1-.31-.18,11.2,11.2,0,0,1-1.1-1.17q-2.4-2.75-3.52-4.14l-3.72-4.76L363.63,16.92V39.31q0,2.86.2,6.75a10.89,10.89,0,0,0,.38,3,1.19,1.19,0,0,0,.6.58,12.37,12.37,0,0,0,4,.44v1.85c-1.7-.14-3.56-.21-5.61-.21Q359.81,51.71,355.88,51.91Z"/><path class="cls-2" d="M444.56,49.65a50.65,50.65,0,0,1-7.2,2.14,49.71,49.71,0,0,1-9.36,1,26.07,26.07,0,0,1-11.87-2.61,19.17,19.17,0,0,1-8-7.33,21.16,21.16,0,0,1-2.83-11.12,20,20,0,0,1,7.12-16.07,22.9,22.9,0,0,1,6.08-3.75A31.31,31.31,0,0,1,430,10a36,36,0,0,1,6.75.74q3.54.71,8,1.95a23.46,23.46,0,0,0-.67,2.89c-.15.94-.36,2.88-.61,5.8h-1.76l-.14-3.3c0-.5,0-.9-.06-1.21a3.34,3.34,0,0,0-.37-1.18,6.84,6.84,0,0,0-2.49-1.88,31,31,0,0,0-4.87-1.5,24.19,24.19,0,0,0-4.58-.38,18.52,18.52,0,0,0-9.51,2.34,15,15,0,0,0-6.08,6.7,22,22,0,0,0-2.07,9.53,21.52,21.52,0,0,0,2.41,10.24,17.29,17.29,0,0,0,6.48,7,18.15,18.15,0,0,0,9.46,2.41,24.22,24.22,0,0,0,4.93-.49,15.13,15.13,0,0,0,4-1.36,18.72,18.72,0,0,0,.26-3.7V41.39a8.92,8.92,0,0,0-.26-3c-.17-.29-.64-.51-1.4-.65a44.19,44.19,0,0,0-5.24-.33V35.67l9,.2c1.75,0,3.54-.06,5.37-.2l.17,1.39-2.17,1.27a50.47,50.47,0,0,0-.35,5.69A49,49,0,0,0,444.56,49.65Z"/><path class="cls-2" d="M96.11,70.2v-.78l1.46,0,2.35.05c.47,0,1.19,0,2.17,0l2.22-.07a10.14,10.14,0,0,1,3.41.42,3.31,3.31,0,0,1,1.66,1.35,3.76,3.76,0,0,1,.59,2,4.26,4.26,0,0,1-.55,2,4.61,4.61,0,0,1-1.6,1.69,8.3,8.3,0,0,1-2.72,1q.3.43,1.45,1.91l3.09,4.06q1.32,1.7,1.54,1.9a.73.73,0,0,0,.22.12,3.25,3.25,0,0,0,.81.06v.78q-.92-.08-1.62-.09c-.48,0-1.07,0-1.76.09q-.8-.92-2.68-3.58-1-1.48-1.84-2.47-1.29-1.64-2.45-3l.12-.37,1,0a4.84,4.84,0,0,0,3.38-1.05,3.58,3.58,0,0,0,1.15-2.78,3.06,3.06,0,0,0-1-2.4,4.39,4.39,0,0,0-3-.89,8.27,8.27,0,0,0-2.47.38c0,.44-.06.85-.07,1.24,0,.11,0,1.3-.09,3.56v5.43c0,1.11,0,2.19.06,3.25a3.85,3.85,0,0,0,.16,1.38.82.82,0,0,0,.46.32,8.65,8.65,0,0,0,1.75.13v.78q-1.74-.08-3.2-.09-1.18,0-4,.09V86a8.7,8.7,0,0,0,1.76-.13.8.8,0,0,0,.44-.29,3.12,3.12,0,0,0,.18-1.19q0-.26.06-3.48V75.28q0-1.67,0-3.26a3.89,3.89,0,0,0-.18-1.38.85.85,0,0,0-.45-.32A9,9,0,0,0,96.11,70.2Z"/><path class="cls-2" d="M113.17,86.81V86a5,5,0,0,0,1.69-.2.45.45,0,0,0,.24-.23,4.27,4.27,0,0,0,.17-1.29q.08-1.61.07-2.79V75.27c0-1.11,0-2.19,0-3.25a3.86,3.86,0,0,0-.18-1.38.84.84,0,0,0-.45-.32,9,9,0,0,0-1.77-.13v-.78l3.49.07,3.7-.06,3.86,0a18.47,18.47,0,0,1,2.29.14,9.18,9.18,0,0,0-.27,1.21q0,.11-.22,2.55H125a12.91,12.91,0,0,0-.16-2.28,5.41,5.41,0,0,0-1.48-.38,21.82,21.82,0,0,0-2.74-.17l-1.31,0-1.46.08c0,.9-.06,1.75-.07,2.54l-.05,4.13c1,.06,1.83.09,2.63.09a19.86,19.86,0,0,0,2.49-.13.75.75,0,0,0,.5-.2,2.87,2.87,0,0,0,.2-1l.07-.86h.73v.23l-.06,2.55.06,2.85h-.86l0-.83a2.81,2.81,0,0,0-.16-1.13.8.8,0,0,0-.53-.31,15.92,15.92,0,0,0-2.71-.15q-.82,0-2.33.06-.06,1.22-.06,3.64t.06,3.44q1.76.13,4,.13a17.07,17.07,0,0,0,2.21-.1,5.1,5.1,0,0,0,1.22-.33,7.65,7.65,0,0,0,.29-1q.27-1.09.36-1.64h.82a33.18,33.18,0,0,0-.32,4.1,17.5,17.5,0,0,1-2.56.16l-7.31-.09Z"/><path class="cls-2" d="M128.24,70.2v-.78l3.75.09,3.45-.09v.78a8.93,8.93,0,0,0-1.76.13.81.81,0,0,0-.43.29,3.12,3.12,0,0,0-.18,1.19c0,.17,0,1.32-.06,3.48V77q2.41.09,5.88.09,2.66,0,4.25-.09v-1.7q0-1.66-.06-3.26a3.91,3.91,0,0,0-.18-1.38.85.85,0,0,0-.45-.32,8.88,8.88,0,0,0-1.76-.13v-.78q2.64.09,3.61.09l3.57-.09v.78a8.93,8.93,0,0,0-1.75.13.76.76,0,0,0-.43.29,2.92,2.92,0,0,0-.19,1.19q0,.25-.06,3.48v5.66q0,1.67.06,3.24a3.82,3.82,0,0,0,.17,1.38.82.82,0,0,0,.46.32,8.67,8.67,0,0,0,1.75.13v.78q-2.36-.08-3.87-.09t-3.32.09V86a8.74,8.74,0,0,0,1.77-.13.81.81,0,0,0,.43-.29,2.8,2.8,0,0,0,.18-1.19q0-.26.06-3.47V78.17q-3.43-.08-5.2-.09-1.93,0-4.92.09V81q0,1.66,0,3.24a3.88,3.88,0,0,0,.18,1.38.82.82,0,0,0,.45.32,8.73,8.73,0,0,0,1.77.13v.78c-1.1-.06-2.24-.09-3.41-.09s-2.54,0-3.79.09V86a8.66,8.66,0,0,0,1.75-.13.8.8,0,0,0,.44-.29,3.13,3.13,0,0,0,.18-1.19q0-.26.06-3.48V75.28q0-1.67,0-3.26a3.82,3.82,0,0,0-.18-1.38.85.85,0,0,0-.45-.32A9,9,0,0,0,128.24,70.2Z"/><path class="cls-2" d="M148.12,86.81V86a6.61,6.61,0,0,0,1.21-.08,1,1,0,0,0,.44-.26,4,4,0,0,0,.58-1q.22-.45,1.59-3.44L155,74.3q.5-1.14,2.15-5.07h.79l5.23,12.28q1.27,3,1.69,3.75a1.27,1.27,0,0,0,.51.56,3.65,3.65,0,0,0,1.24.15v.83q-1.91-.12-2.67-.12l-3.95.12V86a13.74,13.74,0,0,0,1.67-.09.74.74,0,0,0,.4-.18.42.42,0,0,0,.11-.29,2,2,0,0,0-.17-.7L160.5,81h-7.09l-1.33,3.15a3.67,3.67,0,0,0-.35,1.24.41.41,0,0,0,.1.28.73.73,0,0,0,.42.22,9.27,9.27,0,0,0,1.59.11v.83q-2.07-.11-3.1-.11C149.93,86.69,149.07,86.73,148.12,86.81Zm5.71-6.87H160l-3-7.37Z"/><path class="cls-2" d="M168.55,86.81v-.58a5.53,5.53,0,0,0,.85-.47.71.71,0,0,0,.13-.32,13.93,13.93,0,0,0,.13-1.56c0-.79.05-1.4.05-1.82V74.69q0-1.2-.06-2.81a4.15,4.15,0,0,0-.17-1.26.52.52,0,0,0-.26-.23,5.35,5.35,0,0,0-1.69-.18v-.78c.27,0,.61,0,1,0l2.55.06,4.51-.11a8.08,8.08,0,0,1,2.76.37,3.06,3.06,0,0,1,1.51,1.2,3.28,3.28,0,0,1,.54,1.84,3.63,3.63,0,0,1-.32,1.52,3.94,3.94,0,0,1-.87,1.23,4.71,4.71,0,0,1-1.21.84,9.22,9.22,0,0,1-1.75.59,12.35,12.35,0,0,1,2.32.4,3.86,3.86,0,0,1,1.48.78,3.33,3.33,0,0,1,.9,1.27,4.35,4.35,0,0,1,.31,1.66,5,5,0,0,1-1.1,3.19,6.47,6.47,0,0,1-2.82,2,8.59,8.59,0,0,1-3.05.49l-3.56-.1C170.36,86.71,169.63,86.74,168.55,86.81ZM172,76.64c.47,0,.88,0,1.23,0a9.1,9.1,0,0,0,2.35-.23,3.42,3.42,0,0,0,1.28-.61,2.88,2.88,0,0,0,.76-1,3.59,3.59,0,0,0,.3-1.52,2.5,2.5,0,0,0-1-2.21,5,5,0,0,0-2.85-.68,9.72,9.72,0,0,0-2,.2q-.11,1-.11,3.14Zm0,8.9a8.24,8.24,0,0,0,1.94.22,5.88,5.88,0,0,0,2.61-.49,3.43,3.43,0,0,0,1.53-1.5,4.82,4.82,0,0,0,.53-2.3,4.27,4.27,0,0,0-.5-2.16,3,3,0,0,0-1.5-1.3,9.26,9.26,0,0,0-3.29-.42c-.35,0-.8,0-1.35.05v4.63Q172,83,172.08,85.54Z"/><path class="cls-2" d="M190.32,86v.78q-2.6-.08-3.42-.09l-3.78.09V86a8.67,8.67,0,0,0,1.75-.13.82.82,0,0,0,.44-.29,3.16,3.16,0,0,0,.18-1.19q0-.26.06-3.48V75.28q0-1.67,0-3.26a3.8,3.8,0,0,0-.18-1.38.85.85,0,0,0-.45-.32,9,9,0,0,0-1.77-.13v-.78q2.33.09,3.61.09t3.59-.09v.78a8.91,8.91,0,0,0-1.76.13.82.82,0,0,0-.43.29,3.12,3.12,0,0,0-.18,1.19q0,.25-.06,3.48v5.66q0,1.67,0,3.24a4,4,0,0,0,.18,1.38.83.83,0,0,0,.46.32A8.7,8.7,0,0,0,190.32,86Z"/><path class="cls-2" d="M192.54,86.81v-.64a3.9,3.9,0,0,0,1-.56.6.6,0,0,0,.17-.28,6.8,6.8,0,0,0,.15-1.47q.06-1.68.06-2V75.28q0-1.67,0-3.26a3.8,3.8,0,0,0-.18-1.38.85.85,0,0,0-.45-.32,9,9,0,0,0-1.77-.13v-.78q3,.09,3.7.09t3.51-.09v.78a9,9,0,0,0-1.77.13.82.82,0,0,0-.44.29,3.12,3.12,0,0,0-.18,1.19q0,.25-.06,3.48V83.5q0,1.28.06,2.09c.93.06,1.85.09,2.77.09a18.1,18.1,0,0,0,4.84-.44,5.93,5.93,0,0,0,.28-.85l.49-2h.82q-.27,1.83-.53,4.29a7.05,7.05,0,0,1-.8.12q-.64,0-2,0l-7.25-.09Q193.76,86.72,192.54,86.81Z"/><path class="cls-2" d="M214.09,86v.78c-1.73-.06-2.88-.09-3.42-.09l-3.78.09V86a8.65,8.65,0,0,0,1.75-.13.81.81,0,0,0,.44-.29,3.14,3.14,0,0,0,.18-1.19q0-.26.06-3.48V75.28q0-1.67,0-3.26a3.89,3.89,0,0,0-.18-1.38.85.85,0,0,0-.46-.32,9,9,0,0,0-1.77-.13v-.78q2.34.09,3.61.09t3.59-.09v.78a8.9,8.9,0,0,0-1.76.13.81.81,0,0,0-.43.29,3.16,3.16,0,0,0-.18,1.19q0,.25-.06,3.48v5.66q0,1.67,0,3.24a3.87,3.87,0,0,0,.18,1.38.83.83,0,0,0,.45.32A8.72,8.72,0,0,0,214.09,86Z"/><path class="cls-2" d="M216.17,73.47h-.76q0-2.93-.12-4.05l4.19.12,3.09,0q.83,0,3.86-.07,2.19,0,3.2-.1c-.1.91-.16,2.27-.2,4.05h-.78l-.1-1.18c-.06-.71-.11-1.11-.14-1.21a.42.42,0,0,0-.1-.21.49.49,0,0,0-.2-.1c-.11,0-.52-.05-1.22-.1s-1.26-.06-1.67-.06h-1.49q-.12,1.18-.12,3.17v7.16c0,1.11,0,2.19,0,3.25a3.86,3.86,0,0,0,.18,1.38.82.82,0,0,0,.45.32A8.77,8.77,0,0,0,226,86v.78q-2.19-.1-3.29-.1l-3.82.1V86a8.79,8.79,0,0,0,1.77-.13.74.74,0,0,0,.43-.29,3,3,0,0,0,.19-1.19q0-.26.06-3.48V73.81c0-.34,0-.72,0-1.13l-.07-2.07h-1.82a19.81,19.81,0,0,0-2.51.12.54.54,0,0,0-.38.16,4.26,4.26,0,0,0-.24,1.34Z"/><path class="cls-2" d="M228.1,86.81V86a6.65,6.65,0,0,0,1.21-.08,1,1,0,0,0,.44-.26,4,4,0,0,0,.58-1q.22-.45,1.6-3.44L235,74.3q.5-1.14,2.15-5.07h.78l5.24,12.28q1.27,3,1.69,3.75a1.27,1.27,0,0,0,.51.56,3.65,3.65,0,0,0,1.25.15v.83q-1.91-.12-2.67-.12l-3.95.12V86a13.74,13.74,0,0,0,1.67-.09.74.74,0,0,0,.4-.18.42.42,0,0,0,.11-.29,2,2,0,0,0-.17-.7L240.48,81h-7.09l-1.33,3.15a3.66,3.66,0,0,0-.35,1.24.41.41,0,0,0,.1.28.73.73,0,0,0,.42.22,9.28,9.28,0,0,0,1.6.11v.83q-2.07-.11-3.1-.11Q229.51,86.69,228.1,86.81Zm5.71-6.87H240l-3.05-7.37Z"/><path class="cls-2" d="M246.15,73.47h-.76q0-2.93-.13-4.05l4.19.12,3.09,0q.83,0,3.86-.07,2.19,0,3.2-.1c-.1.91-.16,2.27-.2,4.05h-.78l-.1-1.18c-.06-.71-.11-1.11-.13-1.21a.41.41,0,0,0-.1-.21.49.49,0,0,0-.2-.1q-.17,0-1.23-.1t-1.66-.06h-1.5q-.12,1.18-.12,3.17v7.16c0,1.11,0,2.19,0,3.25a4,4,0,0,0,.18,1.38.82.82,0,0,0,.45.32A8.72,8.72,0,0,0,256,86v.78q-2.19-.1-3.3-.1l-3.82.1V86a8.77,8.77,0,0,0,1.77-.13.75.75,0,0,0,.43-.29,3,3,0,0,0,.19-1.19q0-.26.06-3.48V73.81c0-.34,0-.72,0-1.13l-.07-2.07h-1.82a19.85,19.85,0,0,0-2.51.12.52.52,0,0,0-.38.16,4.23,4.23,0,0,0-.25,1.34Z"/><path class="cls-2" d="M267.89,86v.78c-1.73-.06-2.88-.09-3.42-.09l-3.78.09V86a8.65,8.65,0,0,0,1.75-.13.8.8,0,0,0,.44-.29,3.09,3.09,0,0,0,.18-1.19q0-.26.06-3.48V75.28q0-1.67,0-3.26a3.91,3.91,0,0,0-.18-1.38.86.86,0,0,0-.46-.32,9,9,0,0,0-1.77-.13v-.78c1.56.06,2.76.09,3.61.09s2,0,3.59-.09v.78a8.91,8.91,0,0,0-1.76.13.82.82,0,0,0-.43.29,3.17,3.17,0,0,0-.18,1.19q0,.25-.06,3.48v5.66q0,1.67,0,3.24a3.89,3.89,0,0,0,.18,1.38.83.83,0,0,0,.45.32A8.74,8.74,0,0,0,267.89,86Z"/><path class="cls-2" d="M269.17,78.22a10.65,10.65,0,0,1,.58-3.58,7.62,7.62,0,0,1,1.93-3,9.07,9.07,0,0,1,3-2,10.63,10.63,0,0,1,3.9-.67,11.26,11.26,0,0,1,3.67.57A8,8,0,0,1,285,71.12a7.63,7.63,0,0,1,1.67,2.05,7.77,7.77,0,0,1,.74,2,10.19,10.19,0,0,1,.28,2.41,9.26,9.26,0,0,1-2.78,6.87,9.54,9.54,0,0,1-7,2.74,10.12,10.12,0,0,1-3.59-.63,7.28,7.28,0,0,1-2.81-1.85,8.17,8.17,0,0,1-1.75-3A10.7,10.7,0,0,1,269.17,78.22Zm2.54-1a12.37,12.37,0,0,0,.23,2.36,11.06,11.06,0,0,0,.59,2.07,7.7,7.7,0,0,0,1.54,2.47,6,6,0,0,0,2.12,1.47,6.84,6.84,0,0,0,2.59.47,6.08,6.08,0,0,0,3.43-1,5.78,5.78,0,0,0,2.18-2.71,10.57,10.57,0,0,0,.72-4,12,12,0,0,0-.51-3.59,7.5,7.5,0,0,0-.85-1.82,5.76,5.76,0,0,0-3.15-2.44,7.36,7.36,0,0,0-2.51-.42,6.58,6.58,0,0,0-3.42.87,5.41,5.41,0,0,0-2.21,2.51A9,9,0,0,0,271.71,77.21Z"/><path class="cls-2" d="M289,86.81V86a5.06,5.06,0,0,0,1.7-.2.45.45,0,0,0,.24-.23,4.31,4.31,0,0,0,.17-1.28q.06-1.61.06-2.79v-10a1.86,1.86,0,0,0,0-.52,1.78,1.78,0,0,0-.44-.53,1.07,1.07,0,0,0-.51-.25,9.75,9.75,0,0,0-1.28-.07v-.78l2.66,0q.93,0,1.84,0l1.51,2,2.5,3.12L301,79q1.75,2.12,2.82,3.35c.45.54.83,1,1.14,1.27V74.68c0-.8,0-1.73-.09-2.81a4.7,4.7,0,0,0-.16-1.26.52.52,0,0,0-.26-.23,5.36,5.36,0,0,0-1.68-.18v-.78q1.45.05,2.93,0c.93,0,1.78,0,2.53,0v.78a5.36,5.36,0,0,0-1.69.18.45.45,0,0,0-.25.24,4.16,4.16,0,0,0-.17,1.29q-.06,1.61-.06,2.78v5.88q0,1.78.06,6.66l-1.26-.36-.3-.06a.43.43,0,0,1-.13-.07,5,5,0,0,1-.47-.49q-1-1.17-1.49-1.76l-1.58-2L292.27,72v9.49c0,.81,0,1.76.09,2.86a4.51,4.51,0,0,0,.16,1.26.5.5,0,0,0,.26.25,5.14,5.14,0,0,0,1.68.19v.78q-1.07-.08-2.38-.09T289,86.81Z"/><path class="cls-2" d="M317.69,86.81V86a5.06,5.06,0,0,0,1.7-.2.46.46,0,0,0,.25-.23,4.45,4.45,0,0,0,.17-1.28q.06-1.61.06-2.79v-10a1,1,0,0,0-.49-1.05,1.09,1.09,0,0,0-.51-.25,9.75,9.75,0,0,0-1.28-.07v-.78l2.66,0c.62,0,1.23,0,1.84,0l1.51,2,2.5,3.12L329.76,79q1.75,2.12,2.82,3.35c.45.54.83,1,1.14,1.27V74.68q0-1.2-.09-2.81a4.69,4.69,0,0,0-.16-1.26.53.53,0,0,0-.26-.23,5.37,5.37,0,0,0-1.68-.18v-.78q1.45.05,2.93,0t2.54,0v.78a5.35,5.35,0,0,0-1.69.18.45.45,0,0,0-.25.24,4.14,4.14,0,0,0-.17,1.29q-.06,1.61-.06,2.78v5.88q0,1.78.06,6.66l-1.26-.36-.3-.06a.43.43,0,0,1-.13-.07,4.66,4.66,0,0,1-.47-.49q-1-1.17-1.49-1.76l-1.58-2L321,72v9.49q0,1.21.09,2.86a4.57,4.57,0,0,0,.16,1.26.51.51,0,0,0,.26.25,5.15,5.15,0,0,0,1.68.19v.78q-1.08-.08-2.38-.09T317.69,86.81Z"/><path class="cls-2" d="M338.3,86.81V86a5,5,0,0,0,1.69-.2.45.45,0,0,0,.24-.23,4.25,4.25,0,0,0,.17-1.29c.05-1.07.07-2,.07-2.79V75.27c0-1.11,0-2.19,0-3.25a3.86,3.86,0,0,0-.18-1.38.84.84,0,0,0-.45-.32A9,9,0,0,0,338,70.2v-.78l3.49.07,3.7-.06,3.86,0a18.42,18.42,0,0,1,2.29.14,9.16,9.16,0,0,0-.27,1.21q0,.11-.22,2.55h-.77A12.83,12.83,0,0,0,350,71a5.42,5.42,0,0,0-1.48-.38,21.83,21.83,0,0,0-2.74-.17l-1.31,0-1.46.08c0,.9-.06,1.75-.07,2.54l-.05,4.13q1.43.08,2.63.09a19.88,19.88,0,0,0,2.49-.13.75.75,0,0,0,.5-.2,2.93,2.93,0,0,0,.2-1l.07-.86h.74v.23l-.06,2.55.06,2.85h-.85l0-.83a2.79,2.79,0,0,0-.16-1.13.8.8,0,0,0-.53-.31,15.92,15.92,0,0,0-2.71-.15c-.55,0-1.32,0-2.33.06q-.06,1.22-.06,3.64t.06,3.44q1.76.13,4,.13a17.08,17.08,0,0,0,2.21-.1,5.12,5.12,0,0,0,1.22-.33,7.4,7.4,0,0,0,.29-1q.27-1.09.35-1.64h.82a33.23,33.23,0,0,0-.32,4.1,17.47,17.47,0,0,1-2.56.16l-7.31-.09Z"/><path class="cls-2" d="M354.17,73.47h-.76q0-2.93-.12-4.05l4.19.12,3.09,0q.84,0,3.86-.07,2.19,0,3.2-.1c-.1.91-.16,2.27-.2,4.05h-.78l-.1-1.18c-.06-.71-.11-1.11-.13-1.21a.45.45,0,0,0-.1-.21.53.53,0,0,0-.2-.1q-.17,0-1.23-.1c-.7,0-1.26-.06-1.67-.06h-1.49q-.12,1.18-.12,3.17v7.16c0,1.11,0,2.19,0,3.25a3.86,3.86,0,0,0,.18,1.38.82.82,0,0,0,.45.32A8.78,8.78,0,0,0,364,86v.78q-2.19-.1-3.29-.1l-3.82.1V86a8.8,8.8,0,0,0,1.77-.13.74.74,0,0,0,.43-.29,3,3,0,0,0,.19-1.19q0-.26.06-3.48V73.81c0-.34,0-.72,0-1.13l-.07-2.07h-1.82a19.82,19.82,0,0,0-2.51.12.54.54,0,0,0-.38.16,4.31,4.31,0,0,0-.24,1.34Z"/><path class="cls-2" d="M373.7,86.94l-1.11-5.1-2.36-10.07a3,3,0,0,0-.49-1.27,3.78,3.78,0,0,0-1.52-.35v-.74q2.06.09,3.11.09t3.18-.09v.74a7.67,7.67,0,0,0-1.85.18.36.36,0,0,0-.16.34,6.75,6.75,0,0,0,.15,1.09c.27,1.46.45,2.39.54,2.78L375.11,83l3-7.53q1.19-3,2.34-6.26h.79q1.13,3.47,2,6l2.88,8,2.08-7.3q.55-2,1-4.08a9.85,9.85,0,0,0,.22-1.11.39.39,0,0,0-.22-.37,8.25,8.25,0,0,0-2-.17v-.74c1.25.06,2.13.09,2.62.09s1.38,0,2.62-.09v.74a2.74,2.74,0,0,0-1.13.17,1.17,1.17,0,0,0-.46.58q-.19.42-1,3.23l-1.26,4.13c-.12.4-.38,1.33-.77,2.78l-1.58,5.91h-1.25q-1.36-4-2.1-6.08l-2.8-7.56-2.44,6.05-1.53,4q-.32.82-.54,1.47l-.73,2.11Z"/><path class="cls-2" d="M392.81,78.22a10.61,10.61,0,0,1,.58-3.58,7.65,7.65,0,0,1,1.93-3,9.1,9.1,0,0,1,3-2,10.62,10.62,0,0,1,3.9-.67,11.24,11.24,0,0,1,3.67.57,8,8,0,0,1,2.71,1.51,7.69,7.69,0,0,1,1.67,2.05,7.83,7.83,0,0,1,.74,2,10.1,10.1,0,0,1,.28,2.41,9.27,9.27,0,0,1-2.77,6.87,9.55,9.55,0,0,1-7,2.74,10.11,10.11,0,0,1-3.59-.63,7.29,7.29,0,0,1-2.82-1.85,8.17,8.17,0,0,1-1.75-3A10.71,10.71,0,0,1,392.81,78.22Zm2.55-1a12.36,12.36,0,0,0,.23,2.36,11.07,11.07,0,0,0,.59,2.07,7.65,7.65,0,0,0,1.54,2.47,6,6,0,0,0,2.12,1.47,6.84,6.84,0,0,0,2.59.47,6.09,6.09,0,0,0,3.43-1A5.78,5.78,0,0,0,408,82.38a10.51,10.51,0,0,0,.71-4,12,12,0,0,0-.51-3.59,7.69,7.69,0,0,0-.85-1.82,6.29,6.29,0,0,0-1.25-1.42,6.18,6.18,0,0,0-1.89-1,7.34,7.34,0,0,0-2.51-.42,6.59,6.59,0,0,0-3.42.87,5.41,5.41,0,0,0-2.21,2.51A9,9,0,0,0,395.36,77.21Z"/><path class="cls-2" d="M412.48,70.2v-.78l1.46,0,2.35.05c.46,0,1.19,0,2.17,0l2.22-.07a10.18,10.18,0,0,1,3.42.42,3.32,3.32,0,0,1,1.66,1.35,3.78,3.78,0,0,1,.59,2,4.24,4.24,0,0,1-.55,2,4.6,4.6,0,0,1-1.6,1.69,8.29,8.29,0,0,1-2.72,1q.31.43,1.45,1.91L426,83.94q1.32,1.7,1.54,1.9a.73.73,0,0,0,.22.12,3.26,3.26,0,0,0,.81.06v.78c-.62-.06-1.16-.09-1.62-.09s-1.07,0-1.77.09q-.8-.92-2.67-3.58-1-1.48-1.84-2.47-1.29-1.64-2.46-3l.12-.37,1,0a4.85,4.85,0,0,0,3.38-1.05,3.59,3.59,0,0,0,1.15-2.78,3.06,3.06,0,0,0-1-2.4,4.4,4.4,0,0,0-3-.89,8.25,8.25,0,0,0-2.47.38c0,.44-.06.85-.07,1.24,0,.11,0,1.3-.09,3.56v5.43c0,1.11,0,2.19.06,3.25a3.88,3.88,0,0,0,.17,1.38.82.82,0,0,0,.45.32,8.72,8.72,0,0,0,1.76.13v.78q-1.74-.08-3.2-.09-1.18,0-4,.09V86a8.62,8.62,0,0,0,1.75-.13.81.81,0,0,0,.44-.29,3.13,3.13,0,0,0,.18-1.19q0-.26.06-3.48V75.28c0-1.11,0-2.19,0-3.26a3.92,3.92,0,0,0-.18-1.38.86.86,0,0,0-.46-.32A9,9,0,0,0,412.48,70.2Z"/><path class="cls-2" d="M436.47,86v.78l-3.7-.09-3.47.09V86a8.66,8.66,0,0,0,1.75-.13.8.8,0,0,0,.44-.29,3.14,3.14,0,0,0,.18-1.19q0-.26.06-3.48V75.28q0-1.67,0-3.26a3.91,3.91,0,0,0-.18-1.38.84.84,0,0,0-.45-.32,9,9,0,0,0-1.77-.13v-.78q2.38.09,3.64.09t3.53-.09v.78a8.91,8.91,0,0,0-1.75.13.75.75,0,0,0-.43.29,2.89,2.89,0,0,0-.19,1.19q0,.24-.06,3.47v2.52a7.43,7.43,0,0,0,1.57-1.25L437.15,75l2.73-2.77c1.05-1.07,1.7-1.75,1.95-2.06v-.78c1,0,1.73,0,2.29,0s1.24,0,1.92,0v.78a8,8,0,0,0-1.57.1,2.37,2.37,0,0,0-.8.37q-.78.58-2.4,2.06l-4.89,4.47,7.35,6.88q1.77,1.67,2,1.81a2.13,2.13,0,0,0,.94.16v.76l-1.6,0-1.91,0-2-2-1.26-1.21-5.56-5.22-.28.16v2.38q0,1.67.06,3.25a3.84,3.84,0,0,0,.16,1.38.82.82,0,0,0,.46.32A8.65,8.65,0,0,0,436.47,86Z"/></svg>