<svg id="Layer_1" data-name="Layer 1" xmlns="http://www.w3.org/2000/svg" viewBox="0 0 445.3417 119.65527"><defs><style>.cls-1{fill:#fff;}</style></defs><title>MEE_Logo_RGB FIXED WHITE</title><path class="cls-1" d="M159.05813,370.92188c1.79737-1.96143,9.34863-3.43506,12.10694-3.83741l.39892-.0581.02783-.40235c.31836-4.67529-.82812-12.91845-1.83984-20.1914-.57129-4.10352-1.11035-7.98-1.26025-10.42334l-.03174-.5166-.51563.0498a62.23378,62.23378,0,0,0-26.20263,8.60645l-.44239.26464,17.31983,26.98682Z" transform="translate(-112.41409 -335.27051)"/><path class="cls-1" d="M231.28421,372.44678l-.18213-.43164-.44239.15381c-8.54785,2.96923-29.689,11.53076-29.90185,11.61669l-.53467.2168.291.49854c2.76074,4.73242,1.30273,8.019,1.24023,8.15478l-.19629.41651.39942.23c14.97754,8.61181,21.16064,9.11474,24.8125,9.11474.25146,0,.49121-.00293.7207-.00488l.57422-.00391a67.38742,67.38742,0,0,0,7.01953-.54882l.39453-.04688.043-.39551a59.02235,59.02235,0,0,0,.34668-6.333A57.92667,57.92667,0,0,0,231.28421,372.44678Z" transform="translate(-112.41409 -335.27051)"/><path class="cls-1" d="M188.09231,370.60254l.44971.24512,14.67285-28.55176-.44775-.22754a62.55548,62.55548,0,0,0-26.92432-6.78516l-.49414-.01269L174.147,367.10645l.53564-.01661C181.20218,366.8667,188.02444,370.56543,188.09231,370.60254Z" transform="translate(-112.41409 -335.27051)"/><path class="cls-1" d="M190.437,372.51074c1.81055.82324,7.16211,7.00928,9.07129,9.32373l.26318.31885,28.59424-15.66846-.25391-.44238a61.11435,61.11435,0,0,0-18.4209-19.86572l-.39843-.27295-19.417,26.35156Z" transform="translate(-112.41409 -335.27051)"/><path class="cls-1" d="M147.83108,382.64355c.32276-2.0996,6.06738-7.78564,8.25391-9.7998l.36133-.33252-.32666-.36719c-.15332-.17285-15.419-17.36084-19.936-23.58935l-.3042-.41944-.4082.31885A60.72339,60.72339,0,0,0,118.439,369.27441l-.22754.46094,29.51905,13.563Z" transform="translate(-112.41409 -335.27051)"/><path class="cls-1" d="M138.55032,403.6416c5.16748,1.83008,7.25684,2.31543,8.16064,2.31543.55469,0,.66309-.18262.76172-.35058a.69489.69489,0,0,0-.13867-.835c-3.60547-7.93115-.59668-19.22607-.56592-19.33984l.12744-.46777-31.07031-9.499-.1582.45411a58.08545,58.08545,0,0,0-3.25293,19.16455c0,1.69384.084,3.44091.25732,5.34033l.0459.50293,6.05811-.6211A63.18288,63.18288,0,0,1,138.55032,403.6416Z" transform="translate(-112.41409 -335.27051)"/><path class="cls-1" d="M204.168,398.5498c-15.31836-10.28271-26.15235-9.37841-26.542-9.33447-13.48779-.41455-16.34716,7.15576-16.46386,7.478l-.63575,1.76074,1.42871-1.209c1.35791-1.15137,6.49024-1.47315,10.52588.457,2.16114,1.0332,4.71875,3.07324,4.62891,6.92773-.21826,9.39258-6.09814,9.39258-12.32373,9.39258-6.68018,0-11.86572-1.24121-19.13281-4.5791-7.89551-3.62695-19.62647-5.5166-24.15235-5.72168a23.206,23.206,0,0,0-7.78515,1.28516l-.41553.13574.07861.42969c.26319,1.44433.59912,2.9248,1.02637,4.52636l.12207.459.46484-.09864c2.94141-.624,5.03174-.88183,5.73487-.707a10.2614,10.2614,0,0,0,1.28711.167c3.22314.30859,10.7705,1.03222,19.95019,8.97558l.11475.09961c10.95654,9.48145,20.436,17.68652,33.56494,17.68555.1665,0,.33447-.001.50195-.00391,13.27832-.21094,18.99219-10.98242,18.99219-14.375,0-3.03711-2.501-8.21777-6.271-9.10547a7.4296,7.4296,0,0,1-1.27929-.39258,1.86836,1.86836,0,0,1,.32373-.09277c.08935,0,.24658-.02148,1.00732-.13379,1.18457-.17383,3.38965-.49707,4.24854-.49707l.35986-.00488c1.78125-.03516,7.20361-.1377,11.74365,3.26855,5.08252,3.81153,15.1753,5.18653,17.58789,4.93262.62891-.0625,1.25879-.17676,1.92578-.29883a13.62943,13.62943,0,0,1,5.17139-.23926l.38184.06934.16259-.35254a58.16188,58.16188,0,0,0,4.35254-13.60449l.127-.67481-.68164.08692A43.61549,43.61549,0,0,1,204.168,398.5498Z" transform="translate(-112.41409 -335.27051)"/><path class="cls-1" d="M213.17337,427.12109c-1.92383-1.08105-5.94922-1.11425-6.06641-1.1123-.208-.02344-5.167-.56738-14.27539,7.69434-5.959,5.40429-17.43164,5.7539-17.60352,5.76171-.10449.01563-10.4624,1.34864-22.74121-7.041-.08789-.07129-8.8208-7.14258-9.84179-8.16406-.124-.124-13.4795-12.29883-26.54639-10.65528l-.61377.07715.20361.584c8.48535,24.32031,31.97559,40.66015,58.45215,40.66015,19.80713,0,39.417-10.21484,51.17774-26.6582l.70654-.98828-1.19727.2041C224.74319,427.49805,216.34622,428.9043,213.17337,427.12109Z" transform="translate(-112.41409 -335.27051)"/><path class="cls-1" d="M246.7295,385.9868V358.627h10.83l4.8262,17.062,4.8262-17.062H278.042v27.3598h-8.0562V377.627l.1138-4.2564.456-4.9399h-.0757l-4.978,17.5561h-6.2324l-4.978-17.5561h-.0757l.3799,4.0283.1899,4.2558v9.272Z" transform="translate(-112.41409 -335.27051)"/><path class="cls-1" d="M296.2431,385.9868l-.3799-2.1279a9.9614,9.9614,0,0,1-7.4863,2.6977c-3.7617,0-7.1059-1.8618-7.1059-6.0039,0-9.0439,14.1743-4.9399,14.1743-8.664,0-1.4439-1.7481-1.6338-2.584-1.6338-1.1021,0-2.584.228-2.7744,1.938h-7.5996c0-4.2183,3.0019-6.688,10.8676-6.688,9.4244,0,9.9947,3.4961,9.9947,8.2461v9.31a2.582,2.582,0,0,0,1.0635,2.5459v.3799Zm-.7978-8.8159c-2.584,1.2539-6.0039.646-6.0039,3.23,0,.9878.9497,1.6719,2.5078,1.6719C294.7231,382.0728,295.6352,379.9067,295.4453,377.1709Z" transform="translate(-112.41409 -335.27051)"/><path class="cls-1" d="M314.4453,379.793a2.20587,2.20587,0,0,0,.8359,1.8237,3.18286,3.18286,0,0,0,1.9375.6079c1.2158,0,2.5078-.3799,2.5078-1.7856,0-3.1924-12.1972-.646-12.1972-8.3604,0-5.0918,5.2812-6.5737,9.4238-6.5737,4.332,0,9.4238.9878,9.8799,6.27h-7.1826a2.07476,2.07476,0,0,0-.7598-1.4443,2.49819,2.49819,0,0,0-1.5957-.4937c-1.3682,0-2.2422.418-2.2422,1.4058,0,2.7739,12.5781.9121,12.5781,8.3603,0,4.1416-3.4199,6.9536-10.7158,6.9536-4.5605,0-9.5762-1.4057-9.9941-6.7636Z" transform="translate(-112.41409 -335.27051)"/><path class="cls-1" d="M337.6621,379.793a2.20658,2.20658,0,0,0,.8369,1.8237,3.18264,3.18264,0,0,0,1.9375.6079c1.2158,0,2.5078-.3799,2.5078-1.7856,0-3.1924-12.1982-.646-12.1982-8.3604,0-5.0918,5.2822-6.5737,9.4248-6.5737,4.332,0,9.4238.9878,9.8798,6.27h-7.1826a2.075,2.075,0,0,0-.7597-1.4443,2.50008,2.50008,0,0,0-1.5957-.4937c-1.3682,0-2.2422.418-2.2422,1.4058,0,2.7739,12.5781.9121,12.5781,8.3603,0,4.1416-3.4199,6.9536-10.7158,6.9536-4.5606,0-9.5762-1.4057-9.9942-6.7636Z" transform="translate(-112.41409 -335.27051)"/><path class="cls-1" d="M368.0244,385.9868l-.3799-2.1279a9.96238,9.96238,0,0,1-7.4863,2.6977c-3.7617,0-7.1055-1.8618-7.1055-6.0039,0-9.0439,14.1738-4.9399,14.1738-8.664,0-1.4439-1.748-1.6338-2.584-1.6338-1.1025,0-2.5839.228-2.7744,1.938h-7.5996c0-4.2183,3.002-6.688,10.8682-6.688,9.4238,0,9.9931,3.4961,9.9931,8.2461v9.31a2.58278,2.58278,0,0,0,1.0645,2.5459v.3799Zm-.7979-8.8159c-2.584,1.2539-6.0039.646-6.0039,3.23,0,.9878.9492,1.6719,2.5078,1.6719C366.5039,382.0728,367.416,379.9067,367.2265,377.1709Z" transform="translate(-112.41409 -335.27051)"/><path class="cls-1" d="M392.914,373.6748a2.98983,2.98983,0,0,0-.8359-2.0522,2.6624,2.6624,0,0,0-2.0518-.7979c-2.9648,0-3.458,3.0781-3.458,5.4341,0,3.0019,1.1397,4.978,3.458,4.978,2.0518,0,2.8496-1.4062,3.0772-2.9639h7.9805c-.6836,6.042-5.5479,8.2837-11.0577,8.2837-6.4228,0-11.3623-3.6098-11.3623-10.3359,0-6.8018,4.7881-10.7158,11.3623-10.7158,5.3194,0,10.336,2.2798,10.9053,8.1699Z" transform="translate(-112.41409 -335.27051)"/><path class="cls-1" d="M404.6172,358.627h7.9043v9.956a7.15649,7.15649,0,0,1,6.0419-3.0781c5.2442,0,7.7139,3.0781,7.7139,8.5498v11.9321H418.374V375.4609c0-1.976-.5322-3.7241-2.7744-3.7241-2.4317,0-3.0781,1.5581-3.0781,4.104v10.146h-7.9043Z" transform="translate(-112.41409 -335.27051)"/><path class="cls-1" d="M451.623,385.9868h-7.334V383.061c-1.9756,2.7359-3.914,3.4956-7.1816,3.4956-4.332,0-7.14449-2.6596-7.14449-8.3598V366.0747h7.9043v10.7539c0,2.7363.95009,3.6104,2.85049,3.6104,2.2793,0,3.002-1.71,3.002-4.7881v-9.5762h7.9033Z" transform="translate(-112.41409 -335.27051)"/><path class="cls-1" d="M462.26269,379.793a2.20835,2.20835,0,0,0,.8359,1.8237,3.18764,3.18764,0,0,0,1.9385.6079c1.2158,0,2.5078-.3799,2.5078-1.7856,0-3.1924-12.1983-.646-12.1983-8.3604,0-5.0918,5.2823-6.5737,9.4249-6.5737,4.332,0,9.4238.9878,9.8798,6.27h-7.1826a2.075,2.075,0,0,0-.7597-1.4443,2.50017,2.50017,0,0,0-1.59579-.4937c-1.36811,0-2.24211.418-2.24211,1.4058,0,2.7739,12.57811.9121,12.57811,8.3603,0,4.1416-3.41991,6.9536-10.71581,6.9536-4.5606,0-9.57619-1.4057-9.99419-6.7636Z" transform="translate(-112.41409 -335.27051)"/><path class="cls-1" d="M485.78509,377.8169a3.8363,3.8363,0,0,0,3.91411,3.9141,3.1539,3.1539,0,0,0,2.96389-1.7481h7.5615c-1.3682,4.94-6.3838,6.5737-11.0196,6.5737-6.3847,0-11.3242-3.6479-11.3242-10.3359,0-6.5361,4.90241-10.7158,11.2862-10.7158,7.372,0,11.8173,5.0918,11.7041,12.312Zm7.1817-4.0283a3.58118,3.58118,0,0,0-3.4961-3.458c-2.35549,0-3.6856,1.33-3.6856,3.458Z" transform="translate(-112.41409 -335.27051)"/><path class="cls-1" d="M517.02049,385.9868c-10.374.5698-11.628-.1518-11.628-7.0298v-8.3222H502.58v-4.5601h2.9268v-6.1938h7.79v6.1938h3.7998v4.5601h-3.7998v7.2202c0,1.8237.2657,2.4697,2.4698,2.4697h1.2539Z" transform="translate(-112.41409 -335.27051)"/><path class="cls-1" d="M533.89159,385.9868c-10.3741.5698-11.628-.1518-11.628-7.0298v-8.3222h-2.8115v-4.5601h2.9258v-6.1938h7.79v6.1938h3.7998v4.5601h-3.7998v7.2202c0,1.8237.2657,2.4697,2.4698,2.4697h1.2539Z" transform="translate(-112.41409 -335.27051)"/><path class="cls-1" d="M544.56929,379.793a2.20585,2.20585,0,0,0,.83591,1.8237,3.18586,3.18586,0,0,0,1.93849.6079c1.2158,0,2.5078-.3799,2.5078-1.7856,0-3.1924-12.1982-.646-12.1982-8.3604,0-5.0918,5.2822-6.5737,9.4238-6.5737,4.332,0,9.4238.9878,9.8799,6.27h-7.1816a2.07849,2.07849,0,0,0-.7598-1.4443,2.50105,2.50105,0,0,0-1.5967-.4937c-1.3672,0-2.2412.418-2.2412,1.4058,0,2.7739,12.5781.9121,12.5781,8.3603,0,4.1416-3.4209,6.9536-10.7168,6.9536-4.5595,0-9.5761-1.4057-9.9941-6.7636Z" transform="translate(-112.41409 -335.27051)"/><path class="cls-1" d="M247.3379,423.9863V396.627h22.3056v6.3837H256.3056v3.9141h11.2862v6.3838H256.3056v4.2939h13.8701v6.3838Z" transform="translate(-112.41409 -335.27051)"/><path class="cls-1" d="M283.5512,416.3486l3.458-12.2744h7.6001l-6.3842,18.583c-2.0899,6.1553-2.9258,8.0938-9.9561,8.0938-1.4438,0-2.8877-.1524-3.4961-.1524v-5.5097c.5703,0,1.1021.0381,1.6343.0381,2.4697,0,3.04-.7217,2.2417-2.9258l-6.5357-18.127h7.9419Z" transform="translate(-112.41409 -335.27051)"/><path class="cls-1" d="M304.1845,415.8164a3.83658,3.83658,0,0,0,3.9141,3.9141,3.15125,3.15125,0,0,0,2.9639-1.7481h7.5625c-1.3682,4.9405-6.3838,6.5742-11.0205,6.5742-6.3838,0-11.3238-3.6474-11.3238-10.3359,0-6.5361,4.9019-10.7158,11.2857-10.7158,7.372,0,11.8183,5.0918,11.7041,12.3115Zm7.1827-4.0273a3.58241,3.58241,0,0,0-3.4961-3.459c-2.3565,0-3.6866,1.3301-3.6866,3.459Z" transform="translate(-112.41409 -335.27051)"/><path class="cls-1" d="M349.0244,423.9863l-.3799-2.1279a9.9589,9.9589,0,0,1-7.4863,2.6982c-3.7617,0-7.1055-1.8623-7.1055-6.0039,0-9.0439,14.1738-4.9404,14.1738-8.664,0-1.4434-1.748-1.6338-2.584-1.6338-1.1025,0-2.5839.2275-2.7744,1.9385h-7.5996c0-4.2188,3.002-6.6885,10.8682-6.6885,9.4238,0,9.9931,3.4961,9.9931,8.2461v9.3095a2.582,2.582,0,0,0,1.0645,2.5459v.3799Zm-.7979-8.8154c-2.584,1.2539-6.0039.6455-6.0039,3.2295,0,.9883.9492,1.6728,2.5078,1.6728C347.5039,420.0732,348.416,417.9072,348.2265,415.1709Z" transform="translate(-112.41409 -335.27051)"/><path class="cls-1" d="M360.2715,404.0742h7.2207v3.1172c1.7861-2.3945,3.7236-3.6865,6.7255-3.6865,5.2442,0,7.7139,3.0781,7.7139,8.5498v11.9316h-7.9033V413.4609c0-1.9765-.5322-3.7246-2.7744-3.7246-2.4317,0-3.0782,1.5586-3.0782,4.1045v10.1455h-7.9042Z" transform="translate(-112.41409 -335.27051)"/><path class="cls-1" d="M400.2099,423.9863v-2.6592c-1.8623,2.4317-3.5722,3.2295-6.1181,3.2295-6.0039,0-9.044-4.5214-9.044-10.1455,0-6.6123,3.6856-10.9062,8.4356-10.9062a6.90189,6.90189,0,0,1,5.9287,2.584V396.627h7.9033v27.3593Zm-.5322-9.7656c0-2.2041-.7598-4.5977-3.3818-4.5977s-3.3438,2.5079-3.3438,4.712c0,2.0898.5313,4.5214,3.1152,4.5214C398.8037,418.8564,399.6777,416.5391,399.6777,414.2207Z" transform="translate(-112.41409 -335.27051)"/><path class="cls-1" d="M424.6806,423.9863V396.627h22.30669v6.3837h-13.3379v3.9141h11.2861v6.3838h-11.2861v4.2939h13.8701v6.3838Z" transform="translate(-112.41409 -335.27051)"/><path class="cls-1" d="M465.15039,423.9863l-.3799-2.1279a9.959,9.959,0,0,1-7.4864,2.6982c-3.7617,0-7.1054-1.8623-7.1054-6.0039,0-9.0439,14.1738-4.9404,14.1738-8.664,0-1.4434-1.748-1.6338-2.584-1.6338-1.1015,0-2.584.2275-2.7744,1.9385h-7.5996c0-4.2188,3.002-6.6885,10.8682-6.6885,9.4238,0,9.9941,3.4961,9.9941,8.2461v9.3095a2.58319,2.58319,0,0,0,1.0635,2.5459v.3799Zm-.7979-8.8154c-2.584,1.2539-6.0039.6455-6.0039,3.2295,0,.9883.9502,1.6728,2.5078,1.6728C463.63079,420.0732,464.54289,417.9072,464.35249,415.1709Z" transform="translate(-112.41409 -335.27051)"/><path class="cls-1" d="M476.54979,404.0742h7.1826v4.0283h.0762c1.1015-3.1162,3.04-4.5976,6.1171-4.5976a9.15311,9.15311,0,0,1,1.0264.1142v7.9043a12.04846,12.04846,0,0,0-1.6338-.2285c-3.2304,0-4.8642,1.5196-4.8642,5.8135v6.8779h-7.9043Z" transform="translate(-112.41409 -335.27051)"/></svg>