<svg id="Layer_1" data-name="Layer 1" xmlns="http://www.w3.org/2000/svg" viewBox="0 0 445.34179 119.65541"><defs><style>.cls-1{fill:#007b85;stroke:#007b85;}</style></defs><title>MEE_Logo_RGB</title><path class="cls-1" d="M158.6894,370.584c2.3125-2.523,12.4033-3.9942,12.4033-3.9942.4996-7.3266-2.6909-23.87593-3.1001-30.54976a62.137,62.137,0,0,0-25.9941,8.5376Z" transform="translate(-112.414 -335.27039)"/><path class="cls-1" d="M200.9458,384.249c2.9433,5.0454,1.2607,8.6197,1.2607,8.6197,16.8184,9.6704,22.4951,9.0395,25.85841,9.0395a67.306,67.306,0,0,0,6.96-.5449,58.2564,58.2564,0,0,0,.34375-6.2793,57.57,57.57,0,0,0-4.54492-22.4429C222.1889,375.6406,200.9458,384.249,200.9458,384.249Z" transform="translate(-112.414 -335.27039)"/><path class="cls-1" d="M202.5405,342.51416a62.41846,62.41846,0,0,0-26.7109-6.731l-1.1626,30.8066c6.727-.2099,13.6645,3.5738,13.6645,3.5738Z" transform="translate(-112.414 -335.27039)"/><path class="cls-1" d="M190.644,372.0557c2.3125,1.0512,9.25,9.4604,9.25,9.4604l27.78419-15.2246a60.30015,60.30015,0,0,0-18.26949-19.7021Z" transform="translate(-112.414 -335.27039)"/><path class="cls-1" d="M147.3369,382.5674c.4204-2.7329,8.4092-10.0913,8.4092-10.0913s-15.3833-17.3072-19.9673-23.628a59.90093,59.90093,0,0,0-16.8916,20.6475Z" transform="translate(-112.414 -335.27039)"/><path class="cls-1" d="M118.7456,399.8057a63.16467,63.16467,0,0,1,19.9717,3.3642c10.0908,3.5742,8.1992,1.8916,8.1992,1.8916-3.7842-8.1992-.6309-19.7612-.6309-19.7612l-30.1465-9.2168a57.58806,57.58806,0,0,0-3.2251,19c0,1.7856.0962,3.5493.2554,5.2944Z" transform="translate(-112.414 -335.27039)"/><path class="cls-1" d="M120.8481,409.2666c1.6817.4199,10.5117-.21,21.4434,9.25s20.6015,17.8691,33.8466,17.6592,18.5-11.1416,18.5-13.875-2.3115-7.7774-5.8857-8.6192-1.0508-1.4716-.8408-1.4716,3.9951-.6309,5.2558-.6309,7.3584-.4209,12.4034,3.3633,15.1045,5.0498,17.2382,4.8359c2.10259-.2109,4.41509-1.0517,7.23735-.5332a57.59978,57.59978,0,0,0,4.31543-13.4873c-5.03418.6426-17.96188,1.6055-30.47268-6.793-15.3467-10.3017-26.2793-9.25-26.2793-9.25-13.2441-.4204-15.9775,7.1485-15.9775,7.1485,2.7329-2.3125,16.1875-1.2617,15.9775,7.7783-.2265,9.75-6.5171,9.8809-12.8237,9.8809s-11.563-1.0518-19.3413-4.625-19.3413-5.4668-23.9663-5.6768a22.74152,22.74152,0,0,0-7.6079,1.2617c.2768,1.5176.624,3.0117,1.0175,4.4873C116.9902,409.5234,119.8339,409.0137,120.8481,409.2666Z" transform="translate(-112.414 -335.27039)"/><path class="cls-1" d="M212.9282,427.5566c-1.833-1.0302-5.8858-1.0517-5.8858-1.0517s-4.8359-.6299-13.875,7.5683c-6.1709,5.5967-17.8701,5.8868-17.8701,5.8868s-10.5112,1.4726-23.125-7.1475c0,0-8.8296-7.1475-9.8808-8.1992-.9912-.9912-13.752-12.0654-26.1309-10.5127,8.1787,23.4414,31.0332,40.3252,57.98,40.3252,20.8647,0,39.7222-11.001,50.771-26.4492C224.91159,427.9766,216.2924,429.4482,212.9282,427.5566Z" transform="translate(-112.414 -335.27039)"/><path d="M246.7295,385.9868V358.627h10.83l4.8262,17.062,4.8262-17.062H278.042v27.3598h-8.0562V377.627l.1138-4.2564.456-4.9399h-.0757l-4.978,17.5561h-6.2324l-4.978-17.5561h-.0757l.3799,4.0283.1899,4.2558v9.272Z" transform="translate(-112.414 -335.27039)"/><path d="M296.2431,385.9868l-.3799-2.1279a9.9614,9.9614,0,0,1-7.4863,2.6977c-3.7617,0-7.1059-1.8618-7.1059-6.0039,0-9.0439,14.1743-4.9399,14.1743-8.664,0-1.4439-1.7481-1.6338-2.584-1.6338-1.1021,0-2.584.228-2.7744,1.938h-7.5996c0-4.2183,3.0019-6.688,10.8676-6.688,9.4244,0,9.9947,3.4961,9.9947,8.2461v9.31a2.582,2.582,0,0,0,1.0635,2.5459v.3799Zm-.7978-8.8159c-2.584,1.2539-6.0039.646-6.0039,3.23,0,.9878.9497,1.6719,2.5078,1.6719C294.7231,382.0728,295.6352,379.9067,295.4453,377.1709Z" transform="translate(-112.414 -335.27039)"/><path d="M314.4453,379.793a2.20587,2.20587,0,0,0,.8359,1.8237,3.18286,3.18286,0,0,0,1.9375.6079c1.2158,0,2.5078-.3799,2.5078-1.7856,0-3.1924-12.1972-.646-12.1972-8.3604,0-5.0918,5.2812-6.5737,9.4238-6.5737,4.332,0,9.4238.9878,9.8799,6.27h-7.1826a2.07476,2.07476,0,0,0-.7598-1.4443,2.49819,2.49819,0,0,0-1.5957-.4937c-1.3682,0-2.2422.418-2.2422,1.4058,0,2.7739,12.5781.9121,12.5781,8.3603,0,4.1416-3.4199,6.9536-10.7158,6.9536-4.5605,0-9.5762-1.4057-9.9941-6.7636Z" transform="translate(-112.414 -335.27039)"/><path d="M337.6621,379.793a2.20658,2.20658,0,0,0,.8369,1.8237,3.18264,3.18264,0,0,0,1.9375.6079c1.2158,0,2.5078-.3799,2.5078-1.7856,0-3.1924-12.1982-.646-12.1982-8.3604,0-5.0918,5.2822-6.5737,9.4248-6.5737,4.332,0,9.4238.9878,9.8798,6.27h-7.1826a2.075,2.075,0,0,0-.7597-1.4443,2.50008,2.50008,0,0,0-1.5957-.4937c-1.3682,0-2.2422.418-2.2422,1.4058,0,2.7739,12.5781.9121,12.5781,8.3603,0,4.1416-3.4199,6.9536-10.7158,6.9536-4.5606,0-9.5762-1.4057-9.9942-6.7636Z" transform="translate(-112.414 -335.27039)"/><path d="M368.0244,385.9868l-.3799-2.1279a9.96238,9.96238,0,0,1-7.4863,2.6977c-3.7617,0-7.1055-1.8618-7.1055-6.0039,0-9.0439,14.1738-4.9399,14.1738-8.664,0-1.4439-1.748-1.6338-2.584-1.6338-1.1025,0-2.5839.228-2.7744,1.938h-7.5996c0-4.2183,3.002-6.688,10.8682-6.688,9.4238,0,9.9931,3.4961,9.9931,8.2461v9.31a2.58278,2.58278,0,0,0,1.0645,2.5459v.3799Zm-.7979-8.8159c-2.584,1.2539-6.0039.646-6.0039,3.23,0,.9878.9492,1.6719,2.5078,1.6719C366.5039,382.0728,367.416,379.9067,367.2265,377.1709Z" transform="translate(-112.414 -335.27039)"/><path d="M392.914,373.6748a2.98983,2.98983,0,0,0-.8359-2.0522,2.6624,2.6624,0,0,0-2.0518-.7979c-2.9648,0-3.458,3.0781-3.458,5.4341,0,3.0019,1.1397,4.978,3.458,4.978,2.0518,0,2.8496-1.4062,3.0772-2.9639h7.9805c-.6836,6.042-5.5479,8.2837-11.0577,8.2837-6.4228,0-11.3623-3.6098-11.3623-10.3359,0-6.8018,4.7881-10.7158,11.3623-10.7158,5.3194,0,10.336,2.2798,10.9053,8.1699Z" transform="translate(-112.414 -335.27039)"/><path d="M404.6172,358.627h7.9043v9.956a7.15649,7.15649,0,0,1,6.0419-3.0781c5.2442,0,7.7139,3.0781,7.7139,8.5498v11.9321H418.374V375.4609c0-1.976-.5322-3.7241-2.7744-3.7241-2.4317,0-3.0781,1.5581-3.0781,4.104v10.146h-7.9043Z" transform="translate(-112.414 -335.27039)"/><path d="M451.623,385.9868h-7.334V383.061c-1.9756,2.7359-3.914,3.4956-7.1816,3.4956-4.332,0-7.14449-2.6596-7.14449-8.3598V366.0747h7.9043v10.7539c0,2.7363.95009,3.6104,2.85049,3.6104,2.2793,0,3.002-1.71,3.002-4.7881v-9.5762h7.9033Z" transform="translate(-112.414 -335.27039)"/><path d="M462.26269,379.793a2.20835,2.20835,0,0,0,.8359,1.8237,3.18764,3.18764,0,0,0,1.9385.6079c1.2158,0,2.5078-.3799,2.5078-1.7856,0-3.1924-12.1983-.646-12.1983-8.3604,0-5.0918,5.2823-6.5737,9.4249-6.5737,4.332,0,9.4238.9878,9.8798,6.27h-7.1826a2.075,2.075,0,0,0-.7597-1.4443,2.50017,2.50017,0,0,0-1.59579-.4937c-1.36811,0-2.24211.418-2.24211,1.4058,0,2.7739,12.57811.9121,12.57811,8.3603,0,4.1416-3.41991,6.9536-10.71581,6.9536-4.5606,0-9.57619-1.4057-9.99419-6.7636Z" transform="translate(-112.414 -335.27039)"/><path d="M485.78509,377.8169a3.8363,3.8363,0,0,0,3.91411,3.9141,3.1539,3.1539,0,0,0,2.96389-1.7481h7.5615c-1.3682,4.94-6.3838,6.5737-11.0196,6.5737-6.3847,0-11.3242-3.6479-11.3242-10.3359,0-6.5361,4.90241-10.7158,11.2862-10.7158,7.372,0,11.8173,5.0918,11.7041,12.312Zm7.1817-4.0283a3.58118,3.58118,0,0,0-3.4961-3.458c-2.35549,0-3.6856,1.33-3.6856,3.458Z" transform="translate(-112.414 -335.27039)"/><path d="M517.02049,385.9868c-10.374.5698-11.628-.1518-11.628-7.0298v-8.3222H502.58v-4.5601h2.9268v-6.1938h7.79v6.1938h3.7998v4.5601h-3.7998v7.2202c0,1.8237.2657,2.4697,2.4698,2.4697h1.2539Z" transform="translate(-112.414 -335.27039)"/><path d="M533.89159,385.9868c-10.3741.5698-11.628-.1518-11.628-7.0298v-8.3222h-2.8115v-4.5601h2.9258v-6.1938h7.79v6.1938h3.7998v4.5601h-3.7998v7.2202c0,1.8237.2657,2.4697,2.4698,2.4697h1.2539Z" transform="translate(-112.414 -335.27039)"/><path d="M544.56929,379.793a2.20585,2.20585,0,0,0,.83591,1.8237,3.18586,3.18586,0,0,0,1.93849.6079c1.2158,0,2.5078-.3799,2.5078-1.7856,0-3.1924-12.1982-.646-12.1982-8.3604,0-5.0918,5.2822-6.5737,9.4238-6.5737,4.332,0,9.4238.9878,9.8799,6.27h-7.1816a2.07849,2.07849,0,0,0-.7598-1.4443,2.50105,2.50105,0,0,0-1.5967-.4937c-1.3672,0-2.2412.418-2.2412,1.4058,0,2.7739,12.5781.9121,12.5781,8.3603,0,4.1416-3.4209,6.9536-10.7168,6.9536-4.5595,0-9.5761-1.4057-9.9941-6.7636Z" transform="translate(-112.414 -335.27039)"/><path d="M247.3379,423.9863V396.627h22.3056v6.3837H256.3056v3.9141h11.2862v6.3838H256.3056v4.2939h13.8701v6.3838Z" transform="translate(-112.414 -335.27039)"/><path d="M283.5512,416.3486l3.458-12.2744h7.6001l-6.3842,18.583c-2.0899,6.1553-2.9258,8.0938-9.9561,8.0938-1.4438,0-2.8877-.1524-3.4961-.1524v-5.5097c.5703,0,1.1021.0381,1.6343.0381,2.4697,0,3.04-.7217,2.2417-2.9258l-6.5357-18.127h7.9419Z" transform="translate(-112.414 -335.27039)"/><path d="M304.1845,415.8164a3.83658,3.83658,0,0,0,3.9141,3.9141,3.15125,3.15125,0,0,0,2.9639-1.7481h7.5625c-1.3682,4.9405-6.3838,6.5742-11.0205,6.5742-6.3838,0-11.3238-3.6474-11.3238-10.3359,0-6.5361,4.9019-10.7158,11.2857-10.7158,7.372,0,11.8183,5.0918,11.7041,12.3115Zm7.1827-4.0273a3.58241,3.58241,0,0,0-3.4961-3.459c-2.3565,0-3.6866,1.3301-3.6866,3.459Z" transform="translate(-112.414 -335.27039)"/><path d="M349.0244,423.9863l-.3799-2.1279a9.9589,9.9589,0,0,1-7.4863,2.6982c-3.7617,0-7.1055-1.8623-7.1055-6.0039,0-9.0439,14.1738-4.9404,14.1738-8.664,0-1.4434-1.748-1.6338-2.584-1.6338-1.1025,0-2.5839.2275-2.7744,1.9385h-7.5996c0-4.2188,3.002-6.6885,10.8682-6.6885,9.4238,0,9.9931,3.4961,9.9931,8.2461v9.3095a2.582,2.582,0,0,0,1.0645,2.5459v.3799Zm-.7979-8.8154c-2.584,1.2539-6.0039.6455-6.0039,3.2295,0,.9883.9492,1.6728,2.5078,1.6728C347.5039,420.0732,348.416,417.9072,348.2265,415.1709Z" transform="translate(-112.414 -335.27039)"/><path d="M360.2715,404.0742h7.2207v3.1172c1.7861-2.3945,3.7236-3.6865,6.7255-3.6865,5.2442,0,7.7139,3.0781,7.7139,8.5498v11.9316h-7.9033V413.4609c0-1.9765-.5322-3.7246-2.7744-3.7246-2.4317,0-3.0782,1.5586-3.0782,4.1045v10.1455h-7.9042Z" transform="translate(-112.414 -335.27039)"/><path d="M400.2099,423.9863v-2.6592c-1.8623,2.4317-3.5722,3.2295-6.1181,3.2295-6.0039,0-9.044-4.5214-9.044-10.1455,0-6.6123,3.6856-10.9062,8.4356-10.9062a6.90189,6.90189,0,0,1,5.9287,2.584V396.627h7.9033v27.3593Zm-.5322-9.7656c0-2.2041-.7598-4.5977-3.3818-4.5977s-3.3438,2.5079-3.3438,4.712c0,2.0898.5313,4.5214,3.1152,4.5214C398.8037,418.8564,399.6777,416.5391,399.6777,414.2207Z" transform="translate(-112.414 -335.27039)"/><path d="M424.6806,423.9863V396.627h22.30669v6.3837h-13.3379v3.9141h11.2861v6.3838h-11.2861v4.2939h13.8701v6.3838Z" transform="translate(-112.414 -335.27039)"/><path d="M465.15039,423.9863l-.3799-2.1279a9.959,9.959,0,0,1-7.4864,2.6982c-3.7617,0-7.1054-1.8623-7.1054-6.0039,0-9.0439,14.1738-4.9404,14.1738-8.664,0-1.4434-1.748-1.6338-2.584-1.6338-1.1015,0-2.584.2275-2.7744,1.9385h-7.5996c0-4.2188,3.002-6.6885,10.8682-6.6885,9.4238,0,9.9941,3.4961,9.9941,8.2461v9.3095a2.58319,2.58319,0,0,0,1.0635,2.5459v.3799Zm-.7979-8.8154c-2.584,1.2539-6.0039.6455-6.0039,3.2295,0,.9883.9502,1.6728,2.5078,1.6728C463.63079,420.0732,464.54289,417.9072,464.35249,415.1709Z" transform="translate(-112.414 -335.27039)"/><path d="M476.54979,404.0742h7.1826v4.0283h.0762c1.1015-3.1162,3.04-4.5976,6.1171-4.5976a9.15311,9.15311,0,0,1,1.0264.1142v7.9043a12.04846,12.04846,0,0,0-1.6338-.2285c-3.2304,0-4.8642,1.5196-4.8642,5.8135v6.8779h-7.9043Z" transform="translate(-112.414 -335.27039)"/></svg>