<svg id="Layer_1" data-name="Layer 1" xmlns="http://www.w3.org/2000/svg" viewBox="0 0 281.90377 52.36136"><defs><style>.cls-1{fill:#fff;}</style></defs><title>Spaulding_Network_White FIXED</title><path class="cls-1" d="M265.45361,260.88281c.00049,24.37939.0625,40.51514,22.39746,52.31055,22.32715-11.74365,22.38867-27.90039,22.38916-52.31152Zm22.41156,50.543c-21.83881-11.23145-21.00439-29.9483-21.00439-48.95605l41.919-.00494C308.77979,281.68073,309.47949,300.19434,287.86517,311.42578Z" transform="translate(-265.45361 -260.832)"/><path class="cls-1" d="M289.72169,266.001c0,3.13671,2.3706,4.11331,2.3706,5.15721v6.4834c-1.4995,0-1.4644-1.708-1.6675-3.97361a.74719.74719,0,0,0-.7847-.74419h0a.81754.81754,0,0,0-.8735.74419l.00241,6.90521a.81489.81489,0,0,1-.873.7422h0a.81506.81506,0,0,1-.87351-.7422v-5.3369a.25673.25673,0,0,0-.2349-.27831h0a.257.257,0,0,0-.2344.27831v5.6221a.81333.81333,0,0,1-.873.7422h0a.814.814,0,0,1-.8721-.7422l.0034-5.6221a.25954.25954,0,0,0-.2387-.27831h0a.25692.25692,0,0,0-.2339.27831v5.3369a.814.814,0,0,1-.8721.7422h0a.816.816,0,0,1-.8745-.7422v-.4218a1.9475,1.9475,0,0,0,.6831-1.8086h-.6987l.019-3.1065a.25863.25863,0,0,0-.2388-.27831h0a.2595.2595,0,0,0-.2373.27831v3.1026H280.373v-8.5391a8.97452,8.97452,0,0,0,1.43709-3.7646Z" transform="translate(-265.45361 -260.832)"/><path class="cls-1" d="M271.25,281.126c3.13869,0,4.04389-2.36819,5.08839-2.36819h6.4829c0,1.4971-1.7075,1.4629-3.9727,1.6651a.74831.74831,0,0,0-.74359.78509h0a.81688.81688,0,0,0,.74359.874l6.9038-.00289a.817.817,0,0,1,.7442.874h0a.81577.81577,0,0,1-.7442.8721H280.418a.25956.25956,0,0,0-.28131.2353h0a.25878.25878,0,0,0,.28131.2334h5.62009a.81653.81653,0,0,1,.7446.87309h0a.81427.81427,0,0,1-.7446.87011l-5.62009-.0029a.26232.26232,0,0,0-.28131.2373h0a.258.258,0,0,0,.28131.2314h5.33439a.81231.81231,0,0,1,.7442.8672h0a.81737.81737,0,0,1-.7442.875h-.4565a1.88124,1.88124,0,0,0-1.7725-.6816l-.00239.6797-3.103-.002a.26226.26226,0,0,0-.28131.2363h0a.26455.26455,0,0,0,.28131.2412l3.10539-.0068-.0048,1.752h-8.5381a9.01007,9.01007,0,0,0-3.7647-1.4375Z" transform="translate(-265.45361 -260.832)"/><path class="cls-1" d="M286.30519,299.62211c0-3.1367-2.36819-4.0782-2.36819-5.125v-6.4815c1.49849,0,1.46289,1.708,1.66649,3.9737a.74591.74591,0,0,0,.7847.7421h0a.8177.8177,0,0,0,.8745-.7421l-.0024-6.8936a.81442.81442,0,0,1,.872-.7432h0a.81573.81573,0,0,1,.8731.7432v5.3252a.25757.25757,0,0,0,.2353.2783h0a.25815.25815,0,0,0,.2339-.2783v-5.6113a.81545.81545,0,0,1,.8721-.7442h0a.81591.81591,0,0,1,.8735.7442l-.0034,5.6113a.2598.2598,0,0,0,.2383.2783h0a.25658.25658,0,0,0,.2344-.2783v-5.3252a.81442.81442,0,0,1,.872-.7432h0a.81477.81477,0,0,1,.8721.7432v.4561a1.90609,1.90609,0,0,0-.6807,1.7617h.6617l.018,3.1074a.26075.26075,0,0,0,.2383.2783h0a.26146.26146,0,0,0,.2388-.2783v-3.1025h1.7456v8.539a8.98284,8.98284,0,0,0-1.438,3.7647Z" transform="translate(-265.45361 -260.832)"/><path class="cls-1" d="M304.84669,284.54c-3.1363,0-4.1123,2.36141-5.1592,2.36141h-6.481c0-1.4893,1.7076-1.4532,3.9732-1.6563a.74741.74741,0,0,0,.7432-.78511h0a.81542.81542,0,0,0-.7432-.87309l-6.9038.002a.81646.81646,0,0,1-.7446-.8731h0a.81636.81636,0,0,1,.7446-.873h5.3345a.25991.25991,0,0,0,.2812-.2364h0a.25911.25911,0,0,0-.2812-.2343h-5.6207a.81426.81426,0,0,1-.7441-.87311h0a.81549.81549,0,0,1,.7441-.87109l5.6207.002a.262.262,0,0,0,.2812-.2373h0a.25911.25911,0,0,0-.2812-.2344h-5.3345a.81543.81543,0,0,1-.7446-.8721h0a.81636.81636,0,0,1,.7446-.873h.4209a1.94982,1.94982,0,0,0,1.8081.6816v-.6631l3.1055-.01661a.26265.26265,0,0,0,.2812-.23819h0a.26334.26334,0,0,0-.2812-.2383h-3.1011v-1.7461h8.5381a8.98967,8.98967,0,0,0,3.7641,1.4385Z" transform="translate(-265.45361 -260.832)"/><path class="cls-1" d="M538.50979,283.10551h-.1797c-.002-.4639-.0117-.7871-.0293-.9629.209.0068.5439.0166.9961.0283.36911.0068.6152.0098.7363.0098.1367,0,.4414-.0039.9209-.0176.3477-.0088.6025-.0137.7637-.0205-.0244.2158-.0401.5381-.0479.9629h-.1885l-.0205-.2784c-.0175-.1679-.0273-.2666-.0341-.29a.09421.09421,0,0,0-.0235-.0478.10249.10249,0,0,0-.0498-.0235,2.44273,2.44273,0,0,0-.291-.0254c-.168-.0078-.2998-.0117-.3984-.0117h-.3555c-.01859.1836-.0273.4375-.0273.752v1.708c0,.2646.0019.5224.00871.7754a.9141.9141,0,0,0,.042.3271.19736.19736,0,0,0,.10449.0791,2.41061,2.41061,0,0,0,.4248.0303v.1855c-.3496-.0136-.61329-.0234-.7832-.0234-.08009,0-.3808.0098-.914.0234v-.1855a2.38355,2.38355,0,0,0,.4218-.0303.19037.19037,0,0,0,.1026-.06931.72758.72758,0,0,0,.0439-.28319c0-.0391.0049-.3174.01661-.8291v-1.7002c0-.083-.00291-.1719-.00681-.2686l-.0176-.4912H539.291a5.0972,5.0972,0,0,0-.60151.0274.13413.13413,0,0,0-.0879.0361,1.01517,1.01517,0,0,0-.05859.3174Z" transform="translate(-265.45361 -260.832)"/><path class="cls-1" d="M541.94919,282.32811v-.1855c.2031.0068.3994.0117.586.0117.1894,0,.3701-.0049.5439-.0117.17291.3847.3291.7295.4697,1.02239l1.1065,2.27741,1-2.0889q.4086-.85245.5459-1.2109c.208.0068.38081.0117.5224.0117.1299,0,.3428-.0049.6338-.0117v.1855a2.06667,2.06667,0,0,0-.4219.0303.192.192,0,0,0-.10349.0703.63044.63044,0,0,0-.04591.2822c0,.03909-.0058.3135-.0127.8282v1.3496c0,.2646.0039.5224.0127.7754a.9171.9171,0,0,0,.044.3271.20805.20805,0,0,0,.1054.0791,2.40621,2.40621,0,0,0,.4219.0303v.1855c-.3945-.0175-.6699-.0244-.832-.0244-.1289,0-.416.0069-.8643.0244v-.1855a2.42011,2.42011,0,0,0,.4248-.0303.18733.18733,0,0,0,.1016-.06931.70285.70285,0,0,0,.042-.28319c.0029-.0391.0068-.3174.0166-.8291v-2.1416l-1.0098,2.1064c-.1552.3311-.2812.5947-.3711.7949-.0625.14359-.1601.377-.291.6944h-.1123c-.0264-.0742-.0498-.13481-.0693-.17781l-.2002-.42569-1.3975-2.8936v2.043c0,.2646.0059.5224.0117.7754a.95819.95819,0,0,0,.045.3271.19726.19726,0,0,0,.10741.0791,2.37325,2.37325,0,0,0,.42189.0303v.1855l-.7061-.0195-.7256.0195v-.1855a2.34958,2.34958,0,0,0,.417-.0303.19168.19168,0,0,0,.1065-.06931.77194.77194,0,0,0,.0439-.28319c.0029-.0391.0068-.3174.0127-.8291v-1.3496c0-.2657-.001-.5245-.0059-.7764a1.0096,1.0096,0,0,0-.0429-.3301.21883.21883,0,0,0-.1094-.0742A2.09839,2.09839,0,0,0,541.94919,282.32811Z" transform="translate(-265.45361 -260.832)"/><path class="cls-1" d="M324.69289,285.43851a40.65308,40.65308,0,0,0,.332-5.46h1.1782a13.115,13.115,0,0,0,.2886,3.0283,2.64283,2.64283,0,0,0,.9785.99419,7.955,7.955,0,0,0,2.0752.94141,8.38292,8.38292,0,0,0,2.5147.4101,6.70553,6.70553,0,0,0,3.2734-.8173,5.14561,5.14561,0,0,0,2.1816-2.1475,6.088,6.088,0,0,0,.6875-2.8398,5.27994,5.27994,0,0,0-.3452-2.004,3.10121,3.10121,0,0,0-1.04439-1.3613,4.37492,4.37492,0,0,0-1.73831-.7285q-.6504-.10545-2.5986-.3555c-1.2998-.1718-2.4063-.3535-3.3208-.5537a7.45532,7.45532,0,0,1-2.6895-1.3154,5.455,5.455,0,0,1-1.3945-1.9824,6.49545,6.49545,0,0,1-.5366-2.6465,7.58581,7.58581,0,0,1,1.08-3.9033,7.22216,7.22216,0,0,1,3.1954-2.8457,10.47363,10.47363,0,0,1,4.5962-1.01961,14.92058,14.92058,0,0,1,3.2568.39851,14.39054,14.39054,0,0,1,3.2944,1.1513,19.08406,19.08406,0,0,0-.35349,2.0616q-.10261.95939-.15821,2.8183h-1.1743a19.33,19.33,0,0,0-.1597-2.9492,4.40152,4.40152,0,0,0-1.1972-1.14451,7.61717,7.61717,0,0,0-3.7803-1.01659,5.276,5.276,0,0,0-5.5967,5.5683,4.14286,4.14286,0,0,0,.54441,2.3076,3.72217,3.72217,0,0,0,1.95269,1.30769,17.78793,17.78793,0,0,0,3.1596.62891q2.19435.2958,3.9541.6298a6.73762,6.73762,0,0,1,2.4395,1.169,5.16949,5.16949,0,0,1,1.3022,1.7725,6.14716,6.14716,0,0,1,.50691,2.5771,7.958,7.958,0,0,1-2.899,6.09769,10.80235,10.80235,0,0,1-7.499,2.60251A14.23454,14.23454,0,0,1,324.69289,285.43851Z" transform="translate(-265.45361 -260.832)"/><path class="cls-1" d="M344.04149,262.48141v-1.121q3.5295.123,5.5874.121c.91111,0,1.8848-.0127,2.9155-.039l2.7569-.0996c.30371-.0117.5864-.0166.84271-.0166a12.62615,12.62615,0,0,1,4.39259.6123,5.12685,5.12685,0,0,1,2.4932,1.959,5.3913,5.3913,0,0,1,.896,3.0644,6.95471,6.95471,0,0,1-.7456,3.0762,7.12011,7.12011,0,0,1-2.1675,2.5898,9.43079,9.43079,0,0,1-2.97069,1.5196,8.29423,8.29423,0,0,1-2.38871.3144,13.152,13.152,0,0,1-2.4248-.2432l-.3677-1.2988a11.535,11.535,0,0,0,2.458.3653,5.1734,5.1734,0,0,0,2.503-.6416A4.38751,4.38751,0,0,0,359.668,270.708a6.22533,6.22533,0,0,0,.65669-2.85939,5.80092,5.80092,0,0,0-.6401-2.7353,4.2,4.2,0,0,0-1.9502-1.8555,7.2326,7.2326,0,0,0-3.1719-.63381,12.09561,12.09561,0,0,0-3.583.59871q-.156,1.8618-.1558,5.8252v8.8486c0,1.5889.0142,3.1416.0518,4.6494a5.58949,5.58949,0,0,0,.2544,1.9834,1.17851,1.17851,0,0,0,.6484.4648,12.76961,12.76961,0,0,0,2.5386.1846v1.126q-3.249-.1245-4.7788-.126-.594,0-5.4966.126v-1.126a12.65521,12.65521,0,0,0,2.5171-.1846,1.1603,1.1603,0,0,0,.6279-.41011,4.44327,4.44327,0,0,0,.2647-1.70409q.019-.37215.0874-4.9834v-8.127q0-2.389-.0523-4.6728a5.549,5.549,0,0,0-.2549-1.97071,1.20074,1.20074,0,0,0-.6523-.45709A12.62272,12.62272,0,0,0,344.04149,262.48141Z" transform="translate(-265.45361 -260.832)"/><path class="cls-1" d="M362.87739,286.30471v-1.1943a9.51485,9.51485,0,0,0,1.7315-.1163,1.5198,1.5198,0,0,0,.6323-.37011,5.5902,5.5902,0,0,0,.8355-1.414q.3171-.646,2.2866-4.93659l4.397-9.9052q.72135-1.63335,3.0795-7.2735h1.1241l7.5097,17.6192q1.8297,4.2861,2.4278,5.375a1.80512,1.80512,0,0,0,.729.8066,5.17858,5.17858,0,0,0,1.7881.2149v1.1943q-2.7459-.1758-3.8384-.17771l-5.6572.17771v-1.1943a19.27035,19.27035,0,0,0,2.3872-.125,1.04085,1.04085,0,0,0,.5708-.254.58921.58921,0,0,0,.1499-.4121,2.89888,2.89888,0,0,0-.2456-1.0048l-2.15919-5.3721H370.45359l-1.9072,4.5137a5.293,5.293,0,0,0-.5117,1.7773.58381.58381,0,0,0,.1416.4004,1.01325,1.01325,0,0,0,.5991.3144,12.93633,12.93633,0,0,0,2.2822.1622v1.1943q-2.97135-.1626-4.4482-.1592C365.46779,286.14551,364.22709,286.19631,362.87739,286.30471Zm8.1827-9.8565h8.8535L375.54,265.876Z" transform="translate(-265.45361 -260.832)"/><path class="cls-1" d="M390.78559,262.48141v-1.121c1.9073.082,3.6856.121,5.3248.121q2.49165,0,4.9541-.121v1.121a12.53707,12.53707,0,0,0-2.5176.1875,1.04559,1.04559,0,0,0-.6114.4122,4.16079,4.16079,0,0,0-.2812,1.7011q-.022.3486-.0859,4.9873v6.4922a16.08794,16.08794,0,0,0,.4824,4.9766,4.62591,4.62591,0,0,0,1.5351,1.9931,6.50986,6.50986,0,0,0,2.1797.9551,12.01,12.01,0,0,0,3.0567.3614,11.55636,11.55636,0,0,0,3.4931-.4864,6.19782,6.19782,0,0,0,2.2979-1.1758A4.584,4.584,0,0,0,411.75,281.333a8.18656,8.18656,0,0,0,.54489-2.35939,35.68943,35.68943,0,0,0,.168-3.7998v-5.4043q0-2.389-.08689-4.6728a5.36232,5.36232,0,0,0-.23731-1.97071,1.18136,1.18136,0,0,0-.6563-.45709,12.51469,12.51469,0,0,0-2.5146-.1875v-1.121q2.893.123,4.2246.121,1.20842,0,4.3623-.121v1.121a12.46382,12.46382,0,0,0-2.5215.1875,1.15424,1.15424,0,0,0-.6211.4122,4.443,4.443,0,0,0-.2637,1.7041q-.01755.3441-.0703,4.9843v5.8789a20.66273,20.66273,0,0,1-.6045,6.0557,6.84982,6.84982,0,0,1-2.22259,3.0352,8.644,8.644,0,0,1-3.11821,1.5283,17.049,17.049,0,0,1-8.9131-.0977,7.36164,7.36164,0,0,1-3.0229-1.6816,5.92389,5.92389,0,0,1-1.4243-2.1338,16.69141,16.69141,0,0,1-.4888-4.8281v-7.7569q0-2.3862-.05569-4.6728a5.56013,5.56013,0,0,0-.25191-1.97071,1.20122,1.20122,0,0,0-.6485-.45709A12.68677,12.68677,0,0,0,390.78559,262.48141Z" transform="translate(-265.45361 -260.832)"/><path class="cls-1" d="M420.47269,286.30471v-.916a5.77357,5.77357,0,0,0,1.374-.80471.86713.86713,0,0,0,.2431-.40719,9.47334,9.47334,0,0,0,.2081-2.1036q.08925-2.40675.0908-2.86321v-9.44049q0-2.389-.05469-4.6728a5.49178,5.49178,0,0,0-.25491-1.97071,1.18138,1.18138,0,0,0-.6484-.45709,12.64681,12.64681,0,0,0-2.5381-.1875v-1.121q4.28612.123,5.3027.121,1.125,0,5.041-.121v1.121a12.65846,12.65846,0,0,0-2.5371.1875,1.16261,1.16261,0,0,0-.625.4122,4.51051,4.51051,0,0,0-.2617,1.7011q-.0234.3486-.0898,4.9873v11.794q0,1.84124.0898,2.999,2.00385.1245,3.9707.126a25.89084,25.89084,0,0,0,6.9365-.6348,8.45355,8.45355,0,0,0,.40531-1.2129l.70309-2.914h1.1748q-.38233,2.61915-.75289,6.1484a11.23257,11.23257,0,0,1-1.14261.17479q-.91108.05416-2.8125.05471l-10.3965-.126Q422.21089,286.17871,420.47269,286.30471Z" transform="translate(-265.45361 -260.832)"/><path class="cls-1" d="M441.81539,286.30471v-.8428c.6709-.3877,1.2315-.7402,1.6875-1.0547.0694-.7968.128-1.9004.1748-3.3183q.12015-3.60795.1221-5.0147v-7.1543q0-1.71975-.0869-4.0332a6.04224,6.04224,0,0,0-.2481-1.8056.7349.7349,0,0,0-.371-.334,7.70691,7.70691,0,0,0-2.4219-.2657v-1.121q2.56635.08489,4.5342.0878c1.0078,0,2.3808-.0234,4.1181-.0605,1.7403-.0449,3.0899-.0615,4.04881-.0615a18.202,18.202,0,0,1,6.92,1.0947,10.28612,10.28612,0,0,1,4.44529,3.6777,10.62723,10.62723,0,0,1,1.8252,6.3008,14.37261,14.37261,0,0,1-.8604,5.0059,13.49378,13.49378,0,0,1-2.334,4.0781,12.833,12.833,0,0,1-3.1582,2.76559,14.284,14.284,0,0,1-3.539,1.53711,19.67633,19.67633,0,0,1-5.0811.5186q-1.06785,0-2.8965-.0654-2.3877-.06015-3.123-.0606Q444.50044,286.17871,441.81539,286.30471Zm5.4268-1.916a24.03064,24.03064,0,0,0,4.0742.333,17.81133,17.81133,0,0,0,3.9102-.3848A10.366,10.366,0,0,0,458.125,283.249a8.85285,8.85285,0,0,0,2.32619-2.07219,9.534,9.534,0,0,0,1.7304-3.5039,16.04429,16.04429,0,0,0,.6065-4.4151,12.48716,12.48716,0,0,0-1.167-5.6064,8.03887,8.03887,0,0,0-3.5234-3.5879,13.95277,13.95277,0,0,0-6.462-1.2461,29.89418,29.89418,0,0,0-4.3935.333q-.05128.8598-.0859,3.0557L447.084,268.751v7.00291l.05169,5.4395C447.15039,282.02251,447.18359,283.08891,447.24219,284.38871Z" transform="translate(-265.45361 -260.832)"/><path class="cls-1" d="M479.21089,285.17871v1.126q-3.7323-.1245-4.9091-.126l-5.419.126v-1.126a12.63892,12.63892,0,0,0,2.5166-.1846,1.15644,1.15644,0,0,0,.6279-.41011,4.46531,4.46531,0,0,0,.26571-1.70409q.01753-.37215.08589-4.9834v-8.127q0-2.389-.0518-4.6728a5.51466,5.51466,0,0,0-.2548-1.97071,1.19583,1.19583,0,0,0-.6524-.45709,12.61584,12.61584,0,0,0-2.5371-.1875v-1.121q3.3486.123,5.1729.121,1.75335,0,5.1552-.121v1.121a12.568,12.568,0,0,0-2.5273.1875,1.15954,1.15954,0,0,0-.6191.4122,4.55757,4.55757,0,0,0-.2618,1.7041q-.01753.3441-.0859,4.9843v8.127c0,1.5889.0176,3.1416.0508,4.6494a5.59445,5.59445,0,0,0,.2549,1.9834,1.19174,1.19174,0,0,0,.6494.4648A12.776,12.776,0,0,0,479.21089,285.17871Z" transform="translate(-265.45361 -260.832)"/><path class="cls-1" d="M481.17969,286.30471v-1.126a7.31666,7.31666,0,0,0,2.4365-.2793.67433.67433,0,0,0,.3545-.334,6.25547,6.25547,0,0,0,.2481-1.8418c.0556-1.542.0878-2.873.0878-3.9931v-14.2842a2.44264,2.44264,0,0,0-.0712-.752,2.48027,2.48027,0,0,0-.6338-.7558,1.52655,1.52655,0,0,0-.72859-.3594,14.28817,14.28817,0,0,0-1.833-.0977v-1.121q3.03373.0702,3.81549.0693,1.3242,0,2.6357-.0693,1.4751,1.94235,2.169,2.873l3.58981,4.4668,5.23629,6.375q2.51085,3.0513,4.0371,4.8027.97275,1.1544,1.6338,1.8203v-12.7929c0-1.1436-.0449-2.4834-.1259-4.0244a6.801,6.801,0,0,0-.2266-1.8038.7403.7403,0,0,0-.3711-.33,7.621,7.621,0,0,0-2.4063-.2657v-1.121q2.07285.0702,4.1983.0693,2.00235,0,3.6377-.0693v1.121a7.71537,7.71537,0,0,0-2.4219.2657.65288.65288,0,0,0-.3535.3515,6.03649,6.03649,0,0,0-.2481,1.8418c-.0585,1.544-.08779,2.8692-.08779,3.9825v8.4345q0,2.565.08779,9.55959l-1.8085-.52639-.4219-.0859a.66569.66569,0,0,1-.19139-.1084,6.80282,6.80282,0,0,1-.67-.709q-1.45607-1.67-2.14251-2.5195l-2.2637-2.8946-12.4551-15.041v13.6133q0,1.7388.1231,4.1016a6.61234,6.61234,0,0,0,.2285,1.8105.725.725,0,0,0,.3672.3545,7.51825,7.51825,0,0,0,2.4082.2666v1.126c-1.0323-.083-2.166-.126-3.4102-.126Q483.56439,286.17871,481.17969,286.30471Z" transform="translate(-265.45361 -260.832)"/><path class="cls-1" d="M535.08979,284.93071a30.79747,30.79747,0,0,1-4.3769,1.3007,30.21727,30.21727,0,0,1-5.6914.5811,15.84655,15.84655,0,0,1-7.2178-1.5889,11.65429,11.65429,0,0,1-4.8828-4.455,12.86315,12.86315,0,0,1-1.7227-6.7627,12.14513,12.14513,0,0,1,4.3311-9.7666,13.921,13.921,0,0,1,3.6973-2.28231,19.03145,19.03145,0,0,1,6.9902-1.125,21.88622,21.88622,0,0,1,4.1016.45021q2.15325.4293,4.8584,1.1836a14.23516,14.23516,0,0,0-.4053,1.7588c-.0918.5742-.2178,1.751-.3692,3.5283h-1.0712l-.087-2.00391c-.0127-.30469-.0234-.54879-.03709-.73629a2.02952,2.02952,0,0,0-.22461-.7188,4.15637,4.15637,0,0,0-1.5127-1.1435,18.82122,18.82122,0,0,0-2.9599-.9121,14.69565,14.69565,0,0,0-2.7852-.2305,11.25654,11.25654,0,0,0-5.7793,1.4248,9.124,9.124,0,0,0-3.69729,4.0742,13.39716,13.39716,0,0,0-1.25681,5.7959,13.0815,13.0815,0,0,0,1.46681,6.2266,10.51127,10.51127,0,0,0,3.93649,4.2344,11.03263,11.03263,0,0,0,5.752,1.4677,14.72493,14.72493,0,0,0,2.9951-.3007,9.20216,9.20216,0,0,0,2.4502-.8243,11.381,11.381,0,0,0,.15921-2.248v-1.9512a5.42142,5.42142,0,0,0-.15921-1.8076c-.1035-.1787-.3887-.30761-.8516-.3945a26.85691,26.85691,0,0,0-3.1875-.2022v-1.0722l5.4815.122c1.0654,0,2.1513-.039,3.2666-.122l.1055.8427-1.3165.7745a30.70047,30.70047,0,0,0-.2119,3.4589A29.83622,29.83622,0,0,0,535.08979,284.93071Z" transform="translate(-265.45361 -260.832)"/><path class="cls-1" d="M323.26419,297.42091v-.4766c.19381.0059.4882.0118.8852.0205l1.4297.0323c.2837,0,.7236-.0078,1.3188-.0274.773-.0254,1.2222-.04,1.3472-.04a6.16751,6.16751,0,0,1,2.0728.2539,2.01338,2.01338,0,0,1,1.0092.8223,2.28289,2.28289,0,0,1,.357,1.2392,2.589,2.589,0,0,1-.3345,1.2442,2.80025,2.80025,0,0,1-.9712,1.0263,5.04328,5.04328,0,0,1-1.6557.6319q.1845.2607.8794,1.1601l1.8764,2.4668q.8028,1.0356.9361,1.1543a.43927.43927,0,0,0,.1347.0742,1.97971,1.97971,0,0,0,.4903.03709v.47661q-.56189-.0513-.9844-.0518c-.2906,0-.6499.0176-1.0728.0518q-.4863-.55815-1.62839-2.1777-.635-.9009-1.12061-1.502-.78375-.996-1.4922-1.8066l.0742-.2237q.3867.022.5884.0225a2.9451,2.9451,0,0,0,2.05421-.6406,2.17761,2.17761,0,0,0,.70069-1.68951,1.86139,1.86139,0,0,0-.604-1.457,2.67012,2.67012,0,0,0-1.8233-.53909,5.02494,5.02494,0,0,0-1.5043.2315c-.01909.26659-.0342.51759-.045.751-.0049.0683-.0215.791-.0522,2.164v3.3027c0,.6758.0132,1.3321.03811,1.9727a2.33382,2.33382,0,0,0,.09909.8398.49857.49857,0,0,0,.2788.1973,5.25055,5.25055,0,0,0,1.0659.07809v.47661q-1.05615-.0513-1.9429-.0518-.7155,0-2.4047.0518V307.04a5.27761,5.27761,0,0,0,1.0673-.07809.48551.48551,0,0,0,.2657-.1738,1.90057,1.90057,0,0,0,.1113-.7227q.00885-.15525.0366-2.1133v-3.4433q0-1.01221-.0215-1.9795a2.35581,2.35581,0,0,0-.1084-.8369.51557.51557,0,0,0-.2744-.19341A5.485,5.485,0,0,0,323.26419,297.42091Z" transform="translate(-265.45361 -260.832)"/><path class="cls-1" d="M333.63529,307.51661V307.04a3.02643,3.02643,0,0,0,1.0268-.11909.27211.27211,0,0,0,.14891-.1406,2.59588,2.59588,0,0,0,.104-.78131q.04619-.97994.045-1.69429v-3.7979c0-.67481-.00691-1.333-.02151-1.9785a2.34844,2.34844,0,0,0-.1084-.8359.50834.50834,0,0,0-.2754-.19341,5.47843,5.47843,0,0,0-1.07669-.07809v-.4766l2.12259.045,2.2485-.0372q1.615-.0219,2.3462-.0224a11.229,11.229,0,0,1,1.3921.083,5.561,5.561,0,0,0-.1645.73629q-.0162.06736-.1333,1.54891h-.4708a7.84628,7.84628,0,0,0-.0966-1.3848,3.29485,3.29485,0,0,0-.9004-.2305,13.26449,13.26449,0,0,0-1.6675-.1045c-.1196,0-.38429.0098-.7964.0303q-.6189.02925-.8852.0508c-.0215.54879-.03569,1.0644-.045,1.5429L336.397,301.71c.58149.03411,1.11419.05171,1.601.05171a12.07785,12.07785,0,0,0,1.51179-.081.455.455,0,0,0,.3047-.1202,1.747,1.747,0,0,0,.1196-.6103l.0434-.5215h.4468v.1416l-.0366,1.5479.0366,1.7353h-.52l-.0234-.5058a1.7062,1.7062,0,0,0-.0996-.6856.48425.48425,0,0,0-.3238-.1855,9.6591,9.6591,0,0,0-1.645-.0899q-.4995,0-1.41549.0381-.03736.74415-.03661,2.2109,0,1.377.03661,2.0918,1.07069.08205,2.40129.0821a10.37172,10.37172,0,0,0,1.3448-.05961,3.09856,3.09856,0,0,0,.7446-.20119,4.63545,4.63545,0,0,0,.1772-.625q.16485-.6636.2164-.997h.4985a20.16942,20.16942,0,0,0-.1924,2.4921,10.63651,10.63651,0,0,1-1.5576.0977l-4.4434-.0518Q335.489,307.46481,333.63529,307.51661Z" transform="translate(-265.45361 -260.832)"/><path class="cls-1" d="M342.79249,297.42091v-.4766l2.2783.0528,2.0991-.0528v.4766a5.42692,5.42692,0,0,0-1.0708.07809.49242.49242,0,0,0-.2622.17481,1.89617,1.89617,0,0,0-.1113.7217c-.0068.1016-.0191.8047-.03759,2.1152v1.0352q1.46774.0528,3.57319.0527,1.6173,0,2.5835-.0527v-1.0352q0-1.0107-.0366-1.9804a2.37612,2.37612,0,0,0-.1074-.8379.514.514,0,0,0-.2744-.19341,5.39884,5.39884,0,0,0-1.07029-.07809v-.4766q1.60169.0528,2.19669.0528.2235,0,2.1729-.0528v.4766a5.42737,5.42737,0,0,0-1.0659.07809.46106.46106,0,0,0-.2598.17481,1.7789,1.7789,0,0,0-.1182.7217q-.0087.1494-.0366,2.1133v3.4433q0,1.0137.0366,1.9717a2.327,2.327,0,0,0,.1006.8408.50019.50019,0,0,0,.2774.1973,5.26231,5.26231,0,0,0,1.0659.07809v.47661q-1.4355-.0513-2.35159-.0518-.97486,0-2.018.0518V307.04a5.30416,5.30416,0,0,0,1.07609-.07809.4886.4886,0,0,0,.2637-.1738,1.7007,1.7007,0,0,0,.1123-.7207q.00736-.15525.0366-2.10741v-1.69239q-2.0844-.0513-3.1635-.0518-1.17555,0-2.99319.0518V303.96q0,1.01071.02339,1.96681a2.35907,2.35907,0,0,0,.1065.8378.49789.49789,0,0,0,.2763.1973,5.2997,5.2997,0,0,0,1.0757.07809v.47661c-.6704-.0342-1.3594-.0518-2.0708-.0518-.7724,0-1.5429.0176-2.3066.0518V307.04a5.2546,5.2546,0,0,0,1.0659-.07809.48791.48791,0,0,0,.2671-.1738,1.89849,1.89849,0,0,0,.1113-.7227q.00885-.15525.0376-2.1133v-3.4433q0-1.01221-.02339-1.9795a2.32143,2.32143,0,0,0-.10741-.8369.51526.51526,0,0,0-.2754-.19341A5.46462,5.46462,0,0,0,342.79249,297.42091Z" transform="translate(-265.45361 -260.832)"/><path class="cls-1" d="M354.88179,307.51661v-.5059a4.00008,4.00008,0,0,0,.7349-.0488.62189.62189,0,0,0,.2686-.1562,2.44884,2.44884,0,0,0,.3544-.5996q.1326-.2754.9688-2.0918l1.8638-4.19931q.30465-.69134,1.30471-3.081h.47749l3.1821,7.46581q.7749,1.81635,1.0293,2.2793a.77351.77351,0,0,0,.3096.3418,2.214,2.214,0,0,0,.7563.0898v.5059q-1.16235-.0732-1.6259-.0742l-2.399.0742v-.5059a8.32426,8.32426,0,0,0,1.0127-.05171.44749.44749,0,0,0,.2422-.10839.25389.25389,0,0,0,.064-.1758,1.21968,1.21968,0,0,0-.105-.42381l-.915-2.27829h-4.3111l-.8091,1.913a2.23021,2.23021,0,0,0-.2153.753.24821.24821,0,0,0,.0591.1709.44246.44246,0,0,0,.2529.1338,5.6432,5.6432,0,0,0,.9693.0673v.5059q-1.2591-.06735-1.8863-.0674C355.98189,307.44921,355.45509,307.47171,354.88179,307.51661Zm3.4698-4.1758h3.7529l-1.854-4.4814Z" transform="translate(-265.45361 -260.832)"/><path class="cls-1" d="M367.30079,307.51661V307.167a3.36543,3.36543,0,0,0,.5141-.28609.43225.43225,0,0,0,.0816-.1973,8.46386,8.46386,0,0,0,.0791-.9482c.021-.4825.0332-.8506.0332-1.1036v-4.4824q0-.728-.0381-1.709a2.52542,2.52542,0,0,0-.104-.7666.31757.31757,0,0,0-.1582-.1406,3.26016,3.26016,0,0,0-1.0259-.1123v-.4766c.1646.0098.3711.01569.6192.01569l1.5507.03711,2.7417-.0674a4.91286,4.91286,0,0,1,1.67681.2236,1.86285,1.86285,0,0,1,.92039.7266A1.99435,1.99435,0,0,1,374.52249,299a2.20917,2.20917,0,0,1-.1973.92291,2.39857,2.39857,0,0,1-.5298.748,2.86576,2.86576,0,0,1-.7383.5137,5.61468,5.61468,0,0,1-1.0615.3613,7.52062,7.52062,0,0,1,1.4087.2422,2.349,2.349,0,0,1,.8984.4756,2.02213,2.02213,0,0,1,.5469.7695,2.6451,2.6451,0,0,1,.187,1.0117,3.02145,3.02145,0,0,1-.6679,1.9365,3.93236,3.93236,0,0,1-1.7168,1.2373,5.22082,5.22082,0,0,1-1.8555.2979l-2.1616-.05861C368.40089,307.458,367.95649,307.47661,367.30079,307.51661Zm2.1211-6.1797c.2837.0156.5332.0235.747.0235a5.54031,5.54031,0,0,0,1.4288-.1426,2.08419,2.08419,0,0,0,.7788-.3721,1.7502,1.7502,0,0,0,.4594-.625,2.18391,2.18391,0,0,0,.18311-.9228,1.52156,1.52156,0,0,0-.59321-1.3438,3.02819,3.02819,0,0,0-1.7344-.41411,5.90934,5.90934,0,0,0-1.2007.11921q-.06735.61815-.0688,1.9101Zm.0239,5.41309a5.01224,5.01224,0,0,0,1.17821.13381,3.5694,3.5694,0,0,0,1.58789-.30081,2.08251,2.08251,0,0,0,.9292-.91109,2.933,2.933,0,0,0,.3247-1.3965,2.59331,2.59331,0,0,0-.3061-1.3135,1.85346,1.85346,0,0,0-.9136-.7881,5.62991,5.62991,0,0,0-2.0029-.25681c-.2139,0-.4878.01171-.8213.03121v2.8174Q369.42189,305.17436,369.44579,306.75Z" transform="translate(-265.45361 -260.832)"/><path class="cls-1" d="M380.53029,307.04v.47661q-1.5828-.0513-2.0811-.0518l-2.2959.0518V307.04a5.26231,5.26231,0,0,0,1.0659-.07809.49519.49519,0,0,0,.2671-.1738,1.92433,1.92433,0,0,0,.1109-.7227q.00871-.15525.0381-2.1133v-3.4433q0-1.01221-.024-1.9795a2.30651,2.30651,0,0,0-.1074-.8369.51833.51833,0,0,0-.2754-.19341,5.45681,5.45681,0,0,0-1.0752-.07809v-.4766q1.41795.0528,2.1919.0528.74265,0,2.1851-.0528v.4766a5.41721,5.41721,0,0,0-1.0708.07809.49644.49644,0,0,0-.2622.17481,1.901,1.901,0,0,0-.1109.7217q-.011.1494-.0381,2.1133v3.4433q0,1.0137.0225,1.9717a2.416,2.416,0,0,0,.1074.8408.50205.50205,0,0,0,.2769.1973A5.28046,5.28046,0,0,0,380.53029,307.04Z" transform="translate(-265.45361 -260.832)"/><path class="cls-1" d="M381.88479,307.51661v-.3877a2.37039,2.37039,0,0,0,.5835-.3408.36136.36136,0,0,0,.103-.1719,4.14454,4.14454,0,0,0,.0884-.8926q.03735-1.01955.0381-1.2129v-4.0019q0-1.01221-.024-1.9795a2.30674,2.30674,0,0,0-.1074-.8369.51643.51643,0,0,0-.27539-.19341,5.457,5.457,0,0,0-1.07521-.07809v-.4766q1.815.0528,2.2476.0528.47685,0,2.1367-.0528v.4766a5.46462,5.46462,0,0,0-1.0757.07809.49987.49987,0,0,0-.2646.17481,1.901,1.901,0,0,0-.1109.7217q-.01095.1494-.0381,2.1133v4.999q0,.78075.0381,1.2715c.565.0361,1.126.0518,1.6826.0518a11.00645,11.00645,0,0,0,2.94051-.2666,3.62208,3.62208,0,0,0,.17139-.5147l.2978-1.2363h.4985q-.1647,1.1103-.3203,2.6064a4.24509,4.24509,0,0,1-.4843.0742c-.2579.0157-.6548.0225-1.1914.0225l-4.4068-.0518Q382.62274,307.46481,381.88479,307.51661Z" transform="translate(-265.45361 -260.832)"/><path class="cls-1" d="M394.98049,307.04v.47661c-1.0537-.0342-1.7486-.0518-2.0796-.0518l-2.2974.0518V307.04a5.24619,5.24619,0,0,0,1.0659-.07809.48981.48981,0,0,0,.2671-.1738,1.91039,1.91039,0,0,0,.1114-.7227q.0102-.15525.0375-2.1133v-3.4433q0-1.01221-.02239-1.9795a2.36886,2.36886,0,0,0-.10741-.8369.51713.51713,0,0,0-.2769-.19341,5.44444,5.44444,0,0,0-1.0752-.07809v-.4766q1.4202.0528,2.1934.0528.74116,0,2.1836-.0528v.4766a5.412,5.412,0,0,0-1.0694.07809.49515.49515,0,0,0-.2636.17481,1.92221,1.92221,0,0,0-.1109.7217q-.0087.1494-.03659,2.1133v3.4433q0,1.0137.02249,1.9717a2.35219,2.35219,0,0,0,.1074.8408.50357.50357,0,0,0,.2754.1973A5.29135,5.29135,0,0,0,394.98049,307.04Z" transform="translate(-265.45361 -260.832)"/><path class="cls-1" d="M396.24759,299.40921h-.462q-.0087-1.7784-.0747-2.4649.81225.03075,2.545.0752,1.4091.03074,1.8769.0293.50685,0,2.3447-.0449,1.333-.02775,1.9444-.0596c-.0606.55569-.0996,1.3789-.1192,2.4649h-.4765l-.0606-.7149c-.039-.4316-.0664-.6777-.082-.73631a.25612.25612,0,0,0-.0625-.12689.30069.30069,0,0,0-.12309-.0606c-.06831-.0137-.31731-.0332-.74411-.0586-.4277-.0254-.7637-.0381-1.0127-.0381H400.832q-.07322.7149-.07221,1.9278v4.3505c0,.6758.0068,1.3321.0215,1.9727a2.353,2.353,0,0,0,.1083.8398.49792.49792,0,0,0,.2745.1973,5.30849,5.30849,0,0,0,1.0761.07809v.47661q-1.3329-.06-2.0029-.05861c-.19429,0-.9668.01861-2.3232.05861V307.04a5.3376,5.3376,0,0,0,1.0752-.07809.44753.44753,0,0,0,.25871-.1738,1.7795,1.7795,0,0,0,.11819-.7227q0-.15525.0361-2.1133v-4.3359c0-.209-.0039-.4365-.0136-.6855l-.0449-1.2569h-1.1084a12.04579,12.04579,0,0,0-1.5269.07519.32651.32651,0,0,0-.23049.09571,2.59939,2.59939,0,0,0-.14891.8125Z" transform="translate(-265.45361 -260.832)"/><path class="cls-1" d="M403.498,307.51661v-.5059a4.02179,4.02179,0,0,0,.73639-.0488.63037.63037,0,0,0,.26761-.1562,2.44922,2.44922,0,0,0,.35439-.5996q.13335-.2754.9698-2.0918l1.8633-4.19931q.30465-.69134,1.3046-3.081h.4766l3.1836,7.46581q.7734,1.81635,1.0293,2.2793a.77221.77221,0,0,0,.3086.3418,2.21551,2.21551,0,0,0,.75681.0898v.5059q-1.16312-.0732-1.626-.0742l-2.39941.0742v-.5059a8.32426,8.32426,0,0,0,1.0127-.05171.44749.44749,0,0,0,.2422-.10839.252.252,0,0,0,.06451-.1758,1.20007,1.20007,0,0,0-.10551-.42381l-.9141-2.27829h-4.3115l-.8096,1.913a2.22616,2.22616,0,0,0-.2148.753.24789.24789,0,0,0,.0586.1709.44407.44407,0,0,0,.25291.1338,5.64544,5.64544,0,0,0,.96979.0673v.5059q-1.25985-.06735-1.88679-.0674Q404.35838,307.44921,403.498,307.51661Zm3.47079-4.1758h3.7529l-1.8545-4.4814Z" transform="translate(-265.45361 -260.832)"/><path class="cls-1" d="M414.47459,299.40921h-.4609q-.00885-1.7784-.0762-2.4649.813.03075,2.5469.0752,1.4091.03074,1.876.0293.5067,0,2.3457-.0449,1.3329-.02775,1.9443-.0596c-.0606.55569-.0996,1.3789-.1211,2.4649h-.4746l-.0606-.7149c-.039-.4316-.0673-.6777-.082-.73631a.24741.24741,0,0,0-.0635-.12689.29541.29541,0,0,0-.122-.0606q-.1041-.02055-.7452-.0586-.64005-.0381-1.0117-.0381h-.9092q-.0732.7149-.0742,1.9278v4.3505c0,.6758.0078,1.3321.0215,1.9727a2.41549,2.41549,0,0,0,.1094.8398.49635.49635,0,0,0,.2754.1973,5.29388,5.29388,0,0,0,1.0762.07809v.47661q-1.333-.06-2.004-.05861-.28995,0-2.3222.05861V307.04a5.32429,5.32429,0,0,0,1.0742-.07809.4575.4575,0,0,0,.2598-.1738,1.79982,1.79982,0,0,0,.1181-.7227q0-.15525.0362-2.1133v-4.3359c0-.209-.00389-.4365-.0157-.6855l-.0429-1.2569h-1.1094a12.073,12.073,0,0,0-1.5274.07519.31711.31711,0,0,0-.22849.09571,2.57738,2.57738,0,0,0-.14941.8125Z" transform="translate(-265.45361 -260.832)"/><path class="cls-1" d="M427.68949,307.04v.47661c-1.0547-.0342-1.75-.0518-2.0801-.0518l-2.2969.0518V307.04a5.248,5.248,0,0,0,1.0654-.07809.4879.4879,0,0,0,.2666-.1738,1.87924,1.87924,0,0,0,.1114-.7227q.0117-.15525.038-2.1133v-3.4433q0-1.01221-.0224-1.9795a2.38152,2.38152,0,0,0-.1074-.8369.52046.52046,0,0,0-.2774-.19341,5.43945,5.43945,0,0,0-1.0742-.07809v-.4766c.9453.0352,1.6777.0528,2.1924.0528.49411,0,1.2236-.0176,2.1846-.0528v.4766a5.4214,5.4214,0,0,0-1.0704.07809.50122.50122,0,0,0-.2636.17481,1.92574,1.92574,0,0,0-.1104.7217q-.0102.1494-.03709,2.1133v3.4433q0,1.0137.02249,1.9717a2.36468,2.36468,0,0,0,.1074.8408.50721.50721,0,0,0,.2754.1973A5.30134,5.30134,0,0,0,427.68949,307.04Z" transform="translate(-265.45361 -260.832)"/><path class="cls-1" d="M428.46479,302.29791a6.47287,6.47287,0,0,1,.3526-2.17391,4.632,4.632,0,0,1,1.1728-1.79389,5.51466,5.51466,0,0,1,1.8536-1.20311,6.458,6.458,0,0,1,2.3691-.40529,6.84094,6.84094,0,0,1,2.2324.3457,4.835,4.835,0,0,1,1.6485.916,4.6421,4.6421,0,0,1,1.0156,1.2471,4.72575,4.72575,0,0,1,.4511,1.1904,6.18671,6.18671,0,0,1,.168,1.4668,5.63089,5.63089,0,0,1-1.68749,4.1777,5.80039,5.80039,0,0,1-4.25391,1.668,6.14985,6.14985,0,0,1-2.1816-.3809,4.42942,4.42942,0,0,1-1.711-1.1269,4.9685,4.9685,0,0,1-1.0664-1.8164A6.50813,6.50813,0,0,1,428.46479,302.29791Zm1.5469-.6172a7.51758,7.51758,0,0,0,.1426,1.4365,6.726,6.726,0,0,0,.3564,1.25679,4.6809,4.6809,0,0,0,.9346,1.501,3.66846,3.66846,0,0,0,1.2891.89361,4.16039,4.16039,0,0,0,1.5742.2861,3.69462,3.69462,0,0,0,2.084-.584,3.51374,3.51374,0,0,0,1.3222-1.6455,6.42269,6.42269,0,0,0,.4356-2.4453,7.27987,7.27987,0,0,0-.3125-2.1817,4.56314,4.56314,0,0,0-.5156-1.1054,3.504,3.504,0,0,0-1.9121-1.4844,4.47559,4.47559,0,0,0-1.5264-.2549,3.9995,3.9995,0,0,0-2.0772.5303,3.29212,3.29212,0,0,0-1.3437,1.5283A5.47,5.47,0,0,0,430.01169,301.68071Z" transform="translate(-265.45361 -260.832)"/><path class="cls-1" d="M440.50979,307.51661V307.04a3.077,3.077,0,0,0,1.0341-.11909.27594.27594,0,0,0,.1485-.1406,2.62678,2.62678,0,0,0,.1055-.77931q.0366-.98144.03611-1.69339v-6.0547a1.12325,1.12325,0,0,0-.02741-.3183,1.076,1.076,0,0,0-.2695-.3203.6528.6528,0,0,0-.3086-.1524,5.94786,5.94786,0,0,0-.7793-.041v-.4766q1.2876.03075,1.6192.0303.5625,0,1.1171-.0303c.417.5498.7217.9551.918,1.2178l1.52151,1.8945,2.21969,2.7022q1.065,1.29045,1.7119,2.03419c.2745.32711.5049.583.69141.77241v-5.4218c0-.4844-.01851-1.0538-.05171-1.7061a2.85577,2.85577,0,0,0-.0967-.7637.31841.31841,0,0,0-.1572-.1416,3.26775,3.26775,0,0,0-1.0205-.1113v-.4766q.88035.03075,1.7802.0303c.5655,0,1.0801-.0098,1.5411-.0303v.4766a3.26359,3.26359,0,0,0-1.0264.1123.27321.27321,0,0,0-.1494.1475,2.51791,2.51791,0,0,0-.1045.7812q-.0381.98145-.0371,1.6875v3.5762q0,1.0839.0371,4.0508l-.7666-.2217-.1797-.0381a.26711.26711,0,0,1-.0811-.0449,3.072,3.072,0,0,1-.2832-.3008q-.61815-.709-.9082-1.0684l-.9609-1.22651-5.2773-6.375v5.77051c0,.4912.0156,1.0713.0517,1.7383a2.74187,2.74187,0,0,0,.0967.7666.301.301,0,0,0,.1562.1504,3.13024,3.13024,0,0,0,1.0196.11319v.47661q-.6534-.0513-1.4453-.0518Q441.52334,307.46481,440.50979,307.51661Z" transform="translate(-265.45361 -260.832)"/><path class="cls-1" d="M457.96289,307.51661V307.04a3.07475,3.07475,0,0,0,1.0332-.11909.28.28,0,0,0,.1504-.1406,2.71039,2.71039,0,0,0,.10451-.77931q.03508-.98144.03609-1.69339v-6.0547a.61982.61982,0,0,0-.2969-.6386.66107.66107,0,0,0-.3086-.1524,5.94522,5.94522,0,0,0-.7793-.041v-.4766q1.2876.03075,1.6182.0303c.376,0,.7471-.0098,1.1182-.0303q.624.8247.9179,1.2178l1.5215,1.8945,2.2188,2.7022q1.06635,1.29045,1.7129,2.03419c.2754.32711.5039.583.6904.77241v-5.4218q0-.7266-.0518-1.7061a2.85742,2.85742,0,0,0-.0966-.7637.325.325,0,0,0-.1563-.1416,3.26771,3.26771,0,0,0-1.02049-.1113v-.4766q.87883.03075,1.77929.0303.8496,0,1.541-.0303v.4766a3.261,3.261,0,0,0-1.0254.1123.27643.27643,0,0,0-.1494.1475,2.51767,2.51767,0,0,0-.10449.7812q-.03812.98145-.03711,1.6875v3.5762q0,1.0839.03711,4.0508l-.76761-.2217-.1796-.0381a.25976.25976,0,0,1-.0801-.0449,2.81517,2.81517,0,0,1-.2832-.3008q-.61815-.709-.9082-1.0684l-.9619-1.22651-5.27839-6.375v5.77051q0,.7368.05279,1.7383a2.78035,2.78035,0,0,0,.0966.7666.30853.30853,0,0,0,.1563.1504,3.13256,3.13256,0,0,0,1.0205.11319v.47661q-.65625-.0513-1.4453-.0518Q458.97509,307.46481,457.96289,307.51661Z" transform="translate(-265.45361 -260.832)"/><path class="cls-1" d="M470.48829,307.51661V307.04a3.03176,3.03176,0,0,0,1.0273-.11909.27256.27256,0,0,0,.1485-.1406,2.58779,2.58779,0,0,0,.1035-.78131c.0312-.65329.0449-1.21869.0449-1.69429v-3.7979c0-.67481-.0068-1.333-.02149-1.9785a2.34387,2.34387,0,0,0-.10741-.8359.5136.5136,0,0,0-.2754-.19341,5.48758,5.48758,0,0,0-1.0771-.07809v-.4766l2.122.045,2.249-.0372q1.6158-.0219,2.3458-.0224a11.19824,11.19824,0,0,1,1.3916.083,5.56882,5.56882,0,0,0-.1641.73629q-.0147.06736-.1328,1.54891h-.4707a7.79927,7.79927,0,0,0-.0967-1.3848,3.30424,3.30424,0,0,0-.9004-.2305,13.26718,13.26718,0,0,0-1.667-.1045c-.1201,0-.38479.0098-.7969.0303-.4121.0195-.708.0361-.8847.0508-.0215.54879-.03619,1.0644-.0449,1.5429L473.25,301.71q.87163.05116,1.60159.05171a12.08858,12.08858,0,0,0,1.5117-.081.455.455,0,0,0,.30471-.1202,1.77542,1.77542,0,0,0,.11909-.6103l.043-.5215h.4472v.1416l-.0371,1.5479.0371,1.7353h-.5195l-.0244-.5058a1.70325,1.70325,0,0,0-.0986-.6856.4865.4865,0,0,0-.3243-.1855,9.66011,9.66011,0,0,0-1.64449-.0899c-.334,0-.80471.0127-1.416.0381q-.03812.74415-.03711,2.2109,0,1.377.03711,2.0918,1.07083.08205,2.40139.0821a10.38164,10.38164,0,0,0,1.3447-.05961,3.10589,3.10589,0,0,0,.7441-.20119,4.496,4.496,0,0,0,.17781-.625q.16393-.6636.21579-.997h.499a20.19534,20.19534,0,0,0-.1933,2.4921,10.62426,10.62426,0,0,1-1.5567.0977l-4.4433-.0518Q472.34126,307.46481,470.48829,307.51661Z" transform="translate(-265.45361 -260.832)"/><path class="cls-1" d="M480.13669,299.40921h-.4619q-.00885-1.7784-.0742-2.4649.8115.03075,2.5459.0752c.93751.02049,1.5644.0293,1.876.0293q.5082,0,2.3447-.0449,1.33305-.02775,1.9433-.0596c-.05949.55569-.0986,1.3789-.1191,2.4649h-.4756l-.0605-.7149c-.0391-.4316-.0655-.6777-.0811-.73631a.273.273,0,0,0-.0625-.12689.321.321,0,0,0-.123-.0606q-.10545-.02055-.7451-.0586c-.4278-.0254-.7647-.0381-1.0127-.0381h-.9082q-.0747.7149-.0743,1.9278v4.3505c0,.6758.0079,1.3321.0215,1.9727a2.34173,2.34173,0,0,0,.1094.8398.49829.49829,0,0,0,.2734.1973,5.33239,5.33239,0,0,0,1.0772.07809v.47661q-1.333-.06-2.00289-.05861c-.19441,0-.96681.01861-2.32431.05861V307.04a5.34254,5.34254,0,0,0,1.0762-.07809.45082.45082,0,0,0,.2588-.1738,1.79942,1.79942,0,0,0,.1182-.7227q0-.15525.03711-2.1133v-4.3359c0-.209-.00591-.4365-.01471-.6855l-.0449-1.2569H482.125a12.04857,12.04857,0,0,0-1.52731.07519.33066.33066,0,0,0-.2305.09571,2.61579,2.61579,0,0,0-.1484.8125Z" transform="translate(-265.45361 -260.832)"/><path class="cls-1" d="M492.00879,307.59861l-.67679-3.1025-1.43751-6.12211a1.79678,1.79678,0,0,0-.2978-.77149,2.30067,2.30067,0,0,0-.9229-.2109v-.4473q1.251.0528,1.8907.0528.5742,0,1.93551-.0528v.4473a4.65956,4.65956,0,0,0-1.125.1113.21818.21818,0,0,0-.09571.209,4.10652,4.10652,0,0,0,.0889.66209c.165.88671.2744,1.45121.3291,1.68851l1.1699,5.1514,1.8379-4.5772q.7206-1.8003,1.42091-3.80271h.47749q.68415,2.11231,1.22851,3.624l1.75,4.85251,1.26569-4.43751q.3369-1.18934.6259-2.47749a5.99082,5.99082,0,0,0,.1338-.6768.23705.23705,0,0,0-.1308-.2265,5.01865,5.01865,0,0,0-1.18559-.1006v-.4473c.76269.0352,1.29489.0528,1.59179.0528.3086,0,.8379-.0176,1.5918-.0528v.4473a1.66349,1.66349,0,0,0-.6855.1035.71029.71029,0,0,0-.2813.3496q-.1143.25485-.6269,1.9649l-.7666,2.5078c-.0752.2461-.2305.8105-.4698,1.6885l-.959,3.5927h-.7597q-.82618-2.45791-1.2793-3.6933l-1.6992-4.5938-1.4805,3.6797-.9316,2.4336q-.19335.498-.3301.8906-.1377.3897-.4453,1.2832Z" transform="translate(-265.45361 -260.832)"/><path class="cls-1" d="M503.62989,302.29791a6.44808,6.44808,0,0,1,.3545-2.17391,4.65,4.65,0,0,1,1.1719-1.79389,5.532,5.532,0,0,1,1.8535-1.20311,6.45284,6.45284,0,0,1,2.3681-.40529,6.83,6.83,0,0,1,2.2334.3457,4.8611,4.8611,0,0,1,1.6504.916,4.67272,4.67272,0,0,1,1.0147,1.2471,4.76793,4.76793,0,0,1,.4502,1.1904,6.14052,6.14052,0,0,1,.1679,1.4668,5.63388,5.63388,0,0,1-1.68649,4.1777,5.80271,5.80271,0,0,1-4.25491,1.668,6.14828,6.14828,0,0,1-2.1806-.3809,4.43313,4.43313,0,0,1-1.712-1.1269,4.96659,4.96659,0,0,1-1.0654-1.8164A6.51151,6.51151,0,0,1,503.62989,302.29791Zm1.5478-.6172a7.51758,7.51758,0,0,0,.1426,1.4365,6.72474,6.72474,0,0,0,.3565,1.25679,4.64854,4.64854,0,0,0,.9365,1.501,3.65245,3.65245,0,0,0,1.2871.89361,4.1604,4.1604,0,0,0,1.5742.2861,3.7,3.7,0,0,0,2.085-.584,3.51265,3.51265,0,0,0,1.3213-1.6455,6.38676,6.38676,0,0,0,.4345-2.4453,7.28028,7.28028,0,0,0-.3115-2.1817,4.67051,4.67051,0,0,0-.5137-1.1054,3.822,3.822,0,0,0-.7627-.8633,3.75947,3.75947,0,0,0-1.1513-.6211,4.46734,4.46734,0,0,0-1.5264-.2549,4.004,4.004,0,0,0-2.0771.5303,3.29239,3.29239,0,0,0-1.3438,1.5283A5.502,5.502,0,0,0,505.17769,301.68071Z" transform="translate(-265.45361 -260.832)"/><path class="cls-1" d="M515.58689,297.42091v-.4766c.1944.0059.4893.0118.8858.0205l1.4306.0323c.2813,0,.72071-.0078,1.3164-.0274.7754-.0254,1.2237-.04,1.3467-.04a6.18881,6.18881,0,0,1,2.0762.2539,2.02269,2.02269,0,0,1,1.0078.8223,2.29609,2.29609,0,0,1,.3574,1.2392,2.57989,2.57989,0,0,1-.3359,1.2442,2.79951,2.79951,0,0,1-.9707,1.0263,5.0426,5.0426,0,0,1-1.6563.6319q.1875.2607.8789,1.1601l1.877,2.4668q.80265,1.0356.9375,1.1543a.43434.43434,0,0,0,.1338.0742,1.98436,1.98436,0,0,0,.4902.03709v.47661c-.376-.0342-.7031-.0518-.9844-.0518-.292,0-.6494.0176-1.0742.0518q-.4848-.55815-1.626-2.1777-.6342-.9009-1.1201-1.502-.7836-.996-1.4941-1.8066l.0752-.2237c.2578.0147.4551.0225.5879.0225a2.949,2.949,0,0,0,2.0547-.6406,2.18393,2.18393,0,0,0,.7001-1.68951,1.86165,1.86165,0,0,0-.6025-1.457,2.67427,2.67427,0,0,0-1.8242-.53909,5.01517,5.01517,0,0,0-1.5039.2315c-.0215.26659-.0352.51759-.0449.751-.00489.0683-.0235.791-.0518,2.164v3.3027c0,.6758.0117,1.3321.0361,1.9727a2.36135,2.36135,0,0,0,.1006.8398.49931.49931,0,0,0,.2764.1973,5.29086,5.29086,0,0,0,1.0674.07809v.47661q-1.05615-.0513-1.9424-.0518-.7149,0-2.4053.0518V307.04a5.23133,5.23133,0,0,0,1.0654-.07809.491.491,0,0,0,.2676-.1738,1.89989,1.89989,0,0,0,.1114-.7227q.0102-.15525.0371-2.1133v-3.4433c0-.67481-.0059-1.334-.0215-1.9795a2.38152,2.38152,0,0,0-.1074-.8369.52041.52041,0,0,0-.2774-.19341A5.44444,5.44444,0,0,0,515.58689,297.42091Z" transform="translate(-265.45361 -260.832)"/><path class="cls-1" d="M530.17189,307.04v.47661l-2.2481-.0518q-.23145,0-2.1074.0518V307.04a5.253,5.253,0,0,0,1.0664-.07809.48828.48828,0,0,0,.2666-.1738,1.9065,1.9065,0,0,0,.1104-.7227q.0117-.15525.0381-2.1133v-3.4433q0-1.01221-.0225-1.9795a2.382,2.382,0,0,0-.10739-.8369.51051.51051,0,0,0-.27641-.19341,5.45327,5.45327,0,0,0-1.0752-.07809v-.4766q1.44435.0528,2.2119.0528.75885,0,2.1436-.0528v.4766a5.41744,5.41744,0,0,0-1.0664.07809.45612.45612,0,0,0-.2598.17481,1.75909,1.75909,0,0,0-.1172.7217q0,.1479-.039,2.1094v1.5322a4.51937,4.51937,0,0,0,.9531-.7607l.9385-.9209,1.6601-1.6817c.6406-.6494,1.0352-1.0654,1.1846-1.2529v-.4766c.5898.0205,1.0547.0303,1.3916.0303.3623,0,.7529-.0098,1.1689-.0303v.4766a4.8376,4.8376,0,0,0-.9531.0605,1.4392,1.4392,0,0,0-.4844.2227q-.4746.3501-1.458,1.251l-2.9707,2.7168,4.4668,4.1845q1.0782,1.0122,1.2276,1.10259a1.29371,1.29371,0,0,0,.5742.09571v.4619c-.4873-.0195-.8116-.0293-.9756-.0293-.1826,0-.5713.0098-1.16109.0293q-.17-.17145-1.24421-1.1982l-.7666-.7373-3.3799-3.1719-.1718.0967v1.4443q0,1.01369.039,1.9736a2.33453,2.33453,0,0,0,.0986.8408.49785.49785,0,0,0,.2784.1973A5.253,5.253,0,0,0,530.17189,307.04Z" transform="translate(-265.45361 -260.832)"/></svg>